G04 #@! TF.GenerationSoftware,KiCad,Pcbnew,(5.1.5)-3*
G04 #@! TF.CreationDate,2020-10-24T18:19:01+09:00*
G04 #@! TF.ProjectId,wallswitch_schematic_alpha,77616c6c-7377-4697-9463-685f73636865,rev?*
G04 #@! TF.SameCoordinates,Original*
G04 #@! TF.FileFunction,Paste,Top*
G04 #@! TF.FilePolarity,Positive*
%FSLAX46Y46*%
G04 Gerber Fmt 4.6, Leading zero omitted, Abs format (unit mm)*
G04 Created by KiCad (PCBNEW (5.1.5)-3) date 2020-10-24 18:19:01*
%MOMM*%
%LPD*%
G04 APERTURE LIST*
%ADD10R,5.000000X5.000000*%
%ADD11R,0.900000X2.000000*%
%ADD12R,2.000000X0.900000*%
%ADD13C,0.100000*%
%ADD14R,1.500000X1.500000*%
G04 APERTURE END LIST*
D10*
X218215000Y-108080000D03*
D11*
X225715000Y-100580000D03*
X224445000Y-100580000D03*
X223175000Y-100580000D03*
X221905000Y-100580000D03*
X220635000Y-100580000D03*
X219365000Y-100580000D03*
X218095000Y-100580000D03*
X216825000Y-100580000D03*
X215555000Y-100580000D03*
X214285000Y-100580000D03*
X213015000Y-100580000D03*
X211745000Y-100580000D03*
X210475000Y-100580000D03*
X209205000Y-100580000D03*
D12*
X208205000Y-103365000D03*
X208205000Y-104635000D03*
X208205000Y-105905000D03*
X208205000Y-107175000D03*
X208205000Y-108445000D03*
X208205000Y-109715000D03*
X208205000Y-110985000D03*
X208205000Y-112255000D03*
X208205000Y-113525000D03*
X208205000Y-114795000D03*
D11*
X209205000Y-117580000D03*
X210475000Y-117580000D03*
X211745000Y-117580000D03*
X213015000Y-117580000D03*
X214285000Y-117580000D03*
X215555000Y-117580000D03*
X216825000Y-117580000D03*
X218095000Y-117580000D03*
X219365000Y-117580000D03*
X220635000Y-117580000D03*
X221905000Y-117580000D03*
X223175000Y-117580000D03*
X224445000Y-117580000D03*
X225715000Y-117580000D03*
D13*
G36*
X166857191Y-115269553D02*
G01*
X166878426Y-115272703D01*
X166899250Y-115277919D01*
X166919462Y-115285151D01*
X166938868Y-115294330D01*
X166957281Y-115305366D01*
X166974524Y-115318154D01*
X166990430Y-115332570D01*
X167004846Y-115348476D01*
X167017634Y-115365719D01*
X167028670Y-115384132D01*
X167037849Y-115403538D01*
X167045081Y-115423750D01*
X167050297Y-115444574D01*
X167053447Y-115465809D01*
X167054500Y-115487250D01*
X167054500Y-115924750D01*
X167053447Y-115946191D01*
X167050297Y-115967426D01*
X167045081Y-115988250D01*
X167037849Y-116008462D01*
X167028670Y-116027868D01*
X167017634Y-116046281D01*
X167004846Y-116063524D01*
X166990430Y-116079430D01*
X166974524Y-116093846D01*
X166957281Y-116106634D01*
X166938868Y-116117670D01*
X166919462Y-116126849D01*
X166899250Y-116134081D01*
X166878426Y-116139297D01*
X166857191Y-116142447D01*
X166835750Y-116143500D01*
X166323250Y-116143500D01*
X166301809Y-116142447D01*
X166280574Y-116139297D01*
X166259750Y-116134081D01*
X166239538Y-116126849D01*
X166220132Y-116117670D01*
X166201719Y-116106634D01*
X166184476Y-116093846D01*
X166168570Y-116079430D01*
X166154154Y-116063524D01*
X166141366Y-116046281D01*
X166130330Y-116027868D01*
X166121151Y-116008462D01*
X166113919Y-115988250D01*
X166108703Y-115967426D01*
X166105553Y-115946191D01*
X166104500Y-115924750D01*
X166104500Y-115487250D01*
X166105553Y-115465809D01*
X166108703Y-115444574D01*
X166113919Y-115423750D01*
X166121151Y-115403538D01*
X166130330Y-115384132D01*
X166141366Y-115365719D01*
X166154154Y-115348476D01*
X166168570Y-115332570D01*
X166184476Y-115318154D01*
X166201719Y-115305366D01*
X166220132Y-115294330D01*
X166239538Y-115285151D01*
X166259750Y-115277919D01*
X166280574Y-115272703D01*
X166301809Y-115269553D01*
X166323250Y-115268500D01*
X166835750Y-115268500D01*
X166857191Y-115269553D01*
G37*
G36*
X166857191Y-113694553D02*
G01*
X166878426Y-113697703D01*
X166899250Y-113702919D01*
X166919462Y-113710151D01*
X166938868Y-113719330D01*
X166957281Y-113730366D01*
X166974524Y-113743154D01*
X166990430Y-113757570D01*
X167004846Y-113773476D01*
X167017634Y-113790719D01*
X167028670Y-113809132D01*
X167037849Y-113828538D01*
X167045081Y-113848750D01*
X167050297Y-113869574D01*
X167053447Y-113890809D01*
X167054500Y-113912250D01*
X167054500Y-114349750D01*
X167053447Y-114371191D01*
X167050297Y-114392426D01*
X167045081Y-114413250D01*
X167037849Y-114433462D01*
X167028670Y-114452868D01*
X167017634Y-114471281D01*
X167004846Y-114488524D01*
X166990430Y-114504430D01*
X166974524Y-114518846D01*
X166957281Y-114531634D01*
X166938868Y-114542670D01*
X166919462Y-114551849D01*
X166899250Y-114559081D01*
X166878426Y-114564297D01*
X166857191Y-114567447D01*
X166835750Y-114568500D01*
X166323250Y-114568500D01*
X166301809Y-114567447D01*
X166280574Y-114564297D01*
X166259750Y-114559081D01*
X166239538Y-114551849D01*
X166220132Y-114542670D01*
X166201719Y-114531634D01*
X166184476Y-114518846D01*
X166168570Y-114504430D01*
X166154154Y-114488524D01*
X166141366Y-114471281D01*
X166130330Y-114452868D01*
X166121151Y-114433462D01*
X166113919Y-114413250D01*
X166108703Y-114392426D01*
X166105553Y-114371191D01*
X166104500Y-114349750D01*
X166104500Y-113912250D01*
X166105553Y-113890809D01*
X166108703Y-113869574D01*
X166113919Y-113848750D01*
X166121151Y-113828538D01*
X166130330Y-113809132D01*
X166141366Y-113790719D01*
X166154154Y-113773476D01*
X166168570Y-113757570D01*
X166184476Y-113743154D01*
X166201719Y-113730366D01*
X166220132Y-113719330D01*
X166239538Y-113710151D01*
X166259750Y-113702919D01*
X166280574Y-113697703D01*
X166301809Y-113694553D01*
X166323250Y-113693500D01*
X166835750Y-113693500D01*
X166857191Y-113694553D01*
G37*
G36*
X208737691Y-94931053D02*
G01*
X208758926Y-94934203D01*
X208779750Y-94939419D01*
X208799962Y-94946651D01*
X208819368Y-94955830D01*
X208837781Y-94966866D01*
X208855024Y-94979654D01*
X208870930Y-94994070D01*
X208885346Y-95009976D01*
X208898134Y-95027219D01*
X208909170Y-95045632D01*
X208918349Y-95065038D01*
X208925581Y-95085250D01*
X208930797Y-95106074D01*
X208933947Y-95127309D01*
X208935000Y-95148750D01*
X208935000Y-95586250D01*
X208933947Y-95607691D01*
X208930797Y-95628926D01*
X208925581Y-95649750D01*
X208918349Y-95669962D01*
X208909170Y-95689368D01*
X208898134Y-95707781D01*
X208885346Y-95725024D01*
X208870930Y-95740930D01*
X208855024Y-95755346D01*
X208837781Y-95768134D01*
X208819368Y-95779170D01*
X208799962Y-95788349D01*
X208779750Y-95795581D01*
X208758926Y-95800797D01*
X208737691Y-95803947D01*
X208716250Y-95805000D01*
X208203750Y-95805000D01*
X208182309Y-95803947D01*
X208161074Y-95800797D01*
X208140250Y-95795581D01*
X208120038Y-95788349D01*
X208100632Y-95779170D01*
X208082219Y-95768134D01*
X208064976Y-95755346D01*
X208049070Y-95740930D01*
X208034654Y-95725024D01*
X208021866Y-95707781D01*
X208010830Y-95689368D01*
X208001651Y-95669962D01*
X207994419Y-95649750D01*
X207989203Y-95628926D01*
X207986053Y-95607691D01*
X207985000Y-95586250D01*
X207985000Y-95148750D01*
X207986053Y-95127309D01*
X207989203Y-95106074D01*
X207994419Y-95085250D01*
X208001651Y-95065038D01*
X208010830Y-95045632D01*
X208021866Y-95027219D01*
X208034654Y-95009976D01*
X208049070Y-94994070D01*
X208064976Y-94979654D01*
X208082219Y-94966866D01*
X208100632Y-94955830D01*
X208120038Y-94946651D01*
X208140250Y-94939419D01*
X208161074Y-94934203D01*
X208182309Y-94931053D01*
X208203750Y-94930000D01*
X208716250Y-94930000D01*
X208737691Y-94931053D01*
G37*
G36*
X208737691Y-93356053D02*
G01*
X208758926Y-93359203D01*
X208779750Y-93364419D01*
X208799962Y-93371651D01*
X208819368Y-93380830D01*
X208837781Y-93391866D01*
X208855024Y-93404654D01*
X208870930Y-93419070D01*
X208885346Y-93434976D01*
X208898134Y-93452219D01*
X208909170Y-93470632D01*
X208918349Y-93490038D01*
X208925581Y-93510250D01*
X208930797Y-93531074D01*
X208933947Y-93552309D01*
X208935000Y-93573750D01*
X208935000Y-94011250D01*
X208933947Y-94032691D01*
X208930797Y-94053926D01*
X208925581Y-94074750D01*
X208918349Y-94094962D01*
X208909170Y-94114368D01*
X208898134Y-94132781D01*
X208885346Y-94150024D01*
X208870930Y-94165930D01*
X208855024Y-94180346D01*
X208837781Y-94193134D01*
X208819368Y-94204170D01*
X208799962Y-94213349D01*
X208779750Y-94220581D01*
X208758926Y-94225797D01*
X208737691Y-94228947D01*
X208716250Y-94230000D01*
X208203750Y-94230000D01*
X208182309Y-94228947D01*
X208161074Y-94225797D01*
X208140250Y-94220581D01*
X208120038Y-94213349D01*
X208100632Y-94204170D01*
X208082219Y-94193134D01*
X208064976Y-94180346D01*
X208049070Y-94165930D01*
X208034654Y-94150024D01*
X208021866Y-94132781D01*
X208010830Y-94114368D01*
X208001651Y-94094962D01*
X207994419Y-94074750D01*
X207989203Y-94053926D01*
X207986053Y-94032691D01*
X207985000Y-94011250D01*
X207985000Y-93573750D01*
X207986053Y-93552309D01*
X207989203Y-93531074D01*
X207994419Y-93510250D01*
X208001651Y-93490038D01*
X208010830Y-93470632D01*
X208021866Y-93452219D01*
X208034654Y-93434976D01*
X208049070Y-93419070D01*
X208064976Y-93404654D01*
X208082219Y-93391866D01*
X208100632Y-93380830D01*
X208120038Y-93371651D01*
X208140250Y-93364419D01*
X208161074Y-93359203D01*
X208182309Y-93356053D01*
X208203750Y-93355000D01*
X208716250Y-93355000D01*
X208737691Y-93356053D01*
G37*
G36*
X211437691Y-93356053D02*
G01*
X211458926Y-93359203D01*
X211479750Y-93364419D01*
X211499962Y-93371651D01*
X211519368Y-93380830D01*
X211537781Y-93391866D01*
X211555024Y-93404654D01*
X211570930Y-93419070D01*
X211585346Y-93434976D01*
X211598134Y-93452219D01*
X211609170Y-93470632D01*
X211618349Y-93490038D01*
X211625581Y-93510250D01*
X211630797Y-93531074D01*
X211633947Y-93552309D01*
X211635000Y-93573750D01*
X211635000Y-94011250D01*
X211633947Y-94032691D01*
X211630797Y-94053926D01*
X211625581Y-94074750D01*
X211618349Y-94094962D01*
X211609170Y-94114368D01*
X211598134Y-94132781D01*
X211585346Y-94150024D01*
X211570930Y-94165930D01*
X211555024Y-94180346D01*
X211537781Y-94193134D01*
X211519368Y-94204170D01*
X211499962Y-94213349D01*
X211479750Y-94220581D01*
X211458926Y-94225797D01*
X211437691Y-94228947D01*
X211416250Y-94230000D01*
X210903750Y-94230000D01*
X210882309Y-94228947D01*
X210861074Y-94225797D01*
X210840250Y-94220581D01*
X210820038Y-94213349D01*
X210800632Y-94204170D01*
X210782219Y-94193134D01*
X210764976Y-94180346D01*
X210749070Y-94165930D01*
X210734654Y-94150024D01*
X210721866Y-94132781D01*
X210710830Y-94114368D01*
X210701651Y-94094962D01*
X210694419Y-94074750D01*
X210689203Y-94053926D01*
X210686053Y-94032691D01*
X210685000Y-94011250D01*
X210685000Y-93573750D01*
X210686053Y-93552309D01*
X210689203Y-93531074D01*
X210694419Y-93510250D01*
X210701651Y-93490038D01*
X210710830Y-93470632D01*
X210721866Y-93452219D01*
X210734654Y-93434976D01*
X210749070Y-93419070D01*
X210764976Y-93404654D01*
X210782219Y-93391866D01*
X210800632Y-93380830D01*
X210820038Y-93371651D01*
X210840250Y-93364419D01*
X210861074Y-93359203D01*
X210882309Y-93356053D01*
X210903750Y-93355000D01*
X211416250Y-93355000D01*
X211437691Y-93356053D01*
G37*
G36*
X211437691Y-94931053D02*
G01*
X211458926Y-94934203D01*
X211479750Y-94939419D01*
X211499962Y-94946651D01*
X211519368Y-94955830D01*
X211537781Y-94966866D01*
X211555024Y-94979654D01*
X211570930Y-94994070D01*
X211585346Y-95009976D01*
X211598134Y-95027219D01*
X211609170Y-95045632D01*
X211618349Y-95065038D01*
X211625581Y-95085250D01*
X211630797Y-95106074D01*
X211633947Y-95127309D01*
X211635000Y-95148750D01*
X211635000Y-95586250D01*
X211633947Y-95607691D01*
X211630797Y-95628926D01*
X211625581Y-95649750D01*
X211618349Y-95669962D01*
X211609170Y-95689368D01*
X211598134Y-95707781D01*
X211585346Y-95725024D01*
X211570930Y-95740930D01*
X211555024Y-95755346D01*
X211537781Y-95768134D01*
X211519368Y-95779170D01*
X211499962Y-95788349D01*
X211479750Y-95795581D01*
X211458926Y-95800797D01*
X211437691Y-95803947D01*
X211416250Y-95805000D01*
X210903750Y-95805000D01*
X210882309Y-95803947D01*
X210861074Y-95800797D01*
X210840250Y-95795581D01*
X210820038Y-95788349D01*
X210800632Y-95779170D01*
X210782219Y-95768134D01*
X210764976Y-95755346D01*
X210749070Y-95740930D01*
X210734654Y-95725024D01*
X210721866Y-95707781D01*
X210710830Y-95689368D01*
X210701651Y-95669962D01*
X210694419Y-95649750D01*
X210689203Y-95628926D01*
X210686053Y-95607691D01*
X210685000Y-95586250D01*
X210685000Y-95148750D01*
X210686053Y-95127309D01*
X210689203Y-95106074D01*
X210694419Y-95085250D01*
X210701651Y-95065038D01*
X210710830Y-95045632D01*
X210721866Y-95027219D01*
X210734654Y-95009976D01*
X210749070Y-94994070D01*
X210764976Y-94979654D01*
X210782219Y-94966866D01*
X210800632Y-94955830D01*
X210820038Y-94946651D01*
X210840250Y-94939419D01*
X210861074Y-94934203D01*
X210882309Y-94931053D01*
X210903750Y-94930000D01*
X211416250Y-94930000D01*
X211437691Y-94931053D01*
G37*
D14*
X209860000Y-89180000D03*
X209860000Y-81380000D03*
X215060000Y-81380000D03*
X215060000Y-89180000D03*
D13*
G36*
X214137691Y-93343553D02*
G01*
X214158926Y-93346703D01*
X214179750Y-93351919D01*
X214199962Y-93359151D01*
X214219368Y-93368330D01*
X214237781Y-93379366D01*
X214255024Y-93392154D01*
X214270930Y-93406570D01*
X214285346Y-93422476D01*
X214298134Y-93439719D01*
X214309170Y-93458132D01*
X214318349Y-93477538D01*
X214325581Y-93497750D01*
X214330797Y-93518574D01*
X214333947Y-93539809D01*
X214335000Y-93561250D01*
X214335000Y-93998750D01*
X214333947Y-94020191D01*
X214330797Y-94041426D01*
X214325581Y-94062250D01*
X214318349Y-94082462D01*
X214309170Y-94101868D01*
X214298134Y-94120281D01*
X214285346Y-94137524D01*
X214270930Y-94153430D01*
X214255024Y-94167846D01*
X214237781Y-94180634D01*
X214219368Y-94191670D01*
X214199962Y-94200849D01*
X214179750Y-94208081D01*
X214158926Y-94213297D01*
X214137691Y-94216447D01*
X214116250Y-94217500D01*
X213603750Y-94217500D01*
X213582309Y-94216447D01*
X213561074Y-94213297D01*
X213540250Y-94208081D01*
X213520038Y-94200849D01*
X213500632Y-94191670D01*
X213482219Y-94180634D01*
X213464976Y-94167846D01*
X213449070Y-94153430D01*
X213434654Y-94137524D01*
X213421866Y-94120281D01*
X213410830Y-94101868D01*
X213401651Y-94082462D01*
X213394419Y-94062250D01*
X213389203Y-94041426D01*
X213386053Y-94020191D01*
X213385000Y-93998750D01*
X213385000Y-93561250D01*
X213386053Y-93539809D01*
X213389203Y-93518574D01*
X213394419Y-93497750D01*
X213401651Y-93477538D01*
X213410830Y-93458132D01*
X213421866Y-93439719D01*
X213434654Y-93422476D01*
X213449070Y-93406570D01*
X213464976Y-93392154D01*
X213482219Y-93379366D01*
X213500632Y-93368330D01*
X213520038Y-93359151D01*
X213540250Y-93351919D01*
X213561074Y-93346703D01*
X213582309Y-93343553D01*
X213603750Y-93342500D01*
X214116250Y-93342500D01*
X214137691Y-93343553D01*
G37*
G36*
X214137691Y-94918553D02*
G01*
X214158926Y-94921703D01*
X214179750Y-94926919D01*
X214199962Y-94934151D01*
X214219368Y-94943330D01*
X214237781Y-94954366D01*
X214255024Y-94967154D01*
X214270930Y-94981570D01*
X214285346Y-94997476D01*
X214298134Y-95014719D01*
X214309170Y-95033132D01*
X214318349Y-95052538D01*
X214325581Y-95072750D01*
X214330797Y-95093574D01*
X214333947Y-95114809D01*
X214335000Y-95136250D01*
X214335000Y-95573750D01*
X214333947Y-95595191D01*
X214330797Y-95616426D01*
X214325581Y-95637250D01*
X214318349Y-95657462D01*
X214309170Y-95676868D01*
X214298134Y-95695281D01*
X214285346Y-95712524D01*
X214270930Y-95728430D01*
X214255024Y-95742846D01*
X214237781Y-95755634D01*
X214219368Y-95766670D01*
X214199962Y-95775849D01*
X214179750Y-95783081D01*
X214158926Y-95788297D01*
X214137691Y-95791447D01*
X214116250Y-95792500D01*
X213603750Y-95792500D01*
X213582309Y-95791447D01*
X213561074Y-95788297D01*
X213540250Y-95783081D01*
X213520038Y-95775849D01*
X213500632Y-95766670D01*
X213482219Y-95755634D01*
X213464976Y-95742846D01*
X213449070Y-95728430D01*
X213434654Y-95712524D01*
X213421866Y-95695281D01*
X213410830Y-95676868D01*
X213401651Y-95657462D01*
X213394419Y-95637250D01*
X213389203Y-95616426D01*
X213386053Y-95595191D01*
X213385000Y-95573750D01*
X213385000Y-95136250D01*
X213386053Y-95114809D01*
X213389203Y-95093574D01*
X213394419Y-95072750D01*
X213401651Y-95052538D01*
X213410830Y-95033132D01*
X213421866Y-95014719D01*
X213434654Y-94997476D01*
X213449070Y-94981570D01*
X213464976Y-94967154D01*
X213482219Y-94954366D01*
X213500632Y-94943330D01*
X213520038Y-94934151D01*
X213540250Y-94926919D01*
X213561074Y-94921703D01*
X213582309Y-94918553D01*
X213603750Y-94917500D01*
X214116250Y-94917500D01*
X214137691Y-94918553D01*
G37*
G36*
X216837691Y-93356053D02*
G01*
X216858926Y-93359203D01*
X216879750Y-93364419D01*
X216899962Y-93371651D01*
X216919368Y-93380830D01*
X216937781Y-93391866D01*
X216955024Y-93404654D01*
X216970930Y-93419070D01*
X216985346Y-93434976D01*
X216998134Y-93452219D01*
X217009170Y-93470632D01*
X217018349Y-93490038D01*
X217025581Y-93510250D01*
X217030797Y-93531074D01*
X217033947Y-93552309D01*
X217035000Y-93573750D01*
X217035000Y-94011250D01*
X217033947Y-94032691D01*
X217030797Y-94053926D01*
X217025581Y-94074750D01*
X217018349Y-94094962D01*
X217009170Y-94114368D01*
X216998134Y-94132781D01*
X216985346Y-94150024D01*
X216970930Y-94165930D01*
X216955024Y-94180346D01*
X216937781Y-94193134D01*
X216919368Y-94204170D01*
X216899962Y-94213349D01*
X216879750Y-94220581D01*
X216858926Y-94225797D01*
X216837691Y-94228947D01*
X216816250Y-94230000D01*
X216303750Y-94230000D01*
X216282309Y-94228947D01*
X216261074Y-94225797D01*
X216240250Y-94220581D01*
X216220038Y-94213349D01*
X216200632Y-94204170D01*
X216182219Y-94193134D01*
X216164976Y-94180346D01*
X216149070Y-94165930D01*
X216134654Y-94150024D01*
X216121866Y-94132781D01*
X216110830Y-94114368D01*
X216101651Y-94094962D01*
X216094419Y-94074750D01*
X216089203Y-94053926D01*
X216086053Y-94032691D01*
X216085000Y-94011250D01*
X216085000Y-93573750D01*
X216086053Y-93552309D01*
X216089203Y-93531074D01*
X216094419Y-93510250D01*
X216101651Y-93490038D01*
X216110830Y-93470632D01*
X216121866Y-93452219D01*
X216134654Y-93434976D01*
X216149070Y-93419070D01*
X216164976Y-93404654D01*
X216182219Y-93391866D01*
X216200632Y-93380830D01*
X216220038Y-93371651D01*
X216240250Y-93364419D01*
X216261074Y-93359203D01*
X216282309Y-93356053D01*
X216303750Y-93355000D01*
X216816250Y-93355000D01*
X216837691Y-93356053D01*
G37*
G36*
X216837691Y-94931053D02*
G01*
X216858926Y-94934203D01*
X216879750Y-94939419D01*
X216899962Y-94946651D01*
X216919368Y-94955830D01*
X216937781Y-94966866D01*
X216955024Y-94979654D01*
X216970930Y-94994070D01*
X216985346Y-95009976D01*
X216998134Y-95027219D01*
X217009170Y-95045632D01*
X217018349Y-95065038D01*
X217025581Y-95085250D01*
X217030797Y-95106074D01*
X217033947Y-95127309D01*
X217035000Y-95148750D01*
X217035000Y-95586250D01*
X217033947Y-95607691D01*
X217030797Y-95628926D01*
X217025581Y-95649750D01*
X217018349Y-95669962D01*
X217009170Y-95689368D01*
X216998134Y-95707781D01*
X216985346Y-95725024D01*
X216970930Y-95740930D01*
X216955024Y-95755346D01*
X216937781Y-95768134D01*
X216919368Y-95779170D01*
X216899962Y-95788349D01*
X216879750Y-95795581D01*
X216858926Y-95800797D01*
X216837691Y-95803947D01*
X216816250Y-95805000D01*
X216303750Y-95805000D01*
X216282309Y-95803947D01*
X216261074Y-95800797D01*
X216240250Y-95795581D01*
X216220038Y-95788349D01*
X216200632Y-95779170D01*
X216182219Y-95768134D01*
X216164976Y-95755346D01*
X216149070Y-95740930D01*
X216134654Y-95725024D01*
X216121866Y-95707781D01*
X216110830Y-95689368D01*
X216101651Y-95669962D01*
X216094419Y-95649750D01*
X216089203Y-95628926D01*
X216086053Y-95607691D01*
X216085000Y-95586250D01*
X216085000Y-95148750D01*
X216086053Y-95127309D01*
X216089203Y-95106074D01*
X216094419Y-95085250D01*
X216101651Y-95065038D01*
X216110830Y-95045632D01*
X216121866Y-95027219D01*
X216134654Y-95009976D01*
X216149070Y-94994070D01*
X216164976Y-94979654D01*
X216182219Y-94966866D01*
X216200632Y-94955830D01*
X216220038Y-94946651D01*
X216240250Y-94939419D01*
X216261074Y-94934203D01*
X216282309Y-94931053D01*
X216303750Y-94930000D01*
X216816250Y-94930000D01*
X216837691Y-94931053D01*
G37*
G36*
X171207191Y-113694553D02*
G01*
X171228426Y-113697703D01*
X171249250Y-113702919D01*
X171269462Y-113710151D01*
X171288868Y-113719330D01*
X171307281Y-113730366D01*
X171324524Y-113743154D01*
X171340430Y-113757570D01*
X171354846Y-113773476D01*
X171367634Y-113790719D01*
X171378670Y-113809132D01*
X171387849Y-113828538D01*
X171395081Y-113848750D01*
X171400297Y-113869574D01*
X171403447Y-113890809D01*
X171404500Y-113912250D01*
X171404500Y-114349750D01*
X171403447Y-114371191D01*
X171400297Y-114392426D01*
X171395081Y-114413250D01*
X171387849Y-114433462D01*
X171378670Y-114452868D01*
X171367634Y-114471281D01*
X171354846Y-114488524D01*
X171340430Y-114504430D01*
X171324524Y-114518846D01*
X171307281Y-114531634D01*
X171288868Y-114542670D01*
X171269462Y-114551849D01*
X171249250Y-114559081D01*
X171228426Y-114564297D01*
X171207191Y-114567447D01*
X171185750Y-114568500D01*
X170673250Y-114568500D01*
X170651809Y-114567447D01*
X170630574Y-114564297D01*
X170609750Y-114559081D01*
X170589538Y-114551849D01*
X170570132Y-114542670D01*
X170551719Y-114531634D01*
X170534476Y-114518846D01*
X170518570Y-114504430D01*
X170504154Y-114488524D01*
X170491366Y-114471281D01*
X170480330Y-114452868D01*
X170471151Y-114433462D01*
X170463919Y-114413250D01*
X170458703Y-114392426D01*
X170455553Y-114371191D01*
X170454500Y-114349750D01*
X170454500Y-113912250D01*
X170455553Y-113890809D01*
X170458703Y-113869574D01*
X170463919Y-113848750D01*
X170471151Y-113828538D01*
X170480330Y-113809132D01*
X170491366Y-113790719D01*
X170504154Y-113773476D01*
X170518570Y-113757570D01*
X170534476Y-113743154D01*
X170551719Y-113730366D01*
X170570132Y-113719330D01*
X170589538Y-113710151D01*
X170609750Y-113702919D01*
X170630574Y-113697703D01*
X170651809Y-113694553D01*
X170673250Y-113693500D01*
X171185750Y-113693500D01*
X171207191Y-113694553D01*
G37*
G36*
X171207191Y-115269553D02*
G01*
X171228426Y-115272703D01*
X171249250Y-115277919D01*
X171269462Y-115285151D01*
X171288868Y-115294330D01*
X171307281Y-115305366D01*
X171324524Y-115318154D01*
X171340430Y-115332570D01*
X171354846Y-115348476D01*
X171367634Y-115365719D01*
X171378670Y-115384132D01*
X171387849Y-115403538D01*
X171395081Y-115423750D01*
X171400297Y-115444574D01*
X171403447Y-115465809D01*
X171404500Y-115487250D01*
X171404500Y-115924750D01*
X171403447Y-115946191D01*
X171400297Y-115967426D01*
X171395081Y-115988250D01*
X171387849Y-116008462D01*
X171378670Y-116027868D01*
X171367634Y-116046281D01*
X171354846Y-116063524D01*
X171340430Y-116079430D01*
X171324524Y-116093846D01*
X171307281Y-116106634D01*
X171288868Y-116117670D01*
X171269462Y-116126849D01*
X171249250Y-116134081D01*
X171228426Y-116139297D01*
X171207191Y-116142447D01*
X171185750Y-116143500D01*
X170673250Y-116143500D01*
X170651809Y-116142447D01*
X170630574Y-116139297D01*
X170609750Y-116134081D01*
X170589538Y-116126849D01*
X170570132Y-116117670D01*
X170551719Y-116106634D01*
X170534476Y-116093846D01*
X170518570Y-116079430D01*
X170504154Y-116063524D01*
X170491366Y-116046281D01*
X170480330Y-116027868D01*
X170471151Y-116008462D01*
X170463919Y-115988250D01*
X170458703Y-115967426D01*
X170455553Y-115946191D01*
X170454500Y-115924750D01*
X170454500Y-115487250D01*
X170455553Y-115465809D01*
X170458703Y-115444574D01*
X170463919Y-115423750D01*
X170471151Y-115403538D01*
X170480330Y-115384132D01*
X170491366Y-115365719D01*
X170504154Y-115348476D01*
X170518570Y-115332570D01*
X170534476Y-115318154D01*
X170551719Y-115305366D01*
X170570132Y-115294330D01*
X170589538Y-115285151D01*
X170609750Y-115277919D01*
X170630574Y-115272703D01*
X170651809Y-115269553D01*
X170673250Y-115268500D01*
X171185750Y-115268500D01*
X171207191Y-115269553D01*
G37*
G36*
X175557191Y-115257053D02*
G01*
X175578426Y-115260203D01*
X175599250Y-115265419D01*
X175619462Y-115272651D01*
X175638868Y-115281830D01*
X175657281Y-115292866D01*
X175674524Y-115305654D01*
X175690430Y-115320070D01*
X175704846Y-115335976D01*
X175717634Y-115353219D01*
X175728670Y-115371632D01*
X175737849Y-115391038D01*
X175745081Y-115411250D01*
X175750297Y-115432074D01*
X175753447Y-115453309D01*
X175754500Y-115474750D01*
X175754500Y-115912250D01*
X175753447Y-115933691D01*
X175750297Y-115954926D01*
X175745081Y-115975750D01*
X175737849Y-115995962D01*
X175728670Y-116015368D01*
X175717634Y-116033781D01*
X175704846Y-116051024D01*
X175690430Y-116066930D01*
X175674524Y-116081346D01*
X175657281Y-116094134D01*
X175638868Y-116105170D01*
X175619462Y-116114349D01*
X175599250Y-116121581D01*
X175578426Y-116126797D01*
X175557191Y-116129947D01*
X175535750Y-116131000D01*
X175023250Y-116131000D01*
X175001809Y-116129947D01*
X174980574Y-116126797D01*
X174959750Y-116121581D01*
X174939538Y-116114349D01*
X174920132Y-116105170D01*
X174901719Y-116094134D01*
X174884476Y-116081346D01*
X174868570Y-116066930D01*
X174854154Y-116051024D01*
X174841366Y-116033781D01*
X174830330Y-116015368D01*
X174821151Y-115995962D01*
X174813919Y-115975750D01*
X174808703Y-115954926D01*
X174805553Y-115933691D01*
X174804500Y-115912250D01*
X174804500Y-115474750D01*
X174805553Y-115453309D01*
X174808703Y-115432074D01*
X174813919Y-115411250D01*
X174821151Y-115391038D01*
X174830330Y-115371632D01*
X174841366Y-115353219D01*
X174854154Y-115335976D01*
X174868570Y-115320070D01*
X174884476Y-115305654D01*
X174901719Y-115292866D01*
X174920132Y-115281830D01*
X174939538Y-115272651D01*
X174959750Y-115265419D01*
X174980574Y-115260203D01*
X175001809Y-115257053D01*
X175023250Y-115256000D01*
X175535750Y-115256000D01*
X175557191Y-115257053D01*
G37*
G36*
X175557191Y-113682053D02*
G01*
X175578426Y-113685203D01*
X175599250Y-113690419D01*
X175619462Y-113697651D01*
X175638868Y-113706830D01*
X175657281Y-113717866D01*
X175674524Y-113730654D01*
X175690430Y-113745070D01*
X175704846Y-113760976D01*
X175717634Y-113778219D01*
X175728670Y-113796632D01*
X175737849Y-113816038D01*
X175745081Y-113836250D01*
X175750297Y-113857074D01*
X175753447Y-113878309D01*
X175754500Y-113899750D01*
X175754500Y-114337250D01*
X175753447Y-114358691D01*
X175750297Y-114379926D01*
X175745081Y-114400750D01*
X175737849Y-114420962D01*
X175728670Y-114440368D01*
X175717634Y-114458781D01*
X175704846Y-114476024D01*
X175690430Y-114491930D01*
X175674524Y-114506346D01*
X175657281Y-114519134D01*
X175638868Y-114530170D01*
X175619462Y-114539349D01*
X175599250Y-114546581D01*
X175578426Y-114551797D01*
X175557191Y-114554947D01*
X175535750Y-114556000D01*
X175023250Y-114556000D01*
X175001809Y-114554947D01*
X174980574Y-114551797D01*
X174959750Y-114546581D01*
X174939538Y-114539349D01*
X174920132Y-114530170D01*
X174901719Y-114519134D01*
X174884476Y-114506346D01*
X174868570Y-114491930D01*
X174854154Y-114476024D01*
X174841366Y-114458781D01*
X174830330Y-114440368D01*
X174821151Y-114420962D01*
X174813919Y-114400750D01*
X174808703Y-114379926D01*
X174805553Y-114358691D01*
X174804500Y-114337250D01*
X174804500Y-113899750D01*
X174805553Y-113878309D01*
X174808703Y-113857074D01*
X174813919Y-113836250D01*
X174821151Y-113816038D01*
X174830330Y-113796632D01*
X174841366Y-113778219D01*
X174854154Y-113760976D01*
X174868570Y-113745070D01*
X174884476Y-113730654D01*
X174901719Y-113717866D01*
X174920132Y-113706830D01*
X174939538Y-113697651D01*
X174959750Y-113690419D01*
X174980574Y-113685203D01*
X175001809Y-113682053D01*
X175023250Y-113681000D01*
X175535750Y-113681000D01*
X175557191Y-113682053D01*
G37*
M02*
