M48
; DRILL file {KiCad (5.1.5)-3} date 10/24/2020 6:18:59 PM
; FORMAT={3:3/ absolute / metric / suppress leading zeros}
; #@! TF.CreationDate,2020-10-24T18:18:59+09:00
; #@! TF.GenerationSoftware,Kicad,Pcbnew,(5.1.5)-3
FMAT,2
METRIC,TZ
T1C0.450
T2C0.800
T3C1.000
T4C1.300
T5C1.520
T6C2.000
%
G90
G05
T1
X141580Y-109372
X141630Y-110388
X147320Y-96368
X148336Y-102464
X163640Y-96584
X164656Y-102362
X165151Y-115722
X165164Y-114110
X169418Y-115722
X169481Y-114110
X173838Y-115722
X173927Y-114110
X176682Y-115722
X179959Y-96647
X180911Y-102489
X186487Y-89408
X186690Y-86716
X186792Y-101295
X186842Y-96520
X188532Y-89408
X188532Y-90780
X189738Y-105918
X190437Y-83884
X191059Y-89408
X191668Y-108052
X191707Y-81979
X192215Y-93980
X192786Y-90805
X194259Y-83617
X195390Y-94171
X195834Y-88189
X195986Y-90881
X196977Y-81979
X197676Y-100648
X198564Y-94171
X199034Y-83363
X200609Y-106528
X200711Y-108102
X201231Y-92393
X201422Y-81979
X202565Y-96711
X202641Y-92507
X203505Y-102057
X203810Y-92558
X203911Y-96622
X204775Y-89560
X204775Y-90983
X204826Y-92507
X205740Y-113919
X205740Y-115062
X205753Y-112906
X207112Y-95352
X207160Y-93780
X207213Y-117805
X208026Y-102159
X208153Y-81344
X208344Y-89281
X209860Y-93780
X209867Y-95377
X211709Y-114935
X211785Y-106832
X212560Y-93780
X212979Y-113919
X213614Y-89281
X213868Y-102489
X214313Y-112967
X214593Y-103196
X215260Y-93780
X216281Y-86487
X217170Y-114859
X219050Y-103251
X220066Y-102413
X220663Y-115570
X221996Y-115570
X222314Y-109665
X224282Y-98171
X224346Y-102489
X224599Y-109918
X225298Y-112586
X225425Y-105727
X225679Y-115634
X225742Y-102489
X225869Y-98171
T2
X150742Y-111376
X158242Y-112776
T3
X171760Y-105325
X183760Y-105325
X220306Y-82280
X220306Y-84820
X220306Y-87360
X220306Y-89900
X220306Y-92440
X220306Y-94980
X155685Y-105325
X167685Y-105325
X139610Y-105330
X151610Y-105330
X188460Y-82980
X193660Y-112380
X198660Y-112380
X203860Y-82980
X224282Y-82280
X224282Y-84820
X224282Y-87360
X224282Y-89900
X224282Y-92440
X224282Y-94980
T4
X171710Y-93075
X177710Y-107275
X183760Y-93125
X155635Y-93075
X161635Y-107275
X167685Y-93125
X139560Y-93080
X145560Y-107280
X151610Y-93130
T5
X156510Y-84480
X161590Y-84480
X166670Y-84480
X172710Y-84480
X177790Y-84480
X182870Y-84480
X140460Y-84480
X145540Y-84480
X150620Y-84480
X140335Y-114808
X145415Y-114808
T6
G00X151881Y-116586
M15
G01X150381Y-116586
M16
G05
G00X159881Y-116586
M15
G01X158381Y-116586
M16
G05
T0
M30
