G04 #@! TF.GenerationSoftware,KiCad,Pcbnew,(5.1.5)-3*
G04 #@! TF.CreationDate,2020-10-24T18:19:01+09:00*
G04 #@! TF.ProjectId,wallswitch_schematic_alpha,77616c6c-7377-4697-9463-685f73636865,rev?*
G04 #@! TF.SameCoordinates,Original*
G04 #@! TF.FileFunction,Copper,L3,Inr*
G04 #@! TF.FilePolarity,Positive*
%FSLAX46Y46*%
G04 Gerber Fmt 4.6, Leading zero omitted, Abs format (unit mm)*
G04 Created by KiCad (PCBNEW (5.1.5)-3) date 2020-10-24 18:19:01*
%MOMM*%
%LPD*%
G04 APERTURE LIST*
%ADD10C,1.800000*%
%ADD11C,2.300000*%
%ADD12R,2.000000X2.300000*%
%ADD13C,3.000000*%
%ADD14C,2.500000*%
%ADD15R,1.700000X1.700000*%
%ADD16O,1.700000X1.700000*%
%ADD17R,3.000000X3.000000*%
%ADD18O,5.500000X3.800000*%
%ADD19O,5.300000X3.800000*%
%ADD20C,0.800000*%
%ADD21C,0.254000*%
G04 APERTURE END LIST*
D10*
X158242000Y-112776000D03*
X150742000Y-111376000D03*
D11*
X188460000Y-82980000D03*
D12*
X193660000Y-112380000D03*
D11*
X198660000Y-112380000D03*
X203860000Y-82980000D03*
D13*
X145560000Y-107280000D03*
D14*
X139610000Y-105330000D03*
D13*
X139560000Y-93080000D03*
X151610000Y-93130000D03*
D14*
X151610000Y-105330000D03*
D15*
X220306000Y-94980000D03*
D16*
X220306000Y-92440000D03*
X220306000Y-89900000D03*
X220306000Y-87360000D03*
X220306000Y-84820000D03*
X220306000Y-82280000D03*
D17*
X140335000Y-114808000D03*
D13*
X145415000Y-114808000D03*
D17*
X140460000Y-84480000D03*
D13*
X145540000Y-84480000D03*
X150620000Y-84480000D03*
D15*
X224282000Y-94980000D03*
D16*
X224282000Y-92440000D03*
X224282000Y-89900000D03*
X224282000Y-87360000D03*
X224282000Y-84820000D03*
X224282000Y-82280000D03*
D18*
X159131000Y-116586000D03*
D19*
X151131000Y-116586000D03*
D17*
X156510000Y-84480000D03*
D13*
X161590000Y-84480000D03*
X166670000Y-84480000D03*
X182870000Y-84480000D03*
X177790000Y-84480000D03*
D17*
X172710000Y-84480000D03*
D13*
X161634999Y-107275001D03*
D14*
X155684999Y-105325001D03*
D13*
X155634999Y-93075001D03*
X167684999Y-93125001D03*
D14*
X167684999Y-105325001D03*
X183760000Y-105325001D03*
D13*
X183760000Y-93125001D03*
X171710000Y-93075001D03*
D14*
X171760000Y-105325001D03*
D13*
X177710000Y-107275001D03*
D20*
X203504800Y-102057200D03*
X176682400Y-115722400D03*
X203911200Y-96621600D03*
X203809600Y-92557600D03*
X202641200Y-92506800D03*
X204774800Y-90982800D03*
X204825600Y-92506800D03*
X204774800Y-89560400D03*
X165150800Y-115722400D03*
X225742500Y-102489000D03*
X225679000Y-115633500D03*
X224599500Y-109918500D03*
X216281000Y-86487000D03*
X225869500Y-98171000D03*
X208153000Y-81343500D03*
X202565000Y-96710500D03*
X197675500Y-100647500D03*
X195389500Y-94170500D03*
X189738000Y-105918000D03*
X200609200Y-106527600D03*
X191706500Y-81978500D03*
X190436500Y-83883500D03*
X201422000Y-81978500D03*
X196977000Y-81978500D03*
X179959000Y-96647000D03*
X163639500Y-96583500D03*
X147320000Y-96367600D03*
X207111600Y-95351600D03*
X208026000Y-102158800D03*
X194259200Y-83616800D03*
X211785200Y-106832400D03*
X186842400Y-96520000D03*
X186791600Y-101295200D03*
X207213200Y-117805200D03*
X217170000Y-114858800D03*
X199034400Y-83362800D03*
X224345500Y-102489000D03*
X225298000Y-112585500D03*
X209867500Y-95377000D03*
X224282000Y-98171000D03*
X188531500Y-89408000D03*
X188531500Y-90779600D03*
X191058800Y-89408000D03*
X192786000Y-90805000D03*
X195834000Y-88188800D03*
X186690000Y-86715600D03*
X186486800Y-89408000D03*
X195986400Y-90881200D03*
X220662500Y-115570000D03*
X221996000Y-115570000D03*
X207160000Y-93780000D03*
X209860000Y-93780000D03*
X208343500Y-89281000D03*
X213614000Y-89281000D03*
X165163500Y-114109500D03*
X191668400Y-108051600D03*
X141579600Y-109372400D03*
X212560000Y-93780000D03*
X215260000Y-93780000D03*
X222313500Y-109664500D03*
X220065600Y-102412800D03*
X225425000Y-105727500D03*
X219049600Y-103251000D03*
X198564500Y-94170500D03*
X192214500Y-93980000D03*
X201231500Y-92392500D03*
X213868000Y-102489000D03*
X214593000Y-103196108D03*
X211709000Y-114935000D03*
X205740000Y-115062000D03*
X148336000Y-102463600D03*
X169481500Y-114109500D03*
X169418000Y-115722400D03*
X173837600Y-115722400D03*
X173926500Y-114109500D03*
X212979000Y-113919000D03*
X164655500Y-102362000D03*
X205740000Y-113919000D03*
X180911500Y-102489000D03*
X205752651Y-112906346D03*
X214312500Y-112966500D03*
X200710800Y-108102400D03*
X141630400Y-110388400D03*
D21*
G36*
X226542097Y-118795800D02*
G01*
X205663800Y-118795800D01*
X205663800Y-115843000D01*
X205816922Y-115843000D01*
X205967809Y-115812987D01*
X206109942Y-115754113D01*
X206237859Y-115668642D01*
X206346642Y-115559859D01*
X206432113Y-115431942D01*
X206490987Y-115289809D01*
X206521000Y-115138922D01*
X206521000Y-114985078D01*
X206495739Y-114858078D01*
X210928000Y-114858078D01*
X210928000Y-115011922D01*
X210958013Y-115162809D01*
X211016887Y-115304942D01*
X211102358Y-115432859D01*
X211211141Y-115541642D01*
X211339058Y-115627113D01*
X211481191Y-115685987D01*
X211632078Y-115716000D01*
X211785922Y-115716000D01*
X211936809Y-115685987D01*
X212078942Y-115627113D01*
X212206859Y-115541642D01*
X212255423Y-115493078D01*
X219881500Y-115493078D01*
X219881500Y-115646922D01*
X219911513Y-115797809D01*
X219970387Y-115939942D01*
X220055858Y-116067859D01*
X220164641Y-116176642D01*
X220292558Y-116262113D01*
X220434691Y-116320987D01*
X220585578Y-116351000D01*
X220739422Y-116351000D01*
X220890309Y-116320987D01*
X221032442Y-116262113D01*
X221160359Y-116176642D01*
X221269142Y-116067859D01*
X221329250Y-115977901D01*
X221389358Y-116067859D01*
X221498141Y-116176642D01*
X221626058Y-116262113D01*
X221768191Y-116320987D01*
X221919078Y-116351000D01*
X222072922Y-116351000D01*
X222223809Y-116320987D01*
X222365942Y-116262113D01*
X222493859Y-116176642D01*
X222602642Y-116067859D01*
X222688113Y-115939942D01*
X222746987Y-115797809D01*
X222777000Y-115646922D01*
X222777000Y-115493078D01*
X222746987Y-115342191D01*
X222688113Y-115200058D01*
X222602642Y-115072141D01*
X222493859Y-114963358D01*
X222365942Y-114877887D01*
X222223809Y-114819013D01*
X222072922Y-114789000D01*
X221919078Y-114789000D01*
X221768191Y-114819013D01*
X221626058Y-114877887D01*
X221498141Y-114963358D01*
X221389358Y-115072141D01*
X221329250Y-115162099D01*
X221269142Y-115072141D01*
X221160359Y-114963358D01*
X221032442Y-114877887D01*
X220890309Y-114819013D01*
X220739422Y-114789000D01*
X220585578Y-114789000D01*
X220434691Y-114819013D01*
X220292558Y-114877887D01*
X220164641Y-114963358D01*
X220055858Y-115072141D01*
X219970387Y-115200058D01*
X219911513Y-115342191D01*
X219881500Y-115493078D01*
X212255423Y-115493078D01*
X212315642Y-115432859D01*
X212401113Y-115304942D01*
X212459987Y-115162809D01*
X212490000Y-115011922D01*
X212490000Y-114858078D01*
X212459987Y-114707191D01*
X212401113Y-114565058D01*
X212315642Y-114437141D01*
X212206859Y-114328358D01*
X212078942Y-114242887D01*
X211936809Y-114184013D01*
X211785922Y-114154000D01*
X211632078Y-114154000D01*
X211481191Y-114184013D01*
X211339058Y-114242887D01*
X211211141Y-114328358D01*
X211102358Y-114437141D01*
X211016887Y-114565058D01*
X210958013Y-114707191D01*
X210928000Y-114858078D01*
X206495739Y-114858078D01*
X206490987Y-114834191D01*
X206432113Y-114692058D01*
X206346642Y-114564141D01*
X206273001Y-114490500D01*
X206346642Y-114416859D01*
X206432113Y-114288942D01*
X206490987Y-114146809D01*
X206521000Y-113995922D01*
X206521000Y-113842078D01*
X212198000Y-113842078D01*
X212198000Y-113995922D01*
X212228013Y-114146809D01*
X212286887Y-114288942D01*
X212372358Y-114416859D01*
X212481141Y-114525642D01*
X212609058Y-114611113D01*
X212751191Y-114669987D01*
X212902078Y-114700000D01*
X213055922Y-114700000D01*
X213206809Y-114669987D01*
X213348942Y-114611113D01*
X213476859Y-114525642D01*
X213585642Y-114416859D01*
X213671113Y-114288942D01*
X213729987Y-114146809D01*
X213760000Y-113995922D01*
X213760000Y-113842078D01*
X213729987Y-113691191D01*
X213671113Y-113549058D01*
X213585642Y-113421141D01*
X213476859Y-113312358D01*
X213348942Y-113226887D01*
X213206809Y-113168013D01*
X213055922Y-113138000D01*
X212902078Y-113138000D01*
X212751191Y-113168013D01*
X212609058Y-113226887D01*
X212481141Y-113312358D01*
X212372358Y-113421141D01*
X212286887Y-113549058D01*
X212228013Y-113691191D01*
X212198000Y-113842078D01*
X206521000Y-113842078D01*
X206490987Y-113691191D01*
X206432113Y-113549058D01*
X206346642Y-113421141D01*
X206344500Y-113418999D01*
X206359293Y-113404205D01*
X206444764Y-113276288D01*
X206503638Y-113134155D01*
X206533651Y-112983268D01*
X206533651Y-112889578D01*
X213531500Y-112889578D01*
X213531500Y-113043422D01*
X213561513Y-113194309D01*
X213620387Y-113336442D01*
X213705858Y-113464359D01*
X213814641Y-113573142D01*
X213942558Y-113658613D01*
X214084691Y-113717487D01*
X214235578Y-113747500D01*
X214389422Y-113747500D01*
X214540309Y-113717487D01*
X214682442Y-113658613D01*
X214810359Y-113573142D01*
X214919142Y-113464359D01*
X215004613Y-113336442D01*
X215063487Y-113194309D01*
X215093500Y-113043422D01*
X215093500Y-112889578D01*
X215063487Y-112738691D01*
X215004613Y-112596558D01*
X214945827Y-112508578D01*
X224517000Y-112508578D01*
X224517000Y-112662422D01*
X224547013Y-112813309D01*
X224605887Y-112955442D01*
X224691358Y-113083359D01*
X224800141Y-113192142D01*
X224928058Y-113277613D01*
X225070191Y-113336487D01*
X225221078Y-113366500D01*
X225374922Y-113366500D01*
X225525809Y-113336487D01*
X225667942Y-113277613D01*
X225795859Y-113192142D01*
X225904642Y-113083359D01*
X225990113Y-112955442D01*
X226048987Y-112813309D01*
X226079000Y-112662422D01*
X226079000Y-112508578D01*
X226048987Y-112357691D01*
X225990113Y-112215558D01*
X225904642Y-112087641D01*
X225795859Y-111978858D01*
X225667942Y-111893387D01*
X225525809Y-111834513D01*
X225374922Y-111804500D01*
X225221078Y-111804500D01*
X225070191Y-111834513D01*
X224928058Y-111893387D01*
X224800141Y-111978858D01*
X224691358Y-112087641D01*
X224605887Y-112215558D01*
X224547013Y-112357691D01*
X224517000Y-112508578D01*
X214945827Y-112508578D01*
X214919142Y-112468641D01*
X214810359Y-112359858D01*
X214682442Y-112274387D01*
X214540309Y-112215513D01*
X214389422Y-112185500D01*
X214235578Y-112185500D01*
X214084691Y-112215513D01*
X213942558Y-112274387D01*
X213814641Y-112359858D01*
X213705858Y-112468641D01*
X213620387Y-112596558D01*
X213561513Y-112738691D01*
X213531500Y-112889578D01*
X206533651Y-112889578D01*
X206533651Y-112829424D01*
X206503638Y-112678537D01*
X206444764Y-112536404D01*
X206359293Y-112408487D01*
X206250510Y-112299704D01*
X206122593Y-112214233D01*
X205980460Y-112155359D01*
X205829573Y-112125346D01*
X205675729Y-112125346D01*
X205663800Y-112127719D01*
X205663800Y-109587578D01*
X221532500Y-109587578D01*
X221532500Y-109741422D01*
X221562513Y-109892309D01*
X221621387Y-110034442D01*
X221706858Y-110162359D01*
X221815641Y-110271142D01*
X221943558Y-110356613D01*
X222085691Y-110415487D01*
X222236578Y-110445500D01*
X222390422Y-110445500D01*
X222541309Y-110415487D01*
X222683442Y-110356613D01*
X222811359Y-110271142D01*
X222920142Y-110162359D01*
X223005613Y-110034442D01*
X223064487Y-109892309D01*
X223094500Y-109741422D01*
X223094500Y-109587578D01*
X223064487Y-109436691D01*
X223005613Y-109294558D01*
X222920142Y-109166641D01*
X222811359Y-109057858D01*
X222683442Y-108972387D01*
X222541309Y-108913513D01*
X222390422Y-108883500D01*
X222236578Y-108883500D01*
X222085691Y-108913513D01*
X221943558Y-108972387D01*
X221815641Y-109057858D01*
X221706858Y-109166641D01*
X221621387Y-109294558D01*
X221562513Y-109436691D01*
X221532500Y-109587578D01*
X205663800Y-109587578D01*
X205663800Y-107289600D01*
X205661360Y-107264824D01*
X205654133Y-107240999D01*
X205642397Y-107219043D01*
X205626603Y-107199797D01*
X205607357Y-107184003D01*
X205585401Y-107172267D01*
X205561576Y-107165040D01*
X205537237Y-107162601D01*
X179587721Y-107073255D01*
X179518714Y-106726334D01*
X179376920Y-106384014D01*
X179171068Y-106075934D01*
X178909067Y-105813933D01*
X178600987Y-105608081D01*
X178258667Y-105466287D01*
X177895262Y-105394001D01*
X177524738Y-105394001D01*
X177161333Y-105466287D01*
X176819013Y-105608081D01*
X176510933Y-105813933D01*
X176248932Y-106075934D01*
X176043080Y-106384014D01*
X175901286Y-106726334D01*
X175834849Y-107060333D01*
X163501703Y-107017869D01*
X163443713Y-106726334D01*
X163301919Y-106384014D01*
X163096067Y-106075934D01*
X162834066Y-105813933D01*
X162525986Y-105608081D01*
X162183666Y-105466287D01*
X161820261Y-105394001D01*
X161449737Y-105394001D01*
X161086332Y-105466287D01*
X160744012Y-105608081D01*
X160435932Y-105813933D01*
X160173931Y-106075934D01*
X159968079Y-106384014D01*
X159826285Y-106726334D01*
X159770850Y-107005023D01*
X147414692Y-106962480D01*
X147368714Y-106731333D01*
X147226920Y-106389013D01*
X147021068Y-106080933D01*
X146759067Y-105818932D01*
X146645401Y-105742983D01*
X146644761Y-105169360D01*
X149979000Y-105169360D01*
X149979000Y-105490640D01*
X150041678Y-105805745D01*
X150164626Y-106102568D01*
X150343119Y-106369702D01*
X150570298Y-106596881D01*
X150837432Y-106775374D01*
X151134255Y-106898322D01*
X151449360Y-106961000D01*
X151770640Y-106961000D01*
X152085745Y-106898322D01*
X152382568Y-106775374D01*
X152649702Y-106596881D01*
X152876881Y-106369702D01*
X153055374Y-106102568D01*
X153178322Y-105805745D01*
X153241000Y-105490640D01*
X153241000Y-105169360D01*
X153240006Y-105164361D01*
X154053999Y-105164361D01*
X154053999Y-105485641D01*
X154116677Y-105800746D01*
X154239625Y-106097569D01*
X154418118Y-106364703D01*
X154645297Y-106591882D01*
X154912431Y-106770375D01*
X155209254Y-106893323D01*
X155524359Y-106956001D01*
X155845639Y-106956001D01*
X156160744Y-106893323D01*
X156457567Y-106770375D01*
X156724701Y-106591882D01*
X156951880Y-106364703D01*
X157130373Y-106097569D01*
X157253321Y-105800746D01*
X157315999Y-105485641D01*
X157315999Y-105164361D01*
X166053999Y-105164361D01*
X166053999Y-105485641D01*
X166116677Y-105800746D01*
X166239625Y-106097569D01*
X166418118Y-106364703D01*
X166645297Y-106591882D01*
X166912431Y-106770375D01*
X167209254Y-106893323D01*
X167524359Y-106956001D01*
X167845639Y-106956001D01*
X168160744Y-106893323D01*
X168457567Y-106770375D01*
X168724701Y-106591882D01*
X168951880Y-106364703D01*
X169130373Y-106097569D01*
X169253321Y-105800746D01*
X169315999Y-105485641D01*
X169315999Y-105164361D01*
X170129000Y-105164361D01*
X170129000Y-105485641D01*
X170191678Y-105800746D01*
X170314626Y-106097569D01*
X170493119Y-106364703D01*
X170720298Y-106591882D01*
X170987432Y-106770375D01*
X171284255Y-106893323D01*
X171599360Y-106956001D01*
X171920640Y-106956001D01*
X172235745Y-106893323D01*
X172532568Y-106770375D01*
X172799702Y-106591882D01*
X173026881Y-106364703D01*
X173205374Y-106097569D01*
X173328322Y-105800746D01*
X173391000Y-105485641D01*
X173391000Y-105164361D01*
X182129000Y-105164361D01*
X182129000Y-105485641D01*
X182191678Y-105800746D01*
X182314626Y-106097569D01*
X182493119Y-106364703D01*
X182720298Y-106591882D01*
X182987432Y-106770375D01*
X183284255Y-106893323D01*
X183599360Y-106956001D01*
X183920640Y-106956001D01*
X184235745Y-106893323D01*
X184532568Y-106770375D01*
X184799702Y-106591882D01*
X185026881Y-106364703D01*
X185205374Y-106097569D01*
X185328322Y-105800746D01*
X185358192Y-105650578D01*
X224644000Y-105650578D01*
X224644000Y-105804422D01*
X224674013Y-105955309D01*
X224732887Y-106097442D01*
X224818358Y-106225359D01*
X224927141Y-106334142D01*
X225055058Y-106419613D01*
X225197191Y-106478487D01*
X225348078Y-106508500D01*
X225501922Y-106508500D01*
X225652809Y-106478487D01*
X225794942Y-106419613D01*
X225922859Y-106334142D01*
X226031642Y-106225359D01*
X226117113Y-106097442D01*
X226175987Y-105955309D01*
X226206000Y-105804422D01*
X226206000Y-105650578D01*
X226175987Y-105499691D01*
X226117113Y-105357558D01*
X226031642Y-105229641D01*
X225922859Y-105120858D01*
X225794942Y-105035387D01*
X225652809Y-104976513D01*
X225501922Y-104946500D01*
X225348078Y-104946500D01*
X225197191Y-104976513D01*
X225055058Y-105035387D01*
X224927141Y-105120858D01*
X224818358Y-105229641D01*
X224732887Y-105357558D01*
X224674013Y-105499691D01*
X224644000Y-105650578D01*
X185358192Y-105650578D01*
X185391000Y-105485641D01*
X185391000Y-105164361D01*
X185328322Y-104849256D01*
X185205374Y-104552433D01*
X185026881Y-104285299D01*
X184799702Y-104058120D01*
X184532568Y-103879627D01*
X184235745Y-103756679D01*
X183920640Y-103694001D01*
X183599360Y-103694001D01*
X183284255Y-103756679D01*
X182987432Y-103879627D01*
X182720298Y-104058120D01*
X182493119Y-104285299D01*
X182314626Y-104552433D01*
X182191678Y-104849256D01*
X182129000Y-105164361D01*
X173391000Y-105164361D01*
X173328322Y-104849256D01*
X173205374Y-104552433D01*
X173026881Y-104285299D01*
X172799702Y-104058120D01*
X172532568Y-103879627D01*
X172235745Y-103756679D01*
X171920640Y-103694001D01*
X171599360Y-103694001D01*
X171284255Y-103756679D01*
X170987432Y-103879627D01*
X170720298Y-104058120D01*
X170493119Y-104285299D01*
X170314626Y-104552433D01*
X170191678Y-104849256D01*
X170129000Y-105164361D01*
X169315999Y-105164361D01*
X169253321Y-104849256D01*
X169130373Y-104552433D01*
X168951880Y-104285299D01*
X168724701Y-104058120D01*
X168457567Y-103879627D01*
X168160744Y-103756679D01*
X167845639Y-103694001D01*
X167524359Y-103694001D01*
X167209254Y-103756679D01*
X166912431Y-103879627D01*
X166645297Y-104058120D01*
X166418118Y-104285299D01*
X166239625Y-104552433D01*
X166116677Y-104849256D01*
X166053999Y-105164361D01*
X157315999Y-105164361D01*
X157253321Y-104849256D01*
X157130373Y-104552433D01*
X156951880Y-104285299D01*
X156724701Y-104058120D01*
X156457567Y-103879627D01*
X156160744Y-103756679D01*
X155845639Y-103694001D01*
X155524359Y-103694001D01*
X155209254Y-103756679D01*
X154912431Y-103879627D01*
X154645297Y-104058120D01*
X154418118Y-104285299D01*
X154239625Y-104552433D01*
X154116677Y-104849256D01*
X154053999Y-105164361D01*
X153240006Y-105164361D01*
X153178322Y-104854255D01*
X153055374Y-104557432D01*
X152876881Y-104290298D01*
X152649702Y-104063119D01*
X152382568Y-103884626D01*
X152085745Y-103761678D01*
X151770640Y-103699000D01*
X151449360Y-103699000D01*
X151134255Y-103761678D01*
X150837432Y-103884626D01*
X150570298Y-104063119D01*
X150343119Y-104290298D01*
X150164626Y-104557432D01*
X150041678Y-104854255D01*
X149979000Y-105169360D01*
X146644761Y-105169360D01*
X146641656Y-102386678D01*
X147555000Y-102386678D01*
X147555000Y-102540522D01*
X147585013Y-102691409D01*
X147643887Y-102833542D01*
X147729358Y-102961459D01*
X147838141Y-103070242D01*
X147966058Y-103155713D01*
X148108191Y-103214587D01*
X148259078Y-103244600D01*
X148412922Y-103244600D01*
X148563809Y-103214587D01*
X148705942Y-103155713D01*
X148833859Y-103070242D01*
X148942642Y-102961459D01*
X149028113Y-102833542D01*
X149086987Y-102691409D01*
X149117000Y-102540522D01*
X149117000Y-102386678D01*
X149096791Y-102285078D01*
X163874500Y-102285078D01*
X163874500Y-102438922D01*
X163904513Y-102589809D01*
X163963387Y-102731942D01*
X164048858Y-102859859D01*
X164157641Y-102968642D01*
X164285558Y-103054113D01*
X164427691Y-103112987D01*
X164578578Y-103143000D01*
X164732422Y-103143000D01*
X164883309Y-103112987D01*
X165025442Y-103054113D01*
X165153359Y-102968642D01*
X165262142Y-102859859D01*
X165347613Y-102731942D01*
X165406487Y-102589809D01*
X165436500Y-102438922D01*
X165436500Y-102412078D01*
X180130500Y-102412078D01*
X180130500Y-102565922D01*
X180160513Y-102716809D01*
X180219387Y-102858942D01*
X180304858Y-102986859D01*
X180413641Y-103095642D01*
X180541558Y-103181113D01*
X180683691Y-103239987D01*
X180834578Y-103270000D01*
X180988422Y-103270000D01*
X181139309Y-103239987D01*
X181281442Y-103181113D01*
X181409359Y-103095642D01*
X181518142Y-102986859D01*
X181603613Y-102858942D01*
X181662487Y-102716809D01*
X181692500Y-102565922D01*
X181692500Y-102412078D01*
X181662487Y-102261191D01*
X181603613Y-102119058D01*
X181518142Y-101991141D01*
X181507279Y-101980278D01*
X202723800Y-101980278D01*
X202723800Y-102134122D01*
X202753813Y-102285009D01*
X202812687Y-102427142D01*
X202898158Y-102555059D01*
X203006941Y-102663842D01*
X203134858Y-102749313D01*
X203276991Y-102808187D01*
X203427878Y-102838200D01*
X203581722Y-102838200D01*
X203732609Y-102808187D01*
X203874742Y-102749313D01*
X204002659Y-102663842D01*
X204111442Y-102555059D01*
X204196913Y-102427142D01*
X204203152Y-102412078D01*
X213087000Y-102412078D01*
X213087000Y-102565922D01*
X213117013Y-102716809D01*
X213175887Y-102858942D01*
X213261358Y-102986859D01*
X213370141Y-103095642D01*
X213498058Y-103181113D01*
X213640191Y-103239987D01*
X213791078Y-103270000D01*
X213812000Y-103270000D01*
X213812000Y-103273030D01*
X213842013Y-103423917D01*
X213900887Y-103566050D01*
X213986358Y-103693967D01*
X214095141Y-103802750D01*
X214223058Y-103888221D01*
X214365191Y-103947095D01*
X214516078Y-103977108D01*
X214669922Y-103977108D01*
X214820809Y-103947095D01*
X214962942Y-103888221D01*
X215090859Y-103802750D01*
X215199642Y-103693967D01*
X215285113Y-103566050D01*
X215343987Y-103423917D01*
X215374000Y-103273030D01*
X215374000Y-103174078D01*
X218268600Y-103174078D01*
X218268600Y-103327922D01*
X218298613Y-103478809D01*
X218357487Y-103620942D01*
X218442958Y-103748859D01*
X218551741Y-103857642D01*
X218679658Y-103943113D01*
X218821791Y-104001987D01*
X218972678Y-104032000D01*
X219126522Y-104032000D01*
X219277409Y-104001987D01*
X219419542Y-103943113D01*
X219547459Y-103857642D01*
X219656242Y-103748859D01*
X219741713Y-103620942D01*
X219800587Y-103478809D01*
X219830600Y-103327922D01*
X219830600Y-103174078D01*
X219827724Y-103159617D01*
X219837791Y-103163787D01*
X219988678Y-103193800D01*
X220142522Y-103193800D01*
X220293409Y-103163787D01*
X220435542Y-103104913D01*
X220563459Y-103019442D01*
X220672242Y-102910659D01*
X220757713Y-102782742D01*
X220816587Y-102640609D01*
X220846600Y-102489722D01*
X220846600Y-102412078D01*
X223564500Y-102412078D01*
X223564500Y-102565922D01*
X223594513Y-102716809D01*
X223653387Y-102858942D01*
X223738858Y-102986859D01*
X223847641Y-103095642D01*
X223975558Y-103181113D01*
X224117691Y-103239987D01*
X224268578Y-103270000D01*
X224422422Y-103270000D01*
X224573309Y-103239987D01*
X224715442Y-103181113D01*
X224843359Y-103095642D01*
X224952142Y-102986859D01*
X225037613Y-102858942D01*
X225096487Y-102716809D01*
X225126500Y-102565922D01*
X225126500Y-102412078D01*
X225096487Y-102261191D01*
X225037613Y-102119058D01*
X224952142Y-101991141D01*
X224843359Y-101882358D01*
X224715442Y-101796887D01*
X224573309Y-101738013D01*
X224422422Y-101708000D01*
X224268578Y-101708000D01*
X224117691Y-101738013D01*
X223975558Y-101796887D01*
X223847641Y-101882358D01*
X223738858Y-101991141D01*
X223653387Y-102119058D01*
X223594513Y-102261191D01*
X223564500Y-102412078D01*
X220846600Y-102412078D01*
X220846600Y-102335878D01*
X220816587Y-102184991D01*
X220757713Y-102042858D01*
X220672242Y-101914941D01*
X220563459Y-101806158D01*
X220435542Y-101720687D01*
X220293409Y-101661813D01*
X220142522Y-101631800D01*
X219988678Y-101631800D01*
X219837791Y-101661813D01*
X219695658Y-101720687D01*
X219567741Y-101806158D01*
X219458958Y-101914941D01*
X219373487Y-102042858D01*
X219314613Y-102184991D01*
X219284600Y-102335878D01*
X219284600Y-102489722D01*
X219287476Y-102504183D01*
X219277409Y-102500013D01*
X219126522Y-102470000D01*
X218972678Y-102470000D01*
X218821791Y-102500013D01*
X218679658Y-102558887D01*
X218551741Y-102644358D01*
X218442958Y-102753141D01*
X218357487Y-102881058D01*
X218298613Y-103023191D01*
X218268600Y-103174078D01*
X215374000Y-103174078D01*
X215374000Y-103119186D01*
X215343987Y-102968299D01*
X215285113Y-102826166D01*
X215199642Y-102698249D01*
X215090859Y-102589466D01*
X214962942Y-102503995D01*
X214820809Y-102445121D01*
X214669922Y-102415108D01*
X214649000Y-102415108D01*
X214649000Y-102412078D01*
X214618987Y-102261191D01*
X214560113Y-102119058D01*
X214474642Y-101991141D01*
X214365859Y-101882358D01*
X214237942Y-101796887D01*
X214095809Y-101738013D01*
X213944922Y-101708000D01*
X213791078Y-101708000D01*
X213640191Y-101738013D01*
X213498058Y-101796887D01*
X213370141Y-101882358D01*
X213261358Y-101991141D01*
X213175887Y-102119058D01*
X213117013Y-102261191D01*
X213087000Y-102412078D01*
X204203152Y-102412078D01*
X204255787Y-102285009D01*
X204285800Y-102134122D01*
X204285800Y-101980278D01*
X204255787Y-101829391D01*
X204196913Y-101687258D01*
X204111442Y-101559341D01*
X204002659Y-101450558D01*
X203874742Y-101365087D01*
X203732609Y-101306213D01*
X203581722Y-101276200D01*
X203427878Y-101276200D01*
X203276991Y-101306213D01*
X203134858Y-101365087D01*
X203006941Y-101450558D01*
X202898158Y-101559341D01*
X202812687Y-101687258D01*
X202753813Y-101829391D01*
X202723800Y-101980278D01*
X181507279Y-101980278D01*
X181409359Y-101882358D01*
X181281442Y-101796887D01*
X181139309Y-101738013D01*
X180988422Y-101708000D01*
X180834578Y-101708000D01*
X180683691Y-101738013D01*
X180541558Y-101796887D01*
X180413641Y-101882358D01*
X180304858Y-101991141D01*
X180219387Y-102119058D01*
X180160513Y-102261191D01*
X180130500Y-102412078D01*
X165436500Y-102412078D01*
X165436500Y-102285078D01*
X165406487Y-102134191D01*
X165347613Y-101992058D01*
X165262142Y-101864141D01*
X165153359Y-101755358D01*
X165025442Y-101669887D01*
X164883309Y-101611013D01*
X164732422Y-101581000D01*
X164578578Y-101581000D01*
X164427691Y-101611013D01*
X164285558Y-101669887D01*
X164157641Y-101755358D01*
X164048858Y-101864141D01*
X163963387Y-101992058D01*
X163904513Y-102134191D01*
X163874500Y-102285078D01*
X149096791Y-102285078D01*
X149086987Y-102235791D01*
X149028113Y-102093658D01*
X148942642Y-101965741D01*
X148833859Y-101856958D01*
X148705942Y-101771487D01*
X148563809Y-101712613D01*
X148412922Y-101682600D01*
X148259078Y-101682600D01*
X148108191Y-101712613D01*
X147966058Y-101771487D01*
X147838141Y-101856958D01*
X147729358Y-101965741D01*
X147643887Y-102093658D01*
X147585013Y-102235791D01*
X147555000Y-102386678D01*
X146641656Y-102386678D01*
X146636866Y-98094078D01*
X223501000Y-98094078D01*
X223501000Y-98247922D01*
X223531013Y-98398809D01*
X223589887Y-98540942D01*
X223675358Y-98668859D01*
X223784141Y-98777642D01*
X223912058Y-98863113D01*
X224054191Y-98921987D01*
X224205078Y-98952000D01*
X224358922Y-98952000D01*
X224509809Y-98921987D01*
X224651942Y-98863113D01*
X224779859Y-98777642D01*
X224888642Y-98668859D01*
X224974113Y-98540942D01*
X225032987Y-98398809D01*
X225063000Y-98247922D01*
X225063000Y-98094078D01*
X225032987Y-97943191D01*
X224974113Y-97801058D01*
X224888642Y-97673141D01*
X224779859Y-97564358D01*
X224651942Y-97478887D01*
X224509809Y-97420013D01*
X224358922Y-97390000D01*
X224205078Y-97390000D01*
X224054191Y-97420013D01*
X223912058Y-97478887D01*
X223784141Y-97564358D01*
X223675358Y-97673141D01*
X223589887Y-97801058D01*
X223531013Y-97943191D01*
X223501000Y-98094078D01*
X146636866Y-98094078D01*
X146635136Y-96544678D01*
X203130200Y-96544678D01*
X203130200Y-96698522D01*
X203160213Y-96849409D01*
X203219087Y-96991542D01*
X203304558Y-97119459D01*
X203413341Y-97228242D01*
X203541258Y-97313713D01*
X203683391Y-97372587D01*
X203834278Y-97402600D01*
X203988122Y-97402600D01*
X204139009Y-97372587D01*
X204281142Y-97313713D01*
X204409059Y-97228242D01*
X204517842Y-97119459D01*
X204603313Y-96991542D01*
X204662187Y-96849409D01*
X204692200Y-96698522D01*
X204692200Y-96544678D01*
X204662187Y-96393791D01*
X204603313Y-96251658D01*
X204517842Y-96123741D01*
X204409059Y-96014958D01*
X204281142Y-95929487D01*
X204139009Y-95870613D01*
X203988122Y-95840600D01*
X203834278Y-95840600D01*
X203683391Y-95870613D01*
X203541258Y-95929487D01*
X203413341Y-96014958D01*
X203304558Y-96123741D01*
X203219087Y-96251658D01*
X203160213Y-96393791D01*
X203130200Y-96544678D01*
X146635136Y-96544678D01*
X146634342Y-95834200D01*
X185928000Y-95834200D01*
X185952776Y-95831760D01*
X185976601Y-95824533D01*
X185998557Y-95812797D01*
X186017803Y-95797003D01*
X186033597Y-95777757D01*
X186045333Y-95755801D01*
X186052560Y-95731976D01*
X186055000Y-95707200D01*
X186055000Y-95300078D01*
X209086500Y-95300078D01*
X209086500Y-95453922D01*
X209116513Y-95604809D01*
X209175387Y-95746942D01*
X209260858Y-95874859D01*
X209369641Y-95983642D01*
X209497558Y-96069113D01*
X209639691Y-96127987D01*
X209790578Y-96158000D01*
X209944422Y-96158000D01*
X210095309Y-96127987D01*
X210237442Y-96069113D01*
X210365359Y-95983642D01*
X210474142Y-95874859D01*
X210559613Y-95746942D01*
X210618487Y-95604809D01*
X210648500Y-95453922D01*
X210648500Y-95300078D01*
X210618487Y-95149191D01*
X210559613Y-95007058D01*
X210474142Y-94879141D01*
X210365359Y-94770358D01*
X210237442Y-94684887D01*
X210095309Y-94626013D01*
X209944422Y-94596000D01*
X209790578Y-94596000D01*
X209639691Y-94626013D01*
X209497558Y-94684887D01*
X209369641Y-94770358D01*
X209260858Y-94879141D01*
X209175387Y-95007058D01*
X209116513Y-95149191D01*
X209086500Y-95300078D01*
X186055000Y-95300078D01*
X186055000Y-93903078D01*
X191433500Y-93903078D01*
X191433500Y-94056922D01*
X191463513Y-94207809D01*
X191522387Y-94349942D01*
X191607858Y-94477859D01*
X191716641Y-94586642D01*
X191844558Y-94672113D01*
X191986691Y-94730987D01*
X192137578Y-94761000D01*
X192291422Y-94761000D01*
X192442309Y-94730987D01*
X192584442Y-94672113D01*
X192712359Y-94586642D01*
X192821142Y-94477859D01*
X192906613Y-94349942D01*
X192965487Y-94207809D01*
X192988208Y-94093578D01*
X197783500Y-94093578D01*
X197783500Y-94247422D01*
X197813513Y-94398309D01*
X197872387Y-94540442D01*
X197957858Y-94668359D01*
X198066641Y-94777142D01*
X198194558Y-94862613D01*
X198336691Y-94921487D01*
X198487578Y-94951500D01*
X198641422Y-94951500D01*
X198792309Y-94921487D01*
X198934442Y-94862613D01*
X199062359Y-94777142D01*
X199171142Y-94668359D01*
X199256613Y-94540442D01*
X199315487Y-94398309D01*
X199345500Y-94247422D01*
X199345500Y-94093578D01*
X199315487Y-93942691D01*
X199256613Y-93800558D01*
X199191480Y-93703078D01*
X206379000Y-93703078D01*
X206379000Y-93856922D01*
X206409013Y-94007809D01*
X206467887Y-94149942D01*
X206553358Y-94277859D01*
X206662141Y-94386642D01*
X206790058Y-94472113D01*
X206932191Y-94530987D01*
X207083078Y-94561000D01*
X207236922Y-94561000D01*
X207387809Y-94530987D01*
X207529942Y-94472113D01*
X207657859Y-94386642D01*
X207766642Y-94277859D01*
X207852113Y-94149942D01*
X207910987Y-94007809D01*
X207941000Y-93856922D01*
X207941000Y-93703078D01*
X209079000Y-93703078D01*
X209079000Y-93856922D01*
X209109013Y-94007809D01*
X209167887Y-94149942D01*
X209253358Y-94277859D01*
X209362141Y-94386642D01*
X209490058Y-94472113D01*
X209632191Y-94530987D01*
X209783078Y-94561000D01*
X209936922Y-94561000D01*
X210087809Y-94530987D01*
X210229942Y-94472113D01*
X210357859Y-94386642D01*
X210466642Y-94277859D01*
X210552113Y-94149942D01*
X210610987Y-94007809D01*
X210641000Y-93856922D01*
X210641000Y-93703078D01*
X211779000Y-93703078D01*
X211779000Y-93856922D01*
X211809013Y-94007809D01*
X211867887Y-94149942D01*
X211953358Y-94277859D01*
X212062141Y-94386642D01*
X212190058Y-94472113D01*
X212332191Y-94530987D01*
X212483078Y-94561000D01*
X212636922Y-94561000D01*
X212787809Y-94530987D01*
X212929942Y-94472113D01*
X213057859Y-94386642D01*
X213166642Y-94277859D01*
X213252113Y-94149942D01*
X213310987Y-94007809D01*
X213341000Y-93856922D01*
X213341000Y-93703078D01*
X214479000Y-93703078D01*
X214479000Y-93856922D01*
X214509013Y-94007809D01*
X214567887Y-94149942D01*
X214653358Y-94277859D01*
X214762141Y-94386642D01*
X214890058Y-94472113D01*
X215032191Y-94530987D01*
X215183078Y-94561000D01*
X215336922Y-94561000D01*
X215487809Y-94530987D01*
X215629942Y-94472113D01*
X215757859Y-94386642D01*
X215866642Y-94277859D01*
X215952113Y-94149942D01*
X215960373Y-94130000D01*
X219073157Y-94130000D01*
X219073157Y-95830000D01*
X219080513Y-95904689D01*
X219102299Y-95976508D01*
X219137678Y-96042696D01*
X219185289Y-96100711D01*
X219243304Y-96148322D01*
X219309492Y-96183701D01*
X219381311Y-96205487D01*
X219456000Y-96212843D01*
X221156000Y-96212843D01*
X221230689Y-96205487D01*
X221302508Y-96183701D01*
X221368696Y-96148322D01*
X221426711Y-96100711D01*
X221474322Y-96042696D01*
X221509701Y-95976508D01*
X221531487Y-95904689D01*
X221538843Y-95830000D01*
X221538843Y-94130000D01*
X223049157Y-94130000D01*
X223049157Y-95830000D01*
X223056513Y-95904689D01*
X223078299Y-95976508D01*
X223113678Y-96042696D01*
X223161289Y-96100711D01*
X223219304Y-96148322D01*
X223285492Y-96183701D01*
X223357311Y-96205487D01*
X223432000Y-96212843D01*
X225132000Y-96212843D01*
X225206689Y-96205487D01*
X225278508Y-96183701D01*
X225344696Y-96148322D01*
X225402711Y-96100711D01*
X225450322Y-96042696D01*
X225485701Y-95976508D01*
X225507487Y-95904689D01*
X225514843Y-95830000D01*
X225514843Y-94130000D01*
X225507487Y-94055311D01*
X225485701Y-93983492D01*
X225450322Y-93917304D01*
X225402711Y-93859289D01*
X225344696Y-93811678D01*
X225278508Y-93776299D01*
X225206689Y-93754513D01*
X225132000Y-93747157D01*
X223432000Y-93747157D01*
X223357311Y-93754513D01*
X223285492Y-93776299D01*
X223219304Y-93811678D01*
X223161289Y-93859289D01*
X223113678Y-93917304D01*
X223078299Y-93983492D01*
X223056513Y-94055311D01*
X223049157Y-94130000D01*
X221538843Y-94130000D01*
X221531487Y-94055311D01*
X221509701Y-93983492D01*
X221474322Y-93917304D01*
X221426711Y-93859289D01*
X221368696Y-93811678D01*
X221302508Y-93776299D01*
X221230689Y-93754513D01*
X221156000Y-93747157D01*
X219456000Y-93747157D01*
X219381311Y-93754513D01*
X219309492Y-93776299D01*
X219243304Y-93811678D01*
X219185289Y-93859289D01*
X219137678Y-93917304D01*
X219102299Y-93983492D01*
X219080513Y-94055311D01*
X219073157Y-94130000D01*
X215960373Y-94130000D01*
X216010987Y-94007809D01*
X216041000Y-93856922D01*
X216041000Y-93703078D01*
X216010987Y-93552191D01*
X215952113Y-93410058D01*
X215866642Y-93282141D01*
X215757859Y-93173358D01*
X215629942Y-93087887D01*
X215487809Y-93029013D01*
X215336922Y-92999000D01*
X215183078Y-92999000D01*
X215032191Y-93029013D01*
X214890058Y-93087887D01*
X214762141Y-93173358D01*
X214653358Y-93282141D01*
X214567887Y-93410058D01*
X214509013Y-93552191D01*
X214479000Y-93703078D01*
X213341000Y-93703078D01*
X213310987Y-93552191D01*
X213252113Y-93410058D01*
X213166642Y-93282141D01*
X213057859Y-93173358D01*
X212929942Y-93087887D01*
X212787809Y-93029013D01*
X212636922Y-92999000D01*
X212483078Y-92999000D01*
X212332191Y-93029013D01*
X212190058Y-93087887D01*
X212062141Y-93173358D01*
X211953358Y-93282141D01*
X211867887Y-93410058D01*
X211809013Y-93552191D01*
X211779000Y-93703078D01*
X210641000Y-93703078D01*
X210610987Y-93552191D01*
X210552113Y-93410058D01*
X210466642Y-93282141D01*
X210357859Y-93173358D01*
X210229942Y-93087887D01*
X210087809Y-93029013D01*
X209936922Y-92999000D01*
X209783078Y-92999000D01*
X209632191Y-93029013D01*
X209490058Y-93087887D01*
X209362141Y-93173358D01*
X209253358Y-93282141D01*
X209167887Y-93410058D01*
X209109013Y-93552191D01*
X209079000Y-93703078D01*
X207941000Y-93703078D01*
X207910987Y-93552191D01*
X207852113Y-93410058D01*
X207766642Y-93282141D01*
X207657859Y-93173358D01*
X207529942Y-93087887D01*
X207387809Y-93029013D01*
X207236922Y-92999000D01*
X207083078Y-92999000D01*
X206932191Y-93029013D01*
X206790058Y-93087887D01*
X206662141Y-93173358D01*
X206553358Y-93282141D01*
X206467887Y-93410058D01*
X206409013Y-93552191D01*
X206379000Y-93703078D01*
X199191480Y-93703078D01*
X199171142Y-93672641D01*
X199062359Y-93563858D01*
X198934442Y-93478387D01*
X198792309Y-93419513D01*
X198641422Y-93389500D01*
X198487578Y-93389500D01*
X198336691Y-93419513D01*
X198194558Y-93478387D01*
X198066641Y-93563858D01*
X197957858Y-93672641D01*
X197872387Y-93800558D01*
X197813513Y-93942691D01*
X197783500Y-94093578D01*
X192988208Y-94093578D01*
X192995500Y-94056922D01*
X192995500Y-93903078D01*
X192965487Y-93752191D01*
X192906613Y-93610058D01*
X192821142Y-93482141D01*
X192712359Y-93373358D01*
X192584442Y-93287887D01*
X192442309Y-93229013D01*
X192291422Y-93199000D01*
X192137578Y-93199000D01*
X191986691Y-93229013D01*
X191844558Y-93287887D01*
X191716641Y-93373358D01*
X191607858Y-93482141D01*
X191522387Y-93610058D01*
X191463513Y-93752191D01*
X191433500Y-93903078D01*
X186055000Y-93903078D01*
X186055000Y-92315578D01*
X200450500Y-92315578D01*
X200450500Y-92469422D01*
X200480513Y-92620309D01*
X200539387Y-92762442D01*
X200624858Y-92890359D01*
X200733641Y-92999142D01*
X200861558Y-93084613D01*
X201003691Y-93143487D01*
X201154578Y-93173500D01*
X201308422Y-93173500D01*
X201459309Y-93143487D01*
X201601442Y-93084613D01*
X201729359Y-92999142D01*
X201838142Y-92890359D01*
X201910112Y-92782648D01*
X201949087Y-92876742D01*
X202034558Y-93004659D01*
X202143341Y-93113442D01*
X202271258Y-93198913D01*
X202413391Y-93257787D01*
X202564278Y-93287800D01*
X202718122Y-93287800D01*
X202869009Y-93257787D01*
X203011142Y-93198913D01*
X203139059Y-93113442D01*
X203200588Y-93051913D01*
X203202958Y-93055459D01*
X203311741Y-93164242D01*
X203439658Y-93249713D01*
X203581791Y-93308587D01*
X203732678Y-93338600D01*
X203886522Y-93338600D01*
X204037409Y-93308587D01*
X204179542Y-93249713D01*
X204307459Y-93164242D01*
X204346035Y-93125666D01*
X204455658Y-93198913D01*
X204597791Y-93257787D01*
X204748678Y-93287800D01*
X204902522Y-93287800D01*
X205053409Y-93257787D01*
X205195542Y-93198913D01*
X205323459Y-93113442D01*
X205432242Y-93004659D01*
X205517713Y-92876742D01*
X205576587Y-92734609D01*
X205606600Y-92583722D01*
X205606600Y-92429878D01*
X205584497Y-92318757D01*
X219075000Y-92318757D01*
X219075000Y-92561243D01*
X219122307Y-92799069D01*
X219215102Y-93023097D01*
X219349820Y-93224717D01*
X219521283Y-93396180D01*
X219722903Y-93530898D01*
X219946931Y-93623693D01*
X220184757Y-93671000D01*
X220427243Y-93671000D01*
X220665069Y-93623693D01*
X220889097Y-93530898D01*
X221090717Y-93396180D01*
X221262180Y-93224717D01*
X221396898Y-93023097D01*
X221489693Y-92799069D01*
X221537000Y-92561243D01*
X221537000Y-92318757D01*
X223051000Y-92318757D01*
X223051000Y-92561243D01*
X223098307Y-92799069D01*
X223191102Y-93023097D01*
X223325820Y-93224717D01*
X223497283Y-93396180D01*
X223698903Y-93530898D01*
X223922931Y-93623693D01*
X224160757Y-93671000D01*
X224403243Y-93671000D01*
X224641069Y-93623693D01*
X224865097Y-93530898D01*
X225066717Y-93396180D01*
X225238180Y-93224717D01*
X225372898Y-93023097D01*
X225465693Y-92799069D01*
X225513000Y-92561243D01*
X225513000Y-92318757D01*
X225465693Y-92080931D01*
X225372898Y-91856903D01*
X225238180Y-91655283D01*
X225066717Y-91483820D01*
X224865097Y-91349102D01*
X224641069Y-91256307D01*
X224403243Y-91209000D01*
X224160757Y-91209000D01*
X223922931Y-91256307D01*
X223698903Y-91349102D01*
X223497283Y-91483820D01*
X223325820Y-91655283D01*
X223191102Y-91856903D01*
X223098307Y-92080931D01*
X223051000Y-92318757D01*
X221537000Y-92318757D01*
X221489693Y-92080931D01*
X221396898Y-91856903D01*
X221262180Y-91655283D01*
X221090717Y-91483820D01*
X220889097Y-91349102D01*
X220665069Y-91256307D01*
X220427243Y-91209000D01*
X220184757Y-91209000D01*
X219946931Y-91256307D01*
X219722903Y-91349102D01*
X219521283Y-91483820D01*
X219349820Y-91655283D01*
X219215102Y-91856903D01*
X219122307Y-92080931D01*
X219075000Y-92318757D01*
X205584497Y-92318757D01*
X205576587Y-92278991D01*
X205517713Y-92136858D01*
X205432242Y-92008941D01*
X205323459Y-91900158D01*
X205195542Y-91814687D01*
X205053409Y-91755813D01*
X204972642Y-91739748D01*
X205002609Y-91733787D01*
X205144742Y-91674913D01*
X205272659Y-91589442D01*
X205381442Y-91480659D01*
X205466913Y-91352742D01*
X205525787Y-91210609D01*
X205555800Y-91059722D01*
X205555800Y-90905878D01*
X205525787Y-90754991D01*
X205466913Y-90612858D01*
X205381442Y-90484941D01*
X205272659Y-90376158D01*
X205144742Y-90290687D01*
X205098662Y-90271600D01*
X205144742Y-90252513D01*
X205272659Y-90167042D01*
X205381442Y-90058259D01*
X205466913Y-89930342D01*
X205525787Y-89788209D01*
X205555800Y-89637322D01*
X205555800Y-89483478D01*
X205525787Y-89332591D01*
X205472555Y-89204078D01*
X207562500Y-89204078D01*
X207562500Y-89357922D01*
X207592513Y-89508809D01*
X207651387Y-89650942D01*
X207736858Y-89778859D01*
X207845641Y-89887642D01*
X207973558Y-89973113D01*
X208115691Y-90031987D01*
X208266578Y-90062000D01*
X208420422Y-90062000D01*
X208571309Y-90031987D01*
X208713442Y-89973113D01*
X208841359Y-89887642D01*
X208950142Y-89778859D01*
X209035613Y-89650942D01*
X209094487Y-89508809D01*
X209124500Y-89357922D01*
X209124500Y-89204078D01*
X212833000Y-89204078D01*
X212833000Y-89357922D01*
X212863013Y-89508809D01*
X212921887Y-89650942D01*
X213007358Y-89778859D01*
X213116141Y-89887642D01*
X213244058Y-89973113D01*
X213386191Y-90031987D01*
X213537078Y-90062000D01*
X213690922Y-90062000D01*
X213841809Y-90031987D01*
X213983942Y-89973113D01*
X214111859Y-89887642D01*
X214220642Y-89778859D01*
X214220710Y-89778757D01*
X219075000Y-89778757D01*
X219075000Y-90021243D01*
X219122307Y-90259069D01*
X219215102Y-90483097D01*
X219349820Y-90684717D01*
X219521283Y-90856180D01*
X219722903Y-90990898D01*
X219946931Y-91083693D01*
X220184757Y-91131000D01*
X220427243Y-91131000D01*
X220665069Y-91083693D01*
X220889097Y-90990898D01*
X221090717Y-90856180D01*
X221262180Y-90684717D01*
X221396898Y-90483097D01*
X221489693Y-90259069D01*
X221537000Y-90021243D01*
X221537000Y-89778757D01*
X223051000Y-89778757D01*
X223051000Y-90021243D01*
X223098307Y-90259069D01*
X223191102Y-90483097D01*
X223325820Y-90684717D01*
X223497283Y-90856180D01*
X223698903Y-90990898D01*
X223922931Y-91083693D01*
X224160757Y-91131000D01*
X224403243Y-91131000D01*
X224641069Y-91083693D01*
X224865097Y-90990898D01*
X225066717Y-90856180D01*
X225238180Y-90684717D01*
X225372898Y-90483097D01*
X225465693Y-90259069D01*
X225513000Y-90021243D01*
X225513000Y-89778757D01*
X225465693Y-89540931D01*
X225372898Y-89316903D01*
X225238180Y-89115283D01*
X225066717Y-88943820D01*
X224865097Y-88809102D01*
X224641069Y-88716307D01*
X224403243Y-88669000D01*
X224160757Y-88669000D01*
X223922931Y-88716307D01*
X223698903Y-88809102D01*
X223497283Y-88943820D01*
X223325820Y-89115283D01*
X223191102Y-89316903D01*
X223098307Y-89540931D01*
X223051000Y-89778757D01*
X221537000Y-89778757D01*
X221489693Y-89540931D01*
X221396898Y-89316903D01*
X221262180Y-89115283D01*
X221090717Y-88943820D01*
X220889097Y-88809102D01*
X220665069Y-88716307D01*
X220427243Y-88669000D01*
X220184757Y-88669000D01*
X219946931Y-88716307D01*
X219722903Y-88809102D01*
X219521283Y-88943820D01*
X219349820Y-89115283D01*
X219215102Y-89316903D01*
X219122307Y-89540931D01*
X219075000Y-89778757D01*
X214220710Y-89778757D01*
X214306113Y-89650942D01*
X214364987Y-89508809D01*
X214395000Y-89357922D01*
X214395000Y-89204078D01*
X214364987Y-89053191D01*
X214306113Y-88911058D01*
X214220642Y-88783141D01*
X214111859Y-88674358D01*
X213983942Y-88588887D01*
X213841809Y-88530013D01*
X213690922Y-88500000D01*
X213537078Y-88500000D01*
X213386191Y-88530013D01*
X213244058Y-88588887D01*
X213116141Y-88674358D01*
X213007358Y-88783141D01*
X212921887Y-88911058D01*
X212863013Y-89053191D01*
X212833000Y-89204078D01*
X209124500Y-89204078D01*
X209094487Y-89053191D01*
X209035613Y-88911058D01*
X208950142Y-88783141D01*
X208841359Y-88674358D01*
X208713442Y-88588887D01*
X208571309Y-88530013D01*
X208420422Y-88500000D01*
X208266578Y-88500000D01*
X208115691Y-88530013D01*
X207973558Y-88588887D01*
X207845641Y-88674358D01*
X207736858Y-88783141D01*
X207651387Y-88911058D01*
X207592513Y-89053191D01*
X207562500Y-89204078D01*
X205472555Y-89204078D01*
X205466913Y-89190458D01*
X205381442Y-89062541D01*
X205272659Y-88953758D01*
X205144742Y-88868287D01*
X205002609Y-88809413D01*
X204851722Y-88779400D01*
X204697878Y-88779400D01*
X204546991Y-88809413D01*
X204404858Y-88868287D01*
X204276941Y-88953758D01*
X204168158Y-89062541D01*
X204082687Y-89190458D01*
X204023813Y-89332591D01*
X203993800Y-89483478D01*
X203993800Y-89637322D01*
X204023813Y-89788209D01*
X204082687Y-89930342D01*
X204168158Y-90058259D01*
X204276941Y-90167042D01*
X204404858Y-90252513D01*
X204450938Y-90271600D01*
X204404858Y-90290687D01*
X204276941Y-90376158D01*
X204168158Y-90484941D01*
X204082687Y-90612858D01*
X204023813Y-90754991D01*
X203993800Y-90905878D01*
X203993800Y-91059722D01*
X204023813Y-91210609D01*
X204082687Y-91352742D01*
X204168158Y-91480659D01*
X204276941Y-91589442D01*
X204404858Y-91674913D01*
X204546991Y-91733787D01*
X204627758Y-91749852D01*
X204597791Y-91755813D01*
X204455658Y-91814687D01*
X204327741Y-91900158D01*
X204289165Y-91938734D01*
X204179542Y-91865487D01*
X204037409Y-91806613D01*
X203886522Y-91776600D01*
X203732678Y-91776600D01*
X203581791Y-91806613D01*
X203439658Y-91865487D01*
X203311741Y-91950958D01*
X203250212Y-92012487D01*
X203247842Y-92008941D01*
X203139059Y-91900158D01*
X203011142Y-91814687D01*
X202869009Y-91755813D01*
X202718122Y-91725800D01*
X202564278Y-91725800D01*
X202413391Y-91755813D01*
X202271258Y-91814687D01*
X202143341Y-91900158D01*
X202034558Y-92008941D01*
X201962588Y-92116652D01*
X201923613Y-92022558D01*
X201838142Y-91894641D01*
X201729359Y-91785858D01*
X201601442Y-91700387D01*
X201459309Y-91641513D01*
X201308422Y-91611500D01*
X201154578Y-91611500D01*
X201003691Y-91641513D01*
X200861558Y-91700387D01*
X200733641Y-91785858D01*
X200624858Y-91894641D01*
X200539387Y-92022558D01*
X200480513Y-92164691D01*
X200450500Y-92315578D01*
X186055000Y-92315578D01*
X186055000Y-90058781D01*
X186116858Y-90100113D01*
X186258991Y-90158987D01*
X186409878Y-90189000D01*
X186563722Y-90189000D01*
X186714609Y-90158987D01*
X186856742Y-90100113D01*
X186984659Y-90014642D01*
X187093442Y-89905859D01*
X187178913Y-89777942D01*
X187237787Y-89635809D01*
X187267800Y-89484922D01*
X187267800Y-89331078D01*
X187750500Y-89331078D01*
X187750500Y-89484922D01*
X187780513Y-89635809D01*
X187839387Y-89777942D01*
X187924858Y-89905859D01*
X188033641Y-90014642D01*
X188152110Y-90093800D01*
X188033641Y-90172958D01*
X187924858Y-90281741D01*
X187839387Y-90409658D01*
X187780513Y-90551791D01*
X187750500Y-90702678D01*
X187750500Y-90856522D01*
X187780513Y-91007409D01*
X187839387Y-91149542D01*
X187924858Y-91277459D01*
X188033641Y-91386242D01*
X188161558Y-91471713D01*
X188303691Y-91530587D01*
X188454578Y-91560600D01*
X188608422Y-91560600D01*
X188759309Y-91530587D01*
X188901442Y-91471713D01*
X189029359Y-91386242D01*
X189138142Y-91277459D01*
X189223613Y-91149542D01*
X189282487Y-91007409D01*
X189312500Y-90856522D01*
X189312500Y-90728078D01*
X192005000Y-90728078D01*
X192005000Y-90881922D01*
X192035013Y-91032809D01*
X192093887Y-91174942D01*
X192179358Y-91302859D01*
X192288141Y-91411642D01*
X192416058Y-91497113D01*
X192558191Y-91555987D01*
X192709078Y-91586000D01*
X192862922Y-91586000D01*
X193013809Y-91555987D01*
X193155942Y-91497113D01*
X193283859Y-91411642D01*
X193392642Y-91302859D01*
X193478113Y-91174942D01*
X193536987Y-91032809D01*
X193567000Y-90881922D01*
X193567000Y-90804278D01*
X195205400Y-90804278D01*
X195205400Y-90958122D01*
X195235413Y-91109009D01*
X195294287Y-91251142D01*
X195379758Y-91379059D01*
X195488541Y-91487842D01*
X195616458Y-91573313D01*
X195758591Y-91632187D01*
X195909478Y-91662200D01*
X196063322Y-91662200D01*
X196214209Y-91632187D01*
X196356342Y-91573313D01*
X196484259Y-91487842D01*
X196593042Y-91379059D01*
X196678513Y-91251142D01*
X196737387Y-91109009D01*
X196767400Y-90958122D01*
X196767400Y-90804278D01*
X196737387Y-90653391D01*
X196678513Y-90511258D01*
X196593042Y-90383341D01*
X196484259Y-90274558D01*
X196356342Y-90189087D01*
X196214209Y-90130213D01*
X196063322Y-90100200D01*
X195909478Y-90100200D01*
X195758591Y-90130213D01*
X195616458Y-90189087D01*
X195488541Y-90274558D01*
X195379758Y-90383341D01*
X195294287Y-90511258D01*
X195235413Y-90653391D01*
X195205400Y-90804278D01*
X193567000Y-90804278D01*
X193567000Y-90728078D01*
X193536987Y-90577191D01*
X193478113Y-90435058D01*
X193392642Y-90307141D01*
X193283859Y-90198358D01*
X193155942Y-90112887D01*
X193013809Y-90054013D01*
X192862922Y-90024000D01*
X192709078Y-90024000D01*
X192558191Y-90054013D01*
X192416058Y-90112887D01*
X192288141Y-90198358D01*
X192179358Y-90307141D01*
X192093887Y-90435058D01*
X192035013Y-90577191D01*
X192005000Y-90728078D01*
X189312500Y-90728078D01*
X189312500Y-90702678D01*
X189282487Y-90551791D01*
X189223613Y-90409658D01*
X189138142Y-90281741D01*
X189029359Y-90172958D01*
X188910890Y-90093800D01*
X189029359Y-90014642D01*
X189138142Y-89905859D01*
X189223613Y-89777942D01*
X189282487Y-89635809D01*
X189312500Y-89484922D01*
X189312500Y-89331078D01*
X190277800Y-89331078D01*
X190277800Y-89484922D01*
X190307813Y-89635809D01*
X190366687Y-89777942D01*
X190452158Y-89905859D01*
X190560941Y-90014642D01*
X190688858Y-90100113D01*
X190830991Y-90158987D01*
X190981878Y-90189000D01*
X191135722Y-90189000D01*
X191286609Y-90158987D01*
X191428742Y-90100113D01*
X191556659Y-90014642D01*
X191665442Y-89905859D01*
X191750913Y-89777942D01*
X191809787Y-89635809D01*
X191839800Y-89484922D01*
X191839800Y-89331078D01*
X191809787Y-89180191D01*
X191750913Y-89038058D01*
X191665442Y-88910141D01*
X191556659Y-88801358D01*
X191428742Y-88715887D01*
X191286609Y-88657013D01*
X191135722Y-88627000D01*
X190981878Y-88627000D01*
X190830991Y-88657013D01*
X190688858Y-88715887D01*
X190560941Y-88801358D01*
X190452158Y-88910141D01*
X190366687Y-89038058D01*
X190307813Y-89180191D01*
X190277800Y-89331078D01*
X189312500Y-89331078D01*
X189282487Y-89180191D01*
X189223613Y-89038058D01*
X189138142Y-88910141D01*
X189029359Y-88801358D01*
X188901442Y-88715887D01*
X188759309Y-88657013D01*
X188608422Y-88627000D01*
X188454578Y-88627000D01*
X188303691Y-88657013D01*
X188161558Y-88715887D01*
X188033641Y-88801358D01*
X187924858Y-88910141D01*
X187839387Y-89038058D01*
X187780513Y-89180191D01*
X187750500Y-89331078D01*
X187267800Y-89331078D01*
X187237787Y-89180191D01*
X187178913Y-89038058D01*
X187093442Y-88910141D01*
X186984659Y-88801358D01*
X186856742Y-88715887D01*
X186714609Y-88657013D01*
X186563722Y-88627000D01*
X186409878Y-88627000D01*
X186258991Y-88657013D01*
X186116858Y-88715887D01*
X186055000Y-88757219D01*
X186055000Y-88111878D01*
X195053000Y-88111878D01*
X195053000Y-88265722D01*
X195083013Y-88416609D01*
X195141887Y-88558742D01*
X195227358Y-88686659D01*
X195336141Y-88795442D01*
X195464058Y-88880913D01*
X195606191Y-88939787D01*
X195757078Y-88969800D01*
X195910922Y-88969800D01*
X196061809Y-88939787D01*
X196203942Y-88880913D01*
X196331859Y-88795442D01*
X196440642Y-88686659D01*
X196526113Y-88558742D01*
X196584987Y-88416609D01*
X196615000Y-88265722D01*
X196615000Y-88111878D01*
X196584987Y-87960991D01*
X196526113Y-87818858D01*
X196440642Y-87690941D01*
X196331859Y-87582158D01*
X196203942Y-87496687D01*
X196061809Y-87437813D01*
X195910922Y-87407800D01*
X195757078Y-87407800D01*
X195606191Y-87437813D01*
X195464058Y-87496687D01*
X195336141Y-87582158D01*
X195227358Y-87690941D01*
X195141887Y-87818858D01*
X195083013Y-87960991D01*
X195053000Y-88111878D01*
X186055000Y-88111878D01*
X186055000Y-87171018D01*
X186083358Y-87213459D01*
X186192141Y-87322242D01*
X186320058Y-87407713D01*
X186462191Y-87466587D01*
X186613078Y-87496600D01*
X186766922Y-87496600D01*
X186917809Y-87466587D01*
X187059942Y-87407713D01*
X187187859Y-87322242D01*
X187271344Y-87238757D01*
X219075000Y-87238757D01*
X219075000Y-87481243D01*
X219122307Y-87719069D01*
X219215102Y-87943097D01*
X219349820Y-88144717D01*
X219521283Y-88316180D01*
X219722903Y-88450898D01*
X219946931Y-88543693D01*
X220184757Y-88591000D01*
X220427243Y-88591000D01*
X220665069Y-88543693D01*
X220889097Y-88450898D01*
X221090717Y-88316180D01*
X221262180Y-88144717D01*
X221396898Y-87943097D01*
X221489693Y-87719069D01*
X221537000Y-87481243D01*
X221537000Y-87238757D01*
X223051000Y-87238757D01*
X223051000Y-87481243D01*
X223098307Y-87719069D01*
X223191102Y-87943097D01*
X223325820Y-88144717D01*
X223497283Y-88316180D01*
X223698903Y-88450898D01*
X223922931Y-88543693D01*
X224160757Y-88591000D01*
X224403243Y-88591000D01*
X224641069Y-88543693D01*
X224865097Y-88450898D01*
X225066717Y-88316180D01*
X225238180Y-88144717D01*
X225372898Y-87943097D01*
X225465693Y-87719069D01*
X225513000Y-87481243D01*
X225513000Y-87238757D01*
X225465693Y-87000931D01*
X225372898Y-86776903D01*
X225238180Y-86575283D01*
X225066717Y-86403820D01*
X224865097Y-86269102D01*
X224641069Y-86176307D01*
X224403243Y-86129000D01*
X224160757Y-86129000D01*
X223922931Y-86176307D01*
X223698903Y-86269102D01*
X223497283Y-86403820D01*
X223325820Y-86575283D01*
X223191102Y-86776903D01*
X223098307Y-87000931D01*
X223051000Y-87238757D01*
X221537000Y-87238757D01*
X221489693Y-87000931D01*
X221396898Y-86776903D01*
X221262180Y-86575283D01*
X221090717Y-86403820D01*
X220889097Y-86269102D01*
X220665069Y-86176307D01*
X220427243Y-86129000D01*
X220184757Y-86129000D01*
X219946931Y-86176307D01*
X219722903Y-86269102D01*
X219521283Y-86403820D01*
X219349820Y-86575283D01*
X219215102Y-86776903D01*
X219122307Y-87000931D01*
X219075000Y-87238757D01*
X187271344Y-87238757D01*
X187296642Y-87213459D01*
X187382113Y-87085542D01*
X187440987Y-86943409D01*
X187471000Y-86792522D01*
X187471000Y-86638678D01*
X187440987Y-86487791D01*
X187382113Y-86345658D01*
X187296642Y-86217741D01*
X187187859Y-86108958D01*
X187059942Y-86023487D01*
X186917809Y-85964613D01*
X186766922Y-85934600D01*
X186613078Y-85934600D01*
X186462191Y-85964613D01*
X186320058Y-86023487D01*
X186192141Y-86108958D01*
X186083358Y-86217741D01*
X186055000Y-86260182D01*
X186055000Y-84222349D01*
X187397256Y-84222349D01*
X187511118Y-84502090D01*
X187826296Y-84657961D01*
X188165826Y-84749349D01*
X188516661Y-84772741D01*
X188865319Y-84727240D01*
X189198400Y-84614594D01*
X189408882Y-84502090D01*
X189522744Y-84222349D01*
X188460000Y-83159605D01*
X187397256Y-84222349D01*
X186055000Y-84222349D01*
X186055000Y-83036661D01*
X186667259Y-83036661D01*
X186712760Y-83385319D01*
X186825406Y-83718400D01*
X186937910Y-83928882D01*
X187217651Y-84042744D01*
X188280395Y-82980000D01*
X188639605Y-82980000D01*
X189702349Y-84042744D01*
X189982090Y-83928882D01*
X190137961Y-83613704D01*
X190229349Y-83274174D01*
X190252741Y-82923339D01*
X190240457Y-82829210D01*
X202329000Y-82829210D01*
X202329000Y-83130790D01*
X202387835Y-83426576D01*
X202503245Y-83705201D01*
X202670795Y-83955956D01*
X202884044Y-84169205D01*
X203134799Y-84336755D01*
X203413424Y-84452165D01*
X203709210Y-84511000D01*
X204010790Y-84511000D01*
X204306576Y-84452165D01*
X204585201Y-84336755D01*
X204835956Y-84169205D01*
X205049205Y-83955956D01*
X205216755Y-83705201D01*
X205332165Y-83426576D01*
X205391000Y-83130790D01*
X205391000Y-82829210D01*
X205352746Y-82636890D01*
X218864524Y-82636890D01*
X218909175Y-82784099D01*
X219034359Y-83046920D01*
X219208412Y-83280269D01*
X219424645Y-83475178D01*
X219674748Y-83624157D01*
X219837168Y-83681772D01*
X219722903Y-83729102D01*
X219521283Y-83863820D01*
X219349820Y-84035283D01*
X219215102Y-84236903D01*
X219122307Y-84460931D01*
X219075000Y-84698757D01*
X219075000Y-84941243D01*
X219122307Y-85179069D01*
X219215102Y-85403097D01*
X219349820Y-85604717D01*
X219521283Y-85776180D01*
X219722903Y-85910898D01*
X219946931Y-86003693D01*
X220184757Y-86051000D01*
X220427243Y-86051000D01*
X220665069Y-86003693D01*
X220889097Y-85910898D01*
X221090717Y-85776180D01*
X221262180Y-85604717D01*
X221396898Y-85403097D01*
X221489693Y-85179069D01*
X221537000Y-84941243D01*
X221537000Y-84698757D01*
X221489693Y-84460931D01*
X221396898Y-84236903D01*
X221262180Y-84035283D01*
X221090717Y-83863820D01*
X220889097Y-83729102D01*
X220774832Y-83681772D01*
X220937252Y-83624157D01*
X221187355Y-83475178D01*
X221403588Y-83280269D01*
X221577641Y-83046920D01*
X221702825Y-82784099D01*
X221747476Y-82636890D01*
X222840524Y-82636890D01*
X222885175Y-82784099D01*
X223010359Y-83046920D01*
X223184412Y-83280269D01*
X223400645Y-83475178D01*
X223650748Y-83624157D01*
X223813168Y-83681772D01*
X223698903Y-83729102D01*
X223497283Y-83863820D01*
X223325820Y-84035283D01*
X223191102Y-84236903D01*
X223098307Y-84460931D01*
X223051000Y-84698757D01*
X223051000Y-84941243D01*
X223098307Y-85179069D01*
X223191102Y-85403097D01*
X223325820Y-85604717D01*
X223497283Y-85776180D01*
X223698903Y-85910898D01*
X223922931Y-86003693D01*
X224160757Y-86051000D01*
X224403243Y-86051000D01*
X224641069Y-86003693D01*
X224865097Y-85910898D01*
X225066717Y-85776180D01*
X225238180Y-85604717D01*
X225372898Y-85403097D01*
X225465693Y-85179069D01*
X225513000Y-84941243D01*
X225513000Y-84698757D01*
X225465693Y-84460931D01*
X225372898Y-84236903D01*
X225238180Y-84035283D01*
X225066717Y-83863820D01*
X224865097Y-83729102D01*
X224750832Y-83681772D01*
X224913252Y-83624157D01*
X225163355Y-83475178D01*
X225379588Y-83280269D01*
X225553641Y-83046920D01*
X225678825Y-82784099D01*
X225723476Y-82636890D01*
X225602155Y-82407000D01*
X224409000Y-82407000D01*
X224409000Y-82427000D01*
X224155000Y-82427000D01*
X224155000Y-82407000D01*
X222961845Y-82407000D01*
X222840524Y-82636890D01*
X221747476Y-82636890D01*
X221626155Y-82407000D01*
X220433000Y-82407000D01*
X220433000Y-82427000D01*
X220179000Y-82427000D01*
X220179000Y-82407000D01*
X218985845Y-82407000D01*
X218864524Y-82636890D01*
X205352746Y-82636890D01*
X205332165Y-82533424D01*
X205216755Y-82254799D01*
X205049205Y-82004044D01*
X204968271Y-81923110D01*
X218864524Y-81923110D01*
X218985845Y-82153000D01*
X220179000Y-82153000D01*
X220179000Y-80959186D01*
X220433000Y-80959186D01*
X220433000Y-82153000D01*
X221626155Y-82153000D01*
X221747476Y-81923110D01*
X222840524Y-81923110D01*
X222961845Y-82153000D01*
X224155000Y-82153000D01*
X224155000Y-80959186D01*
X224409000Y-80959186D01*
X224409000Y-82153000D01*
X225602155Y-82153000D01*
X225723476Y-81923110D01*
X225678825Y-81775901D01*
X225553641Y-81513080D01*
X225379588Y-81279731D01*
X225163355Y-81084822D01*
X224913252Y-80935843D01*
X224638891Y-80838519D01*
X224409000Y-80959186D01*
X224155000Y-80959186D01*
X223925109Y-80838519D01*
X223650748Y-80935843D01*
X223400645Y-81084822D01*
X223184412Y-81279731D01*
X223010359Y-81513080D01*
X222885175Y-81775901D01*
X222840524Y-81923110D01*
X221747476Y-81923110D01*
X221702825Y-81775901D01*
X221577641Y-81513080D01*
X221403588Y-81279731D01*
X221187355Y-81084822D01*
X220937252Y-80935843D01*
X220662891Y-80838519D01*
X220433000Y-80959186D01*
X220179000Y-80959186D01*
X219949109Y-80838519D01*
X219674748Y-80935843D01*
X219424645Y-81084822D01*
X219208412Y-81279731D01*
X219034359Y-81513080D01*
X218909175Y-81775901D01*
X218864524Y-81923110D01*
X204968271Y-81923110D01*
X204835956Y-81790795D01*
X204585201Y-81623245D01*
X204306576Y-81507835D01*
X204010790Y-81449000D01*
X203709210Y-81449000D01*
X203413424Y-81507835D01*
X203134799Y-81623245D01*
X202884044Y-81790795D01*
X202670795Y-82004044D01*
X202503245Y-82254799D01*
X202387835Y-82533424D01*
X202329000Y-82829210D01*
X190240457Y-82829210D01*
X190207240Y-82574681D01*
X190094594Y-82241600D01*
X189982090Y-82031118D01*
X189702349Y-81917256D01*
X188639605Y-82980000D01*
X188280395Y-82980000D01*
X187217651Y-81917256D01*
X186937910Y-82031118D01*
X186782039Y-82346296D01*
X186690651Y-82685826D01*
X186667259Y-83036661D01*
X186055000Y-83036661D01*
X186055000Y-81737651D01*
X187397256Y-81737651D01*
X188460000Y-82800395D01*
X189522744Y-81737651D01*
X189408882Y-81457910D01*
X189093704Y-81302039D01*
X188754174Y-81210651D01*
X188403339Y-81187259D01*
X188054681Y-81232760D01*
X187721600Y-81345406D01*
X187511118Y-81457910D01*
X187397256Y-81737651D01*
X186055000Y-81737651D01*
X186055000Y-80543241D01*
X226390702Y-80492759D01*
X226542097Y-118795800D01*
G37*
X226542097Y-118795800D02*
X205663800Y-118795800D01*
X205663800Y-115843000D01*
X205816922Y-115843000D01*
X205967809Y-115812987D01*
X206109942Y-115754113D01*
X206237859Y-115668642D01*
X206346642Y-115559859D01*
X206432113Y-115431942D01*
X206490987Y-115289809D01*
X206521000Y-115138922D01*
X206521000Y-114985078D01*
X206495739Y-114858078D01*
X210928000Y-114858078D01*
X210928000Y-115011922D01*
X210958013Y-115162809D01*
X211016887Y-115304942D01*
X211102358Y-115432859D01*
X211211141Y-115541642D01*
X211339058Y-115627113D01*
X211481191Y-115685987D01*
X211632078Y-115716000D01*
X211785922Y-115716000D01*
X211936809Y-115685987D01*
X212078942Y-115627113D01*
X212206859Y-115541642D01*
X212255423Y-115493078D01*
X219881500Y-115493078D01*
X219881500Y-115646922D01*
X219911513Y-115797809D01*
X219970387Y-115939942D01*
X220055858Y-116067859D01*
X220164641Y-116176642D01*
X220292558Y-116262113D01*
X220434691Y-116320987D01*
X220585578Y-116351000D01*
X220739422Y-116351000D01*
X220890309Y-116320987D01*
X221032442Y-116262113D01*
X221160359Y-116176642D01*
X221269142Y-116067859D01*
X221329250Y-115977901D01*
X221389358Y-116067859D01*
X221498141Y-116176642D01*
X221626058Y-116262113D01*
X221768191Y-116320987D01*
X221919078Y-116351000D01*
X222072922Y-116351000D01*
X222223809Y-116320987D01*
X222365942Y-116262113D01*
X222493859Y-116176642D01*
X222602642Y-116067859D01*
X222688113Y-115939942D01*
X222746987Y-115797809D01*
X222777000Y-115646922D01*
X222777000Y-115493078D01*
X222746987Y-115342191D01*
X222688113Y-115200058D01*
X222602642Y-115072141D01*
X222493859Y-114963358D01*
X222365942Y-114877887D01*
X222223809Y-114819013D01*
X222072922Y-114789000D01*
X221919078Y-114789000D01*
X221768191Y-114819013D01*
X221626058Y-114877887D01*
X221498141Y-114963358D01*
X221389358Y-115072141D01*
X221329250Y-115162099D01*
X221269142Y-115072141D01*
X221160359Y-114963358D01*
X221032442Y-114877887D01*
X220890309Y-114819013D01*
X220739422Y-114789000D01*
X220585578Y-114789000D01*
X220434691Y-114819013D01*
X220292558Y-114877887D01*
X220164641Y-114963358D01*
X220055858Y-115072141D01*
X219970387Y-115200058D01*
X219911513Y-115342191D01*
X219881500Y-115493078D01*
X212255423Y-115493078D01*
X212315642Y-115432859D01*
X212401113Y-115304942D01*
X212459987Y-115162809D01*
X212490000Y-115011922D01*
X212490000Y-114858078D01*
X212459987Y-114707191D01*
X212401113Y-114565058D01*
X212315642Y-114437141D01*
X212206859Y-114328358D01*
X212078942Y-114242887D01*
X211936809Y-114184013D01*
X211785922Y-114154000D01*
X211632078Y-114154000D01*
X211481191Y-114184013D01*
X211339058Y-114242887D01*
X211211141Y-114328358D01*
X211102358Y-114437141D01*
X211016887Y-114565058D01*
X210958013Y-114707191D01*
X210928000Y-114858078D01*
X206495739Y-114858078D01*
X206490987Y-114834191D01*
X206432113Y-114692058D01*
X206346642Y-114564141D01*
X206273001Y-114490500D01*
X206346642Y-114416859D01*
X206432113Y-114288942D01*
X206490987Y-114146809D01*
X206521000Y-113995922D01*
X206521000Y-113842078D01*
X212198000Y-113842078D01*
X212198000Y-113995922D01*
X212228013Y-114146809D01*
X212286887Y-114288942D01*
X212372358Y-114416859D01*
X212481141Y-114525642D01*
X212609058Y-114611113D01*
X212751191Y-114669987D01*
X212902078Y-114700000D01*
X213055922Y-114700000D01*
X213206809Y-114669987D01*
X213348942Y-114611113D01*
X213476859Y-114525642D01*
X213585642Y-114416859D01*
X213671113Y-114288942D01*
X213729987Y-114146809D01*
X213760000Y-113995922D01*
X213760000Y-113842078D01*
X213729987Y-113691191D01*
X213671113Y-113549058D01*
X213585642Y-113421141D01*
X213476859Y-113312358D01*
X213348942Y-113226887D01*
X213206809Y-113168013D01*
X213055922Y-113138000D01*
X212902078Y-113138000D01*
X212751191Y-113168013D01*
X212609058Y-113226887D01*
X212481141Y-113312358D01*
X212372358Y-113421141D01*
X212286887Y-113549058D01*
X212228013Y-113691191D01*
X212198000Y-113842078D01*
X206521000Y-113842078D01*
X206490987Y-113691191D01*
X206432113Y-113549058D01*
X206346642Y-113421141D01*
X206344500Y-113418999D01*
X206359293Y-113404205D01*
X206444764Y-113276288D01*
X206503638Y-113134155D01*
X206533651Y-112983268D01*
X206533651Y-112889578D01*
X213531500Y-112889578D01*
X213531500Y-113043422D01*
X213561513Y-113194309D01*
X213620387Y-113336442D01*
X213705858Y-113464359D01*
X213814641Y-113573142D01*
X213942558Y-113658613D01*
X214084691Y-113717487D01*
X214235578Y-113747500D01*
X214389422Y-113747500D01*
X214540309Y-113717487D01*
X214682442Y-113658613D01*
X214810359Y-113573142D01*
X214919142Y-113464359D01*
X215004613Y-113336442D01*
X215063487Y-113194309D01*
X215093500Y-113043422D01*
X215093500Y-112889578D01*
X215063487Y-112738691D01*
X215004613Y-112596558D01*
X214945827Y-112508578D01*
X224517000Y-112508578D01*
X224517000Y-112662422D01*
X224547013Y-112813309D01*
X224605887Y-112955442D01*
X224691358Y-113083359D01*
X224800141Y-113192142D01*
X224928058Y-113277613D01*
X225070191Y-113336487D01*
X225221078Y-113366500D01*
X225374922Y-113366500D01*
X225525809Y-113336487D01*
X225667942Y-113277613D01*
X225795859Y-113192142D01*
X225904642Y-113083359D01*
X225990113Y-112955442D01*
X226048987Y-112813309D01*
X226079000Y-112662422D01*
X226079000Y-112508578D01*
X226048987Y-112357691D01*
X225990113Y-112215558D01*
X225904642Y-112087641D01*
X225795859Y-111978858D01*
X225667942Y-111893387D01*
X225525809Y-111834513D01*
X225374922Y-111804500D01*
X225221078Y-111804500D01*
X225070191Y-111834513D01*
X224928058Y-111893387D01*
X224800141Y-111978858D01*
X224691358Y-112087641D01*
X224605887Y-112215558D01*
X224547013Y-112357691D01*
X224517000Y-112508578D01*
X214945827Y-112508578D01*
X214919142Y-112468641D01*
X214810359Y-112359858D01*
X214682442Y-112274387D01*
X214540309Y-112215513D01*
X214389422Y-112185500D01*
X214235578Y-112185500D01*
X214084691Y-112215513D01*
X213942558Y-112274387D01*
X213814641Y-112359858D01*
X213705858Y-112468641D01*
X213620387Y-112596558D01*
X213561513Y-112738691D01*
X213531500Y-112889578D01*
X206533651Y-112889578D01*
X206533651Y-112829424D01*
X206503638Y-112678537D01*
X206444764Y-112536404D01*
X206359293Y-112408487D01*
X206250510Y-112299704D01*
X206122593Y-112214233D01*
X205980460Y-112155359D01*
X205829573Y-112125346D01*
X205675729Y-112125346D01*
X205663800Y-112127719D01*
X205663800Y-109587578D01*
X221532500Y-109587578D01*
X221532500Y-109741422D01*
X221562513Y-109892309D01*
X221621387Y-110034442D01*
X221706858Y-110162359D01*
X221815641Y-110271142D01*
X221943558Y-110356613D01*
X222085691Y-110415487D01*
X222236578Y-110445500D01*
X222390422Y-110445500D01*
X222541309Y-110415487D01*
X222683442Y-110356613D01*
X222811359Y-110271142D01*
X222920142Y-110162359D01*
X223005613Y-110034442D01*
X223064487Y-109892309D01*
X223094500Y-109741422D01*
X223094500Y-109587578D01*
X223064487Y-109436691D01*
X223005613Y-109294558D01*
X222920142Y-109166641D01*
X222811359Y-109057858D01*
X222683442Y-108972387D01*
X222541309Y-108913513D01*
X222390422Y-108883500D01*
X222236578Y-108883500D01*
X222085691Y-108913513D01*
X221943558Y-108972387D01*
X221815641Y-109057858D01*
X221706858Y-109166641D01*
X221621387Y-109294558D01*
X221562513Y-109436691D01*
X221532500Y-109587578D01*
X205663800Y-109587578D01*
X205663800Y-107289600D01*
X205661360Y-107264824D01*
X205654133Y-107240999D01*
X205642397Y-107219043D01*
X205626603Y-107199797D01*
X205607357Y-107184003D01*
X205585401Y-107172267D01*
X205561576Y-107165040D01*
X205537237Y-107162601D01*
X179587721Y-107073255D01*
X179518714Y-106726334D01*
X179376920Y-106384014D01*
X179171068Y-106075934D01*
X178909067Y-105813933D01*
X178600987Y-105608081D01*
X178258667Y-105466287D01*
X177895262Y-105394001D01*
X177524738Y-105394001D01*
X177161333Y-105466287D01*
X176819013Y-105608081D01*
X176510933Y-105813933D01*
X176248932Y-106075934D01*
X176043080Y-106384014D01*
X175901286Y-106726334D01*
X175834849Y-107060333D01*
X163501703Y-107017869D01*
X163443713Y-106726334D01*
X163301919Y-106384014D01*
X163096067Y-106075934D01*
X162834066Y-105813933D01*
X162525986Y-105608081D01*
X162183666Y-105466287D01*
X161820261Y-105394001D01*
X161449737Y-105394001D01*
X161086332Y-105466287D01*
X160744012Y-105608081D01*
X160435932Y-105813933D01*
X160173931Y-106075934D01*
X159968079Y-106384014D01*
X159826285Y-106726334D01*
X159770850Y-107005023D01*
X147414692Y-106962480D01*
X147368714Y-106731333D01*
X147226920Y-106389013D01*
X147021068Y-106080933D01*
X146759067Y-105818932D01*
X146645401Y-105742983D01*
X146644761Y-105169360D01*
X149979000Y-105169360D01*
X149979000Y-105490640D01*
X150041678Y-105805745D01*
X150164626Y-106102568D01*
X150343119Y-106369702D01*
X150570298Y-106596881D01*
X150837432Y-106775374D01*
X151134255Y-106898322D01*
X151449360Y-106961000D01*
X151770640Y-106961000D01*
X152085745Y-106898322D01*
X152382568Y-106775374D01*
X152649702Y-106596881D01*
X152876881Y-106369702D01*
X153055374Y-106102568D01*
X153178322Y-105805745D01*
X153241000Y-105490640D01*
X153241000Y-105169360D01*
X153240006Y-105164361D01*
X154053999Y-105164361D01*
X154053999Y-105485641D01*
X154116677Y-105800746D01*
X154239625Y-106097569D01*
X154418118Y-106364703D01*
X154645297Y-106591882D01*
X154912431Y-106770375D01*
X155209254Y-106893323D01*
X155524359Y-106956001D01*
X155845639Y-106956001D01*
X156160744Y-106893323D01*
X156457567Y-106770375D01*
X156724701Y-106591882D01*
X156951880Y-106364703D01*
X157130373Y-106097569D01*
X157253321Y-105800746D01*
X157315999Y-105485641D01*
X157315999Y-105164361D01*
X166053999Y-105164361D01*
X166053999Y-105485641D01*
X166116677Y-105800746D01*
X166239625Y-106097569D01*
X166418118Y-106364703D01*
X166645297Y-106591882D01*
X166912431Y-106770375D01*
X167209254Y-106893323D01*
X167524359Y-106956001D01*
X167845639Y-106956001D01*
X168160744Y-106893323D01*
X168457567Y-106770375D01*
X168724701Y-106591882D01*
X168951880Y-106364703D01*
X169130373Y-106097569D01*
X169253321Y-105800746D01*
X169315999Y-105485641D01*
X169315999Y-105164361D01*
X170129000Y-105164361D01*
X170129000Y-105485641D01*
X170191678Y-105800746D01*
X170314626Y-106097569D01*
X170493119Y-106364703D01*
X170720298Y-106591882D01*
X170987432Y-106770375D01*
X171284255Y-106893323D01*
X171599360Y-106956001D01*
X171920640Y-106956001D01*
X172235745Y-106893323D01*
X172532568Y-106770375D01*
X172799702Y-106591882D01*
X173026881Y-106364703D01*
X173205374Y-106097569D01*
X173328322Y-105800746D01*
X173391000Y-105485641D01*
X173391000Y-105164361D01*
X182129000Y-105164361D01*
X182129000Y-105485641D01*
X182191678Y-105800746D01*
X182314626Y-106097569D01*
X182493119Y-106364703D01*
X182720298Y-106591882D01*
X182987432Y-106770375D01*
X183284255Y-106893323D01*
X183599360Y-106956001D01*
X183920640Y-106956001D01*
X184235745Y-106893323D01*
X184532568Y-106770375D01*
X184799702Y-106591882D01*
X185026881Y-106364703D01*
X185205374Y-106097569D01*
X185328322Y-105800746D01*
X185358192Y-105650578D01*
X224644000Y-105650578D01*
X224644000Y-105804422D01*
X224674013Y-105955309D01*
X224732887Y-106097442D01*
X224818358Y-106225359D01*
X224927141Y-106334142D01*
X225055058Y-106419613D01*
X225197191Y-106478487D01*
X225348078Y-106508500D01*
X225501922Y-106508500D01*
X225652809Y-106478487D01*
X225794942Y-106419613D01*
X225922859Y-106334142D01*
X226031642Y-106225359D01*
X226117113Y-106097442D01*
X226175987Y-105955309D01*
X226206000Y-105804422D01*
X226206000Y-105650578D01*
X226175987Y-105499691D01*
X226117113Y-105357558D01*
X226031642Y-105229641D01*
X225922859Y-105120858D01*
X225794942Y-105035387D01*
X225652809Y-104976513D01*
X225501922Y-104946500D01*
X225348078Y-104946500D01*
X225197191Y-104976513D01*
X225055058Y-105035387D01*
X224927141Y-105120858D01*
X224818358Y-105229641D01*
X224732887Y-105357558D01*
X224674013Y-105499691D01*
X224644000Y-105650578D01*
X185358192Y-105650578D01*
X185391000Y-105485641D01*
X185391000Y-105164361D01*
X185328322Y-104849256D01*
X185205374Y-104552433D01*
X185026881Y-104285299D01*
X184799702Y-104058120D01*
X184532568Y-103879627D01*
X184235745Y-103756679D01*
X183920640Y-103694001D01*
X183599360Y-103694001D01*
X183284255Y-103756679D01*
X182987432Y-103879627D01*
X182720298Y-104058120D01*
X182493119Y-104285299D01*
X182314626Y-104552433D01*
X182191678Y-104849256D01*
X182129000Y-105164361D01*
X173391000Y-105164361D01*
X173328322Y-104849256D01*
X173205374Y-104552433D01*
X173026881Y-104285299D01*
X172799702Y-104058120D01*
X172532568Y-103879627D01*
X172235745Y-103756679D01*
X171920640Y-103694001D01*
X171599360Y-103694001D01*
X171284255Y-103756679D01*
X170987432Y-103879627D01*
X170720298Y-104058120D01*
X170493119Y-104285299D01*
X170314626Y-104552433D01*
X170191678Y-104849256D01*
X170129000Y-105164361D01*
X169315999Y-105164361D01*
X169253321Y-104849256D01*
X169130373Y-104552433D01*
X168951880Y-104285299D01*
X168724701Y-104058120D01*
X168457567Y-103879627D01*
X168160744Y-103756679D01*
X167845639Y-103694001D01*
X167524359Y-103694001D01*
X167209254Y-103756679D01*
X166912431Y-103879627D01*
X166645297Y-104058120D01*
X166418118Y-104285299D01*
X166239625Y-104552433D01*
X166116677Y-104849256D01*
X166053999Y-105164361D01*
X157315999Y-105164361D01*
X157253321Y-104849256D01*
X157130373Y-104552433D01*
X156951880Y-104285299D01*
X156724701Y-104058120D01*
X156457567Y-103879627D01*
X156160744Y-103756679D01*
X155845639Y-103694001D01*
X155524359Y-103694001D01*
X155209254Y-103756679D01*
X154912431Y-103879627D01*
X154645297Y-104058120D01*
X154418118Y-104285299D01*
X154239625Y-104552433D01*
X154116677Y-104849256D01*
X154053999Y-105164361D01*
X153240006Y-105164361D01*
X153178322Y-104854255D01*
X153055374Y-104557432D01*
X152876881Y-104290298D01*
X152649702Y-104063119D01*
X152382568Y-103884626D01*
X152085745Y-103761678D01*
X151770640Y-103699000D01*
X151449360Y-103699000D01*
X151134255Y-103761678D01*
X150837432Y-103884626D01*
X150570298Y-104063119D01*
X150343119Y-104290298D01*
X150164626Y-104557432D01*
X150041678Y-104854255D01*
X149979000Y-105169360D01*
X146644761Y-105169360D01*
X146641656Y-102386678D01*
X147555000Y-102386678D01*
X147555000Y-102540522D01*
X147585013Y-102691409D01*
X147643887Y-102833542D01*
X147729358Y-102961459D01*
X147838141Y-103070242D01*
X147966058Y-103155713D01*
X148108191Y-103214587D01*
X148259078Y-103244600D01*
X148412922Y-103244600D01*
X148563809Y-103214587D01*
X148705942Y-103155713D01*
X148833859Y-103070242D01*
X148942642Y-102961459D01*
X149028113Y-102833542D01*
X149086987Y-102691409D01*
X149117000Y-102540522D01*
X149117000Y-102386678D01*
X149096791Y-102285078D01*
X163874500Y-102285078D01*
X163874500Y-102438922D01*
X163904513Y-102589809D01*
X163963387Y-102731942D01*
X164048858Y-102859859D01*
X164157641Y-102968642D01*
X164285558Y-103054113D01*
X164427691Y-103112987D01*
X164578578Y-103143000D01*
X164732422Y-103143000D01*
X164883309Y-103112987D01*
X165025442Y-103054113D01*
X165153359Y-102968642D01*
X165262142Y-102859859D01*
X165347613Y-102731942D01*
X165406487Y-102589809D01*
X165436500Y-102438922D01*
X165436500Y-102412078D01*
X180130500Y-102412078D01*
X180130500Y-102565922D01*
X180160513Y-102716809D01*
X180219387Y-102858942D01*
X180304858Y-102986859D01*
X180413641Y-103095642D01*
X180541558Y-103181113D01*
X180683691Y-103239987D01*
X180834578Y-103270000D01*
X180988422Y-103270000D01*
X181139309Y-103239987D01*
X181281442Y-103181113D01*
X181409359Y-103095642D01*
X181518142Y-102986859D01*
X181603613Y-102858942D01*
X181662487Y-102716809D01*
X181692500Y-102565922D01*
X181692500Y-102412078D01*
X181662487Y-102261191D01*
X181603613Y-102119058D01*
X181518142Y-101991141D01*
X181507279Y-101980278D01*
X202723800Y-101980278D01*
X202723800Y-102134122D01*
X202753813Y-102285009D01*
X202812687Y-102427142D01*
X202898158Y-102555059D01*
X203006941Y-102663842D01*
X203134858Y-102749313D01*
X203276991Y-102808187D01*
X203427878Y-102838200D01*
X203581722Y-102838200D01*
X203732609Y-102808187D01*
X203874742Y-102749313D01*
X204002659Y-102663842D01*
X204111442Y-102555059D01*
X204196913Y-102427142D01*
X204203152Y-102412078D01*
X213087000Y-102412078D01*
X213087000Y-102565922D01*
X213117013Y-102716809D01*
X213175887Y-102858942D01*
X213261358Y-102986859D01*
X213370141Y-103095642D01*
X213498058Y-103181113D01*
X213640191Y-103239987D01*
X213791078Y-103270000D01*
X213812000Y-103270000D01*
X213812000Y-103273030D01*
X213842013Y-103423917D01*
X213900887Y-103566050D01*
X213986358Y-103693967D01*
X214095141Y-103802750D01*
X214223058Y-103888221D01*
X214365191Y-103947095D01*
X214516078Y-103977108D01*
X214669922Y-103977108D01*
X214820809Y-103947095D01*
X214962942Y-103888221D01*
X215090859Y-103802750D01*
X215199642Y-103693967D01*
X215285113Y-103566050D01*
X215343987Y-103423917D01*
X215374000Y-103273030D01*
X215374000Y-103174078D01*
X218268600Y-103174078D01*
X218268600Y-103327922D01*
X218298613Y-103478809D01*
X218357487Y-103620942D01*
X218442958Y-103748859D01*
X218551741Y-103857642D01*
X218679658Y-103943113D01*
X218821791Y-104001987D01*
X218972678Y-104032000D01*
X219126522Y-104032000D01*
X219277409Y-104001987D01*
X219419542Y-103943113D01*
X219547459Y-103857642D01*
X219656242Y-103748859D01*
X219741713Y-103620942D01*
X219800587Y-103478809D01*
X219830600Y-103327922D01*
X219830600Y-103174078D01*
X219827724Y-103159617D01*
X219837791Y-103163787D01*
X219988678Y-103193800D01*
X220142522Y-103193800D01*
X220293409Y-103163787D01*
X220435542Y-103104913D01*
X220563459Y-103019442D01*
X220672242Y-102910659D01*
X220757713Y-102782742D01*
X220816587Y-102640609D01*
X220846600Y-102489722D01*
X220846600Y-102412078D01*
X223564500Y-102412078D01*
X223564500Y-102565922D01*
X223594513Y-102716809D01*
X223653387Y-102858942D01*
X223738858Y-102986859D01*
X223847641Y-103095642D01*
X223975558Y-103181113D01*
X224117691Y-103239987D01*
X224268578Y-103270000D01*
X224422422Y-103270000D01*
X224573309Y-103239987D01*
X224715442Y-103181113D01*
X224843359Y-103095642D01*
X224952142Y-102986859D01*
X225037613Y-102858942D01*
X225096487Y-102716809D01*
X225126500Y-102565922D01*
X225126500Y-102412078D01*
X225096487Y-102261191D01*
X225037613Y-102119058D01*
X224952142Y-101991141D01*
X224843359Y-101882358D01*
X224715442Y-101796887D01*
X224573309Y-101738013D01*
X224422422Y-101708000D01*
X224268578Y-101708000D01*
X224117691Y-101738013D01*
X223975558Y-101796887D01*
X223847641Y-101882358D01*
X223738858Y-101991141D01*
X223653387Y-102119058D01*
X223594513Y-102261191D01*
X223564500Y-102412078D01*
X220846600Y-102412078D01*
X220846600Y-102335878D01*
X220816587Y-102184991D01*
X220757713Y-102042858D01*
X220672242Y-101914941D01*
X220563459Y-101806158D01*
X220435542Y-101720687D01*
X220293409Y-101661813D01*
X220142522Y-101631800D01*
X219988678Y-101631800D01*
X219837791Y-101661813D01*
X219695658Y-101720687D01*
X219567741Y-101806158D01*
X219458958Y-101914941D01*
X219373487Y-102042858D01*
X219314613Y-102184991D01*
X219284600Y-102335878D01*
X219284600Y-102489722D01*
X219287476Y-102504183D01*
X219277409Y-102500013D01*
X219126522Y-102470000D01*
X218972678Y-102470000D01*
X218821791Y-102500013D01*
X218679658Y-102558887D01*
X218551741Y-102644358D01*
X218442958Y-102753141D01*
X218357487Y-102881058D01*
X218298613Y-103023191D01*
X218268600Y-103174078D01*
X215374000Y-103174078D01*
X215374000Y-103119186D01*
X215343987Y-102968299D01*
X215285113Y-102826166D01*
X215199642Y-102698249D01*
X215090859Y-102589466D01*
X214962942Y-102503995D01*
X214820809Y-102445121D01*
X214669922Y-102415108D01*
X214649000Y-102415108D01*
X214649000Y-102412078D01*
X214618987Y-102261191D01*
X214560113Y-102119058D01*
X214474642Y-101991141D01*
X214365859Y-101882358D01*
X214237942Y-101796887D01*
X214095809Y-101738013D01*
X213944922Y-101708000D01*
X213791078Y-101708000D01*
X213640191Y-101738013D01*
X213498058Y-101796887D01*
X213370141Y-101882358D01*
X213261358Y-101991141D01*
X213175887Y-102119058D01*
X213117013Y-102261191D01*
X213087000Y-102412078D01*
X204203152Y-102412078D01*
X204255787Y-102285009D01*
X204285800Y-102134122D01*
X204285800Y-101980278D01*
X204255787Y-101829391D01*
X204196913Y-101687258D01*
X204111442Y-101559341D01*
X204002659Y-101450558D01*
X203874742Y-101365087D01*
X203732609Y-101306213D01*
X203581722Y-101276200D01*
X203427878Y-101276200D01*
X203276991Y-101306213D01*
X203134858Y-101365087D01*
X203006941Y-101450558D01*
X202898158Y-101559341D01*
X202812687Y-101687258D01*
X202753813Y-101829391D01*
X202723800Y-101980278D01*
X181507279Y-101980278D01*
X181409359Y-101882358D01*
X181281442Y-101796887D01*
X181139309Y-101738013D01*
X180988422Y-101708000D01*
X180834578Y-101708000D01*
X180683691Y-101738013D01*
X180541558Y-101796887D01*
X180413641Y-101882358D01*
X180304858Y-101991141D01*
X180219387Y-102119058D01*
X180160513Y-102261191D01*
X180130500Y-102412078D01*
X165436500Y-102412078D01*
X165436500Y-102285078D01*
X165406487Y-102134191D01*
X165347613Y-101992058D01*
X165262142Y-101864141D01*
X165153359Y-101755358D01*
X165025442Y-101669887D01*
X164883309Y-101611013D01*
X164732422Y-101581000D01*
X164578578Y-101581000D01*
X164427691Y-101611013D01*
X164285558Y-101669887D01*
X164157641Y-101755358D01*
X164048858Y-101864141D01*
X163963387Y-101992058D01*
X163904513Y-102134191D01*
X163874500Y-102285078D01*
X149096791Y-102285078D01*
X149086987Y-102235791D01*
X149028113Y-102093658D01*
X148942642Y-101965741D01*
X148833859Y-101856958D01*
X148705942Y-101771487D01*
X148563809Y-101712613D01*
X148412922Y-101682600D01*
X148259078Y-101682600D01*
X148108191Y-101712613D01*
X147966058Y-101771487D01*
X147838141Y-101856958D01*
X147729358Y-101965741D01*
X147643887Y-102093658D01*
X147585013Y-102235791D01*
X147555000Y-102386678D01*
X146641656Y-102386678D01*
X146636866Y-98094078D01*
X223501000Y-98094078D01*
X223501000Y-98247922D01*
X223531013Y-98398809D01*
X223589887Y-98540942D01*
X223675358Y-98668859D01*
X223784141Y-98777642D01*
X223912058Y-98863113D01*
X224054191Y-98921987D01*
X224205078Y-98952000D01*
X224358922Y-98952000D01*
X224509809Y-98921987D01*
X224651942Y-98863113D01*
X224779859Y-98777642D01*
X224888642Y-98668859D01*
X224974113Y-98540942D01*
X225032987Y-98398809D01*
X225063000Y-98247922D01*
X225063000Y-98094078D01*
X225032987Y-97943191D01*
X224974113Y-97801058D01*
X224888642Y-97673141D01*
X224779859Y-97564358D01*
X224651942Y-97478887D01*
X224509809Y-97420013D01*
X224358922Y-97390000D01*
X224205078Y-97390000D01*
X224054191Y-97420013D01*
X223912058Y-97478887D01*
X223784141Y-97564358D01*
X223675358Y-97673141D01*
X223589887Y-97801058D01*
X223531013Y-97943191D01*
X223501000Y-98094078D01*
X146636866Y-98094078D01*
X146635136Y-96544678D01*
X203130200Y-96544678D01*
X203130200Y-96698522D01*
X203160213Y-96849409D01*
X203219087Y-96991542D01*
X203304558Y-97119459D01*
X203413341Y-97228242D01*
X203541258Y-97313713D01*
X203683391Y-97372587D01*
X203834278Y-97402600D01*
X203988122Y-97402600D01*
X204139009Y-97372587D01*
X204281142Y-97313713D01*
X204409059Y-97228242D01*
X204517842Y-97119459D01*
X204603313Y-96991542D01*
X204662187Y-96849409D01*
X204692200Y-96698522D01*
X204692200Y-96544678D01*
X204662187Y-96393791D01*
X204603313Y-96251658D01*
X204517842Y-96123741D01*
X204409059Y-96014958D01*
X204281142Y-95929487D01*
X204139009Y-95870613D01*
X203988122Y-95840600D01*
X203834278Y-95840600D01*
X203683391Y-95870613D01*
X203541258Y-95929487D01*
X203413341Y-96014958D01*
X203304558Y-96123741D01*
X203219087Y-96251658D01*
X203160213Y-96393791D01*
X203130200Y-96544678D01*
X146635136Y-96544678D01*
X146634342Y-95834200D01*
X185928000Y-95834200D01*
X185952776Y-95831760D01*
X185976601Y-95824533D01*
X185998557Y-95812797D01*
X186017803Y-95797003D01*
X186033597Y-95777757D01*
X186045333Y-95755801D01*
X186052560Y-95731976D01*
X186055000Y-95707200D01*
X186055000Y-95300078D01*
X209086500Y-95300078D01*
X209086500Y-95453922D01*
X209116513Y-95604809D01*
X209175387Y-95746942D01*
X209260858Y-95874859D01*
X209369641Y-95983642D01*
X209497558Y-96069113D01*
X209639691Y-96127987D01*
X209790578Y-96158000D01*
X209944422Y-96158000D01*
X210095309Y-96127987D01*
X210237442Y-96069113D01*
X210365359Y-95983642D01*
X210474142Y-95874859D01*
X210559613Y-95746942D01*
X210618487Y-95604809D01*
X210648500Y-95453922D01*
X210648500Y-95300078D01*
X210618487Y-95149191D01*
X210559613Y-95007058D01*
X210474142Y-94879141D01*
X210365359Y-94770358D01*
X210237442Y-94684887D01*
X210095309Y-94626013D01*
X209944422Y-94596000D01*
X209790578Y-94596000D01*
X209639691Y-94626013D01*
X209497558Y-94684887D01*
X209369641Y-94770358D01*
X209260858Y-94879141D01*
X209175387Y-95007058D01*
X209116513Y-95149191D01*
X209086500Y-95300078D01*
X186055000Y-95300078D01*
X186055000Y-93903078D01*
X191433500Y-93903078D01*
X191433500Y-94056922D01*
X191463513Y-94207809D01*
X191522387Y-94349942D01*
X191607858Y-94477859D01*
X191716641Y-94586642D01*
X191844558Y-94672113D01*
X191986691Y-94730987D01*
X192137578Y-94761000D01*
X192291422Y-94761000D01*
X192442309Y-94730987D01*
X192584442Y-94672113D01*
X192712359Y-94586642D01*
X192821142Y-94477859D01*
X192906613Y-94349942D01*
X192965487Y-94207809D01*
X192988208Y-94093578D01*
X197783500Y-94093578D01*
X197783500Y-94247422D01*
X197813513Y-94398309D01*
X197872387Y-94540442D01*
X197957858Y-94668359D01*
X198066641Y-94777142D01*
X198194558Y-94862613D01*
X198336691Y-94921487D01*
X198487578Y-94951500D01*
X198641422Y-94951500D01*
X198792309Y-94921487D01*
X198934442Y-94862613D01*
X199062359Y-94777142D01*
X199171142Y-94668359D01*
X199256613Y-94540442D01*
X199315487Y-94398309D01*
X199345500Y-94247422D01*
X199345500Y-94093578D01*
X199315487Y-93942691D01*
X199256613Y-93800558D01*
X199191480Y-93703078D01*
X206379000Y-93703078D01*
X206379000Y-93856922D01*
X206409013Y-94007809D01*
X206467887Y-94149942D01*
X206553358Y-94277859D01*
X206662141Y-94386642D01*
X206790058Y-94472113D01*
X206932191Y-94530987D01*
X207083078Y-94561000D01*
X207236922Y-94561000D01*
X207387809Y-94530987D01*
X207529942Y-94472113D01*
X207657859Y-94386642D01*
X207766642Y-94277859D01*
X207852113Y-94149942D01*
X207910987Y-94007809D01*
X207941000Y-93856922D01*
X207941000Y-93703078D01*
X209079000Y-93703078D01*
X209079000Y-93856922D01*
X209109013Y-94007809D01*
X209167887Y-94149942D01*
X209253358Y-94277859D01*
X209362141Y-94386642D01*
X209490058Y-94472113D01*
X209632191Y-94530987D01*
X209783078Y-94561000D01*
X209936922Y-94561000D01*
X210087809Y-94530987D01*
X210229942Y-94472113D01*
X210357859Y-94386642D01*
X210466642Y-94277859D01*
X210552113Y-94149942D01*
X210610987Y-94007809D01*
X210641000Y-93856922D01*
X210641000Y-93703078D01*
X211779000Y-93703078D01*
X211779000Y-93856922D01*
X211809013Y-94007809D01*
X211867887Y-94149942D01*
X211953358Y-94277859D01*
X212062141Y-94386642D01*
X212190058Y-94472113D01*
X212332191Y-94530987D01*
X212483078Y-94561000D01*
X212636922Y-94561000D01*
X212787809Y-94530987D01*
X212929942Y-94472113D01*
X213057859Y-94386642D01*
X213166642Y-94277859D01*
X213252113Y-94149942D01*
X213310987Y-94007809D01*
X213341000Y-93856922D01*
X213341000Y-93703078D01*
X214479000Y-93703078D01*
X214479000Y-93856922D01*
X214509013Y-94007809D01*
X214567887Y-94149942D01*
X214653358Y-94277859D01*
X214762141Y-94386642D01*
X214890058Y-94472113D01*
X215032191Y-94530987D01*
X215183078Y-94561000D01*
X215336922Y-94561000D01*
X215487809Y-94530987D01*
X215629942Y-94472113D01*
X215757859Y-94386642D01*
X215866642Y-94277859D01*
X215952113Y-94149942D01*
X215960373Y-94130000D01*
X219073157Y-94130000D01*
X219073157Y-95830000D01*
X219080513Y-95904689D01*
X219102299Y-95976508D01*
X219137678Y-96042696D01*
X219185289Y-96100711D01*
X219243304Y-96148322D01*
X219309492Y-96183701D01*
X219381311Y-96205487D01*
X219456000Y-96212843D01*
X221156000Y-96212843D01*
X221230689Y-96205487D01*
X221302508Y-96183701D01*
X221368696Y-96148322D01*
X221426711Y-96100711D01*
X221474322Y-96042696D01*
X221509701Y-95976508D01*
X221531487Y-95904689D01*
X221538843Y-95830000D01*
X221538843Y-94130000D01*
X223049157Y-94130000D01*
X223049157Y-95830000D01*
X223056513Y-95904689D01*
X223078299Y-95976508D01*
X223113678Y-96042696D01*
X223161289Y-96100711D01*
X223219304Y-96148322D01*
X223285492Y-96183701D01*
X223357311Y-96205487D01*
X223432000Y-96212843D01*
X225132000Y-96212843D01*
X225206689Y-96205487D01*
X225278508Y-96183701D01*
X225344696Y-96148322D01*
X225402711Y-96100711D01*
X225450322Y-96042696D01*
X225485701Y-95976508D01*
X225507487Y-95904689D01*
X225514843Y-95830000D01*
X225514843Y-94130000D01*
X225507487Y-94055311D01*
X225485701Y-93983492D01*
X225450322Y-93917304D01*
X225402711Y-93859289D01*
X225344696Y-93811678D01*
X225278508Y-93776299D01*
X225206689Y-93754513D01*
X225132000Y-93747157D01*
X223432000Y-93747157D01*
X223357311Y-93754513D01*
X223285492Y-93776299D01*
X223219304Y-93811678D01*
X223161289Y-93859289D01*
X223113678Y-93917304D01*
X223078299Y-93983492D01*
X223056513Y-94055311D01*
X223049157Y-94130000D01*
X221538843Y-94130000D01*
X221531487Y-94055311D01*
X221509701Y-93983492D01*
X221474322Y-93917304D01*
X221426711Y-93859289D01*
X221368696Y-93811678D01*
X221302508Y-93776299D01*
X221230689Y-93754513D01*
X221156000Y-93747157D01*
X219456000Y-93747157D01*
X219381311Y-93754513D01*
X219309492Y-93776299D01*
X219243304Y-93811678D01*
X219185289Y-93859289D01*
X219137678Y-93917304D01*
X219102299Y-93983492D01*
X219080513Y-94055311D01*
X219073157Y-94130000D01*
X215960373Y-94130000D01*
X216010987Y-94007809D01*
X216041000Y-93856922D01*
X216041000Y-93703078D01*
X216010987Y-93552191D01*
X215952113Y-93410058D01*
X215866642Y-93282141D01*
X215757859Y-93173358D01*
X215629942Y-93087887D01*
X215487809Y-93029013D01*
X215336922Y-92999000D01*
X215183078Y-92999000D01*
X215032191Y-93029013D01*
X214890058Y-93087887D01*
X214762141Y-93173358D01*
X214653358Y-93282141D01*
X214567887Y-93410058D01*
X214509013Y-93552191D01*
X214479000Y-93703078D01*
X213341000Y-93703078D01*
X213310987Y-93552191D01*
X213252113Y-93410058D01*
X213166642Y-93282141D01*
X213057859Y-93173358D01*
X212929942Y-93087887D01*
X212787809Y-93029013D01*
X212636922Y-92999000D01*
X212483078Y-92999000D01*
X212332191Y-93029013D01*
X212190058Y-93087887D01*
X212062141Y-93173358D01*
X211953358Y-93282141D01*
X211867887Y-93410058D01*
X211809013Y-93552191D01*
X211779000Y-93703078D01*
X210641000Y-93703078D01*
X210610987Y-93552191D01*
X210552113Y-93410058D01*
X210466642Y-93282141D01*
X210357859Y-93173358D01*
X210229942Y-93087887D01*
X210087809Y-93029013D01*
X209936922Y-92999000D01*
X209783078Y-92999000D01*
X209632191Y-93029013D01*
X209490058Y-93087887D01*
X209362141Y-93173358D01*
X209253358Y-93282141D01*
X209167887Y-93410058D01*
X209109013Y-93552191D01*
X209079000Y-93703078D01*
X207941000Y-93703078D01*
X207910987Y-93552191D01*
X207852113Y-93410058D01*
X207766642Y-93282141D01*
X207657859Y-93173358D01*
X207529942Y-93087887D01*
X207387809Y-93029013D01*
X207236922Y-92999000D01*
X207083078Y-92999000D01*
X206932191Y-93029013D01*
X206790058Y-93087887D01*
X206662141Y-93173358D01*
X206553358Y-93282141D01*
X206467887Y-93410058D01*
X206409013Y-93552191D01*
X206379000Y-93703078D01*
X199191480Y-93703078D01*
X199171142Y-93672641D01*
X199062359Y-93563858D01*
X198934442Y-93478387D01*
X198792309Y-93419513D01*
X198641422Y-93389500D01*
X198487578Y-93389500D01*
X198336691Y-93419513D01*
X198194558Y-93478387D01*
X198066641Y-93563858D01*
X197957858Y-93672641D01*
X197872387Y-93800558D01*
X197813513Y-93942691D01*
X197783500Y-94093578D01*
X192988208Y-94093578D01*
X192995500Y-94056922D01*
X192995500Y-93903078D01*
X192965487Y-93752191D01*
X192906613Y-93610058D01*
X192821142Y-93482141D01*
X192712359Y-93373358D01*
X192584442Y-93287887D01*
X192442309Y-93229013D01*
X192291422Y-93199000D01*
X192137578Y-93199000D01*
X191986691Y-93229013D01*
X191844558Y-93287887D01*
X191716641Y-93373358D01*
X191607858Y-93482141D01*
X191522387Y-93610058D01*
X191463513Y-93752191D01*
X191433500Y-93903078D01*
X186055000Y-93903078D01*
X186055000Y-92315578D01*
X200450500Y-92315578D01*
X200450500Y-92469422D01*
X200480513Y-92620309D01*
X200539387Y-92762442D01*
X200624858Y-92890359D01*
X200733641Y-92999142D01*
X200861558Y-93084613D01*
X201003691Y-93143487D01*
X201154578Y-93173500D01*
X201308422Y-93173500D01*
X201459309Y-93143487D01*
X201601442Y-93084613D01*
X201729359Y-92999142D01*
X201838142Y-92890359D01*
X201910112Y-92782648D01*
X201949087Y-92876742D01*
X202034558Y-93004659D01*
X202143341Y-93113442D01*
X202271258Y-93198913D01*
X202413391Y-93257787D01*
X202564278Y-93287800D01*
X202718122Y-93287800D01*
X202869009Y-93257787D01*
X203011142Y-93198913D01*
X203139059Y-93113442D01*
X203200588Y-93051913D01*
X203202958Y-93055459D01*
X203311741Y-93164242D01*
X203439658Y-93249713D01*
X203581791Y-93308587D01*
X203732678Y-93338600D01*
X203886522Y-93338600D01*
X204037409Y-93308587D01*
X204179542Y-93249713D01*
X204307459Y-93164242D01*
X204346035Y-93125666D01*
X204455658Y-93198913D01*
X204597791Y-93257787D01*
X204748678Y-93287800D01*
X204902522Y-93287800D01*
X205053409Y-93257787D01*
X205195542Y-93198913D01*
X205323459Y-93113442D01*
X205432242Y-93004659D01*
X205517713Y-92876742D01*
X205576587Y-92734609D01*
X205606600Y-92583722D01*
X205606600Y-92429878D01*
X205584497Y-92318757D01*
X219075000Y-92318757D01*
X219075000Y-92561243D01*
X219122307Y-92799069D01*
X219215102Y-93023097D01*
X219349820Y-93224717D01*
X219521283Y-93396180D01*
X219722903Y-93530898D01*
X219946931Y-93623693D01*
X220184757Y-93671000D01*
X220427243Y-93671000D01*
X220665069Y-93623693D01*
X220889097Y-93530898D01*
X221090717Y-93396180D01*
X221262180Y-93224717D01*
X221396898Y-93023097D01*
X221489693Y-92799069D01*
X221537000Y-92561243D01*
X221537000Y-92318757D01*
X223051000Y-92318757D01*
X223051000Y-92561243D01*
X223098307Y-92799069D01*
X223191102Y-93023097D01*
X223325820Y-93224717D01*
X223497283Y-93396180D01*
X223698903Y-93530898D01*
X223922931Y-93623693D01*
X224160757Y-93671000D01*
X224403243Y-93671000D01*
X224641069Y-93623693D01*
X224865097Y-93530898D01*
X225066717Y-93396180D01*
X225238180Y-93224717D01*
X225372898Y-93023097D01*
X225465693Y-92799069D01*
X225513000Y-92561243D01*
X225513000Y-92318757D01*
X225465693Y-92080931D01*
X225372898Y-91856903D01*
X225238180Y-91655283D01*
X225066717Y-91483820D01*
X224865097Y-91349102D01*
X224641069Y-91256307D01*
X224403243Y-91209000D01*
X224160757Y-91209000D01*
X223922931Y-91256307D01*
X223698903Y-91349102D01*
X223497283Y-91483820D01*
X223325820Y-91655283D01*
X223191102Y-91856903D01*
X223098307Y-92080931D01*
X223051000Y-92318757D01*
X221537000Y-92318757D01*
X221489693Y-92080931D01*
X221396898Y-91856903D01*
X221262180Y-91655283D01*
X221090717Y-91483820D01*
X220889097Y-91349102D01*
X220665069Y-91256307D01*
X220427243Y-91209000D01*
X220184757Y-91209000D01*
X219946931Y-91256307D01*
X219722903Y-91349102D01*
X219521283Y-91483820D01*
X219349820Y-91655283D01*
X219215102Y-91856903D01*
X219122307Y-92080931D01*
X219075000Y-92318757D01*
X205584497Y-92318757D01*
X205576587Y-92278991D01*
X205517713Y-92136858D01*
X205432242Y-92008941D01*
X205323459Y-91900158D01*
X205195542Y-91814687D01*
X205053409Y-91755813D01*
X204972642Y-91739748D01*
X205002609Y-91733787D01*
X205144742Y-91674913D01*
X205272659Y-91589442D01*
X205381442Y-91480659D01*
X205466913Y-91352742D01*
X205525787Y-91210609D01*
X205555800Y-91059722D01*
X205555800Y-90905878D01*
X205525787Y-90754991D01*
X205466913Y-90612858D01*
X205381442Y-90484941D01*
X205272659Y-90376158D01*
X205144742Y-90290687D01*
X205098662Y-90271600D01*
X205144742Y-90252513D01*
X205272659Y-90167042D01*
X205381442Y-90058259D01*
X205466913Y-89930342D01*
X205525787Y-89788209D01*
X205555800Y-89637322D01*
X205555800Y-89483478D01*
X205525787Y-89332591D01*
X205472555Y-89204078D01*
X207562500Y-89204078D01*
X207562500Y-89357922D01*
X207592513Y-89508809D01*
X207651387Y-89650942D01*
X207736858Y-89778859D01*
X207845641Y-89887642D01*
X207973558Y-89973113D01*
X208115691Y-90031987D01*
X208266578Y-90062000D01*
X208420422Y-90062000D01*
X208571309Y-90031987D01*
X208713442Y-89973113D01*
X208841359Y-89887642D01*
X208950142Y-89778859D01*
X209035613Y-89650942D01*
X209094487Y-89508809D01*
X209124500Y-89357922D01*
X209124500Y-89204078D01*
X212833000Y-89204078D01*
X212833000Y-89357922D01*
X212863013Y-89508809D01*
X212921887Y-89650942D01*
X213007358Y-89778859D01*
X213116141Y-89887642D01*
X213244058Y-89973113D01*
X213386191Y-90031987D01*
X213537078Y-90062000D01*
X213690922Y-90062000D01*
X213841809Y-90031987D01*
X213983942Y-89973113D01*
X214111859Y-89887642D01*
X214220642Y-89778859D01*
X214220710Y-89778757D01*
X219075000Y-89778757D01*
X219075000Y-90021243D01*
X219122307Y-90259069D01*
X219215102Y-90483097D01*
X219349820Y-90684717D01*
X219521283Y-90856180D01*
X219722903Y-90990898D01*
X219946931Y-91083693D01*
X220184757Y-91131000D01*
X220427243Y-91131000D01*
X220665069Y-91083693D01*
X220889097Y-90990898D01*
X221090717Y-90856180D01*
X221262180Y-90684717D01*
X221396898Y-90483097D01*
X221489693Y-90259069D01*
X221537000Y-90021243D01*
X221537000Y-89778757D01*
X223051000Y-89778757D01*
X223051000Y-90021243D01*
X223098307Y-90259069D01*
X223191102Y-90483097D01*
X223325820Y-90684717D01*
X223497283Y-90856180D01*
X223698903Y-90990898D01*
X223922931Y-91083693D01*
X224160757Y-91131000D01*
X224403243Y-91131000D01*
X224641069Y-91083693D01*
X224865097Y-90990898D01*
X225066717Y-90856180D01*
X225238180Y-90684717D01*
X225372898Y-90483097D01*
X225465693Y-90259069D01*
X225513000Y-90021243D01*
X225513000Y-89778757D01*
X225465693Y-89540931D01*
X225372898Y-89316903D01*
X225238180Y-89115283D01*
X225066717Y-88943820D01*
X224865097Y-88809102D01*
X224641069Y-88716307D01*
X224403243Y-88669000D01*
X224160757Y-88669000D01*
X223922931Y-88716307D01*
X223698903Y-88809102D01*
X223497283Y-88943820D01*
X223325820Y-89115283D01*
X223191102Y-89316903D01*
X223098307Y-89540931D01*
X223051000Y-89778757D01*
X221537000Y-89778757D01*
X221489693Y-89540931D01*
X221396898Y-89316903D01*
X221262180Y-89115283D01*
X221090717Y-88943820D01*
X220889097Y-88809102D01*
X220665069Y-88716307D01*
X220427243Y-88669000D01*
X220184757Y-88669000D01*
X219946931Y-88716307D01*
X219722903Y-88809102D01*
X219521283Y-88943820D01*
X219349820Y-89115283D01*
X219215102Y-89316903D01*
X219122307Y-89540931D01*
X219075000Y-89778757D01*
X214220710Y-89778757D01*
X214306113Y-89650942D01*
X214364987Y-89508809D01*
X214395000Y-89357922D01*
X214395000Y-89204078D01*
X214364987Y-89053191D01*
X214306113Y-88911058D01*
X214220642Y-88783141D01*
X214111859Y-88674358D01*
X213983942Y-88588887D01*
X213841809Y-88530013D01*
X213690922Y-88500000D01*
X213537078Y-88500000D01*
X213386191Y-88530013D01*
X213244058Y-88588887D01*
X213116141Y-88674358D01*
X213007358Y-88783141D01*
X212921887Y-88911058D01*
X212863013Y-89053191D01*
X212833000Y-89204078D01*
X209124500Y-89204078D01*
X209094487Y-89053191D01*
X209035613Y-88911058D01*
X208950142Y-88783141D01*
X208841359Y-88674358D01*
X208713442Y-88588887D01*
X208571309Y-88530013D01*
X208420422Y-88500000D01*
X208266578Y-88500000D01*
X208115691Y-88530013D01*
X207973558Y-88588887D01*
X207845641Y-88674358D01*
X207736858Y-88783141D01*
X207651387Y-88911058D01*
X207592513Y-89053191D01*
X207562500Y-89204078D01*
X205472555Y-89204078D01*
X205466913Y-89190458D01*
X205381442Y-89062541D01*
X205272659Y-88953758D01*
X205144742Y-88868287D01*
X205002609Y-88809413D01*
X204851722Y-88779400D01*
X204697878Y-88779400D01*
X204546991Y-88809413D01*
X204404858Y-88868287D01*
X204276941Y-88953758D01*
X204168158Y-89062541D01*
X204082687Y-89190458D01*
X204023813Y-89332591D01*
X203993800Y-89483478D01*
X203993800Y-89637322D01*
X204023813Y-89788209D01*
X204082687Y-89930342D01*
X204168158Y-90058259D01*
X204276941Y-90167042D01*
X204404858Y-90252513D01*
X204450938Y-90271600D01*
X204404858Y-90290687D01*
X204276941Y-90376158D01*
X204168158Y-90484941D01*
X204082687Y-90612858D01*
X204023813Y-90754991D01*
X203993800Y-90905878D01*
X203993800Y-91059722D01*
X204023813Y-91210609D01*
X204082687Y-91352742D01*
X204168158Y-91480659D01*
X204276941Y-91589442D01*
X204404858Y-91674913D01*
X204546991Y-91733787D01*
X204627758Y-91749852D01*
X204597791Y-91755813D01*
X204455658Y-91814687D01*
X204327741Y-91900158D01*
X204289165Y-91938734D01*
X204179542Y-91865487D01*
X204037409Y-91806613D01*
X203886522Y-91776600D01*
X203732678Y-91776600D01*
X203581791Y-91806613D01*
X203439658Y-91865487D01*
X203311741Y-91950958D01*
X203250212Y-92012487D01*
X203247842Y-92008941D01*
X203139059Y-91900158D01*
X203011142Y-91814687D01*
X202869009Y-91755813D01*
X202718122Y-91725800D01*
X202564278Y-91725800D01*
X202413391Y-91755813D01*
X202271258Y-91814687D01*
X202143341Y-91900158D01*
X202034558Y-92008941D01*
X201962588Y-92116652D01*
X201923613Y-92022558D01*
X201838142Y-91894641D01*
X201729359Y-91785858D01*
X201601442Y-91700387D01*
X201459309Y-91641513D01*
X201308422Y-91611500D01*
X201154578Y-91611500D01*
X201003691Y-91641513D01*
X200861558Y-91700387D01*
X200733641Y-91785858D01*
X200624858Y-91894641D01*
X200539387Y-92022558D01*
X200480513Y-92164691D01*
X200450500Y-92315578D01*
X186055000Y-92315578D01*
X186055000Y-90058781D01*
X186116858Y-90100113D01*
X186258991Y-90158987D01*
X186409878Y-90189000D01*
X186563722Y-90189000D01*
X186714609Y-90158987D01*
X186856742Y-90100113D01*
X186984659Y-90014642D01*
X187093442Y-89905859D01*
X187178913Y-89777942D01*
X187237787Y-89635809D01*
X187267800Y-89484922D01*
X187267800Y-89331078D01*
X187750500Y-89331078D01*
X187750500Y-89484922D01*
X187780513Y-89635809D01*
X187839387Y-89777942D01*
X187924858Y-89905859D01*
X188033641Y-90014642D01*
X188152110Y-90093800D01*
X188033641Y-90172958D01*
X187924858Y-90281741D01*
X187839387Y-90409658D01*
X187780513Y-90551791D01*
X187750500Y-90702678D01*
X187750500Y-90856522D01*
X187780513Y-91007409D01*
X187839387Y-91149542D01*
X187924858Y-91277459D01*
X188033641Y-91386242D01*
X188161558Y-91471713D01*
X188303691Y-91530587D01*
X188454578Y-91560600D01*
X188608422Y-91560600D01*
X188759309Y-91530587D01*
X188901442Y-91471713D01*
X189029359Y-91386242D01*
X189138142Y-91277459D01*
X189223613Y-91149542D01*
X189282487Y-91007409D01*
X189312500Y-90856522D01*
X189312500Y-90728078D01*
X192005000Y-90728078D01*
X192005000Y-90881922D01*
X192035013Y-91032809D01*
X192093887Y-91174942D01*
X192179358Y-91302859D01*
X192288141Y-91411642D01*
X192416058Y-91497113D01*
X192558191Y-91555987D01*
X192709078Y-91586000D01*
X192862922Y-91586000D01*
X193013809Y-91555987D01*
X193155942Y-91497113D01*
X193283859Y-91411642D01*
X193392642Y-91302859D01*
X193478113Y-91174942D01*
X193536987Y-91032809D01*
X193567000Y-90881922D01*
X193567000Y-90804278D01*
X195205400Y-90804278D01*
X195205400Y-90958122D01*
X195235413Y-91109009D01*
X195294287Y-91251142D01*
X195379758Y-91379059D01*
X195488541Y-91487842D01*
X195616458Y-91573313D01*
X195758591Y-91632187D01*
X195909478Y-91662200D01*
X196063322Y-91662200D01*
X196214209Y-91632187D01*
X196356342Y-91573313D01*
X196484259Y-91487842D01*
X196593042Y-91379059D01*
X196678513Y-91251142D01*
X196737387Y-91109009D01*
X196767400Y-90958122D01*
X196767400Y-90804278D01*
X196737387Y-90653391D01*
X196678513Y-90511258D01*
X196593042Y-90383341D01*
X196484259Y-90274558D01*
X196356342Y-90189087D01*
X196214209Y-90130213D01*
X196063322Y-90100200D01*
X195909478Y-90100200D01*
X195758591Y-90130213D01*
X195616458Y-90189087D01*
X195488541Y-90274558D01*
X195379758Y-90383341D01*
X195294287Y-90511258D01*
X195235413Y-90653391D01*
X195205400Y-90804278D01*
X193567000Y-90804278D01*
X193567000Y-90728078D01*
X193536987Y-90577191D01*
X193478113Y-90435058D01*
X193392642Y-90307141D01*
X193283859Y-90198358D01*
X193155942Y-90112887D01*
X193013809Y-90054013D01*
X192862922Y-90024000D01*
X192709078Y-90024000D01*
X192558191Y-90054013D01*
X192416058Y-90112887D01*
X192288141Y-90198358D01*
X192179358Y-90307141D01*
X192093887Y-90435058D01*
X192035013Y-90577191D01*
X192005000Y-90728078D01*
X189312500Y-90728078D01*
X189312500Y-90702678D01*
X189282487Y-90551791D01*
X189223613Y-90409658D01*
X189138142Y-90281741D01*
X189029359Y-90172958D01*
X188910890Y-90093800D01*
X189029359Y-90014642D01*
X189138142Y-89905859D01*
X189223613Y-89777942D01*
X189282487Y-89635809D01*
X189312500Y-89484922D01*
X189312500Y-89331078D01*
X190277800Y-89331078D01*
X190277800Y-89484922D01*
X190307813Y-89635809D01*
X190366687Y-89777942D01*
X190452158Y-89905859D01*
X190560941Y-90014642D01*
X190688858Y-90100113D01*
X190830991Y-90158987D01*
X190981878Y-90189000D01*
X191135722Y-90189000D01*
X191286609Y-90158987D01*
X191428742Y-90100113D01*
X191556659Y-90014642D01*
X191665442Y-89905859D01*
X191750913Y-89777942D01*
X191809787Y-89635809D01*
X191839800Y-89484922D01*
X191839800Y-89331078D01*
X191809787Y-89180191D01*
X191750913Y-89038058D01*
X191665442Y-88910141D01*
X191556659Y-88801358D01*
X191428742Y-88715887D01*
X191286609Y-88657013D01*
X191135722Y-88627000D01*
X190981878Y-88627000D01*
X190830991Y-88657013D01*
X190688858Y-88715887D01*
X190560941Y-88801358D01*
X190452158Y-88910141D01*
X190366687Y-89038058D01*
X190307813Y-89180191D01*
X190277800Y-89331078D01*
X189312500Y-89331078D01*
X189282487Y-89180191D01*
X189223613Y-89038058D01*
X189138142Y-88910141D01*
X189029359Y-88801358D01*
X188901442Y-88715887D01*
X188759309Y-88657013D01*
X188608422Y-88627000D01*
X188454578Y-88627000D01*
X188303691Y-88657013D01*
X188161558Y-88715887D01*
X188033641Y-88801358D01*
X187924858Y-88910141D01*
X187839387Y-89038058D01*
X187780513Y-89180191D01*
X187750500Y-89331078D01*
X187267800Y-89331078D01*
X187237787Y-89180191D01*
X187178913Y-89038058D01*
X187093442Y-88910141D01*
X186984659Y-88801358D01*
X186856742Y-88715887D01*
X186714609Y-88657013D01*
X186563722Y-88627000D01*
X186409878Y-88627000D01*
X186258991Y-88657013D01*
X186116858Y-88715887D01*
X186055000Y-88757219D01*
X186055000Y-88111878D01*
X195053000Y-88111878D01*
X195053000Y-88265722D01*
X195083013Y-88416609D01*
X195141887Y-88558742D01*
X195227358Y-88686659D01*
X195336141Y-88795442D01*
X195464058Y-88880913D01*
X195606191Y-88939787D01*
X195757078Y-88969800D01*
X195910922Y-88969800D01*
X196061809Y-88939787D01*
X196203942Y-88880913D01*
X196331859Y-88795442D01*
X196440642Y-88686659D01*
X196526113Y-88558742D01*
X196584987Y-88416609D01*
X196615000Y-88265722D01*
X196615000Y-88111878D01*
X196584987Y-87960991D01*
X196526113Y-87818858D01*
X196440642Y-87690941D01*
X196331859Y-87582158D01*
X196203942Y-87496687D01*
X196061809Y-87437813D01*
X195910922Y-87407800D01*
X195757078Y-87407800D01*
X195606191Y-87437813D01*
X195464058Y-87496687D01*
X195336141Y-87582158D01*
X195227358Y-87690941D01*
X195141887Y-87818858D01*
X195083013Y-87960991D01*
X195053000Y-88111878D01*
X186055000Y-88111878D01*
X186055000Y-87171018D01*
X186083358Y-87213459D01*
X186192141Y-87322242D01*
X186320058Y-87407713D01*
X186462191Y-87466587D01*
X186613078Y-87496600D01*
X186766922Y-87496600D01*
X186917809Y-87466587D01*
X187059942Y-87407713D01*
X187187859Y-87322242D01*
X187271344Y-87238757D01*
X219075000Y-87238757D01*
X219075000Y-87481243D01*
X219122307Y-87719069D01*
X219215102Y-87943097D01*
X219349820Y-88144717D01*
X219521283Y-88316180D01*
X219722903Y-88450898D01*
X219946931Y-88543693D01*
X220184757Y-88591000D01*
X220427243Y-88591000D01*
X220665069Y-88543693D01*
X220889097Y-88450898D01*
X221090717Y-88316180D01*
X221262180Y-88144717D01*
X221396898Y-87943097D01*
X221489693Y-87719069D01*
X221537000Y-87481243D01*
X221537000Y-87238757D01*
X223051000Y-87238757D01*
X223051000Y-87481243D01*
X223098307Y-87719069D01*
X223191102Y-87943097D01*
X223325820Y-88144717D01*
X223497283Y-88316180D01*
X223698903Y-88450898D01*
X223922931Y-88543693D01*
X224160757Y-88591000D01*
X224403243Y-88591000D01*
X224641069Y-88543693D01*
X224865097Y-88450898D01*
X225066717Y-88316180D01*
X225238180Y-88144717D01*
X225372898Y-87943097D01*
X225465693Y-87719069D01*
X225513000Y-87481243D01*
X225513000Y-87238757D01*
X225465693Y-87000931D01*
X225372898Y-86776903D01*
X225238180Y-86575283D01*
X225066717Y-86403820D01*
X224865097Y-86269102D01*
X224641069Y-86176307D01*
X224403243Y-86129000D01*
X224160757Y-86129000D01*
X223922931Y-86176307D01*
X223698903Y-86269102D01*
X223497283Y-86403820D01*
X223325820Y-86575283D01*
X223191102Y-86776903D01*
X223098307Y-87000931D01*
X223051000Y-87238757D01*
X221537000Y-87238757D01*
X221489693Y-87000931D01*
X221396898Y-86776903D01*
X221262180Y-86575283D01*
X221090717Y-86403820D01*
X220889097Y-86269102D01*
X220665069Y-86176307D01*
X220427243Y-86129000D01*
X220184757Y-86129000D01*
X219946931Y-86176307D01*
X219722903Y-86269102D01*
X219521283Y-86403820D01*
X219349820Y-86575283D01*
X219215102Y-86776903D01*
X219122307Y-87000931D01*
X219075000Y-87238757D01*
X187271344Y-87238757D01*
X187296642Y-87213459D01*
X187382113Y-87085542D01*
X187440987Y-86943409D01*
X187471000Y-86792522D01*
X187471000Y-86638678D01*
X187440987Y-86487791D01*
X187382113Y-86345658D01*
X187296642Y-86217741D01*
X187187859Y-86108958D01*
X187059942Y-86023487D01*
X186917809Y-85964613D01*
X186766922Y-85934600D01*
X186613078Y-85934600D01*
X186462191Y-85964613D01*
X186320058Y-86023487D01*
X186192141Y-86108958D01*
X186083358Y-86217741D01*
X186055000Y-86260182D01*
X186055000Y-84222349D01*
X187397256Y-84222349D01*
X187511118Y-84502090D01*
X187826296Y-84657961D01*
X188165826Y-84749349D01*
X188516661Y-84772741D01*
X188865319Y-84727240D01*
X189198400Y-84614594D01*
X189408882Y-84502090D01*
X189522744Y-84222349D01*
X188460000Y-83159605D01*
X187397256Y-84222349D01*
X186055000Y-84222349D01*
X186055000Y-83036661D01*
X186667259Y-83036661D01*
X186712760Y-83385319D01*
X186825406Y-83718400D01*
X186937910Y-83928882D01*
X187217651Y-84042744D01*
X188280395Y-82980000D01*
X188639605Y-82980000D01*
X189702349Y-84042744D01*
X189982090Y-83928882D01*
X190137961Y-83613704D01*
X190229349Y-83274174D01*
X190252741Y-82923339D01*
X190240457Y-82829210D01*
X202329000Y-82829210D01*
X202329000Y-83130790D01*
X202387835Y-83426576D01*
X202503245Y-83705201D01*
X202670795Y-83955956D01*
X202884044Y-84169205D01*
X203134799Y-84336755D01*
X203413424Y-84452165D01*
X203709210Y-84511000D01*
X204010790Y-84511000D01*
X204306576Y-84452165D01*
X204585201Y-84336755D01*
X204835956Y-84169205D01*
X205049205Y-83955956D01*
X205216755Y-83705201D01*
X205332165Y-83426576D01*
X205391000Y-83130790D01*
X205391000Y-82829210D01*
X205352746Y-82636890D01*
X218864524Y-82636890D01*
X218909175Y-82784099D01*
X219034359Y-83046920D01*
X219208412Y-83280269D01*
X219424645Y-83475178D01*
X219674748Y-83624157D01*
X219837168Y-83681772D01*
X219722903Y-83729102D01*
X219521283Y-83863820D01*
X219349820Y-84035283D01*
X219215102Y-84236903D01*
X219122307Y-84460931D01*
X219075000Y-84698757D01*
X219075000Y-84941243D01*
X219122307Y-85179069D01*
X219215102Y-85403097D01*
X219349820Y-85604717D01*
X219521283Y-85776180D01*
X219722903Y-85910898D01*
X219946931Y-86003693D01*
X220184757Y-86051000D01*
X220427243Y-86051000D01*
X220665069Y-86003693D01*
X220889097Y-85910898D01*
X221090717Y-85776180D01*
X221262180Y-85604717D01*
X221396898Y-85403097D01*
X221489693Y-85179069D01*
X221537000Y-84941243D01*
X221537000Y-84698757D01*
X221489693Y-84460931D01*
X221396898Y-84236903D01*
X221262180Y-84035283D01*
X221090717Y-83863820D01*
X220889097Y-83729102D01*
X220774832Y-83681772D01*
X220937252Y-83624157D01*
X221187355Y-83475178D01*
X221403588Y-83280269D01*
X221577641Y-83046920D01*
X221702825Y-82784099D01*
X221747476Y-82636890D01*
X222840524Y-82636890D01*
X222885175Y-82784099D01*
X223010359Y-83046920D01*
X223184412Y-83280269D01*
X223400645Y-83475178D01*
X223650748Y-83624157D01*
X223813168Y-83681772D01*
X223698903Y-83729102D01*
X223497283Y-83863820D01*
X223325820Y-84035283D01*
X223191102Y-84236903D01*
X223098307Y-84460931D01*
X223051000Y-84698757D01*
X223051000Y-84941243D01*
X223098307Y-85179069D01*
X223191102Y-85403097D01*
X223325820Y-85604717D01*
X223497283Y-85776180D01*
X223698903Y-85910898D01*
X223922931Y-86003693D01*
X224160757Y-86051000D01*
X224403243Y-86051000D01*
X224641069Y-86003693D01*
X224865097Y-85910898D01*
X225066717Y-85776180D01*
X225238180Y-85604717D01*
X225372898Y-85403097D01*
X225465693Y-85179069D01*
X225513000Y-84941243D01*
X225513000Y-84698757D01*
X225465693Y-84460931D01*
X225372898Y-84236903D01*
X225238180Y-84035283D01*
X225066717Y-83863820D01*
X224865097Y-83729102D01*
X224750832Y-83681772D01*
X224913252Y-83624157D01*
X225163355Y-83475178D01*
X225379588Y-83280269D01*
X225553641Y-83046920D01*
X225678825Y-82784099D01*
X225723476Y-82636890D01*
X225602155Y-82407000D01*
X224409000Y-82407000D01*
X224409000Y-82427000D01*
X224155000Y-82427000D01*
X224155000Y-82407000D01*
X222961845Y-82407000D01*
X222840524Y-82636890D01*
X221747476Y-82636890D01*
X221626155Y-82407000D01*
X220433000Y-82407000D01*
X220433000Y-82427000D01*
X220179000Y-82427000D01*
X220179000Y-82407000D01*
X218985845Y-82407000D01*
X218864524Y-82636890D01*
X205352746Y-82636890D01*
X205332165Y-82533424D01*
X205216755Y-82254799D01*
X205049205Y-82004044D01*
X204968271Y-81923110D01*
X218864524Y-81923110D01*
X218985845Y-82153000D01*
X220179000Y-82153000D01*
X220179000Y-80959186D01*
X220433000Y-80959186D01*
X220433000Y-82153000D01*
X221626155Y-82153000D01*
X221747476Y-81923110D01*
X222840524Y-81923110D01*
X222961845Y-82153000D01*
X224155000Y-82153000D01*
X224155000Y-80959186D01*
X224409000Y-80959186D01*
X224409000Y-82153000D01*
X225602155Y-82153000D01*
X225723476Y-81923110D01*
X225678825Y-81775901D01*
X225553641Y-81513080D01*
X225379588Y-81279731D01*
X225163355Y-81084822D01*
X224913252Y-80935843D01*
X224638891Y-80838519D01*
X224409000Y-80959186D01*
X224155000Y-80959186D01*
X223925109Y-80838519D01*
X223650748Y-80935843D01*
X223400645Y-81084822D01*
X223184412Y-81279731D01*
X223010359Y-81513080D01*
X222885175Y-81775901D01*
X222840524Y-81923110D01*
X221747476Y-81923110D01*
X221702825Y-81775901D01*
X221577641Y-81513080D01*
X221403588Y-81279731D01*
X221187355Y-81084822D01*
X220937252Y-80935843D01*
X220662891Y-80838519D01*
X220433000Y-80959186D01*
X220179000Y-80959186D01*
X219949109Y-80838519D01*
X219674748Y-80935843D01*
X219424645Y-81084822D01*
X219208412Y-81279731D01*
X219034359Y-81513080D01*
X218909175Y-81775901D01*
X218864524Y-81923110D01*
X204968271Y-81923110D01*
X204835956Y-81790795D01*
X204585201Y-81623245D01*
X204306576Y-81507835D01*
X204010790Y-81449000D01*
X203709210Y-81449000D01*
X203413424Y-81507835D01*
X203134799Y-81623245D01*
X202884044Y-81790795D01*
X202670795Y-82004044D01*
X202503245Y-82254799D01*
X202387835Y-82533424D01*
X202329000Y-82829210D01*
X190240457Y-82829210D01*
X190207240Y-82574681D01*
X190094594Y-82241600D01*
X189982090Y-82031118D01*
X189702349Y-81917256D01*
X188639605Y-82980000D01*
X188280395Y-82980000D01*
X187217651Y-81917256D01*
X186937910Y-82031118D01*
X186782039Y-82346296D01*
X186690651Y-82685826D01*
X186667259Y-83036661D01*
X186055000Y-83036661D01*
X186055000Y-81737651D01*
X187397256Y-81737651D01*
X188460000Y-82800395D01*
X189522744Y-81737651D01*
X189408882Y-81457910D01*
X189093704Y-81302039D01*
X188754174Y-81210651D01*
X188403339Y-81187259D01*
X188054681Y-81232760D01*
X187721600Y-81345406D01*
X187511118Y-81457910D01*
X187397256Y-81737651D01*
X186055000Y-81737651D01*
X186055000Y-80543241D01*
X226390702Y-80492759D01*
X226542097Y-118795800D01*
G36*
X185444588Y-88264836D02*
G01*
X145948563Y-88214200D01*
X145923783Y-88216609D01*
X145899950Y-88223805D01*
X145877978Y-88235513D01*
X145858713Y-88251282D01*
X145842894Y-88270507D01*
X145831130Y-88292449D01*
X145823872Y-88316264D01*
X145821400Y-88341495D01*
X145861122Y-105422046D01*
X145745262Y-105399000D01*
X145374738Y-105399000D01*
X145011333Y-105471286D01*
X144669013Y-105613080D01*
X144360933Y-105818932D01*
X144098932Y-106080933D01*
X143893080Y-106389013D01*
X143751286Y-106731333D01*
X143679000Y-107094738D01*
X143679000Y-107465262D01*
X143751286Y-107828667D01*
X143893080Y-108170987D01*
X144098932Y-108479067D01*
X144360933Y-108741068D01*
X144669013Y-108946920D01*
X145011333Y-109088714D01*
X145374738Y-109161000D01*
X145745262Y-109161000D01*
X145869760Y-109136236D01*
X145872200Y-110185495D01*
X145874698Y-110210266D01*
X145881981Y-110234074D01*
X145893768Y-110256003D01*
X145909607Y-110275211D01*
X145928888Y-110290960D01*
X145950872Y-110302645D01*
X145974713Y-110309817D01*
X145999436Y-110312200D01*
X149632094Y-110305454D01*
X149561970Y-110375578D01*
X149677918Y-110491526D01*
X149423739Y-110575208D01*
X149292842Y-110847775D01*
X149217635Y-111140642D01*
X149201009Y-111442553D01*
X149243603Y-111741907D01*
X149343778Y-112027199D01*
X149423739Y-112176792D01*
X149677920Y-112260475D01*
X150562395Y-111376000D01*
X150548253Y-111361858D01*
X150727858Y-111182253D01*
X150742000Y-111196395D01*
X150756143Y-111182253D01*
X150935748Y-111361858D01*
X150921605Y-111376000D01*
X151806080Y-112260475D01*
X152060261Y-112176792D01*
X152191158Y-111904225D01*
X152266365Y-111611358D01*
X152282991Y-111309447D01*
X152271687Y-111230000D01*
X192277157Y-111230000D01*
X192277157Y-113530000D01*
X192284513Y-113604689D01*
X192306299Y-113676508D01*
X192341678Y-113742696D01*
X192389289Y-113800711D01*
X192447304Y-113848322D01*
X192513492Y-113883701D01*
X192585311Y-113905487D01*
X192660000Y-113912843D01*
X194660000Y-113912843D01*
X194734689Y-113905487D01*
X194806508Y-113883701D01*
X194872696Y-113848322D01*
X194930711Y-113800711D01*
X194978322Y-113742696D01*
X195013701Y-113676508D01*
X195030129Y-113622349D01*
X197597256Y-113622349D01*
X197711118Y-113902090D01*
X198026296Y-114057961D01*
X198365826Y-114149349D01*
X198716661Y-114172741D01*
X199065319Y-114127240D01*
X199398400Y-114014594D01*
X199608882Y-113902090D01*
X199722744Y-113622349D01*
X198660000Y-112559605D01*
X197597256Y-113622349D01*
X195030129Y-113622349D01*
X195035487Y-113604689D01*
X195042843Y-113530000D01*
X195042843Y-112436661D01*
X196867259Y-112436661D01*
X196912760Y-112785319D01*
X197025406Y-113118400D01*
X197137910Y-113328882D01*
X197417651Y-113442744D01*
X198480395Y-112380000D01*
X198839605Y-112380000D01*
X199902349Y-113442744D01*
X200182090Y-113328882D01*
X200337961Y-113013704D01*
X200429349Y-112674174D01*
X200452741Y-112323339D01*
X200407240Y-111974681D01*
X200294594Y-111641600D01*
X200182090Y-111431118D01*
X199902349Y-111317256D01*
X198839605Y-112380000D01*
X198480395Y-112380000D01*
X197417651Y-111317256D01*
X197137910Y-111431118D01*
X196982039Y-111746296D01*
X196890651Y-112085826D01*
X196867259Y-112436661D01*
X195042843Y-112436661D01*
X195042843Y-111230000D01*
X195035487Y-111155311D01*
X195030130Y-111137651D01*
X197597256Y-111137651D01*
X198660000Y-112200395D01*
X199722744Y-111137651D01*
X199608882Y-110857910D01*
X199293704Y-110702039D01*
X198954174Y-110610651D01*
X198603339Y-110587259D01*
X198254681Y-110632760D01*
X197921600Y-110745406D01*
X197711118Y-110857910D01*
X197597256Y-111137651D01*
X195030130Y-111137651D01*
X195013701Y-111083492D01*
X194978322Y-111017304D01*
X194930711Y-110959289D01*
X194872696Y-110911678D01*
X194806508Y-110876299D01*
X194734689Y-110854513D01*
X194660000Y-110847157D01*
X192660000Y-110847157D01*
X192585311Y-110854513D01*
X192513492Y-110876299D01*
X192447304Y-110911678D01*
X192389289Y-110959289D01*
X192341678Y-111017304D01*
X192306299Y-111083492D01*
X192284513Y-111155311D01*
X192277157Y-111230000D01*
X152271687Y-111230000D01*
X152240397Y-111010093D01*
X152140222Y-110724801D01*
X152060261Y-110575208D01*
X151806082Y-110491526D01*
X151922030Y-110375578D01*
X151847792Y-110301340D01*
X200583800Y-110210836D01*
X200583800Y-118974000D01*
X196286230Y-118974000D01*
X160630689Y-118772557D01*
X160858124Y-118703565D01*
X161254387Y-118491758D01*
X161601714Y-118206714D01*
X161886758Y-117859387D01*
X162098565Y-117463124D01*
X162228995Y-117033154D01*
X162273036Y-116586000D01*
X162228995Y-116138846D01*
X162098565Y-115708876D01*
X162064679Y-115645478D01*
X164369800Y-115645478D01*
X164369800Y-115799322D01*
X164399813Y-115950209D01*
X164458687Y-116092342D01*
X164544158Y-116220259D01*
X164652941Y-116329042D01*
X164780858Y-116414513D01*
X164922991Y-116473387D01*
X165073878Y-116503400D01*
X165227722Y-116503400D01*
X165378609Y-116473387D01*
X165520742Y-116414513D01*
X165648659Y-116329042D01*
X165757442Y-116220259D01*
X165842913Y-116092342D01*
X165901787Y-115950209D01*
X165931800Y-115799322D01*
X165931800Y-115645478D01*
X168637000Y-115645478D01*
X168637000Y-115799322D01*
X168667013Y-115950209D01*
X168725887Y-116092342D01*
X168811358Y-116220259D01*
X168920141Y-116329042D01*
X169048058Y-116414513D01*
X169190191Y-116473387D01*
X169341078Y-116503400D01*
X169494922Y-116503400D01*
X169645809Y-116473387D01*
X169787942Y-116414513D01*
X169915859Y-116329042D01*
X170024642Y-116220259D01*
X170110113Y-116092342D01*
X170168987Y-115950209D01*
X170199000Y-115799322D01*
X170199000Y-115645478D01*
X173056600Y-115645478D01*
X173056600Y-115799322D01*
X173086613Y-115950209D01*
X173145487Y-116092342D01*
X173230958Y-116220259D01*
X173339741Y-116329042D01*
X173467658Y-116414513D01*
X173609791Y-116473387D01*
X173760678Y-116503400D01*
X173914522Y-116503400D01*
X174065409Y-116473387D01*
X174207542Y-116414513D01*
X174335459Y-116329042D01*
X174444242Y-116220259D01*
X174529713Y-116092342D01*
X174588587Y-115950209D01*
X174618600Y-115799322D01*
X174618600Y-115645478D01*
X175901400Y-115645478D01*
X175901400Y-115799322D01*
X175931413Y-115950209D01*
X175990287Y-116092342D01*
X176075758Y-116220259D01*
X176184541Y-116329042D01*
X176312458Y-116414513D01*
X176454591Y-116473387D01*
X176605478Y-116503400D01*
X176759322Y-116503400D01*
X176910209Y-116473387D01*
X177052342Y-116414513D01*
X177180259Y-116329042D01*
X177289042Y-116220259D01*
X177374513Y-116092342D01*
X177433387Y-115950209D01*
X177463400Y-115799322D01*
X177463400Y-115645478D01*
X177433387Y-115494591D01*
X177374513Y-115352458D01*
X177289042Y-115224541D01*
X177180259Y-115115758D01*
X177052342Y-115030287D01*
X176910209Y-114971413D01*
X176759322Y-114941400D01*
X176605478Y-114941400D01*
X176454591Y-114971413D01*
X176312458Y-115030287D01*
X176184541Y-115115758D01*
X176075758Y-115224541D01*
X175990287Y-115352458D01*
X175931413Y-115494591D01*
X175901400Y-115645478D01*
X174618600Y-115645478D01*
X174588587Y-115494591D01*
X174529713Y-115352458D01*
X174444242Y-115224541D01*
X174335459Y-115115758D01*
X174207542Y-115030287D01*
X174065409Y-114971413D01*
X173914522Y-114941400D01*
X173760678Y-114941400D01*
X173609791Y-114971413D01*
X173467658Y-115030287D01*
X173339741Y-115115758D01*
X173230958Y-115224541D01*
X173145487Y-115352458D01*
X173086613Y-115494591D01*
X173056600Y-115645478D01*
X170199000Y-115645478D01*
X170168987Y-115494591D01*
X170110113Y-115352458D01*
X170024642Y-115224541D01*
X169915859Y-115115758D01*
X169787942Y-115030287D01*
X169645809Y-114971413D01*
X169494922Y-114941400D01*
X169341078Y-114941400D01*
X169190191Y-114971413D01*
X169048058Y-115030287D01*
X168920141Y-115115758D01*
X168811358Y-115224541D01*
X168725887Y-115352458D01*
X168667013Y-115494591D01*
X168637000Y-115645478D01*
X165931800Y-115645478D01*
X165901787Y-115494591D01*
X165842913Y-115352458D01*
X165757442Y-115224541D01*
X165648659Y-115115758D01*
X165520742Y-115030287D01*
X165378609Y-114971413D01*
X165227722Y-114941400D01*
X165073878Y-114941400D01*
X164922991Y-114971413D01*
X164780858Y-115030287D01*
X164652941Y-115115758D01*
X164544158Y-115224541D01*
X164458687Y-115352458D01*
X164399813Y-115494591D01*
X164369800Y-115645478D01*
X162064679Y-115645478D01*
X161886758Y-115312613D01*
X161601714Y-114965286D01*
X161254387Y-114680242D01*
X160858124Y-114468435D01*
X160428154Y-114338005D01*
X160093050Y-114305000D01*
X158168950Y-114305000D01*
X157833846Y-114338005D01*
X157403876Y-114468435D01*
X157007613Y-114680242D01*
X156660286Y-114965286D01*
X156375242Y-115312613D01*
X156163435Y-115708876D01*
X156033005Y-116138846D01*
X155988964Y-116586000D01*
X156033005Y-117033154D01*
X156163435Y-117463124D01*
X156375242Y-117859387D01*
X156660286Y-118206714D01*
X157007613Y-118491758D01*
X157403876Y-118703565D01*
X157574389Y-118755290D01*
X152678789Y-118727631D01*
X152758124Y-118703565D01*
X153154387Y-118491758D01*
X153501714Y-118206714D01*
X153786758Y-117859387D01*
X153998565Y-117463124D01*
X154128995Y-117033154D01*
X154173036Y-116586000D01*
X154128995Y-116138846D01*
X153998565Y-115708876D01*
X153786758Y-115312613D01*
X153501714Y-114965286D01*
X153154387Y-114680242D01*
X152758124Y-114468435D01*
X152328154Y-114338005D01*
X151993050Y-114305000D01*
X150268950Y-114305000D01*
X149933846Y-114338005D01*
X149503876Y-114468435D01*
X149107613Y-114680242D01*
X148760286Y-114965286D01*
X148475242Y-115312613D01*
X148263435Y-115708876D01*
X148133005Y-116138846D01*
X148088964Y-116586000D01*
X148133005Y-117033154D01*
X148263435Y-117463124D01*
X148475242Y-117859387D01*
X148760286Y-118206714D01*
X149107613Y-118491758D01*
X149503876Y-118703565D01*
X149524463Y-118709810D01*
X137896266Y-118644114D01*
X137882112Y-113308000D01*
X138452157Y-113308000D01*
X138452157Y-116308000D01*
X138459513Y-116382689D01*
X138481299Y-116454508D01*
X138516678Y-116520696D01*
X138564289Y-116578711D01*
X138622304Y-116626322D01*
X138688492Y-116661701D01*
X138760311Y-116683487D01*
X138835000Y-116690843D01*
X141835000Y-116690843D01*
X141909689Y-116683487D01*
X141981508Y-116661701D01*
X142047696Y-116626322D01*
X142105711Y-116578711D01*
X142153322Y-116520696D01*
X142188701Y-116454508D01*
X142210487Y-116382689D01*
X142217843Y-116308000D01*
X142217843Y-116299653D01*
X144102952Y-116299653D01*
X144258962Y-116615214D01*
X144633745Y-116806020D01*
X145038551Y-116920044D01*
X145457824Y-116952902D01*
X145875451Y-116903334D01*
X146275383Y-116773243D01*
X146571038Y-116615214D01*
X146727048Y-116299653D01*
X145415000Y-114987605D01*
X144102952Y-116299653D01*
X142217843Y-116299653D01*
X142217843Y-114850824D01*
X143270098Y-114850824D01*
X143319666Y-115268451D01*
X143449757Y-115668383D01*
X143607786Y-115964038D01*
X143923347Y-116120048D01*
X145235395Y-114808000D01*
X145594605Y-114808000D01*
X146906653Y-116120048D01*
X147222214Y-115964038D01*
X147413020Y-115589255D01*
X147527044Y-115184449D01*
X147559902Y-114765176D01*
X147510334Y-114347549D01*
X147380243Y-113947617D01*
X147222214Y-113651962D01*
X146906653Y-113495952D01*
X145594605Y-114808000D01*
X145235395Y-114808000D01*
X143923347Y-113495952D01*
X143607786Y-113651962D01*
X143416980Y-114026745D01*
X143302956Y-114431551D01*
X143270098Y-114850824D01*
X142217843Y-114850824D01*
X142217843Y-113316347D01*
X144102952Y-113316347D01*
X145415000Y-114628395D01*
X146727048Y-113316347D01*
X146571038Y-113000786D01*
X146196255Y-112809980D01*
X145791449Y-112695956D01*
X145372176Y-112663098D01*
X144954549Y-112712666D01*
X144554617Y-112842757D01*
X144258962Y-113000786D01*
X144102952Y-113316347D01*
X142217843Y-113316347D01*
X142217843Y-113308000D01*
X142210487Y-113233311D01*
X142188701Y-113161492D01*
X142153322Y-113095304D01*
X142105711Y-113037289D01*
X142047696Y-112989678D01*
X141981508Y-112954299D01*
X141909689Y-112932513D01*
X141835000Y-112925157D01*
X138835000Y-112925157D01*
X138760311Y-112932513D01*
X138688492Y-112954299D01*
X138622304Y-112989678D01*
X138564289Y-113037289D01*
X138516678Y-113095304D01*
X138481299Y-113161492D01*
X138459513Y-113233311D01*
X138452157Y-113308000D01*
X137882112Y-113308000D01*
X137879810Y-112440080D01*
X149857525Y-112440080D01*
X149941208Y-112694261D01*
X150213775Y-112825158D01*
X150506642Y-112900365D01*
X150808553Y-112916991D01*
X151107907Y-112874397D01*
X151393199Y-112774222D01*
X151542792Y-112694261D01*
X151557418Y-112649833D01*
X156961000Y-112649833D01*
X156961000Y-112902167D01*
X157010228Y-113149654D01*
X157106793Y-113382781D01*
X157246982Y-113592590D01*
X157425410Y-113771018D01*
X157635219Y-113911207D01*
X157868346Y-114007772D01*
X158115833Y-114057000D01*
X158368167Y-114057000D01*
X158490945Y-114032578D01*
X164382500Y-114032578D01*
X164382500Y-114186422D01*
X164412513Y-114337309D01*
X164471387Y-114479442D01*
X164556858Y-114607359D01*
X164665641Y-114716142D01*
X164793558Y-114801613D01*
X164935691Y-114860487D01*
X165086578Y-114890500D01*
X165240422Y-114890500D01*
X165391309Y-114860487D01*
X165533442Y-114801613D01*
X165661359Y-114716142D01*
X165770142Y-114607359D01*
X165855613Y-114479442D01*
X165914487Y-114337309D01*
X165944500Y-114186422D01*
X165944500Y-114032578D01*
X168700500Y-114032578D01*
X168700500Y-114186422D01*
X168730513Y-114337309D01*
X168789387Y-114479442D01*
X168874858Y-114607359D01*
X168983641Y-114716142D01*
X169111558Y-114801613D01*
X169253691Y-114860487D01*
X169404578Y-114890500D01*
X169558422Y-114890500D01*
X169709309Y-114860487D01*
X169851442Y-114801613D01*
X169979359Y-114716142D01*
X170088142Y-114607359D01*
X170173613Y-114479442D01*
X170232487Y-114337309D01*
X170262500Y-114186422D01*
X170262500Y-114032578D01*
X173145500Y-114032578D01*
X173145500Y-114186422D01*
X173175513Y-114337309D01*
X173234387Y-114479442D01*
X173319858Y-114607359D01*
X173428641Y-114716142D01*
X173556558Y-114801613D01*
X173698691Y-114860487D01*
X173849578Y-114890500D01*
X174003422Y-114890500D01*
X174154309Y-114860487D01*
X174296442Y-114801613D01*
X174424359Y-114716142D01*
X174533142Y-114607359D01*
X174618613Y-114479442D01*
X174677487Y-114337309D01*
X174707500Y-114186422D01*
X174707500Y-114032578D01*
X174677487Y-113881691D01*
X174618613Y-113739558D01*
X174533142Y-113611641D01*
X174424359Y-113502858D01*
X174296442Y-113417387D01*
X174154309Y-113358513D01*
X174003422Y-113328500D01*
X173849578Y-113328500D01*
X173698691Y-113358513D01*
X173556558Y-113417387D01*
X173428641Y-113502858D01*
X173319858Y-113611641D01*
X173234387Y-113739558D01*
X173175513Y-113881691D01*
X173145500Y-114032578D01*
X170262500Y-114032578D01*
X170232487Y-113881691D01*
X170173613Y-113739558D01*
X170088142Y-113611641D01*
X169979359Y-113502858D01*
X169851442Y-113417387D01*
X169709309Y-113358513D01*
X169558422Y-113328500D01*
X169404578Y-113328500D01*
X169253691Y-113358513D01*
X169111558Y-113417387D01*
X168983641Y-113502858D01*
X168874858Y-113611641D01*
X168789387Y-113739558D01*
X168730513Y-113881691D01*
X168700500Y-114032578D01*
X165944500Y-114032578D01*
X165914487Y-113881691D01*
X165855613Y-113739558D01*
X165770142Y-113611641D01*
X165661359Y-113502858D01*
X165533442Y-113417387D01*
X165391309Y-113358513D01*
X165240422Y-113328500D01*
X165086578Y-113328500D01*
X164935691Y-113358513D01*
X164793558Y-113417387D01*
X164665641Y-113502858D01*
X164556858Y-113611641D01*
X164471387Y-113739558D01*
X164412513Y-113881691D01*
X164382500Y-114032578D01*
X158490945Y-114032578D01*
X158615654Y-114007772D01*
X158848781Y-113911207D01*
X159058590Y-113771018D01*
X159237018Y-113592590D01*
X159377207Y-113382781D01*
X159473772Y-113149654D01*
X159523000Y-112902167D01*
X159523000Y-112649833D01*
X159473772Y-112402346D01*
X159377207Y-112169219D01*
X159237018Y-111959410D01*
X159058590Y-111780982D01*
X158848781Y-111640793D01*
X158615654Y-111544228D01*
X158368167Y-111495000D01*
X158115833Y-111495000D01*
X157868346Y-111544228D01*
X157635219Y-111640793D01*
X157425410Y-111780982D01*
X157246982Y-111959410D01*
X157106793Y-112169219D01*
X157010228Y-112402346D01*
X156961000Y-112649833D01*
X151557418Y-112649833D01*
X151626475Y-112440080D01*
X150742000Y-111555605D01*
X149857525Y-112440080D01*
X137879810Y-112440080D01*
X137871469Y-109295478D01*
X140798600Y-109295478D01*
X140798600Y-109449322D01*
X140828613Y-109600209D01*
X140887487Y-109742342D01*
X140972958Y-109870259D01*
X141011534Y-109908835D01*
X140938287Y-110018458D01*
X140879413Y-110160591D01*
X140849400Y-110311478D01*
X140849400Y-110465322D01*
X140879413Y-110616209D01*
X140938287Y-110758342D01*
X141023758Y-110886259D01*
X141132541Y-110995042D01*
X141260458Y-111080513D01*
X141402591Y-111139387D01*
X141553478Y-111169400D01*
X141707322Y-111169400D01*
X141858209Y-111139387D01*
X142000342Y-111080513D01*
X142128259Y-110995042D01*
X142237042Y-110886259D01*
X142322513Y-110758342D01*
X142381387Y-110616209D01*
X142411400Y-110465322D01*
X142411400Y-110311478D01*
X142381387Y-110160591D01*
X142322513Y-110018458D01*
X142237042Y-109890541D01*
X142198466Y-109851965D01*
X142271713Y-109742342D01*
X142330587Y-109600209D01*
X142360600Y-109449322D01*
X142360600Y-109295478D01*
X142330587Y-109144591D01*
X142271713Y-109002458D01*
X142186242Y-108874541D01*
X142077459Y-108765758D01*
X141949542Y-108680287D01*
X141807409Y-108621413D01*
X141656522Y-108591400D01*
X141502678Y-108591400D01*
X141351791Y-108621413D01*
X141209658Y-108680287D01*
X141081741Y-108765758D01*
X140972958Y-108874541D01*
X140887487Y-109002458D01*
X140828613Y-109144591D01*
X140798600Y-109295478D01*
X137871469Y-109295478D01*
X137860524Y-105169360D01*
X137979000Y-105169360D01*
X137979000Y-105490640D01*
X138041678Y-105805745D01*
X138164626Y-106102568D01*
X138343119Y-106369702D01*
X138570298Y-106596881D01*
X138837432Y-106775374D01*
X139134255Y-106898322D01*
X139449360Y-106961000D01*
X139770640Y-106961000D01*
X140085745Y-106898322D01*
X140382568Y-106775374D01*
X140649702Y-106596881D01*
X140876881Y-106369702D01*
X141055374Y-106102568D01*
X141178322Y-105805745D01*
X141241000Y-105490640D01*
X141241000Y-105169360D01*
X141178322Y-104854255D01*
X141055374Y-104557432D01*
X140876881Y-104290298D01*
X140649702Y-104063119D01*
X140382568Y-103884626D01*
X140085745Y-103761678D01*
X139770640Y-103699000D01*
X139449360Y-103699000D01*
X139134255Y-103761678D01*
X138837432Y-103884626D01*
X138570298Y-104063119D01*
X138343119Y-104290298D01*
X138164626Y-104557432D01*
X138041678Y-104854255D01*
X137979000Y-105169360D01*
X137860524Y-105169360D01*
X137830418Y-93819709D01*
X137893080Y-93970987D01*
X138098932Y-94279067D01*
X138360933Y-94541068D01*
X138669013Y-94746920D01*
X139011333Y-94888714D01*
X139374738Y-94961000D01*
X139745262Y-94961000D01*
X140108667Y-94888714D01*
X140450987Y-94746920D01*
X140759067Y-94541068D01*
X141021068Y-94279067D01*
X141226920Y-93970987D01*
X141368714Y-93628667D01*
X141441000Y-93265262D01*
X141441000Y-92894738D01*
X141368714Y-92531333D01*
X141226920Y-92189013D01*
X141021068Y-91880933D01*
X140759067Y-91618932D01*
X140450987Y-91413080D01*
X140108667Y-91271286D01*
X139745262Y-91199000D01*
X139374738Y-91199000D01*
X139011333Y-91271286D01*
X138669013Y-91413080D01*
X138360933Y-91618932D01*
X138098932Y-91880933D01*
X137893080Y-92189013D01*
X137826519Y-92349704D01*
X137801666Y-82980000D01*
X138577157Y-82980000D01*
X138577157Y-85980000D01*
X138584513Y-86054689D01*
X138606299Y-86126508D01*
X138641678Y-86192696D01*
X138689289Y-86250711D01*
X138747304Y-86298322D01*
X138813492Y-86333701D01*
X138885311Y-86355487D01*
X138960000Y-86362843D01*
X141960000Y-86362843D01*
X142034689Y-86355487D01*
X142106508Y-86333701D01*
X142172696Y-86298322D01*
X142230711Y-86250711D01*
X142278322Y-86192696D01*
X142313701Y-86126508D01*
X142335487Y-86054689D01*
X142342843Y-85980000D01*
X142342843Y-84294738D01*
X143659000Y-84294738D01*
X143659000Y-84665262D01*
X143731286Y-85028667D01*
X143873080Y-85370987D01*
X144078932Y-85679067D01*
X144340933Y-85941068D01*
X144649013Y-86146920D01*
X144991333Y-86288714D01*
X145354738Y-86361000D01*
X145725262Y-86361000D01*
X146088667Y-86288714D01*
X146430987Y-86146920D01*
X146693293Y-85971653D01*
X149307952Y-85971653D01*
X149463962Y-86287214D01*
X149838745Y-86478020D01*
X150243551Y-86592044D01*
X150662824Y-86624902D01*
X151080451Y-86575334D01*
X151480383Y-86445243D01*
X151776038Y-86287214D01*
X151932048Y-85971653D01*
X150620000Y-84659605D01*
X149307952Y-85971653D01*
X146693293Y-85971653D01*
X146739067Y-85941068D01*
X147001068Y-85679067D01*
X147206920Y-85370987D01*
X147348714Y-85028667D01*
X147421000Y-84665262D01*
X147421000Y-84522824D01*
X148475098Y-84522824D01*
X148524666Y-84940451D01*
X148654757Y-85340383D01*
X148812786Y-85636038D01*
X149128347Y-85792048D01*
X150440395Y-84480000D01*
X150799605Y-84480000D01*
X152111653Y-85792048D01*
X152427214Y-85636038D01*
X152618020Y-85261255D01*
X152732044Y-84856449D01*
X152764902Y-84437176D01*
X152715334Y-84019549D01*
X152585243Y-83619617D01*
X152427214Y-83323962D01*
X152111653Y-83167952D01*
X150799605Y-84480000D01*
X150440395Y-84480000D01*
X149128347Y-83167952D01*
X148812786Y-83323962D01*
X148621980Y-83698745D01*
X148507956Y-84103551D01*
X148475098Y-84522824D01*
X147421000Y-84522824D01*
X147421000Y-84294738D01*
X147348714Y-83931333D01*
X147206920Y-83589013D01*
X147001068Y-83280933D01*
X146739067Y-83018932D01*
X146693294Y-82988347D01*
X149307952Y-82988347D01*
X150620000Y-84300395D01*
X151932048Y-82988347D01*
X151927922Y-82980000D01*
X154627157Y-82980000D01*
X154627157Y-85980000D01*
X154634513Y-86054689D01*
X154656299Y-86126508D01*
X154691678Y-86192696D01*
X154739289Y-86250711D01*
X154797304Y-86298322D01*
X154863492Y-86333701D01*
X154935311Y-86355487D01*
X155010000Y-86362843D01*
X158010000Y-86362843D01*
X158084689Y-86355487D01*
X158156508Y-86333701D01*
X158222696Y-86298322D01*
X158280711Y-86250711D01*
X158328322Y-86192696D01*
X158363701Y-86126508D01*
X158385487Y-86054689D01*
X158392843Y-85980000D01*
X158392843Y-84294738D01*
X159709000Y-84294738D01*
X159709000Y-84665262D01*
X159781286Y-85028667D01*
X159923080Y-85370987D01*
X160128932Y-85679067D01*
X160390933Y-85941068D01*
X160699013Y-86146920D01*
X161041333Y-86288714D01*
X161404738Y-86361000D01*
X161775262Y-86361000D01*
X162138667Y-86288714D01*
X162480987Y-86146920D01*
X162743293Y-85971653D01*
X165357952Y-85971653D01*
X165513962Y-86287214D01*
X165888745Y-86478020D01*
X166293551Y-86592044D01*
X166712824Y-86624902D01*
X167130451Y-86575334D01*
X167530383Y-86445243D01*
X167826038Y-86287214D01*
X167982048Y-85971653D01*
X166670000Y-84659605D01*
X165357952Y-85971653D01*
X162743293Y-85971653D01*
X162789067Y-85941068D01*
X163051068Y-85679067D01*
X163256920Y-85370987D01*
X163398714Y-85028667D01*
X163471000Y-84665262D01*
X163471000Y-84522824D01*
X164525098Y-84522824D01*
X164574666Y-84940451D01*
X164704757Y-85340383D01*
X164862786Y-85636038D01*
X165178347Y-85792048D01*
X166490395Y-84480000D01*
X166849605Y-84480000D01*
X168161653Y-85792048D01*
X168477214Y-85636038D01*
X168668020Y-85261255D01*
X168782044Y-84856449D01*
X168814902Y-84437176D01*
X168765334Y-84019549D01*
X168635243Y-83619617D01*
X168477214Y-83323962D01*
X168161653Y-83167952D01*
X166849605Y-84480000D01*
X166490395Y-84480000D01*
X165178347Y-83167952D01*
X164862786Y-83323962D01*
X164671980Y-83698745D01*
X164557956Y-84103551D01*
X164525098Y-84522824D01*
X163471000Y-84522824D01*
X163471000Y-84294738D01*
X163398714Y-83931333D01*
X163256920Y-83589013D01*
X163051068Y-83280933D01*
X162789067Y-83018932D01*
X162743294Y-82988347D01*
X165357952Y-82988347D01*
X166670000Y-84300395D01*
X167982048Y-82988347D01*
X167977922Y-82980000D01*
X170827157Y-82980000D01*
X170827157Y-85980000D01*
X170834513Y-86054689D01*
X170856299Y-86126508D01*
X170891678Y-86192696D01*
X170939289Y-86250711D01*
X170997304Y-86298322D01*
X171063492Y-86333701D01*
X171135311Y-86355487D01*
X171210000Y-86362843D01*
X174210000Y-86362843D01*
X174284689Y-86355487D01*
X174356508Y-86333701D01*
X174422696Y-86298322D01*
X174480711Y-86250711D01*
X174528322Y-86192696D01*
X174563701Y-86126508D01*
X174585487Y-86054689D01*
X174592843Y-85980000D01*
X174592843Y-84294738D01*
X175909000Y-84294738D01*
X175909000Y-84665262D01*
X175981286Y-85028667D01*
X176123080Y-85370987D01*
X176328932Y-85679067D01*
X176590933Y-85941068D01*
X176899013Y-86146920D01*
X177241333Y-86288714D01*
X177604738Y-86361000D01*
X177975262Y-86361000D01*
X178338667Y-86288714D01*
X178680987Y-86146920D01*
X178943293Y-85971653D01*
X181557952Y-85971653D01*
X181713962Y-86287214D01*
X182088745Y-86478020D01*
X182493551Y-86592044D01*
X182912824Y-86624902D01*
X183330451Y-86575334D01*
X183730383Y-86445243D01*
X184026038Y-86287214D01*
X184182048Y-85971653D01*
X182870000Y-84659605D01*
X181557952Y-85971653D01*
X178943293Y-85971653D01*
X178989067Y-85941068D01*
X179251068Y-85679067D01*
X179456920Y-85370987D01*
X179598714Y-85028667D01*
X179671000Y-84665262D01*
X179671000Y-84522824D01*
X180725098Y-84522824D01*
X180774666Y-84940451D01*
X180904757Y-85340383D01*
X181062786Y-85636038D01*
X181378347Y-85792048D01*
X182690395Y-84480000D01*
X183049605Y-84480000D01*
X184361653Y-85792048D01*
X184677214Y-85636038D01*
X184868020Y-85261255D01*
X184982044Y-84856449D01*
X185014902Y-84437176D01*
X184965334Y-84019549D01*
X184835243Y-83619617D01*
X184677214Y-83323962D01*
X184361653Y-83167952D01*
X183049605Y-84480000D01*
X182690395Y-84480000D01*
X181378347Y-83167952D01*
X181062786Y-83323962D01*
X180871980Y-83698745D01*
X180757956Y-84103551D01*
X180725098Y-84522824D01*
X179671000Y-84522824D01*
X179671000Y-84294738D01*
X179598714Y-83931333D01*
X179456920Y-83589013D01*
X179251068Y-83280933D01*
X178989067Y-83018932D01*
X178943294Y-82988347D01*
X181557952Y-82988347D01*
X182870000Y-84300395D01*
X184182048Y-82988347D01*
X184026038Y-82672786D01*
X183651255Y-82481980D01*
X183246449Y-82367956D01*
X182827176Y-82335098D01*
X182409549Y-82384666D01*
X182009617Y-82514757D01*
X181713962Y-82672786D01*
X181557952Y-82988347D01*
X178943294Y-82988347D01*
X178680987Y-82813080D01*
X178338667Y-82671286D01*
X177975262Y-82599000D01*
X177604738Y-82599000D01*
X177241333Y-82671286D01*
X176899013Y-82813080D01*
X176590933Y-83018932D01*
X176328932Y-83280933D01*
X176123080Y-83589013D01*
X175981286Y-83931333D01*
X175909000Y-84294738D01*
X174592843Y-84294738D01*
X174592843Y-82980000D01*
X174585487Y-82905311D01*
X174563701Y-82833492D01*
X174528322Y-82767304D01*
X174480711Y-82709289D01*
X174422696Y-82661678D01*
X174356508Y-82626299D01*
X174284689Y-82604513D01*
X174210000Y-82597157D01*
X171210000Y-82597157D01*
X171135311Y-82604513D01*
X171063492Y-82626299D01*
X170997304Y-82661678D01*
X170939289Y-82709289D01*
X170891678Y-82767304D01*
X170856299Y-82833492D01*
X170834513Y-82905311D01*
X170827157Y-82980000D01*
X167977922Y-82980000D01*
X167826038Y-82672786D01*
X167451255Y-82481980D01*
X167046449Y-82367956D01*
X166627176Y-82335098D01*
X166209549Y-82384666D01*
X165809617Y-82514757D01*
X165513962Y-82672786D01*
X165357952Y-82988347D01*
X162743294Y-82988347D01*
X162480987Y-82813080D01*
X162138667Y-82671286D01*
X161775262Y-82599000D01*
X161404738Y-82599000D01*
X161041333Y-82671286D01*
X160699013Y-82813080D01*
X160390933Y-83018932D01*
X160128932Y-83280933D01*
X159923080Y-83589013D01*
X159781286Y-83931333D01*
X159709000Y-84294738D01*
X158392843Y-84294738D01*
X158392843Y-82980000D01*
X158385487Y-82905311D01*
X158363701Y-82833492D01*
X158328322Y-82767304D01*
X158280711Y-82709289D01*
X158222696Y-82661678D01*
X158156508Y-82626299D01*
X158084689Y-82604513D01*
X158010000Y-82597157D01*
X155010000Y-82597157D01*
X154935311Y-82604513D01*
X154863492Y-82626299D01*
X154797304Y-82661678D01*
X154739289Y-82709289D01*
X154691678Y-82767304D01*
X154656299Y-82833492D01*
X154634513Y-82905311D01*
X154627157Y-82980000D01*
X151927922Y-82980000D01*
X151776038Y-82672786D01*
X151401255Y-82481980D01*
X150996449Y-82367956D01*
X150577176Y-82335098D01*
X150159549Y-82384666D01*
X149759617Y-82514757D01*
X149463962Y-82672786D01*
X149307952Y-82988347D01*
X146693294Y-82988347D01*
X146430987Y-82813080D01*
X146088667Y-82671286D01*
X145725262Y-82599000D01*
X145354738Y-82599000D01*
X144991333Y-82671286D01*
X144649013Y-82813080D01*
X144340933Y-83018932D01*
X144078932Y-83280933D01*
X143873080Y-83589013D01*
X143731286Y-83931333D01*
X143659000Y-84294738D01*
X142342843Y-84294738D01*
X142342843Y-82980000D01*
X142335487Y-82905311D01*
X142313701Y-82833492D01*
X142278322Y-82767304D01*
X142230711Y-82709289D01*
X142172696Y-82661678D01*
X142106508Y-82626299D01*
X142034689Y-82604513D01*
X141960000Y-82597157D01*
X138960000Y-82597157D01*
X138885311Y-82604513D01*
X138813492Y-82626299D01*
X138747304Y-82661678D01*
X138689289Y-82709289D01*
X138641678Y-82767304D01*
X138606299Y-82833492D01*
X138584513Y-82905311D01*
X138577157Y-82980000D01*
X137801666Y-82980000D01*
X137795337Y-80594065D01*
X185395408Y-80543534D01*
X185444588Y-88264836D01*
G37*
X185444588Y-88264836D02*
X145948563Y-88214200D01*
X145923783Y-88216609D01*
X145899950Y-88223805D01*
X145877978Y-88235513D01*
X145858713Y-88251282D01*
X145842894Y-88270507D01*
X145831130Y-88292449D01*
X145823872Y-88316264D01*
X145821400Y-88341495D01*
X145861122Y-105422046D01*
X145745262Y-105399000D01*
X145374738Y-105399000D01*
X145011333Y-105471286D01*
X144669013Y-105613080D01*
X144360933Y-105818932D01*
X144098932Y-106080933D01*
X143893080Y-106389013D01*
X143751286Y-106731333D01*
X143679000Y-107094738D01*
X143679000Y-107465262D01*
X143751286Y-107828667D01*
X143893080Y-108170987D01*
X144098932Y-108479067D01*
X144360933Y-108741068D01*
X144669013Y-108946920D01*
X145011333Y-109088714D01*
X145374738Y-109161000D01*
X145745262Y-109161000D01*
X145869760Y-109136236D01*
X145872200Y-110185495D01*
X145874698Y-110210266D01*
X145881981Y-110234074D01*
X145893768Y-110256003D01*
X145909607Y-110275211D01*
X145928888Y-110290960D01*
X145950872Y-110302645D01*
X145974713Y-110309817D01*
X145999436Y-110312200D01*
X149632094Y-110305454D01*
X149561970Y-110375578D01*
X149677918Y-110491526D01*
X149423739Y-110575208D01*
X149292842Y-110847775D01*
X149217635Y-111140642D01*
X149201009Y-111442553D01*
X149243603Y-111741907D01*
X149343778Y-112027199D01*
X149423739Y-112176792D01*
X149677920Y-112260475D01*
X150562395Y-111376000D01*
X150548253Y-111361858D01*
X150727858Y-111182253D01*
X150742000Y-111196395D01*
X150756143Y-111182253D01*
X150935748Y-111361858D01*
X150921605Y-111376000D01*
X151806080Y-112260475D01*
X152060261Y-112176792D01*
X152191158Y-111904225D01*
X152266365Y-111611358D01*
X152282991Y-111309447D01*
X152271687Y-111230000D01*
X192277157Y-111230000D01*
X192277157Y-113530000D01*
X192284513Y-113604689D01*
X192306299Y-113676508D01*
X192341678Y-113742696D01*
X192389289Y-113800711D01*
X192447304Y-113848322D01*
X192513492Y-113883701D01*
X192585311Y-113905487D01*
X192660000Y-113912843D01*
X194660000Y-113912843D01*
X194734689Y-113905487D01*
X194806508Y-113883701D01*
X194872696Y-113848322D01*
X194930711Y-113800711D01*
X194978322Y-113742696D01*
X195013701Y-113676508D01*
X195030129Y-113622349D01*
X197597256Y-113622349D01*
X197711118Y-113902090D01*
X198026296Y-114057961D01*
X198365826Y-114149349D01*
X198716661Y-114172741D01*
X199065319Y-114127240D01*
X199398400Y-114014594D01*
X199608882Y-113902090D01*
X199722744Y-113622349D01*
X198660000Y-112559605D01*
X197597256Y-113622349D01*
X195030129Y-113622349D01*
X195035487Y-113604689D01*
X195042843Y-113530000D01*
X195042843Y-112436661D01*
X196867259Y-112436661D01*
X196912760Y-112785319D01*
X197025406Y-113118400D01*
X197137910Y-113328882D01*
X197417651Y-113442744D01*
X198480395Y-112380000D01*
X198839605Y-112380000D01*
X199902349Y-113442744D01*
X200182090Y-113328882D01*
X200337961Y-113013704D01*
X200429349Y-112674174D01*
X200452741Y-112323339D01*
X200407240Y-111974681D01*
X200294594Y-111641600D01*
X200182090Y-111431118D01*
X199902349Y-111317256D01*
X198839605Y-112380000D01*
X198480395Y-112380000D01*
X197417651Y-111317256D01*
X197137910Y-111431118D01*
X196982039Y-111746296D01*
X196890651Y-112085826D01*
X196867259Y-112436661D01*
X195042843Y-112436661D01*
X195042843Y-111230000D01*
X195035487Y-111155311D01*
X195030130Y-111137651D01*
X197597256Y-111137651D01*
X198660000Y-112200395D01*
X199722744Y-111137651D01*
X199608882Y-110857910D01*
X199293704Y-110702039D01*
X198954174Y-110610651D01*
X198603339Y-110587259D01*
X198254681Y-110632760D01*
X197921600Y-110745406D01*
X197711118Y-110857910D01*
X197597256Y-111137651D01*
X195030130Y-111137651D01*
X195013701Y-111083492D01*
X194978322Y-111017304D01*
X194930711Y-110959289D01*
X194872696Y-110911678D01*
X194806508Y-110876299D01*
X194734689Y-110854513D01*
X194660000Y-110847157D01*
X192660000Y-110847157D01*
X192585311Y-110854513D01*
X192513492Y-110876299D01*
X192447304Y-110911678D01*
X192389289Y-110959289D01*
X192341678Y-111017304D01*
X192306299Y-111083492D01*
X192284513Y-111155311D01*
X192277157Y-111230000D01*
X152271687Y-111230000D01*
X152240397Y-111010093D01*
X152140222Y-110724801D01*
X152060261Y-110575208D01*
X151806082Y-110491526D01*
X151922030Y-110375578D01*
X151847792Y-110301340D01*
X200583800Y-110210836D01*
X200583800Y-118974000D01*
X196286230Y-118974000D01*
X160630689Y-118772557D01*
X160858124Y-118703565D01*
X161254387Y-118491758D01*
X161601714Y-118206714D01*
X161886758Y-117859387D01*
X162098565Y-117463124D01*
X162228995Y-117033154D01*
X162273036Y-116586000D01*
X162228995Y-116138846D01*
X162098565Y-115708876D01*
X162064679Y-115645478D01*
X164369800Y-115645478D01*
X164369800Y-115799322D01*
X164399813Y-115950209D01*
X164458687Y-116092342D01*
X164544158Y-116220259D01*
X164652941Y-116329042D01*
X164780858Y-116414513D01*
X164922991Y-116473387D01*
X165073878Y-116503400D01*
X165227722Y-116503400D01*
X165378609Y-116473387D01*
X165520742Y-116414513D01*
X165648659Y-116329042D01*
X165757442Y-116220259D01*
X165842913Y-116092342D01*
X165901787Y-115950209D01*
X165931800Y-115799322D01*
X165931800Y-115645478D01*
X168637000Y-115645478D01*
X168637000Y-115799322D01*
X168667013Y-115950209D01*
X168725887Y-116092342D01*
X168811358Y-116220259D01*
X168920141Y-116329042D01*
X169048058Y-116414513D01*
X169190191Y-116473387D01*
X169341078Y-116503400D01*
X169494922Y-116503400D01*
X169645809Y-116473387D01*
X169787942Y-116414513D01*
X169915859Y-116329042D01*
X170024642Y-116220259D01*
X170110113Y-116092342D01*
X170168987Y-115950209D01*
X170199000Y-115799322D01*
X170199000Y-115645478D01*
X173056600Y-115645478D01*
X173056600Y-115799322D01*
X173086613Y-115950209D01*
X173145487Y-116092342D01*
X173230958Y-116220259D01*
X173339741Y-116329042D01*
X173467658Y-116414513D01*
X173609791Y-116473387D01*
X173760678Y-116503400D01*
X173914522Y-116503400D01*
X174065409Y-116473387D01*
X174207542Y-116414513D01*
X174335459Y-116329042D01*
X174444242Y-116220259D01*
X174529713Y-116092342D01*
X174588587Y-115950209D01*
X174618600Y-115799322D01*
X174618600Y-115645478D01*
X175901400Y-115645478D01*
X175901400Y-115799322D01*
X175931413Y-115950209D01*
X175990287Y-116092342D01*
X176075758Y-116220259D01*
X176184541Y-116329042D01*
X176312458Y-116414513D01*
X176454591Y-116473387D01*
X176605478Y-116503400D01*
X176759322Y-116503400D01*
X176910209Y-116473387D01*
X177052342Y-116414513D01*
X177180259Y-116329042D01*
X177289042Y-116220259D01*
X177374513Y-116092342D01*
X177433387Y-115950209D01*
X177463400Y-115799322D01*
X177463400Y-115645478D01*
X177433387Y-115494591D01*
X177374513Y-115352458D01*
X177289042Y-115224541D01*
X177180259Y-115115758D01*
X177052342Y-115030287D01*
X176910209Y-114971413D01*
X176759322Y-114941400D01*
X176605478Y-114941400D01*
X176454591Y-114971413D01*
X176312458Y-115030287D01*
X176184541Y-115115758D01*
X176075758Y-115224541D01*
X175990287Y-115352458D01*
X175931413Y-115494591D01*
X175901400Y-115645478D01*
X174618600Y-115645478D01*
X174588587Y-115494591D01*
X174529713Y-115352458D01*
X174444242Y-115224541D01*
X174335459Y-115115758D01*
X174207542Y-115030287D01*
X174065409Y-114971413D01*
X173914522Y-114941400D01*
X173760678Y-114941400D01*
X173609791Y-114971413D01*
X173467658Y-115030287D01*
X173339741Y-115115758D01*
X173230958Y-115224541D01*
X173145487Y-115352458D01*
X173086613Y-115494591D01*
X173056600Y-115645478D01*
X170199000Y-115645478D01*
X170168987Y-115494591D01*
X170110113Y-115352458D01*
X170024642Y-115224541D01*
X169915859Y-115115758D01*
X169787942Y-115030287D01*
X169645809Y-114971413D01*
X169494922Y-114941400D01*
X169341078Y-114941400D01*
X169190191Y-114971413D01*
X169048058Y-115030287D01*
X168920141Y-115115758D01*
X168811358Y-115224541D01*
X168725887Y-115352458D01*
X168667013Y-115494591D01*
X168637000Y-115645478D01*
X165931800Y-115645478D01*
X165901787Y-115494591D01*
X165842913Y-115352458D01*
X165757442Y-115224541D01*
X165648659Y-115115758D01*
X165520742Y-115030287D01*
X165378609Y-114971413D01*
X165227722Y-114941400D01*
X165073878Y-114941400D01*
X164922991Y-114971413D01*
X164780858Y-115030287D01*
X164652941Y-115115758D01*
X164544158Y-115224541D01*
X164458687Y-115352458D01*
X164399813Y-115494591D01*
X164369800Y-115645478D01*
X162064679Y-115645478D01*
X161886758Y-115312613D01*
X161601714Y-114965286D01*
X161254387Y-114680242D01*
X160858124Y-114468435D01*
X160428154Y-114338005D01*
X160093050Y-114305000D01*
X158168950Y-114305000D01*
X157833846Y-114338005D01*
X157403876Y-114468435D01*
X157007613Y-114680242D01*
X156660286Y-114965286D01*
X156375242Y-115312613D01*
X156163435Y-115708876D01*
X156033005Y-116138846D01*
X155988964Y-116586000D01*
X156033005Y-117033154D01*
X156163435Y-117463124D01*
X156375242Y-117859387D01*
X156660286Y-118206714D01*
X157007613Y-118491758D01*
X157403876Y-118703565D01*
X157574389Y-118755290D01*
X152678789Y-118727631D01*
X152758124Y-118703565D01*
X153154387Y-118491758D01*
X153501714Y-118206714D01*
X153786758Y-117859387D01*
X153998565Y-117463124D01*
X154128995Y-117033154D01*
X154173036Y-116586000D01*
X154128995Y-116138846D01*
X153998565Y-115708876D01*
X153786758Y-115312613D01*
X153501714Y-114965286D01*
X153154387Y-114680242D01*
X152758124Y-114468435D01*
X152328154Y-114338005D01*
X151993050Y-114305000D01*
X150268950Y-114305000D01*
X149933846Y-114338005D01*
X149503876Y-114468435D01*
X149107613Y-114680242D01*
X148760286Y-114965286D01*
X148475242Y-115312613D01*
X148263435Y-115708876D01*
X148133005Y-116138846D01*
X148088964Y-116586000D01*
X148133005Y-117033154D01*
X148263435Y-117463124D01*
X148475242Y-117859387D01*
X148760286Y-118206714D01*
X149107613Y-118491758D01*
X149503876Y-118703565D01*
X149524463Y-118709810D01*
X137896266Y-118644114D01*
X137882112Y-113308000D01*
X138452157Y-113308000D01*
X138452157Y-116308000D01*
X138459513Y-116382689D01*
X138481299Y-116454508D01*
X138516678Y-116520696D01*
X138564289Y-116578711D01*
X138622304Y-116626322D01*
X138688492Y-116661701D01*
X138760311Y-116683487D01*
X138835000Y-116690843D01*
X141835000Y-116690843D01*
X141909689Y-116683487D01*
X141981508Y-116661701D01*
X142047696Y-116626322D01*
X142105711Y-116578711D01*
X142153322Y-116520696D01*
X142188701Y-116454508D01*
X142210487Y-116382689D01*
X142217843Y-116308000D01*
X142217843Y-116299653D01*
X144102952Y-116299653D01*
X144258962Y-116615214D01*
X144633745Y-116806020D01*
X145038551Y-116920044D01*
X145457824Y-116952902D01*
X145875451Y-116903334D01*
X146275383Y-116773243D01*
X146571038Y-116615214D01*
X146727048Y-116299653D01*
X145415000Y-114987605D01*
X144102952Y-116299653D01*
X142217843Y-116299653D01*
X142217843Y-114850824D01*
X143270098Y-114850824D01*
X143319666Y-115268451D01*
X143449757Y-115668383D01*
X143607786Y-115964038D01*
X143923347Y-116120048D01*
X145235395Y-114808000D01*
X145594605Y-114808000D01*
X146906653Y-116120048D01*
X147222214Y-115964038D01*
X147413020Y-115589255D01*
X147527044Y-115184449D01*
X147559902Y-114765176D01*
X147510334Y-114347549D01*
X147380243Y-113947617D01*
X147222214Y-113651962D01*
X146906653Y-113495952D01*
X145594605Y-114808000D01*
X145235395Y-114808000D01*
X143923347Y-113495952D01*
X143607786Y-113651962D01*
X143416980Y-114026745D01*
X143302956Y-114431551D01*
X143270098Y-114850824D01*
X142217843Y-114850824D01*
X142217843Y-113316347D01*
X144102952Y-113316347D01*
X145415000Y-114628395D01*
X146727048Y-113316347D01*
X146571038Y-113000786D01*
X146196255Y-112809980D01*
X145791449Y-112695956D01*
X145372176Y-112663098D01*
X144954549Y-112712666D01*
X144554617Y-112842757D01*
X144258962Y-113000786D01*
X144102952Y-113316347D01*
X142217843Y-113316347D01*
X142217843Y-113308000D01*
X142210487Y-113233311D01*
X142188701Y-113161492D01*
X142153322Y-113095304D01*
X142105711Y-113037289D01*
X142047696Y-112989678D01*
X141981508Y-112954299D01*
X141909689Y-112932513D01*
X141835000Y-112925157D01*
X138835000Y-112925157D01*
X138760311Y-112932513D01*
X138688492Y-112954299D01*
X138622304Y-112989678D01*
X138564289Y-113037289D01*
X138516678Y-113095304D01*
X138481299Y-113161492D01*
X138459513Y-113233311D01*
X138452157Y-113308000D01*
X137882112Y-113308000D01*
X137879810Y-112440080D01*
X149857525Y-112440080D01*
X149941208Y-112694261D01*
X150213775Y-112825158D01*
X150506642Y-112900365D01*
X150808553Y-112916991D01*
X151107907Y-112874397D01*
X151393199Y-112774222D01*
X151542792Y-112694261D01*
X151557418Y-112649833D01*
X156961000Y-112649833D01*
X156961000Y-112902167D01*
X157010228Y-113149654D01*
X157106793Y-113382781D01*
X157246982Y-113592590D01*
X157425410Y-113771018D01*
X157635219Y-113911207D01*
X157868346Y-114007772D01*
X158115833Y-114057000D01*
X158368167Y-114057000D01*
X158490945Y-114032578D01*
X164382500Y-114032578D01*
X164382500Y-114186422D01*
X164412513Y-114337309D01*
X164471387Y-114479442D01*
X164556858Y-114607359D01*
X164665641Y-114716142D01*
X164793558Y-114801613D01*
X164935691Y-114860487D01*
X165086578Y-114890500D01*
X165240422Y-114890500D01*
X165391309Y-114860487D01*
X165533442Y-114801613D01*
X165661359Y-114716142D01*
X165770142Y-114607359D01*
X165855613Y-114479442D01*
X165914487Y-114337309D01*
X165944500Y-114186422D01*
X165944500Y-114032578D01*
X168700500Y-114032578D01*
X168700500Y-114186422D01*
X168730513Y-114337309D01*
X168789387Y-114479442D01*
X168874858Y-114607359D01*
X168983641Y-114716142D01*
X169111558Y-114801613D01*
X169253691Y-114860487D01*
X169404578Y-114890500D01*
X169558422Y-114890500D01*
X169709309Y-114860487D01*
X169851442Y-114801613D01*
X169979359Y-114716142D01*
X170088142Y-114607359D01*
X170173613Y-114479442D01*
X170232487Y-114337309D01*
X170262500Y-114186422D01*
X170262500Y-114032578D01*
X173145500Y-114032578D01*
X173145500Y-114186422D01*
X173175513Y-114337309D01*
X173234387Y-114479442D01*
X173319858Y-114607359D01*
X173428641Y-114716142D01*
X173556558Y-114801613D01*
X173698691Y-114860487D01*
X173849578Y-114890500D01*
X174003422Y-114890500D01*
X174154309Y-114860487D01*
X174296442Y-114801613D01*
X174424359Y-114716142D01*
X174533142Y-114607359D01*
X174618613Y-114479442D01*
X174677487Y-114337309D01*
X174707500Y-114186422D01*
X174707500Y-114032578D01*
X174677487Y-113881691D01*
X174618613Y-113739558D01*
X174533142Y-113611641D01*
X174424359Y-113502858D01*
X174296442Y-113417387D01*
X174154309Y-113358513D01*
X174003422Y-113328500D01*
X173849578Y-113328500D01*
X173698691Y-113358513D01*
X173556558Y-113417387D01*
X173428641Y-113502858D01*
X173319858Y-113611641D01*
X173234387Y-113739558D01*
X173175513Y-113881691D01*
X173145500Y-114032578D01*
X170262500Y-114032578D01*
X170232487Y-113881691D01*
X170173613Y-113739558D01*
X170088142Y-113611641D01*
X169979359Y-113502858D01*
X169851442Y-113417387D01*
X169709309Y-113358513D01*
X169558422Y-113328500D01*
X169404578Y-113328500D01*
X169253691Y-113358513D01*
X169111558Y-113417387D01*
X168983641Y-113502858D01*
X168874858Y-113611641D01*
X168789387Y-113739558D01*
X168730513Y-113881691D01*
X168700500Y-114032578D01*
X165944500Y-114032578D01*
X165914487Y-113881691D01*
X165855613Y-113739558D01*
X165770142Y-113611641D01*
X165661359Y-113502858D01*
X165533442Y-113417387D01*
X165391309Y-113358513D01*
X165240422Y-113328500D01*
X165086578Y-113328500D01*
X164935691Y-113358513D01*
X164793558Y-113417387D01*
X164665641Y-113502858D01*
X164556858Y-113611641D01*
X164471387Y-113739558D01*
X164412513Y-113881691D01*
X164382500Y-114032578D01*
X158490945Y-114032578D01*
X158615654Y-114007772D01*
X158848781Y-113911207D01*
X159058590Y-113771018D01*
X159237018Y-113592590D01*
X159377207Y-113382781D01*
X159473772Y-113149654D01*
X159523000Y-112902167D01*
X159523000Y-112649833D01*
X159473772Y-112402346D01*
X159377207Y-112169219D01*
X159237018Y-111959410D01*
X159058590Y-111780982D01*
X158848781Y-111640793D01*
X158615654Y-111544228D01*
X158368167Y-111495000D01*
X158115833Y-111495000D01*
X157868346Y-111544228D01*
X157635219Y-111640793D01*
X157425410Y-111780982D01*
X157246982Y-111959410D01*
X157106793Y-112169219D01*
X157010228Y-112402346D01*
X156961000Y-112649833D01*
X151557418Y-112649833D01*
X151626475Y-112440080D01*
X150742000Y-111555605D01*
X149857525Y-112440080D01*
X137879810Y-112440080D01*
X137871469Y-109295478D01*
X140798600Y-109295478D01*
X140798600Y-109449322D01*
X140828613Y-109600209D01*
X140887487Y-109742342D01*
X140972958Y-109870259D01*
X141011534Y-109908835D01*
X140938287Y-110018458D01*
X140879413Y-110160591D01*
X140849400Y-110311478D01*
X140849400Y-110465322D01*
X140879413Y-110616209D01*
X140938287Y-110758342D01*
X141023758Y-110886259D01*
X141132541Y-110995042D01*
X141260458Y-111080513D01*
X141402591Y-111139387D01*
X141553478Y-111169400D01*
X141707322Y-111169400D01*
X141858209Y-111139387D01*
X142000342Y-111080513D01*
X142128259Y-110995042D01*
X142237042Y-110886259D01*
X142322513Y-110758342D01*
X142381387Y-110616209D01*
X142411400Y-110465322D01*
X142411400Y-110311478D01*
X142381387Y-110160591D01*
X142322513Y-110018458D01*
X142237042Y-109890541D01*
X142198466Y-109851965D01*
X142271713Y-109742342D01*
X142330587Y-109600209D01*
X142360600Y-109449322D01*
X142360600Y-109295478D01*
X142330587Y-109144591D01*
X142271713Y-109002458D01*
X142186242Y-108874541D01*
X142077459Y-108765758D01*
X141949542Y-108680287D01*
X141807409Y-108621413D01*
X141656522Y-108591400D01*
X141502678Y-108591400D01*
X141351791Y-108621413D01*
X141209658Y-108680287D01*
X141081741Y-108765758D01*
X140972958Y-108874541D01*
X140887487Y-109002458D01*
X140828613Y-109144591D01*
X140798600Y-109295478D01*
X137871469Y-109295478D01*
X137860524Y-105169360D01*
X137979000Y-105169360D01*
X137979000Y-105490640D01*
X138041678Y-105805745D01*
X138164626Y-106102568D01*
X138343119Y-106369702D01*
X138570298Y-106596881D01*
X138837432Y-106775374D01*
X139134255Y-106898322D01*
X139449360Y-106961000D01*
X139770640Y-106961000D01*
X140085745Y-106898322D01*
X140382568Y-106775374D01*
X140649702Y-106596881D01*
X140876881Y-106369702D01*
X141055374Y-106102568D01*
X141178322Y-105805745D01*
X141241000Y-105490640D01*
X141241000Y-105169360D01*
X141178322Y-104854255D01*
X141055374Y-104557432D01*
X140876881Y-104290298D01*
X140649702Y-104063119D01*
X140382568Y-103884626D01*
X140085745Y-103761678D01*
X139770640Y-103699000D01*
X139449360Y-103699000D01*
X139134255Y-103761678D01*
X138837432Y-103884626D01*
X138570298Y-104063119D01*
X138343119Y-104290298D01*
X138164626Y-104557432D01*
X138041678Y-104854255D01*
X137979000Y-105169360D01*
X137860524Y-105169360D01*
X137830418Y-93819709D01*
X137893080Y-93970987D01*
X138098932Y-94279067D01*
X138360933Y-94541068D01*
X138669013Y-94746920D01*
X139011333Y-94888714D01*
X139374738Y-94961000D01*
X139745262Y-94961000D01*
X140108667Y-94888714D01*
X140450987Y-94746920D01*
X140759067Y-94541068D01*
X141021068Y-94279067D01*
X141226920Y-93970987D01*
X141368714Y-93628667D01*
X141441000Y-93265262D01*
X141441000Y-92894738D01*
X141368714Y-92531333D01*
X141226920Y-92189013D01*
X141021068Y-91880933D01*
X140759067Y-91618932D01*
X140450987Y-91413080D01*
X140108667Y-91271286D01*
X139745262Y-91199000D01*
X139374738Y-91199000D01*
X139011333Y-91271286D01*
X138669013Y-91413080D01*
X138360933Y-91618932D01*
X138098932Y-91880933D01*
X137893080Y-92189013D01*
X137826519Y-92349704D01*
X137801666Y-82980000D01*
X138577157Y-82980000D01*
X138577157Y-85980000D01*
X138584513Y-86054689D01*
X138606299Y-86126508D01*
X138641678Y-86192696D01*
X138689289Y-86250711D01*
X138747304Y-86298322D01*
X138813492Y-86333701D01*
X138885311Y-86355487D01*
X138960000Y-86362843D01*
X141960000Y-86362843D01*
X142034689Y-86355487D01*
X142106508Y-86333701D01*
X142172696Y-86298322D01*
X142230711Y-86250711D01*
X142278322Y-86192696D01*
X142313701Y-86126508D01*
X142335487Y-86054689D01*
X142342843Y-85980000D01*
X142342843Y-84294738D01*
X143659000Y-84294738D01*
X143659000Y-84665262D01*
X143731286Y-85028667D01*
X143873080Y-85370987D01*
X144078932Y-85679067D01*
X144340933Y-85941068D01*
X144649013Y-86146920D01*
X144991333Y-86288714D01*
X145354738Y-86361000D01*
X145725262Y-86361000D01*
X146088667Y-86288714D01*
X146430987Y-86146920D01*
X146693293Y-85971653D01*
X149307952Y-85971653D01*
X149463962Y-86287214D01*
X149838745Y-86478020D01*
X150243551Y-86592044D01*
X150662824Y-86624902D01*
X151080451Y-86575334D01*
X151480383Y-86445243D01*
X151776038Y-86287214D01*
X151932048Y-85971653D01*
X150620000Y-84659605D01*
X149307952Y-85971653D01*
X146693293Y-85971653D01*
X146739067Y-85941068D01*
X147001068Y-85679067D01*
X147206920Y-85370987D01*
X147348714Y-85028667D01*
X147421000Y-84665262D01*
X147421000Y-84522824D01*
X148475098Y-84522824D01*
X148524666Y-84940451D01*
X148654757Y-85340383D01*
X148812786Y-85636038D01*
X149128347Y-85792048D01*
X150440395Y-84480000D01*
X150799605Y-84480000D01*
X152111653Y-85792048D01*
X152427214Y-85636038D01*
X152618020Y-85261255D01*
X152732044Y-84856449D01*
X152764902Y-84437176D01*
X152715334Y-84019549D01*
X152585243Y-83619617D01*
X152427214Y-83323962D01*
X152111653Y-83167952D01*
X150799605Y-84480000D01*
X150440395Y-84480000D01*
X149128347Y-83167952D01*
X148812786Y-83323962D01*
X148621980Y-83698745D01*
X148507956Y-84103551D01*
X148475098Y-84522824D01*
X147421000Y-84522824D01*
X147421000Y-84294738D01*
X147348714Y-83931333D01*
X147206920Y-83589013D01*
X147001068Y-83280933D01*
X146739067Y-83018932D01*
X146693294Y-82988347D01*
X149307952Y-82988347D01*
X150620000Y-84300395D01*
X151932048Y-82988347D01*
X151927922Y-82980000D01*
X154627157Y-82980000D01*
X154627157Y-85980000D01*
X154634513Y-86054689D01*
X154656299Y-86126508D01*
X154691678Y-86192696D01*
X154739289Y-86250711D01*
X154797304Y-86298322D01*
X154863492Y-86333701D01*
X154935311Y-86355487D01*
X155010000Y-86362843D01*
X158010000Y-86362843D01*
X158084689Y-86355487D01*
X158156508Y-86333701D01*
X158222696Y-86298322D01*
X158280711Y-86250711D01*
X158328322Y-86192696D01*
X158363701Y-86126508D01*
X158385487Y-86054689D01*
X158392843Y-85980000D01*
X158392843Y-84294738D01*
X159709000Y-84294738D01*
X159709000Y-84665262D01*
X159781286Y-85028667D01*
X159923080Y-85370987D01*
X160128932Y-85679067D01*
X160390933Y-85941068D01*
X160699013Y-86146920D01*
X161041333Y-86288714D01*
X161404738Y-86361000D01*
X161775262Y-86361000D01*
X162138667Y-86288714D01*
X162480987Y-86146920D01*
X162743293Y-85971653D01*
X165357952Y-85971653D01*
X165513962Y-86287214D01*
X165888745Y-86478020D01*
X166293551Y-86592044D01*
X166712824Y-86624902D01*
X167130451Y-86575334D01*
X167530383Y-86445243D01*
X167826038Y-86287214D01*
X167982048Y-85971653D01*
X166670000Y-84659605D01*
X165357952Y-85971653D01*
X162743293Y-85971653D01*
X162789067Y-85941068D01*
X163051068Y-85679067D01*
X163256920Y-85370987D01*
X163398714Y-85028667D01*
X163471000Y-84665262D01*
X163471000Y-84522824D01*
X164525098Y-84522824D01*
X164574666Y-84940451D01*
X164704757Y-85340383D01*
X164862786Y-85636038D01*
X165178347Y-85792048D01*
X166490395Y-84480000D01*
X166849605Y-84480000D01*
X168161653Y-85792048D01*
X168477214Y-85636038D01*
X168668020Y-85261255D01*
X168782044Y-84856449D01*
X168814902Y-84437176D01*
X168765334Y-84019549D01*
X168635243Y-83619617D01*
X168477214Y-83323962D01*
X168161653Y-83167952D01*
X166849605Y-84480000D01*
X166490395Y-84480000D01*
X165178347Y-83167952D01*
X164862786Y-83323962D01*
X164671980Y-83698745D01*
X164557956Y-84103551D01*
X164525098Y-84522824D01*
X163471000Y-84522824D01*
X163471000Y-84294738D01*
X163398714Y-83931333D01*
X163256920Y-83589013D01*
X163051068Y-83280933D01*
X162789067Y-83018932D01*
X162743294Y-82988347D01*
X165357952Y-82988347D01*
X166670000Y-84300395D01*
X167982048Y-82988347D01*
X167977922Y-82980000D01*
X170827157Y-82980000D01*
X170827157Y-85980000D01*
X170834513Y-86054689D01*
X170856299Y-86126508D01*
X170891678Y-86192696D01*
X170939289Y-86250711D01*
X170997304Y-86298322D01*
X171063492Y-86333701D01*
X171135311Y-86355487D01*
X171210000Y-86362843D01*
X174210000Y-86362843D01*
X174284689Y-86355487D01*
X174356508Y-86333701D01*
X174422696Y-86298322D01*
X174480711Y-86250711D01*
X174528322Y-86192696D01*
X174563701Y-86126508D01*
X174585487Y-86054689D01*
X174592843Y-85980000D01*
X174592843Y-84294738D01*
X175909000Y-84294738D01*
X175909000Y-84665262D01*
X175981286Y-85028667D01*
X176123080Y-85370987D01*
X176328932Y-85679067D01*
X176590933Y-85941068D01*
X176899013Y-86146920D01*
X177241333Y-86288714D01*
X177604738Y-86361000D01*
X177975262Y-86361000D01*
X178338667Y-86288714D01*
X178680987Y-86146920D01*
X178943293Y-85971653D01*
X181557952Y-85971653D01*
X181713962Y-86287214D01*
X182088745Y-86478020D01*
X182493551Y-86592044D01*
X182912824Y-86624902D01*
X183330451Y-86575334D01*
X183730383Y-86445243D01*
X184026038Y-86287214D01*
X184182048Y-85971653D01*
X182870000Y-84659605D01*
X181557952Y-85971653D01*
X178943293Y-85971653D01*
X178989067Y-85941068D01*
X179251068Y-85679067D01*
X179456920Y-85370987D01*
X179598714Y-85028667D01*
X179671000Y-84665262D01*
X179671000Y-84522824D01*
X180725098Y-84522824D01*
X180774666Y-84940451D01*
X180904757Y-85340383D01*
X181062786Y-85636038D01*
X181378347Y-85792048D01*
X182690395Y-84480000D01*
X183049605Y-84480000D01*
X184361653Y-85792048D01*
X184677214Y-85636038D01*
X184868020Y-85261255D01*
X184982044Y-84856449D01*
X185014902Y-84437176D01*
X184965334Y-84019549D01*
X184835243Y-83619617D01*
X184677214Y-83323962D01*
X184361653Y-83167952D01*
X183049605Y-84480000D01*
X182690395Y-84480000D01*
X181378347Y-83167952D01*
X181062786Y-83323962D01*
X180871980Y-83698745D01*
X180757956Y-84103551D01*
X180725098Y-84522824D01*
X179671000Y-84522824D01*
X179671000Y-84294738D01*
X179598714Y-83931333D01*
X179456920Y-83589013D01*
X179251068Y-83280933D01*
X178989067Y-83018932D01*
X178943294Y-82988347D01*
X181557952Y-82988347D01*
X182870000Y-84300395D01*
X184182048Y-82988347D01*
X184026038Y-82672786D01*
X183651255Y-82481980D01*
X183246449Y-82367956D01*
X182827176Y-82335098D01*
X182409549Y-82384666D01*
X182009617Y-82514757D01*
X181713962Y-82672786D01*
X181557952Y-82988347D01*
X178943294Y-82988347D01*
X178680987Y-82813080D01*
X178338667Y-82671286D01*
X177975262Y-82599000D01*
X177604738Y-82599000D01*
X177241333Y-82671286D01*
X176899013Y-82813080D01*
X176590933Y-83018932D01*
X176328932Y-83280933D01*
X176123080Y-83589013D01*
X175981286Y-83931333D01*
X175909000Y-84294738D01*
X174592843Y-84294738D01*
X174592843Y-82980000D01*
X174585487Y-82905311D01*
X174563701Y-82833492D01*
X174528322Y-82767304D01*
X174480711Y-82709289D01*
X174422696Y-82661678D01*
X174356508Y-82626299D01*
X174284689Y-82604513D01*
X174210000Y-82597157D01*
X171210000Y-82597157D01*
X171135311Y-82604513D01*
X171063492Y-82626299D01*
X170997304Y-82661678D01*
X170939289Y-82709289D01*
X170891678Y-82767304D01*
X170856299Y-82833492D01*
X170834513Y-82905311D01*
X170827157Y-82980000D01*
X167977922Y-82980000D01*
X167826038Y-82672786D01*
X167451255Y-82481980D01*
X167046449Y-82367956D01*
X166627176Y-82335098D01*
X166209549Y-82384666D01*
X165809617Y-82514757D01*
X165513962Y-82672786D01*
X165357952Y-82988347D01*
X162743294Y-82988347D01*
X162480987Y-82813080D01*
X162138667Y-82671286D01*
X161775262Y-82599000D01*
X161404738Y-82599000D01*
X161041333Y-82671286D01*
X160699013Y-82813080D01*
X160390933Y-83018932D01*
X160128932Y-83280933D01*
X159923080Y-83589013D01*
X159781286Y-83931333D01*
X159709000Y-84294738D01*
X158392843Y-84294738D01*
X158392843Y-82980000D01*
X158385487Y-82905311D01*
X158363701Y-82833492D01*
X158328322Y-82767304D01*
X158280711Y-82709289D01*
X158222696Y-82661678D01*
X158156508Y-82626299D01*
X158084689Y-82604513D01*
X158010000Y-82597157D01*
X155010000Y-82597157D01*
X154935311Y-82604513D01*
X154863492Y-82626299D01*
X154797304Y-82661678D01*
X154739289Y-82709289D01*
X154691678Y-82767304D01*
X154656299Y-82833492D01*
X154634513Y-82905311D01*
X154627157Y-82980000D01*
X151927922Y-82980000D01*
X151776038Y-82672786D01*
X151401255Y-82481980D01*
X150996449Y-82367956D01*
X150577176Y-82335098D01*
X150159549Y-82384666D01*
X149759617Y-82514757D01*
X149463962Y-82672786D01*
X149307952Y-82988347D01*
X146693294Y-82988347D01*
X146430987Y-82813080D01*
X146088667Y-82671286D01*
X145725262Y-82599000D01*
X145354738Y-82599000D01*
X144991333Y-82671286D01*
X144649013Y-82813080D01*
X144340933Y-83018932D01*
X144078932Y-83280933D01*
X143873080Y-83589013D01*
X143731286Y-83931333D01*
X143659000Y-84294738D01*
X142342843Y-84294738D01*
X142342843Y-82980000D01*
X142335487Y-82905311D01*
X142313701Y-82833492D01*
X142278322Y-82767304D01*
X142230711Y-82709289D01*
X142172696Y-82661678D01*
X142106508Y-82626299D01*
X142034689Y-82604513D01*
X141960000Y-82597157D01*
X138960000Y-82597157D01*
X138885311Y-82604513D01*
X138813492Y-82626299D01*
X138747304Y-82661678D01*
X138689289Y-82709289D01*
X138641678Y-82767304D01*
X138606299Y-82833492D01*
X138584513Y-82905311D01*
X138577157Y-82980000D01*
X137801666Y-82980000D01*
X137795337Y-80594065D01*
X185395408Y-80543534D01*
X185444588Y-88264836D01*
M02*
