G04 #@! TF.GenerationSoftware,KiCad,Pcbnew,(5.1.5)-3*
G04 #@! TF.CreationDate,2020-10-24T18:19:01+09:00*
G04 #@! TF.ProjectId,wallswitch_schematic_alpha,77616c6c-7377-4697-9463-685f73636865,rev?*
G04 #@! TF.SameCoordinates,Original*
G04 #@! TF.FileFunction,Copper,L2,Inr*
G04 #@! TF.FilePolarity,Positive*
%FSLAX46Y46*%
G04 Gerber Fmt 4.6, Leading zero omitted, Abs format (unit mm)*
G04 Created by KiCad (PCBNEW (5.1.5)-3) date 2020-10-24 18:19:01*
%MOMM*%
%LPD*%
G04 APERTURE LIST*
%ADD10C,1.800000*%
%ADD11C,2.300000*%
%ADD12R,2.000000X2.300000*%
%ADD13C,3.000000*%
%ADD14C,2.500000*%
%ADD15R,1.700000X1.700000*%
%ADD16O,1.700000X1.700000*%
%ADD17R,3.000000X3.000000*%
%ADD18O,5.500000X3.800000*%
%ADD19O,5.300000X3.800000*%
%ADD20C,0.800000*%
%ADD21C,0.250000*%
%ADD22C,0.254000*%
G04 APERTURE END LIST*
D10*
X158242000Y-112776000D03*
X150742000Y-111376000D03*
D11*
X188460000Y-82980000D03*
D12*
X193660000Y-112380000D03*
D11*
X198660000Y-112380000D03*
X203860000Y-82980000D03*
D13*
X145560000Y-107280000D03*
D14*
X139610000Y-105330000D03*
D13*
X139560000Y-93080000D03*
X151610000Y-93130000D03*
D14*
X151610000Y-105330000D03*
D15*
X220306000Y-94980000D03*
D16*
X220306000Y-92440000D03*
X220306000Y-89900000D03*
X220306000Y-87360000D03*
X220306000Y-84820000D03*
X220306000Y-82280000D03*
D17*
X140335000Y-114808000D03*
D13*
X145415000Y-114808000D03*
D17*
X140460000Y-84480000D03*
D13*
X145540000Y-84480000D03*
X150620000Y-84480000D03*
D15*
X224282000Y-94980000D03*
D16*
X224282000Y-92440000D03*
X224282000Y-89900000D03*
X224282000Y-87360000D03*
X224282000Y-84820000D03*
X224282000Y-82280000D03*
D18*
X159131000Y-116586000D03*
D19*
X151131000Y-116586000D03*
D17*
X156510000Y-84480000D03*
D13*
X161590000Y-84480000D03*
X166670000Y-84480000D03*
X182870000Y-84480000D03*
X177790000Y-84480000D03*
D17*
X172710000Y-84480000D03*
D13*
X161634999Y-107275001D03*
D14*
X155684999Y-105325001D03*
D13*
X155634999Y-93075001D03*
X167684999Y-93125001D03*
D14*
X167684999Y-105325001D03*
X183760000Y-105325001D03*
D13*
X183760000Y-93125001D03*
X171710000Y-93075001D03*
D14*
X171760000Y-105325001D03*
D13*
X177710000Y-107275001D03*
D20*
X203504800Y-102057200D03*
X176682400Y-115722400D03*
X203911200Y-96621600D03*
X203809600Y-92557600D03*
X202641200Y-92506800D03*
X204774800Y-90982800D03*
X204825600Y-92506800D03*
X204774800Y-89560400D03*
X165150800Y-115722400D03*
X225742500Y-102489000D03*
X225679000Y-115633500D03*
X224599500Y-109918500D03*
X216281000Y-86487000D03*
X225869500Y-98171000D03*
X208153000Y-81343500D03*
X202565000Y-96710500D03*
X197675500Y-100647500D03*
X195389500Y-94170500D03*
X189738000Y-105918000D03*
X200609200Y-106527600D03*
X191706500Y-81978500D03*
X190436500Y-83883500D03*
X201422000Y-81978500D03*
X196977000Y-81978500D03*
X179959000Y-96647000D03*
X163639500Y-96583500D03*
X147320000Y-96367600D03*
X207111600Y-95351600D03*
X208026000Y-102158800D03*
X194259200Y-83616800D03*
X211785200Y-106832400D03*
X186842400Y-96520000D03*
X186791600Y-101295200D03*
X207213200Y-117805200D03*
X217170000Y-114858800D03*
X199034400Y-83362800D03*
X224345500Y-102489000D03*
X225298000Y-112585500D03*
X209867500Y-95377000D03*
X224282000Y-98171000D03*
X188531500Y-89408000D03*
X188531500Y-90779600D03*
X191058800Y-89408000D03*
X192786000Y-90805000D03*
X195834000Y-88188800D03*
X186690000Y-86715600D03*
X186486800Y-89408000D03*
X195986400Y-90881200D03*
X220662500Y-115570000D03*
X221996000Y-115570000D03*
X207160000Y-93780000D03*
X209860000Y-93780000D03*
X208343500Y-89281000D03*
X213614000Y-89281000D03*
X165163500Y-114109500D03*
X191668400Y-108051600D03*
X141579600Y-109372400D03*
X212560000Y-93780000D03*
X215260000Y-93780000D03*
X222313500Y-109664500D03*
X220065600Y-102412800D03*
X225425000Y-105727500D03*
X219049600Y-103251000D03*
X198564500Y-94170500D03*
X192214500Y-93980000D03*
X201231500Y-92392500D03*
X213868000Y-102489000D03*
X214593000Y-103196108D03*
X211709000Y-114935000D03*
X205740000Y-115062000D03*
X148336000Y-102463600D03*
X169481500Y-114109500D03*
X169418000Y-115722400D03*
X173837600Y-115722400D03*
X173926500Y-114109500D03*
X212979000Y-113919000D03*
X164655500Y-102362000D03*
X205740000Y-113919000D03*
X180911500Y-102489000D03*
X205752651Y-112906346D03*
X214312500Y-112966500D03*
X200710800Y-108102400D03*
X141630400Y-110388400D03*
D21*
X139610000Y-105330000D02*
X149278998Y-105330000D01*
X149278998Y-105330000D02*
X151746598Y-107797600D01*
X151746598Y-107797600D02*
X158597600Y-107797600D01*
X158597600Y-107797600D02*
X160426400Y-109626400D01*
X160426400Y-109626400D02*
X163982400Y-109626400D01*
X164438499Y-115010099D02*
X165150800Y-115722400D01*
X164438499Y-110082499D02*
X164438499Y-115010099D01*
X163982400Y-109626400D02*
X164438499Y-110082499D01*
X159535990Y-109372400D02*
X163880800Y-113717210D01*
X141579600Y-109372400D02*
X159535990Y-109372400D01*
X163880800Y-115525402D02*
X165449398Y-117094000D01*
X163880800Y-113717210D02*
X163880800Y-115525402D01*
X182626000Y-117094000D02*
X191668400Y-108051600D01*
X165449398Y-117094000D02*
X182626000Y-117094000D01*
X222948500Y-103251000D02*
X225425000Y-105727500D01*
X222948500Y-103251000D02*
X219049600Y-103251000D01*
X162386001Y-105325001D02*
X168148000Y-111087000D01*
X155684999Y-105325001D02*
X162386001Y-105325001D01*
X168148000Y-114452400D02*
X169418000Y-115722400D01*
X168148000Y-111087000D02*
X168148000Y-114452400D01*
X173837600Y-115722400D02*
X173024800Y-114909600D01*
X173024800Y-106589801D02*
X171760000Y-105325001D01*
X173024800Y-114909600D02*
X173024800Y-106589801D01*
X183248993Y-117544009D02*
X192690602Y-108102400D01*
X165262998Y-117544010D02*
X183248993Y-117544009D01*
X163430791Y-115711803D02*
X165262998Y-117544010D01*
X141630400Y-110388400D02*
X141681200Y-110388400D01*
X141681200Y-110388400D02*
X142247190Y-109822410D01*
X192690602Y-108102400D02*
X200710800Y-108102400D01*
X163430790Y-113903610D02*
X163430791Y-115711803D01*
X142247190Y-109822410D02*
X159349590Y-109822410D01*
X159349590Y-109822410D02*
X163430790Y-113903610D01*
D22*
G36*
X205105000Y-107162157D02*
G01*
X201086238Y-107148154D01*
X201107059Y-107134242D01*
X201215842Y-107025459D01*
X201301313Y-106897542D01*
X201360187Y-106755409D01*
X201390200Y-106604522D01*
X201390200Y-106450678D01*
X201360187Y-106299791D01*
X201301313Y-106157658D01*
X201215842Y-106029741D01*
X201107059Y-105920958D01*
X200979142Y-105835487D01*
X200837009Y-105776613D01*
X200686122Y-105746600D01*
X200532278Y-105746600D01*
X200381391Y-105776613D01*
X200239258Y-105835487D01*
X200111341Y-105920958D01*
X200002558Y-106029741D01*
X199917087Y-106157658D01*
X199858213Y-106299791D01*
X199828200Y-106450678D01*
X199828200Y-106604522D01*
X199858213Y-106755409D01*
X199917087Y-106897542D01*
X200002558Y-107025459D01*
X200111341Y-107134242D01*
X200127161Y-107144813D01*
X190652843Y-107111801D01*
X190628058Y-107114155D01*
X190604208Y-107121299D01*
X190582211Y-107132958D01*
X190563893Y-107147720D01*
X181609257Y-115849400D01*
X176022576Y-115849400D01*
X174611307Y-115835985D01*
X174618600Y-115799322D01*
X174618600Y-115645478D01*
X174588587Y-115494591D01*
X174529713Y-115352458D01*
X174444242Y-115224541D01*
X174335459Y-115115758D01*
X174207542Y-115030287D01*
X174065409Y-114971413D01*
X173914522Y-114941400D01*
X173772191Y-114941400D01*
X173686037Y-114855245D01*
X173698691Y-114860487D01*
X173849578Y-114890500D01*
X174003422Y-114890500D01*
X174154309Y-114860487D01*
X174296442Y-114801613D01*
X174424359Y-114716142D01*
X174533142Y-114607359D01*
X174618613Y-114479442D01*
X174677487Y-114337309D01*
X174707500Y-114186422D01*
X174707500Y-114032578D01*
X174677487Y-113881691D01*
X174618613Y-113739558D01*
X174533142Y-113611641D01*
X174424359Y-113502858D01*
X174296442Y-113417387D01*
X174154309Y-113358513D01*
X174003422Y-113328500D01*
X173849578Y-113328500D01*
X173698691Y-113358513D01*
X173556558Y-113417387D01*
X173530800Y-113434598D01*
X173530800Y-107089739D01*
X175829000Y-107089739D01*
X175829000Y-107460263D01*
X175901286Y-107823668D01*
X176043080Y-108165988D01*
X176248932Y-108474068D01*
X176510933Y-108736069D01*
X176819013Y-108941921D01*
X177161333Y-109083715D01*
X177524738Y-109156001D01*
X177895262Y-109156001D01*
X178258667Y-109083715D01*
X178600987Y-108941921D01*
X178909067Y-108736069D01*
X179171068Y-108474068D01*
X179376920Y-108165988D01*
X179518714Y-107823668D01*
X179591000Y-107460263D01*
X179591000Y-107089739D01*
X179518714Y-106726334D01*
X179482376Y-106638606D01*
X182626000Y-106638606D01*
X182751914Y-106928578D01*
X183084126Y-107094434D01*
X183442312Y-107192291D01*
X183812706Y-107218390D01*
X184181075Y-107171726D01*
X184533262Y-107054095D01*
X184768086Y-106928578D01*
X184894000Y-106638606D01*
X183760000Y-105504606D01*
X182626000Y-106638606D01*
X179482376Y-106638606D01*
X179376920Y-106384014D01*
X179171068Y-106075934D01*
X178909067Y-105813933D01*
X178600987Y-105608081D01*
X178258667Y-105466287D01*
X177895262Y-105394001D01*
X177524738Y-105394001D01*
X177161333Y-105466287D01*
X176819013Y-105608081D01*
X176510933Y-105813933D01*
X176248932Y-106075934D01*
X176043080Y-106384014D01*
X175901286Y-106726334D01*
X175829000Y-107089739D01*
X173530800Y-107089739D01*
X173530800Y-106614646D01*
X173533247Y-106589800D01*
X173530800Y-106564954D01*
X173530800Y-106564947D01*
X173523478Y-106490608D01*
X173494545Y-106395226D01*
X173447559Y-106307322D01*
X173384327Y-106230274D01*
X173365020Y-106214429D01*
X173217906Y-106067315D01*
X173328322Y-105800746D01*
X173391000Y-105485641D01*
X173391000Y-105377707D01*
X181866611Y-105377707D01*
X181913275Y-105746076D01*
X182030906Y-106098263D01*
X182156423Y-106333087D01*
X182446395Y-106459001D01*
X183580395Y-105325001D01*
X183939605Y-105325001D01*
X185073605Y-106459001D01*
X185363577Y-106333087D01*
X185529433Y-106000875D01*
X185573089Y-105841078D01*
X188957000Y-105841078D01*
X188957000Y-105994922D01*
X188987013Y-106145809D01*
X189045887Y-106287942D01*
X189131358Y-106415859D01*
X189240141Y-106524642D01*
X189368058Y-106610113D01*
X189510191Y-106668987D01*
X189661078Y-106699000D01*
X189814922Y-106699000D01*
X189965809Y-106668987D01*
X190107942Y-106610113D01*
X190235859Y-106524642D01*
X190344642Y-106415859D01*
X190430113Y-106287942D01*
X190488987Y-106145809D01*
X190519000Y-105994922D01*
X190519000Y-105841078D01*
X190488987Y-105690191D01*
X190430113Y-105548058D01*
X190344642Y-105420141D01*
X190235859Y-105311358D01*
X190107942Y-105225887D01*
X189965809Y-105167013D01*
X189814922Y-105137000D01*
X189661078Y-105137000D01*
X189510191Y-105167013D01*
X189368058Y-105225887D01*
X189240141Y-105311358D01*
X189131358Y-105420141D01*
X189045887Y-105548058D01*
X188987013Y-105690191D01*
X188957000Y-105841078D01*
X185573089Y-105841078D01*
X185627290Y-105642689D01*
X185653389Y-105272295D01*
X185606725Y-104903926D01*
X185489094Y-104551739D01*
X185363577Y-104316915D01*
X185073605Y-104191001D01*
X183939605Y-105325001D01*
X183580395Y-105325001D01*
X182446395Y-104191001D01*
X182156423Y-104316915D01*
X181990567Y-104649127D01*
X181892710Y-105007313D01*
X181866611Y-105377707D01*
X173391000Y-105377707D01*
X173391000Y-105164361D01*
X173328322Y-104849256D01*
X173205374Y-104552433D01*
X173026881Y-104285299D01*
X172799702Y-104058120D01*
X172532568Y-103879627D01*
X172235745Y-103756679D01*
X171920640Y-103694001D01*
X171599360Y-103694001D01*
X171284255Y-103756679D01*
X170987432Y-103879627D01*
X170720298Y-104058120D01*
X170493119Y-104285299D01*
X170314626Y-104552433D01*
X170191678Y-104849256D01*
X170129000Y-105164361D01*
X170129000Y-105485641D01*
X170191678Y-105800746D01*
X170314626Y-106097569D01*
X170493119Y-106364703D01*
X170720298Y-106591882D01*
X170987432Y-106770375D01*
X171284255Y-106893323D01*
X171599360Y-106956001D01*
X171920640Y-106956001D01*
X172235745Y-106893323D01*
X172502314Y-106782907D01*
X172518801Y-106799394D01*
X172518800Y-114884754D01*
X172516353Y-114909600D01*
X172518800Y-114934446D01*
X172518800Y-114934453D01*
X172526122Y-115008792D01*
X172555055Y-115104174D01*
X172602041Y-115192079D01*
X172665273Y-115269127D01*
X172684585Y-115284976D01*
X173056600Y-115656991D01*
X173056600Y-115799322D01*
X173060961Y-115821248D01*
X170199000Y-115794043D01*
X170199000Y-115645478D01*
X170168987Y-115494591D01*
X170110113Y-115352458D01*
X170024642Y-115224541D01*
X169915859Y-115115758D01*
X169787942Y-115030287D01*
X169645809Y-114971413D01*
X169494922Y-114941400D01*
X169352592Y-114941400D01*
X169276145Y-114864953D01*
X169404578Y-114890500D01*
X169558422Y-114890500D01*
X169709309Y-114860487D01*
X169851442Y-114801613D01*
X169979359Y-114716142D01*
X170088142Y-114607359D01*
X170173613Y-114479442D01*
X170232487Y-114337309D01*
X170262500Y-114186422D01*
X170262500Y-114032578D01*
X170232487Y-113881691D01*
X170173613Y-113739558D01*
X170088142Y-113611641D01*
X169979359Y-113502858D01*
X169851442Y-113417387D01*
X169709309Y-113358513D01*
X169558422Y-113328500D01*
X169404578Y-113328500D01*
X169253691Y-113358513D01*
X169111558Y-113417387D01*
X168983641Y-113502858D01*
X168874858Y-113611641D01*
X168789387Y-113739558D01*
X168730513Y-113881691D01*
X168700500Y-114032578D01*
X168700500Y-114186422D01*
X168726047Y-114314856D01*
X168654000Y-114242809D01*
X168654000Y-111111845D01*
X168656447Y-111086999D01*
X168654000Y-111062153D01*
X168654000Y-111062146D01*
X168646678Y-110987807D01*
X168638028Y-110959289D01*
X168617745Y-110892425D01*
X168597480Y-110854513D01*
X168570759Y-110804521D01*
X168507527Y-110727473D01*
X168488220Y-110711628D01*
X164415198Y-106638606D01*
X166550999Y-106638606D01*
X166676913Y-106928578D01*
X167009125Y-107094434D01*
X167367311Y-107192291D01*
X167737705Y-107218390D01*
X168106074Y-107171726D01*
X168458261Y-107054095D01*
X168693085Y-106928578D01*
X168818999Y-106638606D01*
X167684999Y-105504606D01*
X166550999Y-106638606D01*
X164415198Y-106638606D01*
X163154299Y-105377707D01*
X165791610Y-105377707D01*
X165838274Y-105746076D01*
X165955905Y-106098263D01*
X166081422Y-106333087D01*
X166371394Y-106459001D01*
X167505394Y-105325001D01*
X167864604Y-105325001D01*
X168998604Y-106459001D01*
X169288576Y-106333087D01*
X169454432Y-106000875D01*
X169552289Y-105642689D01*
X169578388Y-105272295D01*
X169531724Y-104903926D01*
X169414093Y-104551739D01*
X169288576Y-104316915D01*
X168998604Y-104191001D01*
X167864604Y-105325001D01*
X167505394Y-105325001D01*
X166371394Y-104191001D01*
X166081422Y-104316915D01*
X165915566Y-104649127D01*
X165817709Y-105007313D01*
X165791610Y-105377707D01*
X163154299Y-105377707D01*
X162761377Y-104984786D01*
X162745528Y-104965474D01*
X162668480Y-104902242D01*
X162580576Y-104855256D01*
X162485194Y-104826323D01*
X162410855Y-104819001D01*
X162410847Y-104819001D01*
X162386001Y-104816554D01*
X162361155Y-104819001D01*
X157240789Y-104819001D01*
X157130373Y-104552433D01*
X156951880Y-104285299D01*
X156724701Y-104058120D01*
X156457567Y-103879627D01*
X156160744Y-103756679D01*
X155845639Y-103694001D01*
X155524359Y-103694001D01*
X155209254Y-103756679D01*
X154912431Y-103879627D01*
X154645297Y-104058120D01*
X154418118Y-104285299D01*
X154239625Y-104552433D01*
X154116677Y-104849256D01*
X154053999Y-105164361D01*
X154053999Y-105485641D01*
X154116677Y-105800746D01*
X154239625Y-106097569D01*
X154418118Y-106364703D01*
X154645297Y-106591882D01*
X154912431Y-106770375D01*
X155209254Y-106893323D01*
X155524359Y-106956001D01*
X155845639Y-106956001D01*
X156160744Y-106893323D01*
X156457567Y-106770375D01*
X156724701Y-106591882D01*
X156951880Y-106364703D01*
X157130373Y-106097569D01*
X157240789Y-105831001D01*
X160418864Y-105831001D01*
X160173931Y-106075934D01*
X159968079Y-106384014D01*
X159826285Y-106726334D01*
X159753999Y-107089739D01*
X159753999Y-107460263D01*
X159826285Y-107823668D01*
X159968079Y-108165988D01*
X160173931Y-108474068D01*
X160435932Y-108736069D01*
X160744012Y-108941921D01*
X161086332Y-109083715D01*
X161270759Y-109120400D01*
X160635992Y-109120400D01*
X158972976Y-107457385D01*
X158957127Y-107438073D01*
X158880079Y-107374841D01*
X158792175Y-107327855D01*
X158696793Y-107298922D01*
X158622454Y-107291600D01*
X158622446Y-107291600D01*
X158597600Y-107289153D01*
X158572754Y-107291600D01*
X151956190Y-107291600D01*
X151862650Y-107198061D01*
X152031075Y-107176725D01*
X152383262Y-107059094D01*
X152618086Y-106933577D01*
X152744000Y-106643605D01*
X151610000Y-105509605D01*
X151595858Y-105523748D01*
X151416253Y-105344143D01*
X151430395Y-105330000D01*
X151789605Y-105330000D01*
X152923605Y-106464000D01*
X153213577Y-106338086D01*
X153379433Y-106005874D01*
X153477290Y-105647688D01*
X153503389Y-105277294D01*
X153456725Y-104908925D01*
X153339094Y-104556738D01*
X153213577Y-104321914D01*
X152923605Y-104196000D01*
X151789605Y-105330000D01*
X151430395Y-105330000D01*
X150296395Y-104196000D01*
X150006423Y-104321914D01*
X149840567Y-104654126D01*
X149742710Y-105012312D01*
X149738378Y-105073789D01*
X149654374Y-104989785D01*
X149638525Y-104970473D01*
X149561477Y-104907241D01*
X149473573Y-104860255D01*
X149473086Y-104860107D01*
X149478476Y-103555800D01*
X150971785Y-103555800D01*
X150836738Y-103600906D01*
X150601914Y-103726423D01*
X150476000Y-104016395D01*
X151610000Y-105150395D01*
X152744000Y-104016395D01*
X152618086Y-103726423D01*
X152285874Y-103560567D01*
X152268425Y-103555800D01*
X167031817Y-103555800D01*
X166911737Y-103595907D01*
X166676913Y-103721424D01*
X166550999Y-104011396D01*
X167684999Y-105145396D01*
X168818999Y-104011396D01*
X168693085Y-103721424D01*
X168361338Y-103555800D01*
X183106818Y-103555800D01*
X182986738Y-103595907D01*
X182751914Y-103721424D01*
X182626000Y-104011396D01*
X183760000Y-105145396D01*
X184894000Y-104011396D01*
X184768086Y-103721424D01*
X184436339Y-103555800D01*
X187045600Y-103555800D01*
X187070376Y-103553360D01*
X187094201Y-103546133D01*
X187116157Y-103534397D01*
X187135403Y-103518603D01*
X187151197Y-103499357D01*
X187162933Y-103477401D01*
X187170160Y-103453576D01*
X187172600Y-103428800D01*
X187172600Y-101979924D01*
X187289459Y-101901842D01*
X187398242Y-101793059D01*
X187483713Y-101665142D01*
X187542587Y-101523009D01*
X187572600Y-101372122D01*
X187572600Y-101218278D01*
X187542587Y-101067391D01*
X187483713Y-100925258D01*
X187398242Y-100797341D01*
X187289459Y-100688558D01*
X187172600Y-100610476D01*
X187172600Y-100570578D01*
X196894500Y-100570578D01*
X196894500Y-100724422D01*
X196924513Y-100875309D01*
X196983387Y-101017442D01*
X197068858Y-101145359D01*
X197177641Y-101254142D01*
X197305558Y-101339613D01*
X197447691Y-101398487D01*
X197598578Y-101428500D01*
X197752422Y-101428500D01*
X197903309Y-101398487D01*
X198045442Y-101339613D01*
X198173359Y-101254142D01*
X198282142Y-101145359D01*
X198367613Y-101017442D01*
X198426487Y-100875309D01*
X198456500Y-100724422D01*
X198456500Y-100570578D01*
X198426487Y-100419691D01*
X198367613Y-100277558D01*
X198282142Y-100149641D01*
X198173359Y-100040858D01*
X198045442Y-99955387D01*
X197903309Y-99896513D01*
X197752422Y-99866500D01*
X197598578Y-99866500D01*
X197447691Y-99896513D01*
X197305558Y-99955387D01*
X197177641Y-100040858D01*
X197068858Y-100149641D01*
X196983387Y-100277558D01*
X196924513Y-100419691D01*
X196894500Y-100570578D01*
X187172600Y-100570578D01*
X187172600Y-97228575D01*
X187212342Y-97212113D01*
X187340259Y-97126642D01*
X187449042Y-97017859D01*
X187534513Y-96889942D01*
X187593387Y-96747809D01*
X187616108Y-96633578D01*
X201784000Y-96633578D01*
X201784000Y-96787422D01*
X201814013Y-96938309D01*
X201872887Y-97080442D01*
X201958358Y-97208359D01*
X202067141Y-97317142D01*
X202195058Y-97402613D01*
X202337191Y-97461487D01*
X202488078Y-97491500D01*
X202641922Y-97491500D01*
X202792809Y-97461487D01*
X202934942Y-97402613D01*
X203062859Y-97317142D01*
X203171642Y-97208359D01*
X203257113Y-97080442D01*
X203315987Y-96938309D01*
X203346000Y-96787422D01*
X203346000Y-96633578D01*
X203315987Y-96482691D01*
X203257113Y-96340558D01*
X203171642Y-96212641D01*
X203062859Y-96103858D01*
X202934942Y-96018387D01*
X202792809Y-95959513D01*
X202641922Y-95929500D01*
X202488078Y-95929500D01*
X202337191Y-95959513D01*
X202195058Y-96018387D01*
X202067141Y-96103858D01*
X201958358Y-96212641D01*
X201872887Y-96340558D01*
X201814013Y-96482691D01*
X201784000Y-96633578D01*
X187616108Y-96633578D01*
X187623400Y-96596922D01*
X187623400Y-96443078D01*
X187593387Y-96292191D01*
X187534513Y-96150058D01*
X187449042Y-96022141D01*
X187340259Y-95913358D01*
X187212342Y-95827887D01*
X187172600Y-95811425D01*
X187172600Y-93903078D01*
X191433500Y-93903078D01*
X191433500Y-94056922D01*
X191463513Y-94207809D01*
X191522387Y-94349942D01*
X191607858Y-94477859D01*
X191716641Y-94586642D01*
X191844558Y-94672113D01*
X191986691Y-94730987D01*
X192137578Y-94761000D01*
X192291422Y-94761000D01*
X192442309Y-94730987D01*
X192584442Y-94672113D01*
X192712359Y-94586642D01*
X192821142Y-94477859D01*
X192906613Y-94349942D01*
X192965487Y-94207809D01*
X192988208Y-94093578D01*
X194608500Y-94093578D01*
X194608500Y-94247422D01*
X194638513Y-94398309D01*
X194697387Y-94540442D01*
X194782858Y-94668359D01*
X194891641Y-94777142D01*
X195019558Y-94862613D01*
X195161691Y-94921487D01*
X195312578Y-94951500D01*
X195466422Y-94951500D01*
X195617309Y-94921487D01*
X195759442Y-94862613D01*
X195887359Y-94777142D01*
X195996142Y-94668359D01*
X196081613Y-94540442D01*
X196140487Y-94398309D01*
X196170500Y-94247422D01*
X196170500Y-94093578D01*
X197783500Y-94093578D01*
X197783500Y-94247422D01*
X197813513Y-94398309D01*
X197872387Y-94540442D01*
X197957858Y-94668359D01*
X198066641Y-94777142D01*
X198194558Y-94862613D01*
X198336691Y-94921487D01*
X198487578Y-94951500D01*
X198641422Y-94951500D01*
X198792309Y-94921487D01*
X198934442Y-94862613D01*
X199062359Y-94777142D01*
X199171142Y-94668359D01*
X199256613Y-94540442D01*
X199315487Y-94398309D01*
X199345500Y-94247422D01*
X199345500Y-94093578D01*
X199315487Y-93942691D01*
X199256613Y-93800558D01*
X199171142Y-93672641D01*
X199062359Y-93563858D01*
X198934442Y-93478387D01*
X198792309Y-93419513D01*
X198641422Y-93389500D01*
X198487578Y-93389500D01*
X198336691Y-93419513D01*
X198194558Y-93478387D01*
X198066641Y-93563858D01*
X197957858Y-93672641D01*
X197872387Y-93800558D01*
X197813513Y-93942691D01*
X197783500Y-94093578D01*
X196170500Y-94093578D01*
X196140487Y-93942691D01*
X196081613Y-93800558D01*
X195996142Y-93672641D01*
X195887359Y-93563858D01*
X195759442Y-93478387D01*
X195617309Y-93419513D01*
X195466422Y-93389500D01*
X195312578Y-93389500D01*
X195161691Y-93419513D01*
X195019558Y-93478387D01*
X194891641Y-93563858D01*
X194782858Y-93672641D01*
X194697387Y-93800558D01*
X194638513Y-93942691D01*
X194608500Y-94093578D01*
X192988208Y-94093578D01*
X192995500Y-94056922D01*
X192995500Y-93903078D01*
X192965487Y-93752191D01*
X192906613Y-93610058D01*
X192821142Y-93482141D01*
X192712359Y-93373358D01*
X192584442Y-93287887D01*
X192442309Y-93229013D01*
X192291422Y-93199000D01*
X192137578Y-93199000D01*
X191986691Y-93229013D01*
X191844558Y-93287887D01*
X191716641Y-93373358D01*
X191607858Y-93482141D01*
X191522387Y-93610058D01*
X191463513Y-93752191D01*
X191433500Y-93903078D01*
X187172600Y-93903078D01*
X187172600Y-92074940D01*
X200520315Y-92068602D01*
X200480513Y-92164691D01*
X200450500Y-92315578D01*
X200450500Y-92469422D01*
X200480513Y-92620309D01*
X200539387Y-92762442D01*
X200624858Y-92890359D01*
X200733641Y-92999142D01*
X200861558Y-93084613D01*
X201003691Y-93143487D01*
X201154578Y-93173500D01*
X201308422Y-93173500D01*
X201459309Y-93143487D01*
X201601442Y-93084613D01*
X201729359Y-92999142D01*
X201838142Y-92890359D01*
X201923613Y-92762442D01*
X201982487Y-92620309D01*
X202012500Y-92469422D01*
X202012500Y-92315578D01*
X201982487Y-92164691D01*
X201942406Y-92067927D01*
X202285660Y-92067764D01*
X202310436Y-92065312D01*
X202334257Y-92058074D01*
X202356208Y-92046327D01*
X202375445Y-92030524D01*
X202391230Y-92011271D01*
X202402956Y-91989309D01*
X202410171Y-91965481D01*
X202412600Y-91940764D01*
X202412600Y-87960200D01*
X205105000Y-87960200D01*
X205105000Y-107162157D01*
G37*
X205105000Y-107162157D02*
X201086238Y-107148154D01*
X201107059Y-107134242D01*
X201215842Y-107025459D01*
X201301313Y-106897542D01*
X201360187Y-106755409D01*
X201390200Y-106604522D01*
X201390200Y-106450678D01*
X201360187Y-106299791D01*
X201301313Y-106157658D01*
X201215842Y-106029741D01*
X201107059Y-105920958D01*
X200979142Y-105835487D01*
X200837009Y-105776613D01*
X200686122Y-105746600D01*
X200532278Y-105746600D01*
X200381391Y-105776613D01*
X200239258Y-105835487D01*
X200111341Y-105920958D01*
X200002558Y-106029741D01*
X199917087Y-106157658D01*
X199858213Y-106299791D01*
X199828200Y-106450678D01*
X199828200Y-106604522D01*
X199858213Y-106755409D01*
X199917087Y-106897542D01*
X200002558Y-107025459D01*
X200111341Y-107134242D01*
X200127161Y-107144813D01*
X190652843Y-107111801D01*
X190628058Y-107114155D01*
X190604208Y-107121299D01*
X190582211Y-107132958D01*
X190563893Y-107147720D01*
X181609257Y-115849400D01*
X176022576Y-115849400D01*
X174611307Y-115835985D01*
X174618600Y-115799322D01*
X174618600Y-115645478D01*
X174588587Y-115494591D01*
X174529713Y-115352458D01*
X174444242Y-115224541D01*
X174335459Y-115115758D01*
X174207542Y-115030287D01*
X174065409Y-114971413D01*
X173914522Y-114941400D01*
X173772191Y-114941400D01*
X173686037Y-114855245D01*
X173698691Y-114860487D01*
X173849578Y-114890500D01*
X174003422Y-114890500D01*
X174154309Y-114860487D01*
X174296442Y-114801613D01*
X174424359Y-114716142D01*
X174533142Y-114607359D01*
X174618613Y-114479442D01*
X174677487Y-114337309D01*
X174707500Y-114186422D01*
X174707500Y-114032578D01*
X174677487Y-113881691D01*
X174618613Y-113739558D01*
X174533142Y-113611641D01*
X174424359Y-113502858D01*
X174296442Y-113417387D01*
X174154309Y-113358513D01*
X174003422Y-113328500D01*
X173849578Y-113328500D01*
X173698691Y-113358513D01*
X173556558Y-113417387D01*
X173530800Y-113434598D01*
X173530800Y-107089739D01*
X175829000Y-107089739D01*
X175829000Y-107460263D01*
X175901286Y-107823668D01*
X176043080Y-108165988D01*
X176248932Y-108474068D01*
X176510933Y-108736069D01*
X176819013Y-108941921D01*
X177161333Y-109083715D01*
X177524738Y-109156001D01*
X177895262Y-109156001D01*
X178258667Y-109083715D01*
X178600987Y-108941921D01*
X178909067Y-108736069D01*
X179171068Y-108474068D01*
X179376920Y-108165988D01*
X179518714Y-107823668D01*
X179591000Y-107460263D01*
X179591000Y-107089739D01*
X179518714Y-106726334D01*
X179482376Y-106638606D01*
X182626000Y-106638606D01*
X182751914Y-106928578D01*
X183084126Y-107094434D01*
X183442312Y-107192291D01*
X183812706Y-107218390D01*
X184181075Y-107171726D01*
X184533262Y-107054095D01*
X184768086Y-106928578D01*
X184894000Y-106638606D01*
X183760000Y-105504606D01*
X182626000Y-106638606D01*
X179482376Y-106638606D01*
X179376920Y-106384014D01*
X179171068Y-106075934D01*
X178909067Y-105813933D01*
X178600987Y-105608081D01*
X178258667Y-105466287D01*
X177895262Y-105394001D01*
X177524738Y-105394001D01*
X177161333Y-105466287D01*
X176819013Y-105608081D01*
X176510933Y-105813933D01*
X176248932Y-106075934D01*
X176043080Y-106384014D01*
X175901286Y-106726334D01*
X175829000Y-107089739D01*
X173530800Y-107089739D01*
X173530800Y-106614646D01*
X173533247Y-106589800D01*
X173530800Y-106564954D01*
X173530800Y-106564947D01*
X173523478Y-106490608D01*
X173494545Y-106395226D01*
X173447559Y-106307322D01*
X173384327Y-106230274D01*
X173365020Y-106214429D01*
X173217906Y-106067315D01*
X173328322Y-105800746D01*
X173391000Y-105485641D01*
X173391000Y-105377707D01*
X181866611Y-105377707D01*
X181913275Y-105746076D01*
X182030906Y-106098263D01*
X182156423Y-106333087D01*
X182446395Y-106459001D01*
X183580395Y-105325001D01*
X183939605Y-105325001D01*
X185073605Y-106459001D01*
X185363577Y-106333087D01*
X185529433Y-106000875D01*
X185573089Y-105841078D01*
X188957000Y-105841078D01*
X188957000Y-105994922D01*
X188987013Y-106145809D01*
X189045887Y-106287942D01*
X189131358Y-106415859D01*
X189240141Y-106524642D01*
X189368058Y-106610113D01*
X189510191Y-106668987D01*
X189661078Y-106699000D01*
X189814922Y-106699000D01*
X189965809Y-106668987D01*
X190107942Y-106610113D01*
X190235859Y-106524642D01*
X190344642Y-106415859D01*
X190430113Y-106287942D01*
X190488987Y-106145809D01*
X190519000Y-105994922D01*
X190519000Y-105841078D01*
X190488987Y-105690191D01*
X190430113Y-105548058D01*
X190344642Y-105420141D01*
X190235859Y-105311358D01*
X190107942Y-105225887D01*
X189965809Y-105167013D01*
X189814922Y-105137000D01*
X189661078Y-105137000D01*
X189510191Y-105167013D01*
X189368058Y-105225887D01*
X189240141Y-105311358D01*
X189131358Y-105420141D01*
X189045887Y-105548058D01*
X188987013Y-105690191D01*
X188957000Y-105841078D01*
X185573089Y-105841078D01*
X185627290Y-105642689D01*
X185653389Y-105272295D01*
X185606725Y-104903926D01*
X185489094Y-104551739D01*
X185363577Y-104316915D01*
X185073605Y-104191001D01*
X183939605Y-105325001D01*
X183580395Y-105325001D01*
X182446395Y-104191001D01*
X182156423Y-104316915D01*
X181990567Y-104649127D01*
X181892710Y-105007313D01*
X181866611Y-105377707D01*
X173391000Y-105377707D01*
X173391000Y-105164361D01*
X173328322Y-104849256D01*
X173205374Y-104552433D01*
X173026881Y-104285299D01*
X172799702Y-104058120D01*
X172532568Y-103879627D01*
X172235745Y-103756679D01*
X171920640Y-103694001D01*
X171599360Y-103694001D01*
X171284255Y-103756679D01*
X170987432Y-103879627D01*
X170720298Y-104058120D01*
X170493119Y-104285299D01*
X170314626Y-104552433D01*
X170191678Y-104849256D01*
X170129000Y-105164361D01*
X170129000Y-105485641D01*
X170191678Y-105800746D01*
X170314626Y-106097569D01*
X170493119Y-106364703D01*
X170720298Y-106591882D01*
X170987432Y-106770375D01*
X171284255Y-106893323D01*
X171599360Y-106956001D01*
X171920640Y-106956001D01*
X172235745Y-106893323D01*
X172502314Y-106782907D01*
X172518801Y-106799394D01*
X172518800Y-114884754D01*
X172516353Y-114909600D01*
X172518800Y-114934446D01*
X172518800Y-114934453D01*
X172526122Y-115008792D01*
X172555055Y-115104174D01*
X172602041Y-115192079D01*
X172665273Y-115269127D01*
X172684585Y-115284976D01*
X173056600Y-115656991D01*
X173056600Y-115799322D01*
X173060961Y-115821248D01*
X170199000Y-115794043D01*
X170199000Y-115645478D01*
X170168987Y-115494591D01*
X170110113Y-115352458D01*
X170024642Y-115224541D01*
X169915859Y-115115758D01*
X169787942Y-115030287D01*
X169645809Y-114971413D01*
X169494922Y-114941400D01*
X169352592Y-114941400D01*
X169276145Y-114864953D01*
X169404578Y-114890500D01*
X169558422Y-114890500D01*
X169709309Y-114860487D01*
X169851442Y-114801613D01*
X169979359Y-114716142D01*
X170088142Y-114607359D01*
X170173613Y-114479442D01*
X170232487Y-114337309D01*
X170262500Y-114186422D01*
X170262500Y-114032578D01*
X170232487Y-113881691D01*
X170173613Y-113739558D01*
X170088142Y-113611641D01*
X169979359Y-113502858D01*
X169851442Y-113417387D01*
X169709309Y-113358513D01*
X169558422Y-113328500D01*
X169404578Y-113328500D01*
X169253691Y-113358513D01*
X169111558Y-113417387D01*
X168983641Y-113502858D01*
X168874858Y-113611641D01*
X168789387Y-113739558D01*
X168730513Y-113881691D01*
X168700500Y-114032578D01*
X168700500Y-114186422D01*
X168726047Y-114314856D01*
X168654000Y-114242809D01*
X168654000Y-111111845D01*
X168656447Y-111086999D01*
X168654000Y-111062153D01*
X168654000Y-111062146D01*
X168646678Y-110987807D01*
X168638028Y-110959289D01*
X168617745Y-110892425D01*
X168597480Y-110854513D01*
X168570759Y-110804521D01*
X168507527Y-110727473D01*
X168488220Y-110711628D01*
X164415198Y-106638606D01*
X166550999Y-106638606D01*
X166676913Y-106928578D01*
X167009125Y-107094434D01*
X167367311Y-107192291D01*
X167737705Y-107218390D01*
X168106074Y-107171726D01*
X168458261Y-107054095D01*
X168693085Y-106928578D01*
X168818999Y-106638606D01*
X167684999Y-105504606D01*
X166550999Y-106638606D01*
X164415198Y-106638606D01*
X163154299Y-105377707D01*
X165791610Y-105377707D01*
X165838274Y-105746076D01*
X165955905Y-106098263D01*
X166081422Y-106333087D01*
X166371394Y-106459001D01*
X167505394Y-105325001D01*
X167864604Y-105325001D01*
X168998604Y-106459001D01*
X169288576Y-106333087D01*
X169454432Y-106000875D01*
X169552289Y-105642689D01*
X169578388Y-105272295D01*
X169531724Y-104903926D01*
X169414093Y-104551739D01*
X169288576Y-104316915D01*
X168998604Y-104191001D01*
X167864604Y-105325001D01*
X167505394Y-105325001D01*
X166371394Y-104191001D01*
X166081422Y-104316915D01*
X165915566Y-104649127D01*
X165817709Y-105007313D01*
X165791610Y-105377707D01*
X163154299Y-105377707D01*
X162761377Y-104984786D01*
X162745528Y-104965474D01*
X162668480Y-104902242D01*
X162580576Y-104855256D01*
X162485194Y-104826323D01*
X162410855Y-104819001D01*
X162410847Y-104819001D01*
X162386001Y-104816554D01*
X162361155Y-104819001D01*
X157240789Y-104819001D01*
X157130373Y-104552433D01*
X156951880Y-104285299D01*
X156724701Y-104058120D01*
X156457567Y-103879627D01*
X156160744Y-103756679D01*
X155845639Y-103694001D01*
X155524359Y-103694001D01*
X155209254Y-103756679D01*
X154912431Y-103879627D01*
X154645297Y-104058120D01*
X154418118Y-104285299D01*
X154239625Y-104552433D01*
X154116677Y-104849256D01*
X154053999Y-105164361D01*
X154053999Y-105485641D01*
X154116677Y-105800746D01*
X154239625Y-106097569D01*
X154418118Y-106364703D01*
X154645297Y-106591882D01*
X154912431Y-106770375D01*
X155209254Y-106893323D01*
X155524359Y-106956001D01*
X155845639Y-106956001D01*
X156160744Y-106893323D01*
X156457567Y-106770375D01*
X156724701Y-106591882D01*
X156951880Y-106364703D01*
X157130373Y-106097569D01*
X157240789Y-105831001D01*
X160418864Y-105831001D01*
X160173931Y-106075934D01*
X159968079Y-106384014D01*
X159826285Y-106726334D01*
X159753999Y-107089739D01*
X159753999Y-107460263D01*
X159826285Y-107823668D01*
X159968079Y-108165988D01*
X160173931Y-108474068D01*
X160435932Y-108736069D01*
X160744012Y-108941921D01*
X161086332Y-109083715D01*
X161270759Y-109120400D01*
X160635992Y-109120400D01*
X158972976Y-107457385D01*
X158957127Y-107438073D01*
X158880079Y-107374841D01*
X158792175Y-107327855D01*
X158696793Y-107298922D01*
X158622454Y-107291600D01*
X158622446Y-107291600D01*
X158597600Y-107289153D01*
X158572754Y-107291600D01*
X151956190Y-107291600D01*
X151862650Y-107198061D01*
X152031075Y-107176725D01*
X152383262Y-107059094D01*
X152618086Y-106933577D01*
X152744000Y-106643605D01*
X151610000Y-105509605D01*
X151595858Y-105523748D01*
X151416253Y-105344143D01*
X151430395Y-105330000D01*
X151789605Y-105330000D01*
X152923605Y-106464000D01*
X153213577Y-106338086D01*
X153379433Y-106005874D01*
X153477290Y-105647688D01*
X153503389Y-105277294D01*
X153456725Y-104908925D01*
X153339094Y-104556738D01*
X153213577Y-104321914D01*
X152923605Y-104196000D01*
X151789605Y-105330000D01*
X151430395Y-105330000D01*
X150296395Y-104196000D01*
X150006423Y-104321914D01*
X149840567Y-104654126D01*
X149742710Y-105012312D01*
X149738378Y-105073789D01*
X149654374Y-104989785D01*
X149638525Y-104970473D01*
X149561477Y-104907241D01*
X149473573Y-104860255D01*
X149473086Y-104860107D01*
X149478476Y-103555800D01*
X150971785Y-103555800D01*
X150836738Y-103600906D01*
X150601914Y-103726423D01*
X150476000Y-104016395D01*
X151610000Y-105150395D01*
X152744000Y-104016395D01*
X152618086Y-103726423D01*
X152285874Y-103560567D01*
X152268425Y-103555800D01*
X167031817Y-103555800D01*
X166911737Y-103595907D01*
X166676913Y-103721424D01*
X166550999Y-104011396D01*
X167684999Y-105145396D01*
X168818999Y-104011396D01*
X168693085Y-103721424D01*
X168361338Y-103555800D01*
X183106818Y-103555800D01*
X182986738Y-103595907D01*
X182751914Y-103721424D01*
X182626000Y-104011396D01*
X183760000Y-105145396D01*
X184894000Y-104011396D01*
X184768086Y-103721424D01*
X184436339Y-103555800D01*
X187045600Y-103555800D01*
X187070376Y-103553360D01*
X187094201Y-103546133D01*
X187116157Y-103534397D01*
X187135403Y-103518603D01*
X187151197Y-103499357D01*
X187162933Y-103477401D01*
X187170160Y-103453576D01*
X187172600Y-103428800D01*
X187172600Y-101979924D01*
X187289459Y-101901842D01*
X187398242Y-101793059D01*
X187483713Y-101665142D01*
X187542587Y-101523009D01*
X187572600Y-101372122D01*
X187572600Y-101218278D01*
X187542587Y-101067391D01*
X187483713Y-100925258D01*
X187398242Y-100797341D01*
X187289459Y-100688558D01*
X187172600Y-100610476D01*
X187172600Y-100570578D01*
X196894500Y-100570578D01*
X196894500Y-100724422D01*
X196924513Y-100875309D01*
X196983387Y-101017442D01*
X197068858Y-101145359D01*
X197177641Y-101254142D01*
X197305558Y-101339613D01*
X197447691Y-101398487D01*
X197598578Y-101428500D01*
X197752422Y-101428500D01*
X197903309Y-101398487D01*
X198045442Y-101339613D01*
X198173359Y-101254142D01*
X198282142Y-101145359D01*
X198367613Y-101017442D01*
X198426487Y-100875309D01*
X198456500Y-100724422D01*
X198456500Y-100570578D01*
X198426487Y-100419691D01*
X198367613Y-100277558D01*
X198282142Y-100149641D01*
X198173359Y-100040858D01*
X198045442Y-99955387D01*
X197903309Y-99896513D01*
X197752422Y-99866500D01*
X197598578Y-99866500D01*
X197447691Y-99896513D01*
X197305558Y-99955387D01*
X197177641Y-100040858D01*
X197068858Y-100149641D01*
X196983387Y-100277558D01*
X196924513Y-100419691D01*
X196894500Y-100570578D01*
X187172600Y-100570578D01*
X187172600Y-97228575D01*
X187212342Y-97212113D01*
X187340259Y-97126642D01*
X187449042Y-97017859D01*
X187534513Y-96889942D01*
X187593387Y-96747809D01*
X187616108Y-96633578D01*
X201784000Y-96633578D01*
X201784000Y-96787422D01*
X201814013Y-96938309D01*
X201872887Y-97080442D01*
X201958358Y-97208359D01*
X202067141Y-97317142D01*
X202195058Y-97402613D01*
X202337191Y-97461487D01*
X202488078Y-97491500D01*
X202641922Y-97491500D01*
X202792809Y-97461487D01*
X202934942Y-97402613D01*
X203062859Y-97317142D01*
X203171642Y-97208359D01*
X203257113Y-97080442D01*
X203315987Y-96938309D01*
X203346000Y-96787422D01*
X203346000Y-96633578D01*
X203315987Y-96482691D01*
X203257113Y-96340558D01*
X203171642Y-96212641D01*
X203062859Y-96103858D01*
X202934942Y-96018387D01*
X202792809Y-95959513D01*
X202641922Y-95929500D01*
X202488078Y-95929500D01*
X202337191Y-95959513D01*
X202195058Y-96018387D01*
X202067141Y-96103858D01*
X201958358Y-96212641D01*
X201872887Y-96340558D01*
X201814013Y-96482691D01*
X201784000Y-96633578D01*
X187616108Y-96633578D01*
X187623400Y-96596922D01*
X187623400Y-96443078D01*
X187593387Y-96292191D01*
X187534513Y-96150058D01*
X187449042Y-96022141D01*
X187340259Y-95913358D01*
X187212342Y-95827887D01*
X187172600Y-95811425D01*
X187172600Y-93903078D01*
X191433500Y-93903078D01*
X191433500Y-94056922D01*
X191463513Y-94207809D01*
X191522387Y-94349942D01*
X191607858Y-94477859D01*
X191716641Y-94586642D01*
X191844558Y-94672113D01*
X191986691Y-94730987D01*
X192137578Y-94761000D01*
X192291422Y-94761000D01*
X192442309Y-94730987D01*
X192584442Y-94672113D01*
X192712359Y-94586642D01*
X192821142Y-94477859D01*
X192906613Y-94349942D01*
X192965487Y-94207809D01*
X192988208Y-94093578D01*
X194608500Y-94093578D01*
X194608500Y-94247422D01*
X194638513Y-94398309D01*
X194697387Y-94540442D01*
X194782858Y-94668359D01*
X194891641Y-94777142D01*
X195019558Y-94862613D01*
X195161691Y-94921487D01*
X195312578Y-94951500D01*
X195466422Y-94951500D01*
X195617309Y-94921487D01*
X195759442Y-94862613D01*
X195887359Y-94777142D01*
X195996142Y-94668359D01*
X196081613Y-94540442D01*
X196140487Y-94398309D01*
X196170500Y-94247422D01*
X196170500Y-94093578D01*
X197783500Y-94093578D01*
X197783500Y-94247422D01*
X197813513Y-94398309D01*
X197872387Y-94540442D01*
X197957858Y-94668359D01*
X198066641Y-94777142D01*
X198194558Y-94862613D01*
X198336691Y-94921487D01*
X198487578Y-94951500D01*
X198641422Y-94951500D01*
X198792309Y-94921487D01*
X198934442Y-94862613D01*
X199062359Y-94777142D01*
X199171142Y-94668359D01*
X199256613Y-94540442D01*
X199315487Y-94398309D01*
X199345500Y-94247422D01*
X199345500Y-94093578D01*
X199315487Y-93942691D01*
X199256613Y-93800558D01*
X199171142Y-93672641D01*
X199062359Y-93563858D01*
X198934442Y-93478387D01*
X198792309Y-93419513D01*
X198641422Y-93389500D01*
X198487578Y-93389500D01*
X198336691Y-93419513D01*
X198194558Y-93478387D01*
X198066641Y-93563858D01*
X197957858Y-93672641D01*
X197872387Y-93800558D01*
X197813513Y-93942691D01*
X197783500Y-94093578D01*
X196170500Y-94093578D01*
X196140487Y-93942691D01*
X196081613Y-93800558D01*
X195996142Y-93672641D01*
X195887359Y-93563858D01*
X195759442Y-93478387D01*
X195617309Y-93419513D01*
X195466422Y-93389500D01*
X195312578Y-93389500D01*
X195161691Y-93419513D01*
X195019558Y-93478387D01*
X194891641Y-93563858D01*
X194782858Y-93672641D01*
X194697387Y-93800558D01*
X194638513Y-93942691D01*
X194608500Y-94093578D01*
X192988208Y-94093578D01*
X192995500Y-94056922D01*
X192995500Y-93903078D01*
X192965487Y-93752191D01*
X192906613Y-93610058D01*
X192821142Y-93482141D01*
X192712359Y-93373358D01*
X192584442Y-93287887D01*
X192442309Y-93229013D01*
X192291422Y-93199000D01*
X192137578Y-93199000D01*
X191986691Y-93229013D01*
X191844558Y-93287887D01*
X191716641Y-93373358D01*
X191607858Y-93482141D01*
X191522387Y-93610058D01*
X191463513Y-93752191D01*
X191433500Y-93903078D01*
X187172600Y-93903078D01*
X187172600Y-92074940D01*
X200520315Y-92068602D01*
X200480513Y-92164691D01*
X200450500Y-92315578D01*
X200450500Y-92469422D01*
X200480513Y-92620309D01*
X200539387Y-92762442D01*
X200624858Y-92890359D01*
X200733641Y-92999142D01*
X200861558Y-93084613D01*
X201003691Y-93143487D01*
X201154578Y-93173500D01*
X201308422Y-93173500D01*
X201459309Y-93143487D01*
X201601442Y-93084613D01*
X201729359Y-92999142D01*
X201838142Y-92890359D01*
X201923613Y-92762442D01*
X201982487Y-92620309D01*
X202012500Y-92469422D01*
X202012500Y-92315578D01*
X201982487Y-92164691D01*
X201942406Y-92067927D01*
X202285660Y-92067764D01*
X202310436Y-92065312D01*
X202334257Y-92058074D01*
X202356208Y-92046327D01*
X202375445Y-92030524D01*
X202391230Y-92011271D01*
X202402956Y-91989309D01*
X202410171Y-91965481D01*
X202412600Y-91940764D01*
X202412600Y-87960200D01*
X205105000Y-87960200D01*
X205105000Y-107162157D01*
G36*
X207783058Y-80651387D02*
G01*
X207655141Y-80736858D01*
X207546358Y-80845641D01*
X207460887Y-80973558D01*
X207402013Y-81115691D01*
X207372000Y-81266578D01*
X207372000Y-81420422D01*
X207402013Y-81571309D01*
X207460887Y-81713442D01*
X207546358Y-81841359D01*
X207655141Y-81950142D01*
X207783058Y-82035613D01*
X207925191Y-82094487D01*
X208076078Y-82124500D01*
X208229922Y-82124500D01*
X208380809Y-82094487D01*
X208522942Y-82035613D01*
X208650859Y-81950142D01*
X208759642Y-81841359D01*
X208845113Y-81713442D01*
X208903987Y-81571309D01*
X208934000Y-81420422D01*
X208934000Y-81266578D01*
X208903987Y-81115691D01*
X208845113Y-80973558D01*
X208759642Y-80845641D01*
X208650859Y-80736858D01*
X208522942Y-80651387D01*
X208507523Y-80645000D01*
X226390535Y-80645000D01*
X226435416Y-97632415D01*
X226367359Y-97564358D01*
X226239442Y-97478887D01*
X226097309Y-97420013D01*
X225946422Y-97390000D01*
X225792578Y-97390000D01*
X225641691Y-97420013D01*
X225499558Y-97478887D01*
X225371641Y-97564358D01*
X225262858Y-97673141D01*
X225177387Y-97801058D01*
X225118513Y-97943191D01*
X225088500Y-98094078D01*
X225088500Y-98247922D01*
X225118513Y-98398809D01*
X225177387Y-98540942D01*
X225262858Y-98668859D01*
X225371641Y-98777642D01*
X225499558Y-98863113D01*
X225641691Y-98921987D01*
X225792578Y-98952000D01*
X225946422Y-98952000D01*
X226097309Y-98921987D01*
X226239442Y-98863113D01*
X226367359Y-98777642D01*
X226438254Y-98706747D01*
X226447351Y-102149810D01*
X226434613Y-102119058D01*
X226349142Y-101991141D01*
X226240359Y-101882358D01*
X226112442Y-101796887D01*
X225970309Y-101738013D01*
X225819422Y-101708000D01*
X225665578Y-101708000D01*
X225514691Y-101738013D01*
X225372558Y-101796887D01*
X225244641Y-101882358D01*
X225135858Y-101991141D01*
X225050387Y-102119058D01*
X224991513Y-102261191D01*
X224961500Y-102412078D01*
X224961500Y-102565922D01*
X224991513Y-102716809D01*
X225050387Y-102858942D01*
X225135858Y-102986859D01*
X225244641Y-103095642D01*
X225372558Y-103181113D01*
X225514691Y-103239987D01*
X225665578Y-103270000D01*
X225819422Y-103270000D01*
X225970309Y-103239987D01*
X226112442Y-103181113D01*
X226240359Y-103095642D01*
X226349142Y-102986859D01*
X226434613Y-102858942D01*
X226449132Y-102823891D01*
X226491464Y-118846600D01*
X205663800Y-118846600D01*
X205663800Y-117728278D01*
X206432200Y-117728278D01*
X206432200Y-117882122D01*
X206462213Y-118033009D01*
X206521087Y-118175142D01*
X206606558Y-118303059D01*
X206715341Y-118411842D01*
X206843258Y-118497313D01*
X206985391Y-118556187D01*
X207136278Y-118586200D01*
X207290122Y-118586200D01*
X207441009Y-118556187D01*
X207583142Y-118497313D01*
X207711059Y-118411842D01*
X207819842Y-118303059D01*
X207905313Y-118175142D01*
X207964187Y-118033009D01*
X207994200Y-117882122D01*
X207994200Y-117728278D01*
X207964187Y-117577391D01*
X207905313Y-117435258D01*
X207819842Y-117307341D01*
X207711059Y-117198558D01*
X207583142Y-117113087D01*
X207441009Y-117054213D01*
X207290122Y-117024200D01*
X207136278Y-117024200D01*
X206985391Y-117054213D01*
X206843258Y-117113087D01*
X206715341Y-117198558D01*
X206606558Y-117307341D01*
X206521087Y-117435258D01*
X206462213Y-117577391D01*
X206432200Y-117728278D01*
X205663800Y-117728278D01*
X205663800Y-115843000D01*
X205816922Y-115843000D01*
X205967809Y-115812987D01*
X206109942Y-115754113D01*
X206237859Y-115668642D01*
X206346642Y-115559859D01*
X206432113Y-115431942D01*
X206490987Y-115289809D01*
X206521000Y-115138922D01*
X206521000Y-114985078D01*
X206495739Y-114858078D01*
X210928000Y-114858078D01*
X210928000Y-115011922D01*
X210958013Y-115162809D01*
X211016887Y-115304942D01*
X211102358Y-115432859D01*
X211211141Y-115541642D01*
X211339058Y-115627113D01*
X211481191Y-115685987D01*
X211632078Y-115716000D01*
X211785922Y-115716000D01*
X211936809Y-115685987D01*
X212078942Y-115627113D01*
X212206859Y-115541642D01*
X212315642Y-115432859D01*
X212401113Y-115304942D01*
X212459987Y-115162809D01*
X212490000Y-115011922D01*
X212490000Y-114858078D01*
X212474844Y-114781878D01*
X216389000Y-114781878D01*
X216389000Y-114935722D01*
X216419013Y-115086609D01*
X216477887Y-115228742D01*
X216563358Y-115356659D01*
X216672141Y-115465442D01*
X216800058Y-115550913D01*
X216942191Y-115609787D01*
X217093078Y-115639800D01*
X217246922Y-115639800D01*
X217397809Y-115609787D01*
X217539942Y-115550913D01*
X217626498Y-115493078D01*
X219881500Y-115493078D01*
X219881500Y-115646922D01*
X219911513Y-115797809D01*
X219970387Y-115939942D01*
X220055858Y-116067859D01*
X220164641Y-116176642D01*
X220292558Y-116262113D01*
X220434691Y-116320987D01*
X220585578Y-116351000D01*
X220739422Y-116351000D01*
X220890309Y-116320987D01*
X221032442Y-116262113D01*
X221160359Y-116176642D01*
X221269142Y-116067859D01*
X221329250Y-115977901D01*
X221389358Y-116067859D01*
X221498141Y-116176642D01*
X221626058Y-116262113D01*
X221768191Y-116320987D01*
X221919078Y-116351000D01*
X222072922Y-116351000D01*
X222223809Y-116320987D01*
X222365942Y-116262113D01*
X222493859Y-116176642D01*
X222602642Y-116067859D01*
X222688113Y-115939942D01*
X222746987Y-115797809D01*
X222777000Y-115646922D01*
X222777000Y-115556578D01*
X224898000Y-115556578D01*
X224898000Y-115710422D01*
X224928013Y-115861309D01*
X224986887Y-116003442D01*
X225072358Y-116131359D01*
X225181141Y-116240142D01*
X225309058Y-116325613D01*
X225451191Y-116384487D01*
X225602078Y-116414500D01*
X225755922Y-116414500D01*
X225906809Y-116384487D01*
X226048942Y-116325613D01*
X226176859Y-116240142D01*
X226285642Y-116131359D01*
X226371113Y-116003442D01*
X226429987Y-115861309D01*
X226460000Y-115710422D01*
X226460000Y-115556578D01*
X226429987Y-115405691D01*
X226371113Y-115263558D01*
X226285642Y-115135641D01*
X226176859Y-115026858D01*
X226048942Y-114941387D01*
X225906809Y-114882513D01*
X225755922Y-114852500D01*
X225602078Y-114852500D01*
X225451191Y-114882513D01*
X225309058Y-114941387D01*
X225181141Y-115026858D01*
X225072358Y-115135641D01*
X224986887Y-115263558D01*
X224928013Y-115405691D01*
X224898000Y-115556578D01*
X222777000Y-115556578D01*
X222777000Y-115493078D01*
X222746987Y-115342191D01*
X222688113Y-115200058D01*
X222602642Y-115072141D01*
X222493859Y-114963358D01*
X222365942Y-114877887D01*
X222223809Y-114819013D01*
X222072922Y-114789000D01*
X221919078Y-114789000D01*
X221768191Y-114819013D01*
X221626058Y-114877887D01*
X221498141Y-114963358D01*
X221389358Y-115072141D01*
X221329250Y-115162099D01*
X221269142Y-115072141D01*
X221160359Y-114963358D01*
X221032442Y-114877887D01*
X220890309Y-114819013D01*
X220739422Y-114789000D01*
X220585578Y-114789000D01*
X220434691Y-114819013D01*
X220292558Y-114877887D01*
X220164641Y-114963358D01*
X220055858Y-115072141D01*
X219970387Y-115200058D01*
X219911513Y-115342191D01*
X219881500Y-115493078D01*
X217626498Y-115493078D01*
X217667859Y-115465442D01*
X217776642Y-115356659D01*
X217862113Y-115228742D01*
X217920987Y-115086609D01*
X217951000Y-114935722D01*
X217951000Y-114781878D01*
X217920987Y-114630991D01*
X217862113Y-114488858D01*
X217776642Y-114360941D01*
X217667859Y-114252158D01*
X217539942Y-114166687D01*
X217397809Y-114107813D01*
X217246922Y-114077800D01*
X217093078Y-114077800D01*
X216942191Y-114107813D01*
X216800058Y-114166687D01*
X216672141Y-114252158D01*
X216563358Y-114360941D01*
X216477887Y-114488858D01*
X216419013Y-114630991D01*
X216389000Y-114781878D01*
X212474844Y-114781878D01*
X212459987Y-114707191D01*
X212401113Y-114565058D01*
X212315642Y-114437141D01*
X212206859Y-114328358D01*
X212078942Y-114242887D01*
X211936809Y-114184013D01*
X211785922Y-114154000D01*
X211632078Y-114154000D01*
X211481191Y-114184013D01*
X211339058Y-114242887D01*
X211211141Y-114328358D01*
X211102358Y-114437141D01*
X211016887Y-114565058D01*
X210958013Y-114707191D01*
X210928000Y-114858078D01*
X206495739Y-114858078D01*
X206490987Y-114834191D01*
X206432113Y-114692058D01*
X206346642Y-114564141D01*
X206273001Y-114490500D01*
X206346642Y-114416859D01*
X206432113Y-114288942D01*
X206490987Y-114146809D01*
X206521000Y-113995922D01*
X206521000Y-113842078D01*
X212198000Y-113842078D01*
X212198000Y-113995922D01*
X212228013Y-114146809D01*
X212286887Y-114288942D01*
X212372358Y-114416859D01*
X212481141Y-114525642D01*
X212609058Y-114611113D01*
X212751191Y-114669987D01*
X212902078Y-114700000D01*
X213055922Y-114700000D01*
X213206809Y-114669987D01*
X213348942Y-114611113D01*
X213476859Y-114525642D01*
X213585642Y-114416859D01*
X213671113Y-114288942D01*
X213729987Y-114146809D01*
X213760000Y-113995922D01*
X213760000Y-113842078D01*
X213729987Y-113691191D01*
X213671113Y-113549058D01*
X213585642Y-113421141D01*
X213476859Y-113312358D01*
X213348942Y-113226887D01*
X213206809Y-113168013D01*
X213055922Y-113138000D01*
X212902078Y-113138000D01*
X212751191Y-113168013D01*
X212609058Y-113226887D01*
X212481141Y-113312358D01*
X212372358Y-113421141D01*
X212286887Y-113549058D01*
X212228013Y-113691191D01*
X212198000Y-113842078D01*
X206521000Y-113842078D01*
X206490987Y-113691191D01*
X206432113Y-113549058D01*
X206346642Y-113421141D01*
X206344500Y-113418999D01*
X206359293Y-113404205D01*
X206444764Y-113276288D01*
X206503638Y-113134155D01*
X206533651Y-112983268D01*
X206533651Y-112889578D01*
X213531500Y-112889578D01*
X213531500Y-113043422D01*
X213561513Y-113194309D01*
X213620387Y-113336442D01*
X213705858Y-113464359D01*
X213814641Y-113573142D01*
X213942558Y-113658613D01*
X214084691Y-113717487D01*
X214235578Y-113747500D01*
X214389422Y-113747500D01*
X214540309Y-113717487D01*
X214682442Y-113658613D01*
X214810359Y-113573142D01*
X214919142Y-113464359D01*
X215004613Y-113336442D01*
X215063487Y-113194309D01*
X215093500Y-113043422D01*
X215093500Y-112889578D01*
X215063487Y-112738691D01*
X215004613Y-112596558D01*
X214919142Y-112468641D01*
X214810359Y-112359858D01*
X214682442Y-112274387D01*
X214540309Y-112215513D01*
X214389422Y-112185500D01*
X214235578Y-112185500D01*
X214084691Y-112215513D01*
X213942558Y-112274387D01*
X213814641Y-112359858D01*
X213705858Y-112468641D01*
X213620387Y-112596558D01*
X213561513Y-112738691D01*
X213531500Y-112889578D01*
X206533651Y-112889578D01*
X206533651Y-112829424D01*
X206503638Y-112678537D01*
X206444764Y-112536404D01*
X206359293Y-112408487D01*
X206250510Y-112299704D01*
X206122593Y-112214233D01*
X205980460Y-112155359D01*
X205829573Y-112125346D01*
X205675729Y-112125346D01*
X205663800Y-112127719D01*
X205663800Y-109587578D01*
X221532500Y-109587578D01*
X221532500Y-109741422D01*
X221562513Y-109892309D01*
X221621387Y-110034442D01*
X221706858Y-110162359D01*
X221815641Y-110271142D01*
X221943558Y-110356613D01*
X222085691Y-110415487D01*
X222236578Y-110445500D01*
X222390422Y-110445500D01*
X222541309Y-110415487D01*
X222683442Y-110356613D01*
X222811359Y-110271142D01*
X222920142Y-110162359D01*
X223005613Y-110034442D01*
X223064487Y-109892309D01*
X223074577Y-109841578D01*
X223818500Y-109841578D01*
X223818500Y-109995422D01*
X223848513Y-110146309D01*
X223907387Y-110288442D01*
X223992858Y-110416359D01*
X224101641Y-110525142D01*
X224229558Y-110610613D01*
X224371691Y-110669487D01*
X224522578Y-110699500D01*
X224676422Y-110699500D01*
X224827309Y-110669487D01*
X224969442Y-110610613D01*
X225097359Y-110525142D01*
X225206142Y-110416359D01*
X225291613Y-110288442D01*
X225350487Y-110146309D01*
X225380500Y-109995422D01*
X225380500Y-109841578D01*
X225350487Y-109690691D01*
X225291613Y-109548558D01*
X225206142Y-109420641D01*
X225097359Y-109311858D01*
X224969442Y-109226387D01*
X224827309Y-109167513D01*
X224676422Y-109137500D01*
X224522578Y-109137500D01*
X224371691Y-109167513D01*
X224229558Y-109226387D01*
X224101641Y-109311858D01*
X223992858Y-109420641D01*
X223907387Y-109548558D01*
X223848513Y-109690691D01*
X223818500Y-109841578D01*
X223074577Y-109841578D01*
X223094500Y-109741422D01*
X223094500Y-109587578D01*
X223064487Y-109436691D01*
X223005613Y-109294558D01*
X222920142Y-109166641D01*
X222811359Y-109057858D01*
X222683442Y-108972387D01*
X222541309Y-108913513D01*
X222390422Y-108883500D01*
X222236578Y-108883500D01*
X222085691Y-108913513D01*
X221943558Y-108972387D01*
X221815641Y-109057858D01*
X221706858Y-109166641D01*
X221621387Y-109294558D01*
X221562513Y-109436691D01*
X221532500Y-109587578D01*
X205663800Y-109587578D01*
X205663800Y-106755478D01*
X211004200Y-106755478D01*
X211004200Y-106909322D01*
X211034213Y-107060209D01*
X211093087Y-107202342D01*
X211178558Y-107330259D01*
X211287341Y-107439042D01*
X211415258Y-107524513D01*
X211557391Y-107583387D01*
X211708278Y-107613400D01*
X211862122Y-107613400D01*
X212013009Y-107583387D01*
X212155142Y-107524513D01*
X212283059Y-107439042D01*
X212391842Y-107330259D01*
X212477313Y-107202342D01*
X212536187Y-107060209D01*
X212566200Y-106909322D01*
X212566200Y-106755478D01*
X212536187Y-106604591D01*
X212477313Y-106462458D01*
X212391842Y-106334541D01*
X212283059Y-106225758D01*
X212155142Y-106140287D01*
X212013009Y-106081413D01*
X211862122Y-106051400D01*
X211708278Y-106051400D01*
X211557391Y-106081413D01*
X211415258Y-106140287D01*
X211287341Y-106225758D01*
X211178558Y-106334541D01*
X211093087Y-106462458D01*
X211034213Y-106604591D01*
X211004200Y-106755478D01*
X205663800Y-106755478D01*
X205663800Y-102081878D01*
X207245000Y-102081878D01*
X207245000Y-102235722D01*
X207275013Y-102386609D01*
X207333887Y-102528742D01*
X207419358Y-102656659D01*
X207528141Y-102765442D01*
X207656058Y-102850913D01*
X207798191Y-102909787D01*
X207949078Y-102939800D01*
X208102922Y-102939800D01*
X208253809Y-102909787D01*
X208395942Y-102850913D01*
X208523859Y-102765442D01*
X208632642Y-102656659D01*
X208718113Y-102528742D01*
X208766437Y-102412078D01*
X213087000Y-102412078D01*
X213087000Y-102565922D01*
X213117013Y-102716809D01*
X213175887Y-102858942D01*
X213261358Y-102986859D01*
X213370141Y-103095642D01*
X213498058Y-103181113D01*
X213640191Y-103239987D01*
X213791078Y-103270000D01*
X213812000Y-103270000D01*
X213812000Y-103273030D01*
X213842013Y-103423917D01*
X213900887Y-103566050D01*
X213986358Y-103693967D01*
X214095141Y-103802750D01*
X214223058Y-103888221D01*
X214365191Y-103947095D01*
X214516078Y-103977108D01*
X214669922Y-103977108D01*
X214820809Y-103947095D01*
X214962942Y-103888221D01*
X215090859Y-103802750D01*
X215199642Y-103693967D01*
X215285113Y-103566050D01*
X215343987Y-103423917D01*
X215374000Y-103273030D01*
X215374000Y-103174078D01*
X218268600Y-103174078D01*
X218268600Y-103327922D01*
X218298613Y-103478809D01*
X218357487Y-103620942D01*
X218442958Y-103748859D01*
X218551741Y-103857642D01*
X218679658Y-103943113D01*
X218821791Y-104001987D01*
X218972678Y-104032000D01*
X219126522Y-104032000D01*
X219277409Y-104001987D01*
X219419542Y-103943113D01*
X219547459Y-103857642D01*
X219648101Y-103757000D01*
X222738909Y-103757000D01*
X224644000Y-105662092D01*
X224644000Y-105804422D01*
X224674013Y-105955309D01*
X224732887Y-106097442D01*
X224818358Y-106225359D01*
X224927141Y-106334142D01*
X225055058Y-106419613D01*
X225197191Y-106478487D01*
X225348078Y-106508500D01*
X225501922Y-106508500D01*
X225652809Y-106478487D01*
X225794942Y-106419613D01*
X225922859Y-106334142D01*
X226031642Y-106225359D01*
X226117113Y-106097442D01*
X226175987Y-105955309D01*
X226206000Y-105804422D01*
X226206000Y-105650578D01*
X226175987Y-105499691D01*
X226117113Y-105357558D01*
X226031642Y-105229641D01*
X225922859Y-105120858D01*
X225794942Y-105035387D01*
X225652809Y-104976513D01*
X225501922Y-104946500D01*
X225359592Y-104946500D01*
X223323876Y-102910785D01*
X223308027Y-102891473D01*
X223230979Y-102828241D01*
X223143075Y-102781255D01*
X223047693Y-102752322D01*
X222973354Y-102745000D01*
X222973346Y-102745000D01*
X222948500Y-102742553D01*
X222923654Y-102745000D01*
X220773346Y-102745000D01*
X220816587Y-102640609D01*
X220846600Y-102489722D01*
X220846600Y-102335878D01*
X220816587Y-102184991D01*
X220757713Y-102042858D01*
X220672242Y-101914941D01*
X220563459Y-101806158D01*
X220435542Y-101720687D01*
X220293409Y-101661813D01*
X220142522Y-101631800D01*
X219988678Y-101631800D01*
X219837791Y-101661813D01*
X219695658Y-101720687D01*
X219567741Y-101806158D01*
X219458958Y-101914941D01*
X219373487Y-102042858D01*
X219314613Y-102184991D01*
X219284600Y-102335878D01*
X219284600Y-102489722D01*
X219287476Y-102504183D01*
X219277409Y-102500013D01*
X219126522Y-102470000D01*
X218972678Y-102470000D01*
X218821791Y-102500013D01*
X218679658Y-102558887D01*
X218551741Y-102644358D01*
X218442958Y-102753141D01*
X218357487Y-102881058D01*
X218298613Y-103023191D01*
X218268600Y-103174078D01*
X215374000Y-103174078D01*
X215374000Y-103119186D01*
X215343987Y-102968299D01*
X215285113Y-102826166D01*
X215199642Y-102698249D01*
X215090859Y-102589466D01*
X214962942Y-102503995D01*
X214820809Y-102445121D01*
X214669922Y-102415108D01*
X214649000Y-102415108D01*
X214649000Y-102412078D01*
X214618987Y-102261191D01*
X214560113Y-102119058D01*
X214474642Y-101991141D01*
X214365859Y-101882358D01*
X214237942Y-101796887D01*
X214095809Y-101738013D01*
X213944922Y-101708000D01*
X213791078Y-101708000D01*
X213640191Y-101738013D01*
X213498058Y-101796887D01*
X213370141Y-101882358D01*
X213261358Y-101991141D01*
X213175887Y-102119058D01*
X213117013Y-102261191D01*
X213087000Y-102412078D01*
X208766437Y-102412078D01*
X208776987Y-102386609D01*
X208807000Y-102235722D01*
X208807000Y-102081878D01*
X208776987Y-101930991D01*
X208718113Y-101788858D01*
X208632642Y-101660941D01*
X208523859Y-101552158D01*
X208395942Y-101466687D01*
X208253809Y-101407813D01*
X208102922Y-101377800D01*
X207949078Y-101377800D01*
X207798191Y-101407813D01*
X207656058Y-101466687D01*
X207528141Y-101552158D01*
X207419358Y-101660941D01*
X207333887Y-101788858D01*
X207275013Y-101930991D01*
X207245000Y-102081878D01*
X205663800Y-102081878D01*
X205663800Y-95274678D01*
X206330600Y-95274678D01*
X206330600Y-95428522D01*
X206360613Y-95579409D01*
X206419487Y-95721542D01*
X206504958Y-95849459D01*
X206613741Y-95958242D01*
X206741658Y-96043713D01*
X206883791Y-96102587D01*
X207034678Y-96132600D01*
X207188522Y-96132600D01*
X207339409Y-96102587D01*
X207481542Y-96043713D01*
X207609459Y-95958242D01*
X207718242Y-95849459D01*
X207803713Y-95721542D01*
X207862587Y-95579409D01*
X207892600Y-95428522D01*
X207892600Y-95274678D01*
X207862587Y-95123791D01*
X207803713Y-94981658D01*
X207718242Y-94853741D01*
X207609459Y-94744958D01*
X207481542Y-94659487D01*
X207339409Y-94600613D01*
X207188522Y-94570600D01*
X207034678Y-94570600D01*
X206883791Y-94600613D01*
X206741658Y-94659487D01*
X206613741Y-94744958D01*
X206504958Y-94853741D01*
X206419487Y-94981658D01*
X206360613Y-95123791D01*
X206330600Y-95274678D01*
X205663800Y-95274678D01*
X205663800Y-93703078D01*
X206379000Y-93703078D01*
X206379000Y-93856922D01*
X206409013Y-94007809D01*
X206467887Y-94149942D01*
X206553358Y-94277859D01*
X206662141Y-94386642D01*
X206790058Y-94472113D01*
X206932191Y-94530987D01*
X207083078Y-94561000D01*
X207236922Y-94561000D01*
X207387809Y-94530987D01*
X207529942Y-94472113D01*
X207657859Y-94386642D01*
X207766642Y-94277859D01*
X207852113Y-94149942D01*
X207910987Y-94007809D01*
X207941000Y-93856922D01*
X207941000Y-93703078D01*
X209079000Y-93703078D01*
X209079000Y-93856922D01*
X209109013Y-94007809D01*
X209167887Y-94149942D01*
X209253358Y-94277859D01*
X209362141Y-94386642D01*
X209490058Y-94472113D01*
X209632191Y-94530987D01*
X209783078Y-94561000D01*
X209936922Y-94561000D01*
X210087809Y-94530987D01*
X210229942Y-94472113D01*
X210357859Y-94386642D01*
X210466642Y-94277859D01*
X210552113Y-94149942D01*
X210610987Y-94007809D01*
X210641000Y-93856922D01*
X210641000Y-93703078D01*
X211779000Y-93703078D01*
X211779000Y-93856922D01*
X211809013Y-94007809D01*
X211867887Y-94149942D01*
X211953358Y-94277859D01*
X212062141Y-94386642D01*
X212190058Y-94472113D01*
X212332191Y-94530987D01*
X212483078Y-94561000D01*
X212636922Y-94561000D01*
X212787809Y-94530987D01*
X212929942Y-94472113D01*
X213057859Y-94386642D01*
X213166642Y-94277859D01*
X213252113Y-94149942D01*
X213310987Y-94007809D01*
X213341000Y-93856922D01*
X213341000Y-93703078D01*
X214479000Y-93703078D01*
X214479000Y-93856922D01*
X214509013Y-94007809D01*
X214567887Y-94149942D01*
X214653358Y-94277859D01*
X214762141Y-94386642D01*
X214890058Y-94472113D01*
X215032191Y-94530987D01*
X215183078Y-94561000D01*
X215336922Y-94561000D01*
X215487809Y-94530987D01*
X215629942Y-94472113D01*
X215757859Y-94386642D01*
X215866642Y-94277859D01*
X215952113Y-94149942D01*
X215960373Y-94130000D01*
X219073157Y-94130000D01*
X219073157Y-95830000D01*
X219080513Y-95904689D01*
X219102299Y-95976508D01*
X219137678Y-96042696D01*
X219185289Y-96100711D01*
X219243304Y-96148322D01*
X219309492Y-96183701D01*
X219381311Y-96205487D01*
X219456000Y-96212843D01*
X221156000Y-96212843D01*
X221230689Y-96205487D01*
X221302508Y-96183701D01*
X221368696Y-96148322D01*
X221426711Y-96100711D01*
X221474322Y-96042696D01*
X221509701Y-95976508D01*
X221531487Y-95904689D01*
X221538843Y-95830000D01*
X221538843Y-94130000D01*
X223049157Y-94130000D01*
X223049157Y-95830000D01*
X223056513Y-95904689D01*
X223078299Y-95976508D01*
X223113678Y-96042696D01*
X223161289Y-96100711D01*
X223219304Y-96148322D01*
X223285492Y-96183701D01*
X223357311Y-96205487D01*
X223432000Y-96212843D01*
X225132000Y-96212843D01*
X225206689Y-96205487D01*
X225278508Y-96183701D01*
X225344696Y-96148322D01*
X225402711Y-96100711D01*
X225450322Y-96042696D01*
X225485701Y-95976508D01*
X225507487Y-95904689D01*
X225514843Y-95830000D01*
X225514843Y-94130000D01*
X225507487Y-94055311D01*
X225485701Y-93983492D01*
X225450322Y-93917304D01*
X225402711Y-93859289D01*
X225344696Y-93811678D01*
X225278508Y-93776299D01*
X225206689Y-93754513D01*
X225132000Y-93747157D01*
X223432000Y-93747157D01*
X223357311Y-93754513D01*
X223285492Y-93776299D01*
X223219304Y-93811678D01*
X223161289Y-93859289D01*
X223113678Y-93917304D01*
X223078299Y-93983492D01*
X223056513Y-94055311D01*
X223049157Y-94130000D01*
X221538843Y-94130000D01*
X221531487Y-94055311D01*
X221509701Y-93983492D01*
X221474322Y-93917304D01*
X221426711Y-93859289D01*
X221368696Y-93811678D01*
X221302508Y-93776299D01*
X221230689Y-93754513D01*
X221156000Y-93747157D01*
X219456000Y-93747157D01*
X219381311Y-93754513D01*
X219309492Y-93776299D01*
X219243304Y-93811678D01*
X219185289Y-93859289D01*
X219137678Y-93917304D01*
X219102299Y-93983492D01*
X219080513Y-94055311D01*
X219073157Y-94130000D01*
X215960373Y-94130000D01*
X216010987Y-94007809D01*
X216041000Y-93856922D01*
X216041000Y-93703078D01*
X216010987Y-93552191D01*
X215952113Y-93410058D01*
X215866642Y-93282141D01*
X215757859Y-93173358D01*
X215629942Y-93087887D01*
X215487809Y-93029013D01*
X215336922Y-92999000D01*
X215183078Y-92999000D01*
X215032191Y-93029013D01*
X214890058Y-93087887D01*
X214762141Y-93173358D01*
X214653358Y-93282141D01*
X214567887Y-93410058D01*
X214509013Y-93552191D01*
X214479000Y-93703078D01*
X213341000Y-93703078D01*
X213310987Y-93552191D01*
X213252113Y-93410058D01*
X213166642Y-93282141D01*
X213057859Y-93173358D01*
X212929942Y-93087887D01*
X212787809Y-93029013D01*
X212636922Y-92999000D01*
X212483078Y-92999000D01*
X212332191Y-93029013D01*
X212190058Y-93087887D01*
X212062141Y-93173358D01*
X211953358Y-93282141D01*
X211867887Y-93410058D01*
X211809013Y-93552191D01*
X211779000Y-93703078D01*
X210641000Y-93703078D01*
X210610987Y-93552191D01*
X210552113Y-93410058D01*
X210466642Y-93282141D01*
X210357859Y-93173358D01*
X210229942Y-93087887D01*
X210087809Y-93029013D01*
X209936922Y-92999000D01*
X209783078Y-92999000D01*
X209632191Y-93029013D01*
X209490058Y-93087887D01*
X209362141Y-93173358D01*
X209253358Y-93282141D01*
X209167887Y-93410058D01*
X209109013Y-93552191D01*
X209079000Y-93703078D01*
X207941000Y-93703078D01*
X207910987Y-93552191D01*
X207852113Y-93410058D01*
X207766642Y-93282141D01*
X207657859Y-93173358D01*
X207529942Y-93087887D01*
X207387809Y-93029013D01*
X207236922Y-92999000D01*
X207083078Y-92999000D01*
X206932191Y-93029013D01*
X206790058Y-93087887D01*
X206662141Y-93173358D01*
X206553358Y-93282141D01*
X206467887Y-93410058D01*
X206409013Y-93552191D01*
X206379000Y-93703078D01*
X205663800Y-93703078D01*
X205663800Y-92318757D01*
X219075000Y-92318757D01*
X219075000Y-92561243D01*
X219122307Y-92799069D01*
X219215102Y-93023097D01*
X219349820Y-93224717D01*
X219521283Y-93396180D01*
X219722903Y-93530898D01*
X219946931Y-93623693D01*
X220184757Y-93671000D01*
X220427243Y-93671000D01*
X220665069Y-93623693D01*
X220889097Y-93530898D01*
X221090717Y-93396180D01*
X221262180Y-93224717D01*
X221396898Y-93023097D01*
X221489693Y-92799069D01*
X221537000Y-92561243D01*
X221537000Y-92318757D01*
X223051000Y-92318757D01*
X223051000Y-92561243D01*
X223098307Y-92799069D01*
X223191102Y-93023097D01*
X223325820Y-93224717D01*
X223497283Y-93396180D01*
X223698903Y-93530898D01*
X223922931Y-93623693D01*
X224160757Y-93671000D01*
X224403243Y-93671000D01*
X224641069Y-93623693D01*
X224865097Y-93530898D01*
X225066717Y-93396180D01*
X225238180Y-93224717D01*
X225372898Y-93023097D01*
X225465693Y-92799069D01*
X225513000Y-92561243D01*
X225513000Y-92318757D01*
X225465693Y-92080931D01*
X225372898Y-91856903D01*
X225238180Y-91655283D01*
X225066717Y-91483820D01*
X224865097Y-91349102D01*
X224641069Y-91256307D01*
X224403243Y-91209000D01*
X224160757Y-91209000D01*
X223922931Y-91256307D01*
X223698903Y-91349102D01*
X223497283Y-91483820D01*
X223325820Y-91655283D01*
X223191102Y-91856903D01*
X223098307Y-92080931D01*
X223051000Y-92318757D01*
X221537000Y-92318757D01*
X221489693Y-92080931D01*
X221396898Y-91856903D01*
X221262180Y-91655283D01*
X221090717Y-91483820D01*
X220889097Y-91349102D01*
X220665069Y-91256307D01*
X220427243Y-91209000D01*
X220184757Y-91209000D01*
X219946931Y-91256307D01*
X219722903Y-91349102D01*
X219521283Y-91483820D01*
X219349820Y-91655283D01*
X219215102Y-91856903D01*
X219122307Y-92080931D01*
X219075000Y-92318757D01*
X205663800Y-92318757D01*
X205663800Y-89204078D01*
X207562500Y-89204078D01*
X207562500Y-89357922D01*
X207592513Y-89508809D01*
X207651387Y-89650942D01*
X207736858Y-89778859D01*
X207845641Y-89887642D01*
X207973558Y-89973113D01*
X208115691Y-90031987D01*
X208266578Y-90062000D01*
X208420422Y-90062000D01*
X208571309Y-90031987D01*
X208713442Y-89973113D01*
X208841359Y-89887642D01*
X208950142Y-89778859D01*
X209035613Y-89650942D01*
X209094487Y-89508809D01*
X209124500Y-89357922D01*
X209124500Y-89204078D01*
X212833000Y-89204078D01*
X212833000Y-89357922D01*
X212863013Y-89508809D01*
X212921887Y-89650942D01*
X213007358Y-89778859D01*
X213116141Y-89887642D01*
X213244058Y-89973113D01*
X213386191Y-90031987D01*
X213537078Y-90062000D01*
X213690922Y-90062000D01*
X213841809Y-90031987D01*
X213983942Y-89973113D01*
X214111859Y-89887642D01*
X214220642Y-89778859D01*
X214220710Y-89778757D01*
X219075000Y-89778757D01*
X219075000Y-90021243D01*
X219122307Y-90259069D01*
X219215102Y-90483097D01*
X219349820Y-90684717D01*
X219521283Y-90856180D01*
X219722903Y-90990898D01*
X219946931Y-91083693D01*
X220184757Y-91131000D01*
X220427243Y-91131000D01*
X220665069Y-91083693D01*
X220889097Y-90990898D01*
X221090717Y-90856180D01*
X221262180Y-90684717D01*
X221396898Y-90483097D01*
X221489693Y-90259069D01*
X221537000Y-90021243D01*
X221537000Y-89778757D01*
X223051000Y-89778757D01*
X223051000Y-90021243D01*
X223098307Y-90259069D01*
X223191102Y-90483097D01*
X223325820Y-90684717D01*
X223497283Y-90856180D01*
X223698903Y-90990898D01*
X223922931Y-91083693D01*
X224160757Y-91131000D01*
X224403243Y-91131000D01*
X224641069Y-91083693D01*
X224865097Y-90990898D01*
X225066717Y-90856180D01*
X225238180Y-90684717D01*
X225372898Y-90483097D01*
X225465693Y-90259069D01*
X225513000Y-90021243D01*
X225513000Y-89778757D01*
X225465693Y-89540931D01*
X225372898Y-89316903D01*
X225238180Y-89115283D01*
X225066717Y-88943820D01*
X224865097Y-88809102D01*
X224641069Y-88716307D01*
X224403243Y-88669000D01*
X224160757Y-88669000D01*
X223922931Y-88716307D01*
X223698903Y-88809102D01*
X223497283Y-88943820D01*
X223325820Y-89115283D01*
X223191102Y-89316903D01*
X223098307Y-89540931D01*
X223051000Y-89778757D01*
X221537000Y-89778757D01*
X221489693Y-89540931D01*
X221396898Y-89316903D01*
X221262180Y-89115283D01*
X221090717Y-88943820D01*
X220889097Y-88809102D01*
X220665069Y-88716307D01*
X220427243Y-88669000D01*
X220184757Y-88669000D01*
X219946931Y-88716307D01*
X219722903Y-88809102D01*
X219521283Y-88943820D01*
X219349820Y-89115283D01*
X219215102Y-89316903D01*
X219122307Y-89540931D01*
X219075000Y-89778757D01*
X214220710Y-89778757D01*
X214306113Y-89650942D01*
X214364987Y-89508809D01*
X214395000Y-89357922D01*
X214395000Y-89204078D01*
X214364987Y-89053191D01*
X214306113Y-88911058D01*
X214220642Y-88783141D01*
X214111859Y-88674358D01*
X213983942Y-88588887D01*
X213841809Y-88530013D01*
X213690922Y-88500000D01*
X213537078Y-88500000D01*
X213386191Y-88530013D01*
X213244058Y-88588887D01*
X213116141Y-88674358D01*
X213007358Y-88783141D01*
X212921887Y-88911058D01*
X212863013Y-89053191D01*
X212833000Y-89204078D01*
X209124500Y-89204078D01*
X209094487Y-89053191D01*
X209035613Y-88911058D01*
X208950142Y-88783141D01*
X208841359Y-88674358D01*
X208713442Y-88588887D01*
X208571309Y-88530013D01*
X208420422Y-88500000D01*
X208266578Y-88500000D01*
X208115691Y-88530013D01*
X207973558Y-88588887D01*
X207845641Y-88674358D01*
X207736858Y-88783141D01*
X207651387Y-88911058D01*
X207592513Y-89053191D01*
X207562500Y-89204078D01*
X205663800Y-89204078D01*
X205663800Y-87528400D01*
X205661360Y-87503624D01*
X205654133Y-87479799D01*
X205642397Y-87457843D01*
X205626603Y-87438597D01*
X205607357Y-87422803D01*
X205585401Y-87411067D01*
X205561576Y-87403840D01*
X205536800Y-87401400D01*
X201828400Y-87401400D01*
X201803624Y-87403840D01*
X201779799Y-87411067D01*
X201757843Y-87422803D01*
X201738597Y-87438597D01*
X201722803Y-87457843D01*
X201711067Y-87479799D01*
X201703840Y-87503624D01*
X201701400Y-87528400D01*
X201701400Y-91465400D01*
X187172600Y-91465400D01*
X187172600Y-86410078D01*
X215500000Y-86410078D01*
X215500000Y-86563922D01*
X215530013Y-86714809D01*
X215588887Y-86856942D01*
X215674358Y-86984859D01*
X215783141Y-87093642D01*
X215911058Y-87179113D01*
X216053191Y-87237987D01*
X216204078Y-87268000D01*
X216357922Y-87268000D01*
X216504937Y-87238757D01*
X219075000Y-87238757D01*
X219075000Y-87481243D01*
X219122307Y-87719069D01*
X219215102Y-87943097D01*
X219349820Y-88144717D01*
X219521283Y-88316180D01*
X219722903Y-88450898D01*
X219946931Y-88543693D01*
X220184757Y-88591000D01*
X220427243Y-88591000D01*
X220665069Y-88543693D01*
X220889097Y-88450898D01*
X221090717Y-88316180D01*
X221262180Y-88144717D01*
X221396898Y-87943097D01*
X221489693Y-87719069D01*
X221537000Y-87481243D01*
X221537000Y-87238757D01*
X223051000Y-87238757D01*
X223051000Y-87481243D01*
X223098307Y-87719069D01*
X223191102Y-87943097D01*
X223325820Y-88144717D01*
X223497283Y-88316180D01*
X223698903Y-88450898D01*
X223922931Y-88543693D01*
X224160757Y-88591000D01*
X224403243Y-88591000D01*
X224641069Y-88543693D01*
X224865097Y-88450898D01*
X225066717Y-88316180D01*
X225238180Y-88144717D01*
X225372898Y-87943097D01*
X225465693Y-87719069D01*
X225513000Y-87481243D01*
X225513000Y-87238757D01*
X225465693Y-87000931D01*
X225372898Y-86776903D01*
X225238180Y-86575283D01*
X225066717Y-86403820D01*
X224865097Y-86269102D01*
X224641069Y-86176307D01*
X224403243Y-86129000D01*
X224160757Y-86129000D01*
X223922931Y-86176307D01*
X223698903Y-86269102D01*
X223497283Y-86403820D01*
X223325820Y-86575283D01*
X223191102Y-86776903D01*
X223098307Y-87000931D01*
X223051000Y-87238757D01*
X221537000Y-87238757D01*
X221489693Y-87000931D01*
X221396898Y-86776903D01*
X221262180Y-86575283D01*
X221090717Y-86403820D01*
X220889097Y-86269102D01*
X220665069Y-86176307D01*
X220427243Y-86129000D01*
X220184757Y-86129000D01*
X219946931Y-86176307D01*
X219722903Y-86269102D01*
X219521283Y-86403820D01*
X219349820Y-86575283D01*
X219215102Y-86776903D01*
X219122307Y-87000931D01*
X219075000Y-87238757D01*
X216504937Y-87238757D01*
X216508809Y-87237987D01*
X216650942Y-87179113D01*
X216778859Y-87093642D01*
X216887642Y-86984859D01*
X216973113Y-86856942D01*
X217031987Y-86714809D01*
X217062000Y-86563922D01*
X217062000Y-86410078D01*
X217031987Y-86259191D01*
X216973113Y-86117058D01*
X216887642Y-85989141D01*
X216778859Y-85880358D01*
X216650942Y-85794887D01*
X216508809Y-85736013D01*
X216357922Y-85706000D01*
X216204078Y-85706000D01*
X216053191Y-85736013D01*
X215911058Y-85794887D01*
X215783141Y-85880358D01*
X215674358Y-85989141D01*
X215588887Y-86117058D01*
X215530013Y-86259191D01*
X215500000Y-86410078D01*
X187172600Y-86410078D01*
X187172600Y-84698757D01*
X219075000Y-84698757D01*
X219075000Y-84941243D01*
X219122307Y-85179069D01*
X219215102Y-85403097D01*
X219349820Y-85604717D01*
X219521283Y-85776180D01*
X219722903Y-85910898D01*
X219946931Y-86003693D01*
X220184757Y-86051000D01*
X220427243Y-86051000D01*
X220665069Y-86003693D01*
X220889097Y-85910898D01*
X221090717Y-85776180D01*
X221262180Y-85604717D01*
X221396898Y-85403097D01*
X221489693Y-85179069D01*
X221537000Y-84941243D01*
X221537000Y-84698757D01*
X223051000Y-84698757D01*
X223051000Y-84941243D01*
X223098307Y-85179069D01*
X223191102Y-85403097D01*
X223325820Y-85604717D01*
X223497283Y-85776180D01*
X223698903Y-85910898D01*
X223922931Y-86003693D01*
X224160757Y-86051000D01*
X224403243Y-86051000D01*
X224641069Y-86003693D01*
X224865097Y-85910898D01*
X225066717Y-85776180D01*
X225238180Y-85604717D01*
X225372898Y-85403097D01*
X225465693Y-85179069D01*
X225513000Y-84941243D01*
X225513000Y-84698757D01*
X225465693Y-84460931D01*
X225372898Y-84236903D01*
X225238180Y-84035283D01*
X225066717Y-83863820D01*
X224865097Y-83729102D01*
X224641069Y-83636307D01*
X224403243Y-83589000D01*
X224160757Y-83589000D01*
X223922931Y-83636307D01*
X223698903Y-83729102D01*
X223497283Y-83863820D01*
X223325820Y-84035283D01*
X223191102Y-84236903D01*
X223098307Y-84460931D01*
X223051000Y-84698757D01*
X221537000Y-84698757D01*
X221489693Y-84460931D01*
X221396898Y-84236903D01*
X221262180Y-84035283D01*
X221090717Y-83863820D01*
X220889097Y-83729102D01*
X220665069Y-83636307D01*
X220427243Y-83589000D01*
X220184757Y-83589000D01*
X219946931Y-83636307D01*
X219722903Y-83729102D01*
X219521283Y-83863820D01*
X219349820Y-84035283D01*
X219215102Y-84236903D01*
X219122307Y-84460931D01*
X219075000Y-84698757D01*
X187172600Y-84698757D01*
X187172600Y-83808998D01*
X187270795Y-83955956D01*
X187484044Y-84169205D01*
X187734799Y-84336755D01*
X188013424Y-84452165D01*
X188309210Y-84511000D01*
X188610790Y-84511000D01*
X188906576Y-84452165D01*
X189185201Y-84336755D01*
X189435956Y-84169205D01*
X189649205Y-83955956D01*
X189655500Y-83946535D01*
X189655500Y-83960422D01*
X189685513Y-84111309D01*
X189744387Y-84253442D01*
X189829858Y-84381359D01*
X189938641Y-84490142D01*
X190066558Y-84575613D01*
X190208691Y-84634487D01*
X190359578Y-84664500D01*
X190513422Y-84664500D01*
X190664309Y-84634487D01*
X190806442Y-84575613D01*
X190934359Y-84490142D01*
X191043142Y-84381359D01*
X191128613Y-84253442D01*
X191187487Y-84111309D01*
X191217500Y-83960422D01*
X191217500Y-83806578D01*
X191187487Y-83655691D01*
X191139516Y-83539878D01*
X193478200Y-83539878D01*
X193478200Y-83693722D01*
X193508213Y-83844609D01*
X193567087Y-83986742D01*
X193652558Y-84114659D01*
X193761341Y-84223442D01*
X193889258Y-84308913D01*
X194031391Y-84367787D01*
X194182278Y-84397800D01*
X194336122Y-84397800D01*
X194487009Y-84367787D01*
X194629142Y-84308913D01*
X194757059Y-84223442D01*
X194865842Y-84114659D01*
X194951313Y-83986742D01*
X195010187Y-83844609D01*
X195040200Y-83693722D01*
X195040200Y-83539878D01*
X195010187Y-83388991D01*
X194967476Y-83285878D01*
X198253400Y-83285878D01*
X198253400Y-83439722D01*
X198283413Y-83590609D01*
X198342287Y-83732742D01*
X198427758Y-83860659D01*
X198536541Y-83969442D01*
X198664458Y-84054913D01*
X198806591Y-84113787D01*
X198957478Y-84143800D01*
X199111322Y-84143800D01*
X199262209Y-84113787D01*
X199404342Y-84054913D01*
X199532259Y-83969442D01*
X199641042Y-83860659D01*
X199726513Y-83732742D01*
X199785387Y-83590609D01*
X199815400Y-83439722D01*
X199815400Y-83285878D01*
X199785387Y-83134991D01*
X199726513Y-82992858D01*
X199641042Y-82864941D01*
X199605311Y-82829210D01*
X202329000Y-82829210D01*
X202329000Y-83130790D01*
X202387835Y-83426576D01*
X202503245Y-83705201D01*
X202670795Y-83955956D01*
X202884044Y-84169205D01*
X203134799Y-84336755D01*
X203413424Y-84452165D01*
X203709210Y-84511000D01*
X204010790Y-84511000D01*
X204306576Y-84452165D01*
X204585201Y-84336755D01*
X204835956Y-84169205D01*
X205049205Y-83955956D01*
X205216755Y-83705201D01*
X205332165Y-83426576D01*
X205391000Y-83130790D01*
X205391000Y-82829210D01*
X205332165Y-82533424D01*
X205216755Y-82254799D01*
X205152582Y-82158757D01*
X219075000Y-82158757D01*
X219075000Y-82401243D01*
X219122307Y-82639069D01*
X219215102Y-82863097D01*
X219349820Y-83064717D01*
X219521283Y-83236180D01*
X219722903Y-83370898D01*
X219946931Y-83463693D01*
X220184757Y-83511000D01*
X220427243Y-83511000D01*
X220665069Y-83463693D01*
X220889097Y-83370898D01*
X221090717Y-83236180D01*
X221262180Y-83064717D01*
X221396898Y-82863097D01*
X221489693Y-82639069D01*
X221537000Y-82401243D01*
X221537000Y-82158757D01*
X223051000Y-82158757D01*
X223051000Y-82401243D01*
X223098307Y-82639069D01*
X223191102Y-82863097D01*
X223325820Y-83064717D01*
X223497283Y-83236180D01*
X223698903Y-83370898D01*
X223922931Y-83463693D01*
X224160757Y-83511000D01*
X224403243Y-83511000D01*
X224641069Y-83463693D01*
X224865097Y-83370898D01*
X225066717Y-83236180D01*
X225238180Y-83064717D01*
X225372898Y-82863097D01*
X225465693Y-82639069D01*
X225513000Y-82401243D01*
X225513000Y-82158757D01*
X225465693Y-81920931D01*
X225372898Y-81696903D01*
X225238180Y-81495283D01*
X225066717Y-81323820D01*
X224865097Y-81189102D01*
X224641069Y-81096307D01*
X224403243Y-81049000D01*
X224160757Y-81049000D01*
X223922931Y-81096307D01*
X223698903Y-81189102D01*
X223497283Y-81323820D01*
X223325820Y-81495283D01*
X223191102Y-81696903D01*
X223098307Y-81920931D01*
X223051000Y-82158757D01*
X221537000Y-82158757D01*
X221489693Y-81920931D01*
X221396898Y-81696903D01*
X221262180Y-81495283D01*
X221090717Y-81323820D01*
X220889097Y-81189102D01*
X220665069Y-81096307D01*
X220427243Y-81049000D01*
X220184757Y-81049000D01*
X219946931Y-81096307D01*
X219722903Y-81189102D01*
X219521283Y-81323820D01*
X219349820Y-81495283D01*
X219215102Y-81696903D01*
X219122307Y-81920931D01*
X219075000Y-82158757D01*
X205152582Y-82158757D01*
X205049205Y-82004044D01*
X204835956Y-81790795D01*
X204585201Y-81623245D01*
X204306576Y-81507835D01*
X204010790Y-81449000D01*
X203709210Y-81449000D01*
X203413424Y-81507835D01*
X203134799Y-81623245D01*
X202884044Y-81790795D01*
X202670795Y-82004044D01*
X202503245Y-82254799D01*
X202387835Y-82533424D01*
X202329000Y-82829210D01*
X199605311Y-82829210D01*
X199532259Y-82756158D01*
X199404342Y-82670687D01*
X199262209Y-82611813D01*
X199111322Y-82581800D01*
X198957478Y-82581800D01*
X198806591Y-82611813D01*
X198664458Y-82670687D01*
X198536541Y-82756158D01*
X198427758Y-82864941D01*
X198342287Y-82992858D01*
X198283413Y-83134991D01*
X198253400Y-83285878D01*
X194967476Y-83285878D01*
X194951313Y-83246858D01*
X194865842Y-83118941D01*
X194757059Y-83010158D01*
X194629142Y-82924687D01*
X194487009Y-82865813D01*
X194336122Y-82835800D01*
X194182278Y-82835800D01*
X194031391Y-82865813D01*
X193889258Y-82924687D01*
X193761341Y-83010158D01*
X193652558Y-83118941D01*
X193567087Y-83246858D01*
X193508213Y-83388991D01*
X193478200Y-83539878D01*
X191139516Y-83539878D01*
X191128613Y-83513558D01*
X191043142Y-83385641D01*
X190934359Y-83276858D01*
X190806442Y-83191387D01*
X190664309Y-83132513D01*
X190513422Y-83102500D01*
X190359578Y-83102500D01*
X190208691Y-83132513D01*
X190066558Y-83191387D01*
X189965518Y-83258900D01*
X189991000Y-83130790D01*
X189991000Y-82829210D01*
X189932165Y-82533424D01*
X189816755Y-82254799D01*
X189649205Y-82004044D01*
X189546739Y-81901578D01*
X190925500Y-81901578D01*
X190925500Y-82055422D01*
X190955513Y-82206309D01*
X191014387Y-82348442D01*
X191099858Y-82476359D01*
X191208641Y-82585142D01*
X191336558Y-82670613D01*
X191478691Y-82729487D01*
X191629578Y-82759500D01*
X191783422Y-82759500D01*
X191934309Y-82729487D01*
X192076442Y-82670613D01*
X192204359Y-82585142D01*
X192313142Y-82476359D01*
X192398613Y-82348442D01*
X192457487Y-82206309D01*
X192487500Y-82055422D01*
X192487500Y-81901578D01*
X196196000Y-81901578D01*
X196196000Y-82055422D01*
X196226013Y-82206309D01*
X196284887Y-82348442D01*
X196370358Y-82476359D01*
X196479141Y-82585142D01*
X196607058Y-82670613D01*
X196749191Y-82729487D01*
X196900078Y-82759500D01*
X197053922Y-82759500D01*
X197204809Y-82729487D01*
X197346942Y-82670613D01*
X197474859Y-82585142D01*
X197583642Y-82476359D01*
X197669113Y-82348442D01*
X197727987Y-82206309D01*
X197758000Y-82055422D01*
X197758000Y-81901578D01*
X200641000Y-81901578D01*
X200641000Y-82055422D01*
X200671013Y-82206309D01*
X200729887Y-82348442D01*
X200815358Y-82476359D01*
X200924141Y-82585142D01*
X201052058Y-82670613D01*
X201194191Y-82729487D01*
X201345078Y-82759500D01*
X201498922Y-82759500D01*
X201649809Y-82729487D01*
X201791942Y-82670613D01*
X201919859Y-82585142D01*
X202028642Y-82476359D01*
X202114113Y-82348442D01*
X202172987Y-82206309D01*
X202203000Y-82055422D01*
X202203000Y-81901578D01*
X202172987Y-81750691D01*
X202114113Y-81608558D01*
X202028642Y-81480641D01*
X201919859Y-81371858D01*
X201791942Y-81286387D01*
X201649809Y-81227513D01*
X201498922Y-81197500D01*
X201345078Y-81197500D01*
X201194191Y-81227513D01*
X201052058Y-81286387D01*
X200924141Y-81371858D01*
X200815358Y-81480641D01*
X200729887Y-81608558D01*
X200671013Y-81750691D01*
X200641000Y-81901578D01*
X197758000Y-81901578D01*
X197727987Y-81750691D01*
X197669113Y-81608558D01*
X197583642Y-81480641D01*
X197474859Y-81371858D01*
X197346942Y-81286387D01*
X197204809Y-81227513D01*
X197053922Y-81197500D01*
X196900078Y-81197500D01*
X196749191Y-81227513D01*
X196607058Y-81286387D01*
X196479141Y-81371858D01*
X196370358Y-81480641D01*
X196284887Y-81608558D01*
X196226013Y-81750691D01*
X196196000Y-81901578D01*
X192487500Y-81901578D01*
X192457487Y-81750691D01*
X192398613Y-81608558D01*
X192313142Y-81480641D01*
X192204359Y-81371858D01*
X192076442Y-81286387D01*
X191934309Y-81227513D01*
X191783422Y-81197500D01*
X191629578Y-81197500D01*
X191478691Y-81227513D01*
X191336558Y-81286387D01*
X191208641Y-81371858D01*
X191099858Y-81480641D01*
X191014387Y-81608558D01*
X190955513Y-81750691D01*
X190925500Y-81901578D01*
X189546739Y-81901578D01*
X189435956Y-81790795D01*
X189185201Y-81623245D01*
X188906576Y-81507835D01*
X188610790Y-81449000D01*
X188309210Y-81449000D01*
X188013424Y-81507835D01*
X187734799Y-81623245D01*
X187484044Y-81790795D01*
X187270795Y-82004044D01*
X187172600Y-82151002D01*
X187172600Y-80645000D01*
X207798477Y-80645000D01*
X207783058Y-80651387D01*
G37*
X207783058Y-80651387D02*
X207655141Y-80736858D01*
X207546358Y-80845641D01*
X207460887Y-80973558D01*
X207402013Y-81115691D01*
X207372000Y-81266578D01*
X207372000Y-81420422D01*
X207402013Y-81571309D01*
X207460887Y-81713442D01*
X207546358Y-81841359D01*
X207655141Y-81950142D01*
X207783058Y-82035613D01*
X207925191Y-82094487D01*
X208076078Y-82124500D01*
X208229922Y-82124500D01*
X208380809Y-82094487D01*
X208522942Y-82035613D01*
X208650859Y-81950142D01*
X208759642Y-81841359D01*
X208845113Y-81713442D01*
X208903987Y-81571309D01*
X208934000Y-81420422D01*
X208934000Y-81266578D01*
X208903987Y-81115691D01*
X208845113Y-80973558D01*
X208759642Y-80845641D01*
X208650859Y-80736858D01*
X208522942Y-80651387D01*
X208507523Y-80645000D01*
X226390535Y-80645000D01*
X226435416Y-97632415D01*
X226367359Y-97564358D01*
X226239442Y-97478887D01*
X226097309Y-97420013D01*
X225946422Y-97390000D01*
X225792578Y-97390000D01*
X225641691Y-97420013D01*
X225499558Y-97478887D01*
X225371641Y-97564358D01*
X225262858Y-97673141D01*
X225177387Y-97801058D01*
X225118513Y-97943191D01*
X225088500Y-98094078D01*
X225088500Y-98247922D01*
X225118513Y-98398809D01*
X225177387Y-98540942D01*
X225262858Y-98668859D01*
X225371641Y-98777642D01*
X225499558Y-98863113D01*
X225641691Y-98921987D01*
X225792578Y-98952000D01*
X225946422Y-98952000D01*
X226097309Y-98921987D01*
X226239442Y-98863113D01*
X226367359Y-98777642D01*
X226438254Y-98706747D01*
X226447351Y-102149810D01*
X226434613Y-102119058D01*
X226349142Y-101991141D01*
X226240359Y-101882358D01*
X226112442Y-101796887D01*
X225970309Y-101738013D01*
X225819422Y-101708000D01*
X225665578Y-101708000D01*
X225514691Y-101738013D01*
X225372558Y-101796887D01*
X225244641Y-101882358D01*
X225135858Y-101991141D01*
X225050387Y-102119058D01*
X224991513Y-102261191D01*
X224961500Y-102412078D01*
X224961500Y-102565922D01*
X224991513Y-102716809D01*
X225050387Y-102858942D01*
X225135858Y-102986859D01*
X225244641Y-103095642D01*
X225372558Y-103181113D01*
X225514691Y-103239987D01*
X225665578Y-103270000D01*
X225819422Y-103270000D01*
X225970309Y-103239987D01*
X226112442Y-103181113D01*
X226240359Y-103095642D01*
X226349142Y-102986859D01*
X226434613Y-102858942D01*
X226449132Y-102823891D01*
X226491464Y-118846600D01*
X205663800Y-118846600D01*
X205663800Y-117728278D01*
X206432200Y-117728278D01*
X206432200Y-117882122D01*
X206462213Y-118033009D01*
X206521087Y-118175142D01*
X206606558Y-118303059D01*
X206715341Y-118411842D01*
X206843258Y-118497313D01*
X206985391Y-118556187D01*
X207136278Y-118586200D01*
X207290122Y-118586200D01*
X207441009Y-118556187D01*
X207583142Y-118497313D01*
X207711059Y-118411842D01*
X207819842Y-118303059D01*
X207905313Y-118175142D01*
X207964187Y-118033009D01*
X207994200Y-117882122D01*
X207994200Y-117728278D01*
X207964187Y-117577391D01*
X207905313Y-117435258D01*
X207819842Y-117307341D01*
X207711059Y-117198558D01*
X207583142Y-117113087D01*
X207441009Y-117054213D01*
X207290122Y-117024200D01*
X207136278Y-117024200D01*
X206985391Y-117054213D01*
X206843258Y-117113087D01*
X206715341Y-117198558D01*
X206606558Y-117307341D01*
X206521087Y-117435258D01*
X206462213Y-117577391D01*
X206432200Y-117728278D01*
X205663800Y-117728278D01*
X205663800Y-115843000D01*
X205816922Y-115843000D01*
X205967809Y-115812987D01*
X206109942Y-115754113D01*
X206237859Y-115668642D01*
X206346642Y-115559859D01*
X206432113Y-115431942D01*
X206490987Y-115289809D01*
X206521000Y-115138922D01*
X206521000Y-114985078D01*
X206495739Y-114858078D01*
X210928000Y-114858078D01*
X210928000Y-115011922D01*
X210958013Y-115162809D01*
X211016887Y-115304942D01*
X211102358Y-115432859D01*
X211211141Y-115541642D01*
X211339058Y-115627113D01*
X211481191Y-115685987D01*
X211632078Y-115716000D01*
X211785922Y-115716000D01*
X211936809Y-115685987D01*
X212078942Y-115627113D01*
X212206859Y-115541642D01*
X212315642Y-115432859D01*
X212401113Y-115304942D01*
X212459987Y-115162809D01*
X212490000Y-115011922D01*
X212490000Y-114858078D01*
X212474844Y-114781878D01*
X216389000Y-114781878D01*
X216389000Y-114935722D01*
X216419013Y-115086609D01*
X216477887Y-115228742D01*
X216563358Y-115356659D01*
X216672141Y-115465442D01*
X216800058Y-115550913D01*
X216942191Y-115609787D01*
X217093078Y-115639800D01*
X217246922Y-115639800D01*
X217397809Y-115609787D01*
X217539942Y-115550913D01*
X217626498Y-115493078D01*
X219881500Y-115493078D01*
X219881500Y-115646922D01*
X219911513Y-115797809D01*
X219970387Y-115939942D01*
X220055858Y-116067859D01*
X220164641Y-116176642D01*
X220292558Y-116262113D01*
X220434691Y-116320987D01*
X220585578Y-116351000D01*
X220739422Y-116351000D01*
X220890309Y-116320987D01*
X221032442Y-116262113D01*
X221160359Y-116176642D01*
X221269142Y-116067859D01*
X221329250Y-115977901D01*
X221389358Y-116067859D01*
X221498141Y-116176642D01*
X221626058Y-116262113D01*
X221768191Y-116320987D01*
X221919078Y-116351000D01*
X222072922Y-116351000D01*
X222223809Y-116320987D01*
X222365942Y-116262113D01*
X222493859Y-116176642D01*
X222602642Y-116067859D01*
X222688113Y-115939942D01*
X222746987Y-115797809D01*
X222777000Y-115646922D01*
X222777000Y-115556578D01*
X224898000Y-115556578D01*
X224898000Y-115710422D01*
X224928013Y-115861309D01*
X224986887Y-116003442D01*
X225072358Y-116131359D01*
X225181141Y-116240142D01*
X225309058Y-116325613D01*
X225451191Y-116384487D01*
X225602078Y-116414500D01*
X225755922Y-116414500D01*
X225906809Y-116384487D01*
X226048942Y-116325613D01*
X226176859Y-116240142D01*
X226285642Y-116131359D01*
X226371113Y-116003442D01*
X226429987Y-115861309D01*
X226460000Y-115710422D01*
X226460000Y-115556578D01*
X226429987Y-115405691D01*
X226371113Y-115263558D01*
X226285642Y-115135641D01*
X226176859Y-115026858D01*
X226048942Y-114941387D01*
X225906809Y-114882513D01*
X225755922Y-114852500D01*
X225602078Y-114852500D01*
X225451191Y-114882513D01*
X225309058Y-114941387D01*
X225181141Y-115026858D01*
X225072358Y-115135641D01*
X224986887Y-115263558D01*
X224928013Y-115405691D01*
X224898000Y-115556578D01*
X222777000Y-115556578D01*
X222777000Y-115493078D01*
X222746987Y-115342191D01*
X222688113Y-115200058D01*
X222602642Y-115072141D01*
X222493859Y-114963358D01*
X222365942Y-114877887D01*
X222223809Y-114819013D01*
X222072922Y-114789000D01*
X221919078Y-114789000D01*
X221768191Y-114819013D01*
X221626058Y-114877887D01*
X221498141Y-114963358D01*
X221389358Y-115072141D01*
X221329250Y-115162099D01*
X221269142Y-115072141D01*
X221160359Y-114963358D01*
X221032442Y-114877887D01*
X220890309Y-114819013D01*
X220739422Y-114789000D01*
X220585578Y-114789000D01*
X220434691Y-114819013D01*
X220292558Y-114877887D01*
X220164641Y-114963358D01*
X220055858Y-115072141D01*
X219970387Y-115200058D01*
X219911513Y-115342191D01*
X219881500Y-115493078D01*
X217626498Y-115493078D01*
X217667859Y-115465442D01*
X217776642Y-115356659D01*
X217862113Y-115228742D01*
X217920987Y-115086609D01*
X217951000Y-114935722D01*
X217951000Y-114781878D01*
X217920987Y-114630991D01*
X217862113Y-114488858D01*
X217776642Y-114360941D01*
X217667859Y-114252158D01*
X217539942Y-114166687D01*
X217397809Y-114107813D01*
X217246922Y-114077800D01*
X217093078Y-114077800D01*
X216942191Y-114107813D01*
X216800058Y-114166687D01*
X216672141Y-114252158D01*
X216563358Y-114360941D01*
X216477887Y-114488858D01*
X216419013Y-114630991D01*
X216389000Y-114781878D01*
X212474844Y-114781878D01*
X212459987Y-114707191D01*
X212401113Y-114565058D01*
X212315642Y-114437141D01*
X212206859Y-114328358D01*
X212078942Y-114242887D01*
X211936809Y-114184013D01*
X211785922Y-114154000D01*
X211632078Y-114154000D01*
X211481191Y-114184013D01*
X211339058Y-114242887D01*
X211211141Y-114328358D01*
X211102358Y-114437141D01*
X211016887Y-114565058D01*
X210958013Y-114707191D01*
X210928000Y-114858078D01*
X206495739Y-114858078D01*
X206490987Y-114834191D01*
X206432113Y-114692058D01*
X206346642Y-114564141D01*
X206273001Y-114490500D01*
X206346642Y-114416859D01*
X206432113Y-114288942D01*
X206490987Y-114146809D01*
X206521000Y-113995922D01*
X206521000Y-113842078D01*
X212198000Y-113842078D01*
X212198000Y-113995922D01*
X212228013Y-114146809D01*
X212286887Y-114288942D01*
X212372358Y-114416859D01*
X212481141Y-114525642D01*
X212609058Y-114611113D01*
X212751191Y-114669987D01*
X212902078Y-114700000D01*
X213055922Y-114700000D01*
X213206809Y-114669987D01*
X213348942Y-114611113D01*
X213476859Y-114525642D01*
X213585642Y-114416859D01*
X213671113Y-114288942D01*
X213729987Y-114146809D01*
X213760000Y-113995922D01*
X213760000Y-113842078D01*
X213729987Y-113691191D01*
X213671113Y-113549058D01*
X213585642Y-113421141D01*
X213476859Y-113312358D01*
X213348942Y-113226887D01*
X213206809Y-113168013D01*
X213055922Y-113138000D01*
X212902078Y-113138000D01*
X212751191Y-113168013D01*
X212609058Y-113226887D01*
X212481141Y-113312358D01*
X212372358Y-113421141D01*
X212286887Y-113549058D01*
X212228013Y-113691191D01*
X212198000Y-113842078D01*
X206521000Y-113842078D01*
X206490987Y-113691191D01*
X206432113Y-113549058D01*
X206346642Y-113421141D01*
X206344500Y-113418999D01*
X206359293Y-113404205D01*
X206444764Y-113276288D01*
X206503638Y-113134155D01*
X206533651Y-112983268D01*
X206533651Y-112889578D01*
X213531500Y-112889578D01*
X213531500Y-113043422D01*
X213561513Y-113194309D01*
X213620387Y-113336442D01*
X213705858Y-113464359D01*
X213814641Y-113573142D01*
X213942558Y-113658613D01*
X214084691Y-113717487D01*
X214235578Y-113747500D01*
X214389422Y-113747500D01*
X214540309Y-113717487D01*
X214682442Y-113658613D01*
X214810359Y-113573142D01*
X214919142Y-113464359D01*
X215004613Y-113336442D01*
X215063487Y-113194309D01*
X215093500Y-113043422D01*
X215093500Y-112889578D01*
X215063487Y-112738691D01*
X215004613Y-112596558D01*
X214919142Y-112468641D01*
X214810359Y-112359858D01*
X214682442Y-112274387D01*
X214540309Y-112215513D01*
X214389422Y-112185500D01*
X214235578Y-112185500D01*
X214084691Y-112215513D01*
X213942558Y-112274387D01*
X213814641Y-112359858D01*
X213705858Y-112468641D01*
X213620387Y-112596558D01*
X213561513Y-112738691D01*
X213531500Y-112889578D01*
X206533651Y-112889578D01*
X206533651Y-112829424D01*
X206503638Y-112678537D01*
X206444764Y-112536404D01*
X206359293Y-112408487D01*
X206250510Y-112299704D01*
X206122593Y-112214233D01*
X205980460Y-112155359D01*
X205829573Y-112125346D01*
X205675729Y-112125346D01*
X205663800Y-112127719D01*
X205663800Y-109587578D01*
X221532500Y-109587578D01*
X221532500Y-109741422D01*
X221562513Y-109892309D01*
X221621387Y-110034442D01*
X221706858Y-110162359D01*
X221815641Y-110271142D01*
X221943558Y-110356613D01*
X222085691Y-110415487D01*
X222236578Y-110445500D01*
X222390422Y-110445500D01*
X222541309Y-110415487D01*
X222683442Y-110356613D01*
X222811359Y-110271142D01*
X222920142Y-110162359D01*
X223005613Y-110034442D01*
X223064487Y-109892309D01*
X223074577Y-109841578D01*
X223818500Y-109841578D01*
X223818500Y-109995422D01*
X223848513Y-110146309D01*
X223907387Y-110288442D01*
X223992858Y-110416359D01*
X224101641Y-110525142D01*
X224229558Y-110610613D01*
X224371691Y-110669487D01*
X224522578Y-110699500D01*
X224676422Y-110699500D01*
X224827309Y-110669487D01*
X224969442Y-110610613D01*
X225097359Y-110525142D01*
X225206142Y-110416359D01*
X225291613Y-110288442D01*
X225350487Y-110146309D01*
X225380500Y-109995422D01*
X225380500Y-109841578D01*
X225350487Y-109690691D01*
X225291613Y-109548558D01*
X225206142Y-109420641D01*
X225097359Y-109311858D01*
X224969442Y-109226387D01*
X224827309Y-109167513D01*
X224676422Y-109137500D01*
X224522578Y-109137500D01*
X224371691Y-109167513D01*
X224229558Y-109226387D01*
X224101641Y-109311858D01*
X223992858Y-109420641D01*
X223907387Y-109548558D01*
X223848513Y-109690691D01*
X223818500Y-109841578D01*
X223074577Y-109841578D01*
X223094500Y-109741422D01*
X223094500Y-109587578D01*
X223064487Y-109436691D01*
X223005613Y-109294558D01*
X222920142Y-109166641D01*
X222811359Y-109057858D01*
X222683442Y-108972387D01*
X222541309Y-108913513D01*
X222390422Y-108883500D01*
X222236578Y-108883500D01*
X222085691Y-108913513D01*
X221943558Y-108972387D01*
X221815641Y-109057858D01*
X221706858Y-109166641D01*
X221621387Y-109294558D01*
X221562513Y-109436691D01*
X221532500Y-109587578D01*
X205663800Y-109587578D01*
X205663800Y-106755478D01*
X211004200Y-106755478D01*
X211004200Y-106909322D01*
X211034213Y-107060209D01*
X211093087Y-107202342D01*
X211178558Y-107330259D01*
X211287341Y-107439042D01*
X211415258Y-107524513D01*
X211557391Y-107583387D01*
X211708278Y-107613400D01*
X211862122Y-107613400D01*
X212013009Y-107583387D01*
X212155142Y-107524513D01*
X212283059Y-107439042D01*
X212391842Y-107330259D01*
X212477313Y-107202342D01*
X212536187Y-107060209D01*
X212566200Y-106909322D01*
X212566200Y-106755478D01*
X212536187Y-106604591D01*
X212477313Y-106462458D01*
X212391842Y-106334541D01*
X212283059Y-106225758D01*
X212155142Y-106140287D01*
X212013009Y-106081413D01*
X211862122Y-106051400D01*
X211708278Y-106051400D01*
X211557391Y-106081413D01*
X211415258Y-106140287D01*
X211287341Y-106225758D01*
X211178558Y-106334541D01*
X211093087Y-106462458D01*
X211034213Y-106604591D01*
X211004200Y-106755478D01*
X205663800Y-106755478D01*
X205663800Y-102081878D01*
X207245000Y-102081878D01*
X207245000Y-102235722D01*
X207275013Y-102386609D01*
X207333887Y-102528742D01*
X207419358Y-102656659D01*
X207528141Y-102765442D01*
X207656058Y-102850913D01*
X207798191Y-102909787D01*
X207949078Y-102939800D01*
X208102922Y-102939800D01*
X208253809Y-102909787D01*
X208395942Y-102850913D01*
X208523859Y-102765442D01*
X208632642Y-102656659D01*
X208718113Y-102528742D01*
X208766437Y-102412078D01*
X213087000Y-102412078D01*
X213087000Y-102565922D01*
X213117013Y-102716809D01*
X213175887Y-102858942D01*
X213261358Y-102986859D01*
X213370141Y-103095642D01*
X213498058Y-103181113D01*
X213640191Y-103239987D01*
X213791078Y-103270000D01*
X213812000Y-103270000D01*
X213812000Y-103273030D01*
X213842013Y-103423917D01*
X213900887Y-103566050D01*
X213986358Y-103693967D01*
X214095141Y-103802750D01*
X214223058Y-103888221D01*
X214365191Y-103947095D01*
X214516078Y-103977108D01*
X214669922Y-103977108D01*
X214820809Y-103947095D01*
X214962942Y-103888221D01*
X215090859Y-103802750D01*
X215199642Y-103693967D01*
X215285113Y-103566050D01*
X215343987Y-103423917D01*
X215374000Y-103273030D01*
X215374000Y-103174078D01*
X218268600Y-103174078D01*
X218268600Y-103327922D01*
X218298613Y-103478809D01*
X218357487Y-103620942D01*
X218442958Y-103748859D01*
X218551741Y-103857642D01*
X218679658Y-103943113D01*
X218821791Y-104001987D01*
X218972678Y-104032000D01*
X219126522Y-104032000D01*
X219277409Y-104001987D01*
X219419542Y-103943113D01*
X219547459Y-103857642D01*
X219648101Y-103757000D01*
X222738909Y-103757000D01*
X224644000Y-105662092D01*
X224644000Y-105804422D01*
X224674013Y-105955309D01*
X224732887Y-106097442D01*
X224818358Y-106225359D01*
X224927141Y-106334142D01*
X225055058Y-106419613D01*
X225197191Y-106478487D01*
X225348078Y-106508500D01*
X225501922Y-106508500D01*
X225652809Y-106478487D01*
X225794942Y-106419613D01*
X225922859Y-106334142D01*
X226031642Y-106225359D01*
X226117113Y-106097442D01*
X226175987Y-105955309D01*
X226206000Y-105804422D01*
X226206000Y-105650578D01*
X226175987Y-105499691D01*
X226117113Y-105357558D01*
X226031642Y-105229641D01*
X225922859Y-105120858D01*
X225794942Y-105035387D01*
X225652809Y-104976513D01*
X225501922Y-104946500D01*
X225359592Y-104946500D01*
X223323876Y-102910785D01*
X223308027Y-102891473D01*
X223230979Y-102828241D01*
X223143075Y-102781255D01*
X223047693Y-102752322D01*
X222973354Y-102745000D01*
X222973346Y-102745000D01*
X222948500Y-102742553D01*
X222923654Y-102745000D01*
X220773346Y-102745000D01*
X220816587Y-102640609D01*
X220846600Y-102489722D01*
X220846600Y-102335878D01*
X220816587Y-102184991D01*
X220757713Y-102042858D01*
X220672242Y-101914941D01*
X220563459Y-101806158D01*
X220435542Y-101720687D01*
X220293409Y-101661813D01*
X220142522Y-101631800D01*
X219988678Y-101631800D01*
X219837791Y-101661813D01*
X219695658Y-101720687D01*
X219567741Y-101806158D01*
X219458958Y-101914941D01*
X219373487Y-102042858D01*
X219314613Y-102184991D01*
X219284600Y-102335878D01*
X219284600Y-102489722D01*
X219287476Y-102504183D01*
X219277409Y-102500013D01*
X219126522Y-102470000D01*
X218972678Y-102470000D01*
X218821791Y-102500013D01*
X218679658Y-102558887D01*
X218551741Y-102644358D01*
X218442958Y-102753141D01*
X218357487Y-102881058D01*
X218298613Y-103023191D01*
X218268600Y-103174078D01*
X215374000Y-103174078D01*
X215374000Y-103119186D01*
X215343987Y-102968299D01*
X215285113Y-102826166D01*
X215199642Y-102698249D01*
X215090859Y-102589466D01*
X214962942Y-102503995D01*
X214820809Y-102445121D01*
X214669922Y-102415108D01*
X214649000Y-102415108D01*
X214649000Y-102412078D01*
X214618987Y-102261191D01*
X214560113Y-102119058D01*
X214474642Y-101991141D01*
X214365859Y-101882358D01*
X214237942Y-101796887D01*
X214095809Y-101738013D01*
X213944922Y-101708000D01*
X213791078Y-101708000D01*
X213640191Y-101738013D01*
X213498058Y-101796887D01*
X213370141Y-101882358D01*
X213261358Y-101991141D01*
X213175887Y-102119058D01*
X213117013Y-102261191D01*
X213087000Y-102412078D01*
X208766437Y-102412078D01*
X208776987Y-102386609D01*
X208807000Y-102235722D01*
X208807000Y-102081878D01*
X208776987Y-101930991D01*
X208718113Y-101788858D01*
X208632642Y-101660941D01*
X208523859Y-101552158D01*
X208395942Y-101466687D01*
X208253809Y-101407813D01*
X208102922Y-101377800D01*
X207949078Y-101377800D01*
X207798191Y-101407813D01*
X207656058Y-101466687D01*
X207528141Y-101552158D01*
X207419358Y-101660941D01*
X207333887Y-101788858D01*
X207275013Y-101930991D01*
X207245000Y-102081878D01*
X205663800Y-102081878D01*
X205663800Y-95274678D01*
X206330600Y-95274678D01*
X206330600Y-95428522D01*
X206360613Y-95579409D01*
X206419487Y-95721542D01*
X206504958Y-95849459D01*
X206613741Y-95958242D01*
X206741658Y-96043713D01*
X206883791Y-96102587D01*
X207034678Y-96132600D01*
X207188522Y-96132600D01*
X207339409Y-96102587D01*
X207481542Y-96043713D01*
X207609459Y-95958242D01*
X207718242Y-95849459D01*
X207803713Y-95721542D01*
X207862587Y-95579409D01*
X207892600Y-95428522D01*
X207892600Y-95274678D01*
X207862587Y-95123791D01*
X207803713Y-94981658D01*
X207718242Y-94853741D01*
X207609459Y-94744958D01*
X207481542Y-94659487D01*
X207339409Y-94600613D01*
X207188522Y-94570600D01*
X207034678Y-94570600D01*
X206883791Y-94600613D01*
X206741658Y-94659487D01*
X206613741Y-94744958D01*
X206504958Y-94853741D01*
X206419487Y-94981658D01*
X206360613Y-95123791D01*
X206330600Y-95274678D01*
X205663800Y-95274678D01*
X205663800Y-93703078D01*
X206379000Y-93703078D01*
X206379000Y-93856922D01*
X206409013Y-94007809D01*
X206467887Y-94149942D01*
X206553358Y-94277859D01*
X206662141Y-94386642D01*
X206790058Y-94472113D01*
X206932191Y-94530987D01*
X207083078Y-94561000D01*
X207236922Y-94561000D01*
X207387809Y-94530987D01*
X207529942Y-94472113D01*
X207657859Y-94386642D01*
X207766642Y-94277859D01*
X207852113Y-94149942D01*
X207910987Y-94007809D01*
X207941000Y-93856922D01*
X207941000Y-93703078D01*
X209079000Y-93703078D01*
X209079000Y-93856922D01*
X209109013Y-94007809D01*
X209167887Y-94149942D01*
X209253358Y-94277859D01*
X209362141Y-94386642D01*
X209490058Y-94472113D01*
X209632191Y-94530987D01*
X209783078Y-94561000D01*
X209936922Y-94561000D01*
X210087809Y-94530987D01*
X210229942Y-94472113D01*
X210357859Y-94386642D01*
X210466642Y-94277859D01*
X210552113Y-94149942D01*
X210610987Y-94007809D01*
X210641000Y-93856922D01*
X210641000Y-93703078D01*
X211779000Y-93703078D01*
X211779000Y-93856922D01*
X211809013Y-94007809D01*
X211867887Y-94149942D01*
X211953358Y-94277859D01*
X212062141Y-94386642D01*
X212190058Y-94472113D01*
X212332191Y-94530987D01*
X212483078Y-94561000D01*
X212636922Y-94561000D01*
X212787809Y-94530987D01*
X212929942Y-94472113D01*
X213057859Y-94386642D01*
X213166642Y-94277859D01*
X213252113Y-94149942D01*
X213310987Y-94007809D01*
X213341000Y-93856922D01*
X213341000Y-93703078D01*
X214479000Y-93703078D01*
X214479000Y-93856922D01*
X214509013Y-94007809D01*
X214567887Y-94149942D01*
X214653358Y-94277859D01*
X214762141Y-94386642D01*
X214890058Y-94472113D01*
X215032191Y-94530987D01*
X215183078Y-94561000D01*
X215336922Y-94561000D01*
X215487809Y-94530987D01*
X215629942Y-94472113D01*
X215757859Y-94386642D01*
X215866642Y-94277859D01*
X215952113Y-94149942D01*
X215960373Y-94130000D01*
X219073157Y-94130000D01*
X219073157Y-95830000D01*
X219080513Y-95904689D01*
X219102299Y-95976508D01*
X219137678Y-96042696D01*
X219185289Y-96100711D01*
X219243304Y-96148322D01*
X219309492Y-96183701D01*
X219381311Y-96205487D01*
X219456000Y-96212843D01*
X221156000Y-96212843D01*
X221230689Y-96205487D01*
X221302508Y-96183701D01*
X221368696Y-96148322D01*
X221426711Y-96100711D01*
X221474322Y-96042696D01*
X221509701Y-95976508D01*
X221531487Y-95904689D01*
X221538843Y-95830000D01*
X221538843Y-94130000D01*
X223049157Y-94130000D01*
X223049157Y-95830000D01*
X223056513Y-95904689D01*
X223078299Y-95976508D01*
X223113678Y-96042696D01*
X223161289Y-96100711D01*
X223219304Y-96148322D01*
X223285492Y-96183701D01*
X223357311Y-96205487D01*
X223432000Y-96212843D01*
X225132000Y-96212843D01*
X225206689Y-96205487D01*
X225278508Y-96183701D01*
X225344696Y-96148322D01*
X225402711Y-96100711D01*
X225450322Y-96042696D01*
X225485701Y-95976508D01*
X225507487Y-95904689D01*
X225514843Y-95830000D01*
X225514843Y-94130000D01*
X225507487Y-94055311D01*
X225485701Y-93983492D01*
X225450322Y-93917304D01*
X225402711Y-93859289D01*
X225344696Y-93811678D01*
X225278508Y-93776299D01*
X225206689Y-93754513D01*
X225132000Y-93747157D01*
X223432000Y-93747157D01*
X223357311Y-93754513D01*
X223285492Y-93776299D01*
X223219304Y-93811678D01*
X223161289Y-93859289D01*
X223113678Y-93917304D01*
X223078299Y-93983492D01*
X223056513Y-94055311D01*
X223049157Y-94130000D01*
X221538843Y-94130000D01*
X221531487Y-94055311D01*
X221509701Y-93983492D01*
X221474322Y-93917304D01*
X221426711Y-93859289D01*
X221368696Y-93811678D01*
X221302508Y-93776299D01*
X221230689Y-93754513D01*
X221156000Y-93747157D01*
X219456000Y-93747157D01*
X219381311Y-93754513D01*
X219309492Y-93776299D01*
X219243304Y-93811678D01*
X219185289Y-93859289D01*
X219137678Y-93917304D01*
X219102299Y-93983492D01*
X219080513Y-94055311D01*
X219073157Y-94130000D01*
X215960373Y-94130000D01*
X216010987Y-94007809D01*
X216041000Y-93856922D01*
X216041000Y-93703078D01*
X216010987Y-93552191D01*
X215952113Y-93410058D01*
X215866642Y-93282141D01*
X215757859Y-93173358D01*
X215629942Y-93087887D01*
X215487809Y-93029013D01*
X215336922Y-92999000D01*
X215183078Y-92999000D01*
X215032191Y-93029013D01*
X214890058Y-93087887D01*
X214762141Y-93173358D01*
X214653358Y-93282141D01*
X214567887Y-93410058D01*
X214509013Y-93552191D01*
X214479000Y-93703078D01*
X213341000Y-93703078D01*
X213310987Y-93552191D01*
X213252113Y-93410058D01*
X213166642Y-93282141D01*
X213057859Y-93173358D01*
X212929942Y-93087887D01*
X212787809Y-93029013D01*
X212636922Y-92999000D01*
X212483078Y-92999000D01*
X212332191Y-93029013D01*
X212190058Y-93087887D01*
X212062141Y-93173358D01*
X211953358Y-93282141D01*
X211867887Y-93410058D01*
X211809013Y-93552191D01*
X211779000Y-93703078D01*
X210641000Y-93703078D01*
X210610987Y-93552191D01*
X210552113Y-93410058D01*
X210466642Y-93282141D01*
X210357859Y-93173358D01*
X210229942Y-93087887D01*
X210087809Y-93029013D01*
X209936922Y-92999000D01*
X209783078Y-92999000D01*
X209632191Y-93029013D01*
X209490058Y-93087887D01*
X209362141Y-93173358D01*
X209253358Y-93282141D01*
X209167887Y-93410058D01*
X209109013Y-93552191D01*
X209079000Y-93703078D01*
X207941000Y-93703078D01*
X207910987Y-93552191D01*
X207852113Y-93410058D01*
X207766642Y-93282141D01*
X207657859Y-93173358D01*
X207529942Y-93087887D01*
X207387809Y-93029013D01*
X207236922Y-92999000D01*
X207083078Y-92999000D01*
X206932191Y-93029013D01*
X206790058Y-93087887D01*
X206662141Y-93173358D01*
X206553358Y-93282141D01*
X206467887Y-93410058D01*
X206409013Y-93552191D01*
X206379000Y-93703078D01*
X205663800Y-93703078D01*
X205663800Y-92318757D01*
X219075000Y-92318757D01*
X219075000Y-92561243D01*
X219122307Y-92799069D01*
X219215102Y-93023097D01*
X219349820Y-93224717D01*
X219521283Y-93396180D01*
X219722903Y-93530898D01*
X219946931Y-93623693D01*
X220184757Y-93671000D01*
X220427243Y-93671000D01*
X220665069Y-93623693D01*
X220889097Y-93530898D01*
X221090717Y-93396180D01*
X221262180Y-93224717D01*
X221396898Y-93023097D01*
X221489693Y-92799069D01*
X221537000Y-92561243D01*
X221537000Y-92318757D01*
X223051000Y-92318757D01*
X223051000Y-92561243D01*
X223098307Y-92799069D01*
X223191102Y-93023097D01*
X223325820Y-93224717D01*
X223497283Y-93396180D01*
X223698903Y-93530898D01*
X223922931Y-93623693D01*
X224160757Y-93671000D01*
X224403243Y-93671000D01*
X224641069Y-93623693D01*
X224865097Y-93530898D01*
X225066717Y-93396180D01*
X225238180Y-93224717D01*
X225372898Y-93023097D01*
X225465693Y-92799069D01*
X225513000Y-92561243D01*
X225513000Y-92318757D01*
X225465693Y-92080931D01*
X225372898Y-91856903D01*
X225238180Y-91655283D01*
X225066717Y-91483820D01*
X224865097Y-91349102D01*
X224641069Y-91256307D01*
X224403243Y-91209000D01*
X224160757Y-91209000D01*
X223922931Y-91256307D01*
X223698903Y-91349102D01*
X223497283Y-91483820D01*
X223325820Y-91655283D01*
X223191102Y-91856903D01*
X223098307Y-92080931D01*
X223051000Y-92318757D01*
X221537000Y-92318757D01*
X221489693Y-92080931D01*
X221396898Y-91856903D01*
X221262180Y-91655283D01*
X221090717Y-91483820D01*
X220889097Y-91349102D01*
X220665069Y-91256307D01*
X220427243Y-91209000D01*
X220184757Y-91209000D01*
X219946931Y-91256307D01*
X219722903Y-91349102D01*
X219521283Y-91483820D01*
X219349820Y-91655283D01*
X219215102Y-91856903D01*
X219122307Y-92080931D01*
X219075000Y-92318757D01*
X205663800Y-92318757D01*
X205663800Y-89204078D01*
X207562500Y-89204078D01*
X207562500Y-89357922D01*
X207592513Y-89508809D01*
X207651387Y-89650942D01*
X207736858Y-89778859D01*
X207845641Y-89887642D01*
X207973558Y-89973113D01*
X208115691Y-90031987D01*
X208266578Y-90062000D01*
X208420422Y-90062000D01*
X208571309Y-90031987D01*
X208713442Y-89973113D01*
X208841359Y-89887642D01*
X208950142Y-89778859D01*
X209035613Y-89650942D01*
X209094487Y-89508809D01*
X209124500Y-89357922D01*
X209124500Y-89204078D01*
X212833000Y-89204078D01*
X212833000Y-89357922D01*
X212863013Y-89508809D01*
X212921887Y-89650942D01*
X213007358Y-89778859D01*
X213116141Y-89887642D01*
X213244058Y-89973113D01*
X213386191Y-90031987D01*
X213537078Y-90062000D01*
X213690922Y-90062000D01*
X213841809Y-90031987D01*
X213983942Y-89973113D01*
X214111859Y-89887642D01*
X214220642Y-89778859D01*
X214220710Y-89778757D01*
X219075000Y-89778757D01*
X219075000Y-90021243D01*
X219122307Y-90259069D01*
X219215102Y-90483097D01*
X219349820Y-90684717D01*
X219521283Y-90856180D01*
X219722903Y-90990898D01*
X219946931Y-91083693D01*
X220184757Y-91131000D01*
X220427243Y-91131000D01*
X220665069Y-91083693D01*
X220889097Y-90990898D01*
X221090717Y-90856180D01*
X221262180Y-90684717D01*
X221396898Y-90483097D01*
X221489693Y-90259069D01*
X221537000Y-90021243D01*
X221537000Y-89778757D01*
X223051000Y-89778757D01*
X223051000Y-90021243D01*
X223098307Y-90259069D01*
X223191102Y-90483097D01*
X223325820Y-90684717D01*
X223497283Y-90856180D01*
X223698903Y-90990898D01*
X223922931Y-91083693D01*
X224160757Y-91131000D01*
X224403243Y-91131000D01*
X224641069Y-91083693D01*
X224865097Y-90990898D01*
X225066717Y-90856180D01*
X225238180Y-90684717D01*
X225372898Y-90483097D01*
X225465693Y-90259069D01*
X225513000Y-90021243D01*
X225513000Y-89778757D01*
X225465693Y-89540931D01*
X225372898Y-89316903D01*
X225238180Y-89115283D01*
X225066717Y-88943820D01*
X224865097Y-88809102D01*
X224641069Y-88716307D01*
X224403243Y-88669000D01*
X224160757Y-88669000D01*
X223922931Y-88716307D01*
X223698903Y-88809102D01*
X223497283Y-88943820D01*
X223325820Y-89115283D01*
X223191102Y-89316903D01*
X223098307Y-89540931D01*
X223051000Y-89778757D01*
X221537000Y-89778757D01*
X221489693Y-89540931D01*
X221396898Y-89316903D01*
X221262180Y-89115283D01*
X221090717Y-88943820D01*
X220889097Y-88809102D01*
X220665069Y-88716307D01*
X220427243Y-88669000D01*
X220184757Y-88669000D01*
X219946931Y-88716307D01*
X219722903Y-88809102D01*
X219521283Y-88943820D01*
X219349820Y-89115283D01*
X219215102Y-89316903D01*
X219122307Y-89540931D01*
X219075000Y-89778757D01*
X214220710Y-89778757D01*
X214306113Y-89650942D01*
X214364987Y-89508809D01*
X214395000Y-89357922D01*
X214395000Y-89204078D01*
X214364987Y-89053191D01*
X214306113Y-88911058D01*
X214220642Y-88783141D01*
X214111859Y-88674358D01*
X213983942Y-88588887D01*
X213841809Y-88530013D01*
X213690922Y-88500000D01*
X213537078Y-88500000D01*
X213386191Y-88530013D01*
X213244058Y-88588887D01*
X213116141Y-88674358D01*
X213007358Y-88783141D01*
X212921887Y-88911058D01*
X212863013Y-89053191D01*
X212833000Y-89204078D01*
X209124500Y-89204078D01*
X209094487Y-89053191D01*
X209035613Y-88911058D01*
X208950142Y-88783141D01*
X208841359Y-88674358D01*
X208713442Y-88588887D01*
X208571309Y-88530013D01*
X208420422Y-88500000D01*
X208266578Y-88500000D01*
X208115691Y-88530013D01*
X207973558Y-88588887D01*
X207845641Y-88674358D01*
X207736858Y-88783141D01*
X207651387Y-88911058D01*
X207592513Y-89053191D01*
X207562500Y-89204078D01*
X205663800Y-89204078D01*
X205663800Y-87528400D01*
X205661360Y-87503624D01*
X205654133Y-87479799D01*
X205642397Y-87457843D01*
X205626603Y-87438597D01*
X205607357Y-87422803D01*
X205585401Y-87411067D01*
X205561576Y-87403840D01*
X205536800Y-87401400D01*
X201828400Y-87401400D01*
X201803624Y-87403840D01*
X201779799Y-87411067D01*
X201757843Y-87422803D01*
X201738597Y-87438597D01*
X201722803Y-87457843D01*
X201711067Y-87479799D01*
X201703840Y-87503624D01*
X201701400Y-87528400D01*
X201701400Y-91465400D01*
X187172600Y-91465400D01*
X187172600Y-86410078D01*
X215500000Y-86410078D01*
X215500000Y-86563922D01*
X215530013Y-86714809D01*
X215588887Y-86856942D01*
X215674358Y-86984859D01*
X215783141Y-87093642D01*
X215911058Y-87179113D01*
X216053191Y-87237987D01*
X216204078Y-87268000D01*
X216357922Y-87268000D01*
X216504937Y-87238757D01*
X219075000Y-87238757D01*
X219075000Y-87481243D01*
X219122307Y-87719069D01*
X219215102Y-87943097D01*
X219349820Y-88144717D01*
X219521283Y-88316180D01*
X219722903Y-88450898D01*
X219946931Y-88543693D01*
X220184757Y-88591000D01*
X220427243Y-88591000D01*
X220665069Y-88543693D01*
X220889097Y-88450898D01*
X221090717Y-88316180D01*
X221262180Y-88144717D01*
X221396898Y-87943097D01*
X221489693Y-87719069D01*
X221537000Y-87481243D01*
X221537000Y-87238757D01*
X223051000Y-87238757D01*
X223051000Y-87481243D01*
X223098307Y-87719069D01*
X223191102Y-87943097D01*
X223325820Y-88144717D01*
X223497283Y-88316180D01*
X223698903Y-88450898D01*
X223922931Y-88543693D01*
X224160757Y-88591000D01*
X224403243Y-88591000D01*
X224641069Y-88543693D01*
X224865097Y-88450898D01*
X225066717Y-88316180D01*
X225238180Y-88144717D01*
X225372898Y-87943097D01*
X225465693Y-87719069D01*
X225513000Y-87481243D01*
X225513000Y-87238757D01*
X225465693Y-87000931D01*
X225372898Y-86776903D01*
X225238180Y-86575283D01*
X225066717Y-86403820D01*
X224865097Y-86269102D01*
X224641069Y-86176307D01*
X224403243Y-86129000D01*
X224160757Y-86129000D01*
X223922931Y-86176307D01*
X223698903Y-86269102D01*
X223497283Y-86403820D01*
X223325820Y-86575283D01*
X223191102Y-86776903D01*
X223098307Y-87000931D01*
X223051000Y-87238757D01*
X221537000Y-87238757D01*
X221489693Y-87000931D01*
X221396898Y-86776903D01*
X221262180Y-86575283D01*
X221090717Y-86403820D01*
X220889097Y-86269102D01*
X220665069Y-86176307D01*
X220427243Y-86129000D01*
X220184757Y-86129000D01*
X219946931Y-86176307D01*
X219722903Y-86269102D01*
X219521283Y-86403820D01*
X219349820Y-86575283D01*
X219215102Y-86776903D01*
X219122307Y-87000931D01*
X219075000Y-87238757D01*
X216504937Y-87238757D01*
X216508809Y-87237987D01*
X216650942Y-87179113D01*
X216778859Y-87093642D01*
X216887642Y-86984859D01*
X216973113Y-86856942D01*
X217031987Y-86714809D01*
X217062000Y-86563922D01*
X217062000Y-86410078D01*
X217031987Y-86259191D01*
X216973113Y-86117058D01*
X216887642Y-85989141D01*
X216778859Y-85880358D01*
X216650942Y-85794887D01*
X216508809Y-85736013D01*
X216357922Y-85706000D01*
X216204078Y-85706000D01*
X216053191Y-85736013D01*
X215911058Y-85794887D01*
X215783141Y-85880358D01*
X215674358Y-85989141D01*
X215588887Y-86117058D01*
X215530013Y-86259191D01*
X215500000Y-86410078D01*
X187172600Y-86410078D01*
X187172600Y-84698757D01*
X219075000Y-84698757D01*
X219075000Y-84941243D01*
X219122307Y-85179069D01*
X219215102Y-85403097D01*
X219349820Y-85604717D01*
X219521283Y-85776180D01*
X219722903Y-85910898D01*
X219946931Y-86003693D01*
X220184757Y-86051000D01*
X220427243Y-86051000D01*
X220665069Y-86003693D01*
X220889097Y-85910898D01*
X221090717Y-85776180D01*
X221262180Y-85604717D01*
X221396898Y-85403097D01*
X221489693Y-85179069D01*
X221537000Y-84941243D01*
X221537000Y-84698757D01*
X223051000Y-84698757D01*
X223051000Y-84941243D01*
X223098307Y-85179069D01*
X223191102Y-85403097D01*
X223325820Y-85604717D01*
X223497283Y-85776180D01*
X223698903Y-85910898D01*
X223922931Y-86003693D01*
X224160757Y-86051000D01*
X224403243Y-86051000D01*
X224641069Y-86003693D01*
X224865097Y-85910898D01*
X225066717Y-85776180D01*
X225238180Y-85604717D01*
X225372898Y-85403097D01*
X225465693Y-85179069D01*
X225513000Y-84941243D01*
X225513000Y-84698757D01*
X225465693Y-84460931D01*
X225372898Y-84236903D01*
X225238180Y-84035283D01*
X225066717Y-83863820D01*
X224865097Y-83729102D01*
X224641069Y-83636307D01*
X224403243Y-83589000D01*
X224160757Y-83589000D01*
X223922931Y-83636307D01*
X223698903Y-83729102D01*
X223497283Y-83863820D01*
X223325820Y-84035283D01*
X223191102Y-84236903D01*
X223098307Y-84460931D01*
X223051000Y-84698757D01*
X221537000Y-84698757D01*
X221489693Y-84460931D01*
X221396898Y-84236903D01*
X221262180Y-84035283D01*
X221090717Y-83863820D01*
X220889097Y-83729102D01*
X220665069Y-83636307D01*
X220427243Y-83589000D01*
X220184757Y-83589000D01*
X219946931Y-83636307D01*
X219722903Y-83729102D01*
X219521283Y-83863820D01*
X219349820Y-84035283D01*
X219215102Y-84236903D01*
X219122307Y-84460931D01*
X219075000Y-84698757D01*
X187172600Y-84698757D01*
X187172600Y-83808998D01*
X187270795Y-83955956D01*
X187484044Y-84169205D01*
X187734799Y-84336755D01*
X188013424Y-84452165D01*
X188309210Y-84511000D01*
X188610790Y-84511000D01*
X188906576Y-84452165D01*
X189185201Y-84336755D01*
X189435956Y-84169205D01*
X189649205Y-83955956D01*
X189655500Y-83946535D01*
X189655500Y-83960422D01*
X189685513Y-84111309D01*
X189744387Y-84253442D01*
X189829858Y-84381359D01*
X189938641Y-84490142D01*
X190066558Y-84575613D01*
X190208691Y-84634487D01*
X190359578Y-84664500D01*
X190513422Y-84664500D01*
X190664309Y-84634487D01*
X190806442Y-84575613D01*
X190934359Y-84490142D01*
X191043142Y-84381359D01*
X191128613Y-84253442D01*
X191187487Y-84111309D01*
X191217500Y-83960422D01*
X191217500Y-83806578D01*
X191187487Y-83655691D01*
X191139516Y-83539878D01*
X193478200Y-83539878D01*
X193478200Y-83693722D01*
X193508213Y-83844609D01*
X193567087Y-83986742D01*
X193652558Y-84114659D01*
X193761341Y-84223442D01*
X193889258Y-84308913D01*
X194031391Y-84367787D01*
X194182278Y-84397800D01*
X194336122Y-84397800D01*
X194487009Y-84367787D01*
X194629142Y-84308913D01*
X194757059Y-84223442D01*
X194865842Y-84114659D01*
X194951313Y-83986742D01*
X195010187Y-83844609D01*
X195040200Y-83693722D01*
X195040200Y-83539878D01*
X195010187Y-83388991D01*
X194967476Y-83285878D01*
X198253400Y-83285878D01*
X198253400Y-83439722D01*
X198283413Y-83590609D01*
X198342287Y-83732742D01*
X198427758Y-83860659D01*
X198536541Y-83969442D01*
X198664458Y-84054913D01*
X198806591Y-84113787D01*
X198957478Y-84143800D01*
X199111322Y-84143800D01*
X199262209Y-84113787D01*
X199404342Y-84054913D01*
X199532259Y-83969442D01*
X199641042Y-83860659D01*
X199726513Y-83732742D01*
X199785387Y-83590609D01*
X199815400Y-83439722D01*
X199815400Y-83285878D01*
X199785387Y-83134991D01*
X199726513Y-82992858D01*
X199641042Y-82864941D01*
X199605311Y-82829210D01*
X202329000Y-82829210D01*
X202329000Y-83130790D01*
X202387835Y-83426576D01*
X202503245Y-83705201D01*
X202670795Y-83955956D01*
X202884044Y-84169205D01*
X203134799Y-84336755D01*
X203413424Y-84452165D01*
X203709210Y-84511000D01*
X204010790Y-84511000D01*
X204306576Y-84452165D01*
X204585201Y-84336755D01*
X204835956Y-84169205D01*
X205049205Y-83955956D01*
X205216755Y-83705201D01*
X205332165Y-83426576D01*
X205391000Y-83130790D01*
X205391000Y-82829210D01*
X205332165Y-82533424D01*
X205216755Y-82254799D01*
X205152582Y-82158757D01*
X219075000Y-82158757D01*
X219075000Y-82401243D01*
X219122307Y-82639069D01*
X219215102Y-82863097D01*
X219349820Y-83064717D01*
X219521283Y-83236180D01*
X219722903Y-83370898D01*
X219946931Y-83463693D01*
X220184757Y-83511000D01*
X220427243Y-83511000D01*
X220665069Y-83463693D01*
X220889097Y-83370898D01*
X221090717Y-83236180D01*
X221262180Y-83064717D01*
X221396898Y-82863097D01*
X221489693Y-82639069D01*
X221537000Y-82401243D01*
X221537000Y-82158757D01*
X223051000Y-82158757D01*
X223051000Y-82401243D01*
X223098307Y-82639069D01*
X223191102Y-82863097D01*
X223325820Y-83064717D01*
X223497283Y-83236180D01*
X223698903Y-83370898D01*
X223922931Y-83463693D01*
X224160757Y-83511000D01*
X224403243Y-83511000D01*
X224641069Y-83463693D01*
X224865097Y-83370898D01*
X225066717Y-83236180D01*
X225238180Y-83064717D01*
X225372898Y-82863097D01*
X225465693Y-82639069D01*
X225513000Y-82401243D01*
X225513000Y-82158757D01*
X225465693Y-81920931D01*
X225372898Y-81696903D01*
X225238180Y-81495283D01*
X225066717Y-81323820D01*
X224865097Y-81189102D01*
X224641069Y-81096307D01*
X224403243Y-81049000D01*
X224160757Y-81049000D01*
X223922931Y-81096307D01*
X223698903Y-81189102D01*
X223497283Y-81323820D01*
X223325820Y-81495283D01*
X223191102Y-81696903D01*
X223098307Y-81920931D01*
X223051000Y-82158757D01*
X221537000Y-82158757D01*
X221489693Y-81920931D01*
X221396898Y-81696903D01*
X221262180Y-81495283D01*
X221090717Y-81323820D01*
X220889097Y-81189102D01*
X220665069Y-81096307D01*
X220427243Y-81049000D01*
X220184757Y-81049000D01*
X219946931Y-81096307D01*
X219722903Y-81189102D01*
X219521283Y-81323820D01*
X219349820Y-81495283D01*
X219215102Y-81696903D01*
X219122307Y-81920931D01*
X219075000Y-82158757D01*
X205152582Y-82158757D01*
X205049205Y-82004044D01*
X204835956Y-81790795D01*
X204585201Y-81623245D01*
X204306576Y-81507835D01*
X204010790Y-81449000D01*
X203709210Y-81449000D01*
X203413424Y-81507835D01*
X203134799Y-81623245D01*
X202884044Y-81790795D01*
X202670795Y-82004044D01*
X202503245Y-82254799D01*
X202387835Y-82533424D01*
X202329000Y-82829210D01*
X199605311Y-82829210D01*
X199532259Y-82756158D01*
X199404342Y-82670687D01*
X199262209Y-82611813D01*
X199111322Y-82581800D01*
X198957478Y-82581800D01*
X198806591Y-82611813D01*
X198664458Y-82670687D01*
X198536541Y-82756158D01*
X198427758Y-82864941D01*
X198342287Y-82992858D01*
X198283413Y-83134991D01*
X198253400Y-83285878D01*
X194967476Y-83285878D01*
X194951313Y-83246858D01*
X194865842Y-83118941D01*
X194757059Y-83010158D01*
X194629142Y-82924687D01*
X194487009Y-82865813D01*
X194336122Y-82835800D01*
X194182278Y-82835800D01*
X194031391Y-82865813D01*
X193889258Y-82924687D01*
X193761341Y-83010158D01*
X193652558Y-83118941D01*
X193567087Y-83246858D01*
X193508213Y-83388991D01*
X193478200Y-83539878D01*
X191139516Y-83539878D01*
X191128613Y-83513558D01*
X191043142Y-83385641D01*
X190934359Y-83276858D01*
X190806442Y-83191387D01*
X190664309Y-83132513D01*
X190513422Y-83102500D01*
X190359578Y-83102500D01*
X190208691Y-83132513D01*
X190066558Y-83191387D01*
X189965518Y-83258900D01*
X189991000Y-83130790D01*
X189991000Y-82829210D01*
X189932165Y-82533424D01*
X189816755Y-82254799D01*
X189649205Y-82004044D01*
X189546739Y-81901578D01*
X190925500Y-81901578D01*
X190925500Y-82055422D01*
X190955513Y-82206309D01*
X191014387Y-82348442D01*
X191099858Y-82476359D01*
X191208641Y-82585142D01*
X191336558Y-82670613D01*
X191478691Y-82729487D01*
X191629578Y-82759500D01*
X191783422Y-82759500D01*
X191934309Y-82729487D01*
X192076442Y-82670613D01*
X192204359Y-82585142D01*
X192313142Y-82476359D01*
X192398613Y-82348442D01*
X192457487Y-82206309D01*
X192487500Y-82055422D01*
X192487500Y-81901578D01*
X196196000Y-81901578D01*
X196196000Y-82055422D01*
X196226013Y-82206309D01*
X196284887Y-82348442D01*
X196370358Y-82476359D01*
X196479141Y-82585142D01*
X196607058Y-82670613D01*
X196749191Y-82729487D01*
X196900078Y-82759500D01*
X197053922Y-82759500D01*
X197204809Y-82729487D01*
X197346942Y-82670613D01*
X197474859Y-82585142D01*
X197583642Y-82476359D01*
X197669113Y-82348442D01*
X197727987Y-82206309D01*
X197758000Y-82055422D01*
X197758000Y-81901578D01*
X200641000Y-81901578D01*
X200641000Y-82055422D01*
X200671013Y-82206309D01*
X200729887Y-82348442D01*
X200815358Y-82476359D01*
X200924141Y-82585142D01*
X201052058Y-82670613D01*
X201194191Y-82729487D01*
X201345078Y-82759500D01*
X201498922Y-82759500D01*
X201649809Y-82729487D01*
X201791942Y-82670613D01*
X201919859Y-82585142D01*
X202028642Y-82476359D01*
X202114113Y-82348442D01*
X202172987Y-82206309D01*
X202203000Y-82055422D01*
X202203000Y-81901578D01*
X202172987Y-81750691D01*
X202114113Y-81608558D01*
X202028642Y-81480641D01*
X201919859Y-81371858D01*
X201791942Y-81286387D01*
X201649809Y-81227513D01*
X201498922Y-81197500D01*
X201345078Y-81197500D01*
X201194191Y-81227513D01*
X201052058Y-81286387D01*
X200924141Y-81371858D01*
X200815358Y-81480641D01*
X200729887Y-81608558D01*
X200671013Y-81750691D01*
X200641000Y-81901578D01*
X197758000Y-81901578D01*
X197727987Y-81750691D01*
X197669113Y-81608558D01*
X197583642Y-81480641D01*
X197474859Y-81371858D01*
X197346942Y-81286387D01*
X197204809Y-81227513D01*
X197053922Y-81197500D01*
X196900078Y-81197500D01*
X196749191Y-81227513D01*
X196607058Y-81286387D01*
X196479141Y-81371858D01*
X196370358Y-81480641D01*
X196284887Y-81608558D01*
X196226013Y-81750691D01*
X196196000Y-81901578D01*
X192487500Y-81901578D01*
X192457487Y-81750691D01*
X192398613Y-81608558D01*
X192313142Y-81480641D01*
X192204359Y-81371858D01*
X192076442Y-81286387D01*
X191934309Y-81227513D01*
X191783422Y-81197500D01*
X191629578Y-81197500D01*
X191478691Y-81227513D01*
X191336558Y-81286387D01*
X191208641Y-81371858D01*
X191099858Y-81480641D01*
X191014387Y-81608558D01*
X190955513Y-81750691D01*
X190925500Y-81901578D01*
X189546739Y-81901578D01*
X189435956Y-81790795D01*
X189185201Y-81623245D01*
X188906576Y-81507835D01*
X188610790Y-81449000D01*
X188309210Y-81449000D01*
X188013424Y-81507835D01*
X187734799Y-81623245D01*
X187484044Y-81790795D01*
X187270795Y-82004044D01*
X187172600Y-82151002D01*
X187172600Y-80645000D01*
X207798477Y-80645000D01*
X207783058Y-80651387D01*
M02*
