G04 #@! TF.GenerationSoftware,KiCad,Pcbnew,(5.1.5)-3*
G04 #@! TF.CreationDate,2020-10-24T18:19:01+09:00*
G04 #@! TF.ProjectId,wallswitch_schematic_alpha,77616c6c-7377-4697-9463-685f73636865,rev?*
G04 #@! TF.SameCoordinates,Original*
G04 #@! TF.FileFunction,Copper,L1,Top*
G04 #@! TF.FilePolarity,Positive*
%FSLAX46Y46*%
G04 Gerber Fmt 4.6, Leading zero omitted, Abs format (unit mm)*
G04 Created by KiCad (PCBNEW (5.1.5)-3) date 2020-10-24 18:19:01*
%MOMM*%
%LPD*%
G04 APERTURE LIST*
%ADD10R,5.000000X5.000000*%
%ADD11R,0.900000X2.000000*%
%ADD12R,2.000000X0.900000*%
%ADD13C,1.800000*%
%ADD14C,2.300000*%
%ADD15R,2.000000X2.300000*%
%ADD16C,3.000000*%
%ADD17C,2.500000*%
%ADD18C,0.100000*%
%ADD19R,1.500000X1.500000*%
%ADD20R,1.700000X1.700000*%
%ADD21O,1.700000X1.700000*%
%ADD22R,3.000000X3.000000*%
%ADD23O,5.500000X3.800000*%
%ADD24O,5.300000X3.800000*%
%ADD25C,0.800000*%
%ADD26C,0.250000*%
%ADD27C,1.000000*%
%ADD28C,0.254000*%
G04 APERTURE END LIST*
D10*
X218215000Y-108080000D03*
D11*
X225715000Y-100580000D03*
X224445000Y-100580000D03*
X223175000Y-100580000D03*
X221905000Y-100580000D03*
X220635000Y-100580000D03*
X219365000Y-100580000D03*
X218095000Y-100580000D03*
X216825000Y-100580000D03*
X215555000Y-100580000D03*
X214285000Y-100580000D03*
X213015000Y-100580000D03*
X211745000Y-100580000D03*
X210475000Y-100580000D03*
X209205000Y-100580000D03*
D12*
X208205000Y-103365000D03*
X208205000Y-104635000D03*
X208205000Y-105905000D03*
X208205000Y-107175000D03*
X208205000Y-108445000D03*
X208205000Y-109715000D03*
X208205000Y-110985000D03*
X208205000Y-112255000D03*
X208205000Y-113525000D03*
X208205000Y-114795000D03*
D11*
X209205000Y-117580000D03*
X210475000Y-117580000D03*
X211745000Y-117580000D03*
X213015000Y-117580000D03*
X214285000Y-117580000D03*
X215555000Y-117580000D03*
X216825000Y-117580000D03*
X218095000Y-117580000D03*
X219365000Y-117580000D03*
X220635000Y-117580000D03*
X221905000Y-117580000D03*
X223175000Y-117580000D03*
X224445000Y-117580000D03*
X225715000Y-117580000D03*
D13*
X158242000Y-112776000D03*
X150742000Y-111376000D03*
D14*
X188460000Y-82980000D03*
D15*
X193660000Y-112380000D03*
D14*
X198660000Y-112380000D03*
X203860000Y-82980000D03*
D16*
X145560000Y-107280000D03*
D17*
X139610000Y-105330000D03*
D16*
X139560000Y-93080000D03*
X151610000Y-93130000D03*
D17*
X151610000Y-105330000D03*
G04 #@! TA.AperFunction,SMDPad,CuDef*
D18*
G36*
X166857191Y-115269553D02*
G01*
X166878426Y-115272703D01*
X166899250Y-115277919D01*
X166919462Y-115285151D01*
X166938868Y-115294330D01*
X166957281Y-115305366D01*
X166974524Y-115318154D01*
X166990430Y-115332570D01*
X167004846Y-115348476D01*
X167017634Y-115365719D01*
X167028670Y-115384132D01*
X167037849Y-115403538D01*
X167045081Y-115423750D01*
X167050297Y-115444574D01*
X167053447Y-115465809D01*
X167054500Y-115487250D01*
X167054500Y-115924750D01*
X167053447Y-115946191D01*
X167050297Y-115967426D01*
X167045081Y-115988250D01*
X167037849Y-116008462D01*
X167028670Y-116027868D01*
X167017634Y-116046281D01*
X167004846Y-116063524D01*
X166990430Y-116079430D01*
X166974524Y-116093846D01*
X166957281Y-116106634D01*
X166938868Y-116117670D01*
X166919462Y-116126849D01*
X166899250Y-116134081D01*
X166878426Y-116139297D01*
X166857191Y-116142447D01*
X166835750Y-116143500D01*
X166323250Y-116143500D01*
X166301809Y-116142447D01*
X166280574Y-116139297D01*
X166259750Y-116134081D01*
X166239538Y-116126849D01*
X166220132Y-116117670D01*
X166201719Y-116106634D01*
X166184476Y-116093846D01*
X166168570Y-116079430D01*
X166154154Y-116063524D01*
X166141366Y-116046281D01*
X166130330Y-116027868D01*
X166121151Y-116008462D01*
X166113919Y-115988250D01*
X166108703Y-115967426D01*
X166105553Y-115946191D01*
X166104500Y-115924750D01*
X166104500Y-115487250D01*
X166105553Y-115465809D01*
X166108703Y-115444574D01*
X166113919Y-115423750D01*
X166121151Y-115403538D01*
X166130330Y-115384132D01*
X166141366Y-115365719D01*
X166154154Y-115348476D01*
X166168570Y-115332570D01*
X166184476Y-115318154D01*
X166201719Y-115305366D01*
X166220132Y-115294330D01*
X166239538Y-115285151D01*
X166259750Y-115277919D01*
X166280574Y-115272703D01*
X166301809Y-115269553D01*
X166323250Y-115268500D01*
X166835750Y-115268500D01*
X166857191Y-115269553D01*
G37*
G04 #@! TD.AperFunction*
G04 #@! TA.AperFunction,SMDPad,CuDef*
G36*
X166857191Y-113694553D02*
G01*
X166878426Y-113697703D01*
X166899250Y-113702919D01*
X166919462Y-113710151D01*
X166938868Y-113719330D01*
X166957281Y-113730366D01*
X166974524Y-113743154D01*
X166990430Y-113757570D01*
X167004846Y-113773476D01*
X167017634Y-113790719D01*
X167028670Y-113809132D01*
X167037849Y-113828538D01*
X167045081Y-113848750D01*
X167050297Y-113869574D01*
X167053447Y-113890809D01*
X167054500Y-113912250D01*
X167054500Y-114349750D01*
X167053447Y-114371191D01*
X167050297Y-114392426D01*
X167045081Y-114413250D01*
X167037849Y-114433462D01*
X167028670Y-114452868D01*
X167017634Y-114471281D01*
X167004846Y-114488524D01*
X166990430Y-114504430D01*
X166974524Y-114518846D01*
X166957281Y-114531634D01*
X166938868Y-114542670D01*
X166919462Y-114551849D01*
X166899250Y-114559081D01*
X166878426Y-114564297D01*
X166857191Y-114567447D01*
X166835750Y-114568500D01*
X166323250Y-114568500D01*
X166301809Y-114567447D01*
X166280574Y-114564297D01*
X166259750Y-114559081D01*
X166239538Y-114551849D01*
X166220132Y-114542670D01*
X166201719Y-114531634D01*
X166184476Y-114518846D01*
X166168570Y-114504430D01*
X166154154Y-114488524D01*
X166141366Y-114471281D01*
X166130330Y-114452868D01*
X166121151Y-114433462D01*
X166113919Y-114413250D01*
X166108703Y-114392426D01*
X166105553Y-114371191D01*
X166104500Y-114349750D01*
X166104500Y-113912250D01*
X166105553Y-113890809D01*
X166108703Y-113869574D01*
X166113919Y-113848750D01*
X166121151Y-113828538D01*
X166130330Y-113809132D01*
X166141366Y-113790719D01*
X166154154Y-113773476D01*
X166168570Y-113757570D01*
X166184476Y-113743154D01*
X166201719Y-113730366D01*
X166220132Y-113719330D01*
X166239538Y-113710151D01*
X166259750Y-113702919D01*
X166280574Y-113697703D01*
X166301809Y-113694553D01*
X166323250Y-113693500D01*
X166835750Y-113693500D01*
X166857191Y-113694553D01*
G37*
G04 #@! TD.AperFunction*
G04 #@! TA.AperFunction,SMDPad,CuDef*
G36*
X208737691Y-94931053D02*
G01*
X208758926Y-94934203D01*
X208779750Y-94939419D01*
X208799962Y-94946651D01*
X208819368Y-94955830D01*
X208837781Y-94966866D01*
X208855024Y-94979654D01*
X208870930Y-94994070D01*
X208885346Y-95009976D01*
X208898134Y-95027219D01*
X208909170Y-95045632D01*
X208918349Y-95065038D01*
X208925581Y-95085250D01*
X208930797Y-95106074D01*
X208933947Y-95127309D01*
X208935000Y-95148750D01*
X208935000Y-95586250D01*
X208933947Y-95607691D01*
X208930797Y-95628926D01*
X208925581Y-95649750D01*
X208918349Y-95669962D01*
X208909170Y-95689368D01*
X208898134Y-95707781D01*
X208885346Y-95725024D01*
X208870930Y-95740930D01*
X208855024Y-95755346D01*
X208837781Y-95768134D01*
X208819368Y-95779170D01*
X208799962Y-95788349D01*
X208779750Y-95795581D01*
X208758926Y-95800797D01*
X208737691Y-95803947D01*
X208716250Y-95805000D01*
X208203750Y-95805000D01*
X208182309Y-95803947D01*
X208161074Y-95800797D01*
X208140250Y-95795581D01*
X208120038Y-95788349D01*
X208100632Y-95779170D01*
X208082219Y-95768134D01*
X208064976Y-95755346D01*
X208049070Y-95740930D01*
X208034654Y-95725024D01*
X208021866Y-95707781D01*
X208010830Y-95689368D01*
X208001651Y-95669962D01*
X207994419Y-95649750D01*
X207989203Y-95628926D01*
X207986053Y-95607691D01*
X207985000Y-95586250D01*
X207985000Y-95148750D01*
X207986053Y-95127309D01*
X207989203Y-95106074D01*
X207994419Y-95085250D01*
X208001651Y-95065038D01*
X208010830Y-95045632D01*
X208021866Y-95027219D01*
X208034654Y-95009976D01*
X208049070Y-94994070D01*
X208064976Y-94979654D01*
X208082219Y-94966866D01*
X208100632Y-94955830D01*
X208120038Y-94946651D01*
X208140250Y-94939419D01*
X208161074Y-94934203D01*
X208182309Y-94931053D01*
X208203750Y-94930000D01*
X208716250Y-94930000D01*
X208737691Y-94931053D01*
G37*
G04 #@! TD.AperFunction*
G04 #@! TA.AperFunction,SMDPad,CuDef*
G36*
X208737691Y-93356053D02*
G01*
X208758926Y-93359203D01*
X208779750Y-93364419D01*
X208799962Y-93371651D01*
X208819368Y-93380830D01*
X208837781Y-93391866D01*
X208855024Y-93404654D01*
X208870930Y-93419070D01*
X208885346Y-93434976D01*
X208898134Y-93452219D01*
X208909170Y-93470632D01*
X208918349Y-93490038D01*
X208925581Y-93510250D01*
X208930797Y-93531074D01*
X208933947Y-93552309D01*
X208935000Y-93573750D01*
X208935000Y-94011250D01*
X208933947Y-94032691D01*
X208930797Y-94053926D01*
X208925581Y-94074750D01*
X208918349Y-94094962D01*
X208909170Y-94114368D01*
X208898134Y-94132781D01*
X208885346Y-94150024D01*
X208870930Y-94165930D01*
X208855024Y-94180346D01*
X208837781Y-94193134D01*
X208819368Y-94204170D01*
X208799962Y-94213349D01*
X208779750Y-94220581D01*
X208758926Y-94225797D01*
X208737691Y-94228947D01*
X208716250Y-94230000D01*
X208203750Y-94230000D01*
X208182309Y-94228947D01*
X208161074Y-94225797D01*
X208140250Y-94220581D01*
X208120038Y-94213349D01*
X208100632Y-94204170D01*
X208082219Y-94193134D01*
X208064976Y-94180346D01*
X208049070Y-94165930D01*
X208034654Y-94150024D01*
X208021866Y-94132781D01*
X208010830Y-94114368D01*
X208001651Y-94094962D01*
X207994419Y-94074750D01*
X207989203Y-94053926D01*
X207986053Y-94032691D01*
X207985000Y-94011250D01*
X207985000Y-93573750D01*
X207986053Y-93552309D01*
X207989203Y-93531074D01*
X207994419Y-93510250D01*
X208001651Y-93490038D01*
X208010830Y-93470632D01*
X208021866Y-93452219D01*
X208034654Y-93434976D01*
X208049070Y-93419070D01*
X208064976Y-93404654D01*
X208082219Y-93391866D01*
X208100632Y-93380830D01*
X208120038Y-93371651D01*
X208140250Y-93364419D01*
X208161074Y-93359203D01*
X208182309Y-93356053D01*
X208203750Y-93355000D01*
X208716250Y-93355000D01*
X208737691Y-93356053D01*
G37*
G04 #@! TD.AperFunction*
G04 #@! TA.AperFunction,SMDPad,CuDef*
G36*
X211437691Y-93356053D02*
G01*
X211458926Y-93359203D01*
X211479750Y-93364419D01*
X211499962Y-93371651D01*
X211519368Y-93380830D01*
X211537781Y-93391866D01*
X211555024Y-93404654D01*
X211570930Y-93419070D01*
X211585346Y-93434976D01*
X211598134Y-93452219D01*
X211609170Y-93470632D01*
X211618349Y-93490038D01*
X211625581Y-93510250D01*
X211630797Y-93531074D01*
X211633947Y-93552309D01*
X211635000Y-93573750D01*
X211635000Y-94011250D01*
X211633947Y-94032691D01*
X211630797Y-94053926D01*
X211625581Y-94074750D01*
X211618349Y-94094962D01*
X211609170Y-94114368D01*
X211598134Y-94132781D01*
X211585346Y-94150024D01*
X211570930Y-94165930D01*
X211555024Y-94180346D01*
X211537781Y-94193134D01*
X211519368Y-94204170D01*
X211499962Y-94213349D01*
X211479750Y-94220581D01*
X211458926Y-94225797D01*
X211437691Y-94228947D01*
X211416250Y-94230000D01*
X210903750Y-94230000D01*
X210882309Y-94228947D01*
X210861074Y-94225797D01*
X210840250Y-94220581D01*
X210820038Y-94213349D01*
X210800632Y-94204170D01*
X210782219Y-94193134D01*
X210764976Y-94180346D01*
X210749070Y-94165930D01*
X210734654Y-94150024D01*
X210721866Y-94132781D01*
X210710830Y-94114368D01*
X210701651Y-94094962D01*
X210694419Y-94074750D01*
X210689203Y-94053926D01*
X210686053Y-94032691D01*
X210685000Y-94011250D01*
X210685000Y-93573750D01*
X210686053Y-93552309D01*
X210689203Y-93531074D01*
X210694419Y-93510250D01*
X210701651Y-93490038D01*
X210710830Y-93470632D01*
X210721866Y-93452219D01*
X210734654Y-93434976D01*
X210749070Y-93419070D01*
X210764976Y-93404654D01*
X210782219Y-93391866D01*
X210800632Y-93380830D01*
X210820038Y-93371651D01*
X210840250Y-93364419D01*
X210861074Y-93359203D01*
X210882309Y-93356053D01*
X210903750Y-93355000D01*
X211416250Y-93355000D01*
X211437691Y-93356053D01*
G37*
G04 #@! TD.AperFunction*
G04 #@! TA.AperFunction,SMDPad,CuDef*
G36*
X211437691Y-94931053D02*
G01*
X211458926Y-94934203D01*
X211479750Y-94939419D01*
X211499962Y-94946651D01*
X211519368Y-94955830D01*
X211537781Y-94966866D01*
X211555024Y-94979654D01*
X211570930Y-94994070D01*
X211585346Y-95009976D01*
X211598134Y-95027219D01*
X211609170Y-95045632D01*
X211618349Y-95065038D01*
X211625581Y-95085250D01*
X211630797Y-95106074D01*
X211633947Y-95127309D01*
X211635000Y-95148750D01*
X211635000Y-95586250D01*
X211633947Y-95607691D01*
X211630797Y-95628926D01*
X211625581Y-95649750D01*
X211618349Y-95669962D01*
X211609170Y-95689368D01*
X211598134Y-95707781D01*
X211585346Y-95725024D01*
X211570930Y-95740930D01*
X211555024Y-95755346D01*
X211537781Y-95768134D01*
X211519368Y-95779170D01*
X211499962Y-95788349D01*
X211479750Y-95795581D01*
X211458926Y-95800797D01*
X211437691Y-95803947D01*
X211416250Y-95805000D01*
X210903750Y-95805000D01*
X210882309Y-95803947D01*
X210861074Y-95800797D01*
X210840250Y-95795581D01*
X210820038Y-95788349D01*
X210800632Y-95779170D01*
X210782219Y-95768134D01*
X210764976Y-95755346D01*
X210749070Y-95740930D01*
X210734654Y-95725024D01*
X210721866Y-95707781D01*
X210710830Y-95689368D01*
X210701651Y-95669962D01*
X210694419Y-95649750D01*
X210689203Y-95628926D01*
X210686053Y-95607691D01*
X210685000Y-95586250D01*
X210685000Y-95148750D01*
X210686053Y-95127309D01*
X210689203Y-95106074D01*
X210694419Y-95085250D01*
X210701651Y-95065038D01*
X210710830Y-95045632D01*
X210721866Y-95027219D01*
X210734654Y-95009976D01*
X210749070Y-94994070D01*
X210764976Y-94979654D01*
X210782219Y-94966866D01*
X210800632Y-94955830D01*
X210820038Y-94946651D01*
X210840250Y-94939419D01*
X210861074Y-94934203D01*
X210882309Y-94931053D01*
X210903750Y-94930000D01*
X211416250Y-94930000D01*
X211437691Y-94931053D01*
G37*
G04 #@! TD.AperFunction*
D19*
X209860000Y-89180000D03*
X209860000Y-81380000D03*
X215060000Y-81380000D03*
X215060000Y-89180000D03*
D20*
X220306000Y-94980000D03*
D21*
X220306000Y-92440000D03*
X220306000Y-89900000D03*
X220306000Y-87360000D03*
X220306000Y-84820000D03*
X220306000Y-82280000D03*
D22*
X140335000Y-114808000D03*
D16*
X145415000Y-114808000D03*
D22*
X140460000Y-84480000D03*
D16*
X145540000Y-84480000D03*
X150620000Y-84480000D03*
G04 #@! TA.AperFunction,SMDPad,CuDef*
D18*
G36*
X214137691Y-93343553D02*
G01*
X214158926Y-93346703D01*
X214179750Y-93351919D01*
X214199962Y-93359151D01*
X214219368Y-93368330D01*
X214237781Y-93379366D01*
X214255024Y-93392154D01*
X214270930Y-93406570D01*
X214285346Y-93422476D01*
X214298134Y-93439719D01*
X214309170Y-93458132D01*
X214318349Y-93477538D01*
X214325581Y-93497750D01*
X214330797Y-93518574D01*
X214333947Y-93539809D01*
X214335000Y-93561250D01*
X214335000Y-93998750D01*
X214333947Y-94020191D01*
X214330797Y-94041426D01*
X214325581Y-94062250D01*
X214318349Y-94082462D01*
X214309170Y-94101868D01*
X214298134Y-94120281D01*
X214285346Y-94137524D01*
X214270930Y-94153430D01*
X214255024Y-94167846D01*
X214237781Y-94180634D01*
X214219368Y-94191670D01*
X214199962Y-94200849D01*
X214179750Y-94208081D01*
X214158926Y-94213297D01*
X214137691Y-94216447D01*
X214116250Y-94217500D01*
X213603750Y-94217500D01*
X213582309Y-94216447D01*
X213561074Y-94213297D01*
X213540250Y-94208081D01*
X213520038Y-94200849D01*
X213500632Y-94191670D01*
X213482219Y-94180634D01*
X213464976Y-94167846D01*
X213449070Y-94153430D01*
X213434654Y-94137524D01*
X213421866Y-94120281D01*
X213410830Y-94101868D01*
X213401651Y-94082462D01*
X213394419Y-94062250D01*
X213389203Y-94041426D01*
X213386053Y-94020191D01*
X213385000Y-93998750D01*
X213385000Y-93561250D01*
X213386053Y-93539809D01*
X213389203Y-93518574D01*
X213394419Y-93497750D01*
X213401651Y-93477538D01*
X213410830Y-93458132D01*
X213421866Y-93439719D01*
X213434654Y-93422476D01*
X213449070Y-93406570D01*
X213464976Y-93392154D01*
X213482219Y-93379366D01*
X213500632Y-93368330D01*
X213520038Y-93359151D01*
X213540250Y-93351919D01*
X213561074Y-93346703D01*
X213582309Y-93343553D01*
X213603750Y-93342500D01*
X214116250Y-93342500D01*
X214137691Y-93343553D01*
G37*
G04 #@! TD.AperFunction*
G04 #@! TA.AperFunction,SMDPad,CuDef*
G36*
X214137691Y-94918553D02*
G01*
X214158926Y-94921703D01*
X214179750Y-94926919D01*
X214199962Y-94934151D01*
X214219368Y-94943330D01*
X214237781Y-94954366D01*
X214255024Y-94967154D01*
X214270930Y-94981570D01*
X214285346Y-94997476D01*
X214298134Y-95014719D01*
X214309170Y-95033132D01*
X214318349Y-95052538D01*
X214325581Y-95072750D01*
X214330797Y-95093574D01*
X214333947Y-95114809D01*
X214335000Y-95136250D01*
X214335000Y-95573750D01*
X214333947Y-95595191D01*
X214330797Y-95616426D01*
X214325581Y-95637250D01*
X214318349Y-95657462D01*
X214309170Y-95676868D01*
X214298134Y-95695281D01*
X214285346Y-95712524D01*
X214270930Y-95728430D01*
X214255024Y-95742846D01*
X214237781Y-95755634D01*
X214219368Y-95766670D01*
X214199962Y-95775849D01*
X214179750Y-95783081D01*
X214158926Y-95788297D01*
X214137691Y-95791447D01*
X214116250Y-95792500D01*
X213603750Y-95792500D01*
X213582309Y-95791447D01*
X213561074Y-95788297D01*
X213540250Y-95783081D01*
X213520038Y-95775849D01*
X213500632Y-95766670D01*
X213482219Y-95755634D01*
X213464976Y-95742846D01*
X213449070Y-95728430D01*
X213434654Y-95712524D01*
X213421866Y-95695281D01*
X213410830Y-95676868D01*
X213401651Y-95657462D01*
X213394419Y-95637250D01*
X213389203Y-95616426D01*
X213386053Y-95595191D01*
X213385000Y-95573750D01*
X213385000Y-95136250D01*
X213386053Y-95114809D01*
X213389203Y-95093574D01*
X213394419Y-95072750D01*
X213401651Y-95052538D01*
X213410830Y-95033132D01*
X213421866Y-95014719D01*
X213434654Y-94997476D01*
X213449070Y-94981570D01*
X213464976Y-94967154D01*
X213482219Y-94954366D01*
X213500632Y-94943330D01*
X213520038Y-94934151D01*
X213540250Y-94926919D01*
X213561074Y-94921703D01*
X213582309Y-94918553D01*
X213603750Y-94917500D01*
X214116250Y-94917500D01*
X214137691Y-94918553D01*
G37*
G04 #@! TD.AperFunction*
G04 #@! TA.AperFunction,SMDPad,CuDef*
G36*
X216837691Y-93356053D02*
G01*
X216858926Y-93359203D01*
X216879750Y-93364419D01*
X216899962Y-93371651D01*
X216919368Y-93380830D01*
X216937781Y-93391866D01*
X216955024Y-93404654D01*
X216970930Y-93419070D01*
X216985346Y-93434976D01*
X216998134Y-93452219D01*
X217009170Y-93470632D01*
X217018349Y-93490038D01*
X217025581Y-93510250D01*
X217030797Y-93531074D01*
X217033947Y-93552309D01*
X217035000Y-93573750D01*
X217035000Y-94011250D01*
X217033947Y-94032691D01*
X217030797Y-94053926D01*
X217025581Y-94074750D01*
X217018349Y-94094962D01*
X217009170Y-94114368D01*
X216998134Y-94132781D01*
X216985346Y-94150024D01*
X216970930Y-94165930D01*
X216955024Y-94180346D01*
X216937781Y-94193134D01*
X216919368Y-94204170D01*
X216899962Y-94213349D01*
X216879750Y-94220581D01*
X216858926Y-94225797D01*
X216837691Y-94228947D01*
X216816250Y-94230000D01*
X216303750Y-94230000D01*
X216282309Y-94228947D01*
X216261074Y-94225797D01*
X216240250Y-94220581D01*
X216220038Y-94213349D01*
X216200632Y-94204170D01*
X216182219Y-94193134D01*
X216164976Y-94180346D01*
X216149070Y-94165930D01*
X216134654Y-94150024D01*
X216121866Y-94132781D01*
X216110830Y-94114368D01*
X216101651Y-94094962D01*
X216094419Y-94074750D01*
X216089203Y-94053926D01*
X216086053Y-94032691D01*
X216085000Y-94011250D01*
X216085000Y-93573750D01*
X216086053Y-93552309D01*
X216089203Y-93531074D01*
X216094419Y-93510250D01*
X216101651Y-93490038D01*
X216110830Y-93470632D01*
X216121866Y-93452219D01*
X216134654Y-93434976D01*
X216149070Y-93419070D01*
X216164976Y-93404654D01*
X216182219Y-93391866D01*
X216200632Y-93380830D01*
X216220038Y-93371651D01*
X216240250Y-93364419D01*
X216261074Y-93359203D01*
X216282309Y-93356053D01*
X216303750Y-93355000D01*
X216816250Y-93355000D01*
X216837691Y-93356053D01*
G37*
G04 #@! TD.AperFunction*
G04 #@! TA.AperFunction,SMDPad,CuDef*
G36*
X216837691Y-94931053D02*
G01*
X216858926Y-94934203D01*
X216879750Y-94939419D01*
X216899962Y-94946651D01*
X216919368Y-94955830D01*
X216937781Y-94966866D01*
X216955024Y-94979654D01*
X216970930Y-94994070D01*
X216985346Y-95009976D01*
X216998134Y-95027219D01*
X217009170Y-95045632D01*
X217018349Y-95065038D01*
X217025581Y-95085250D01*
X217030797Y-95106074D01*
X217033947Y-95127309D01*
X217035000Y-95148750D01*
X217035000Y-95586250D01*
X217033947Y-95607691D01*
X217030797Y-95628926D01*
X217025581Y-95649750D01*
X217018349Y-95669962D01*
X217009170Y-95689368D01*
X216998134Y-95707781D01*
X216985346Y-95725024D01*
X216970930Y-95740930D01*
X216955024Y-95755346D01*
X216937781Y-95768134D01*
X216919368Y-95779170D01*
X216899962Y-95788349D01*
X216879750Y-95795581D01*
X216858926Y-95800797D01*
X216837691Y-95803947D01*
X216816250Y-95805000D01*
X216303750Y-95805000D01*
X216282309Y-95803947D01*
X216261074Y-95800797D01*
X216240250Y-95795581D01*
X216220038Y-95788349D01*
X216200632Y-95779170D01*
X216182219Y-95768134D01*
X216164976Y-95755346D01*
X216149070Y-95740930D01*
X216134654Y-95725024D01*
X216121866Y-95707781D01*
X216110830Y-95689368D01*
X216101651Y-95669962D01*
X216094419Y-95649750D01*
X216089203Y-95628926D01*
X216086053Y-95607691D01*
X216085000Y-95586250D01*
X216085000Y-95148750D01*
X216086053Y-95127309D01*
X216089203Y-95106074D01*
X216094419Y-95085250D01*
X216101651Y-95065038D01*
X216110830Y-95045632D01*
X216121866Y-95027219D01*
X216134654Y-95009976D01*
X216149070Y-94994070D01*
X216164976Y-94979654D01*
X216182219Y-94966866D01*
X216200632Y-94955830D01*
X216220038Y-94946651D01*
X216240250Y-94939419D01*
X216261074Y-94934203D01*
X216282309Y-94931053D01*
X216303750Y-94930000D01*
X216816250Y-94930000D01*
X216837691Y-94931053D01*
G37*
G04 #@! TD.AperFunction*
D20*
X224282000Y-94980000D03*
D21*
X224282000Y-92440000D03*
X224282000Y-89900000D03*
X224282000Y-87360000D03*
X224282000Y-84820000D03*
X224282000Y-82280000D03*
D23*
X159131000Y-116586000D03*
D24*
X151131000Y-116586000D03*
G04 #@! TA.AperFunction,SMDPad,CuDef*
D18*
G36*
X171207191Y-113694553D02*
G01*
X171228426Y-113697703D01*
X171249250Y-113702919D01*
X171269462Y-113710151D01*
X171288868Y-113719330D01*
X171307281Y-113730366D01*
X171324524Y-113743154D01*
X171340430Y-113757570D01*
X171354846Y-113773476D01*
X171367634Y-113790719D01*
X171378670Y-113809132D01*
X171387849Y-113828538D01*
X171395081Y-113848750D01*
X171400297Y-113869574D01*
X171403447Y-113890809D01*
X171404500Y-113912250D01*
X171404500Y-114349750D01*
X171403447Y-114371191D01*
X171400297Y-114392426D01*
X171395081Y-114413250D01*
X171387849Y-114433462D01*
X171378670Y-114452868D01*
X171367634Y-114471281D01*
X171354846Y-114488524D01*
X171340430Y-114504430D01*
X171324524Y-114518846D01*
X171307281Y-114531634D01*
X171288868Y-114542670D01*
X171269462Y-114551849D01*
X171249250Y-114559081D01*
X171228426Y-114564297D01*
X171207191Y-114567447D01*
X171185750Y-114568500D01*
X170673250Y-114568500D01*
X170651809Y-114567447D01*
X170630574Y-114564297D01*
X170609750Y-114559081D01*
X170589538Y-114551849D01*
X170570132Y-114542670D01*
X170551719Y-114531634D01*
X170534476Y-114518846D01*
X170518570Y-114504430D01*
X170504154Y-114488524D01*
X170491366Y-114471281D01*
X170480330Y-114452868D01*
X170471151Y-114433462D01*
X170463919Y-114413250D01*
X170458703Y-114392426D01*
X170455553Y-114371191D01*
X170454500Y-114349750D01*
X170454500Y-113912250D01*
X170455553Y-113890809D01*
X170458703Y-113869574D01*
X170463919Y-113848750D01*
X170471151Y-113828538D01*
X170480330Y-113809132D01*
X170491366Y-113790719D01*
X170504154Y-113773476D01*
X170518570Y-113757570D01*
X170534476Y-113743154D01*
X170551719Y-113730366D01*
X170570132Y-113719330D01*
X170589538Y-113710151D01*
X170609750Y-113702919D01*
X170630574Y-113697703D01*
X170651809Y-113694553D01*
X170673250Y-113693500D01*
X171185750Y-113693500D01*
X171207191Y-113694553D01*
G37*
G04 #@! TD.AperFunction*
G04 #@! TA.AperFunction,SMDPad,CuDef*
G36*
X171207191Y-115269553D02*
G01*
X171228426Y-115272703D01*
X171249250Y-115277919D01*
X171269462Y-115285151D01*
X171288868Y-115294330D01*
X171307281Y-115305366D01*
X171324524Y-115318154D01*
X171340430Y-115332570D01*
X171354846Y-115348476D01*
X171367634Y-115365719D01*
X171378670Y-115384132D01*
X171387849Y-115403538D01*
X171395081Y-115423750D01*
X171400297Y-115444574D01*
X171403447Y-115465809D01*
X171404500Y-115487250D01*
X171404500Y-115924750D01*
X171403447Y-115946191D01*
X171400297Y-115967426D01*
X171395081Y-115988250D01*
X171387849Y-116008462D01*
X171378670Y-116027868D01*
X171367634Y-116046281D01*
X171354846Y-116063524D01*
X171340430Y-116079430D01*
X171324524Y-116093846D01*
X171307281Y-116106634D01*
X171288868Y-116117670D01*
X171269462Y-116126849D01*
X171249250Y-116134081D01*
X171228426Y-116139297D01*
X171207191Y-116142447D01*
X171185750Y-116143500D01*
X170673250Y-116143500D01*
X170651809Y-116142447D01*
X170630574Y-116139297D01*
X170609750Y-116134081D01*
X170589538Y-116126849D01*
X170570132Y-116117670D01*
X170551719Y-116106634D01*
X170534476Y-116093846D01*
X170518570Y-116079430D01*
X170504154Y-116063524D01*
X170491366Y-116046281D01*
X170480330Y-116027868D01*
X170471151Y-116008462D01*
X170463919Y-115988250D01*
X170458703Y-115967426D01*
X170455553Y-115946191D01*
X170454500Y-115924750D01*
X170454500Y-115487250D01*
X170455553Y-115465809D01*
X170458703Y-115444574D01*
X170463919Y-115423750D01*
X170471151Y-115403538D01*
X170480330Y-115384132D01*
X170491366Y-115365719D01*
X170504154Y-115348476D01*
X170518570Y-115332570D01*
X170534476Y-115318154D01*
X170551719Y-115305366D01*
X170570132Y-115294330D01*
X170589538Y-115285151D01*
X170609750Y-115277919D01*
X170630574Y-115272703D01*
X170651809Y-115269553D01*
X170673250Y-115268500D01*
X171185750Y-115268500D01*
X171207191Y-115269553D01*
G37*
G04 #@! TD.AperFunction*
G04 #@! TA.AperFunction,SMDPad,CuDef*
G36*
X175557191Y-115257053D02*
G01*
X175578426Y-115260203D01*
X175599250Y-115265419D01*
X175619462Y-115272651D01*
X175638868Y-115281830D01*
X175657281Y-115292866D01*
X175674524Y-115305654D01*
X175690430Y-115320070D01*
X175704846Y-115335976D01*
X175717634Y-115353219D01*
X175728670Y-115371632D01*
X175737849Y-115391038D01*
X175745081Y-115411250D01*
X175750297Y-115432074D01*
X175753447Y-115453309D01*
X175754500Y-115474750D01*
X175754500Y-115912250D01*
X175753447Y-115933691D01*
X175750297Y-115954926D01*
X175745081Y-115975750D01*
X175737849Y-115995962D01*
X175728670Y-116015368D01*
X175717634Y-116033781D01*
X175704846Y-116051024D01*
X175690430Y-116066930D01*
X175674524Y-116081346D01*
X175657281Y-116094134D01*
X175638868Y-116105170D01*
X175619462Y-116114349D01*
X175599250Y-116121581D01*
X175578426Y-116126797D01*
X175557191Y-116129947D01*
X175535750Y-116131000D01*
X175023250Y-116131000D01*
X175001809Y-116129947D01*
X174980574Y-116126797D01*
X174959750Y-116121581D01*
X174939538Y-116114349D01*
X174920132Y-116105170D01*
X174901719Y-116094134D01*
X174884476Y-116081346D01*
X174868570Y-116066930D01*
X174854154Y-116051024D01*
X174841366Y-116033781D01*
X174830330Y-116015368D01*
X174821151Y-115995962D01*
X174813919Y-115975750D01*
X174808703Y-115954926D01*
X174805553Y-115933691D01*
X174804500Y-115912250D01*
X174804500Y-115474750D01*
X174805553Y-115453309D01*
X174808703Y-115432074D01*
X174813919Y-115411250D01*
X174821151Y-115391038D01*
X174830330Y-115371632D01*
X174841366Y-115353219D01*
X174854154Y-115335976D01*
X174868570Y-115320070D01*
X174884476Y-115305654D01*
X174901719Y-115292866D01*
X174920132Y-115281830D01*
X174939538Y-115272651D01*
X174959750Y-115265419D01*
X174980574Y-115260203D01*
X175001809Y-115257053D01*
X175023250Y-115256000D01*
X175535750Y-115256000D01*
X175557191Y-115257053D01*
G37*
G04 #@! TD.AperFunction*
G04 #@! TA.AperFunction,SMDPad,CuDef*
G36*
X175557191Y-113682053D02*
G01*
X175578426Y-113685203D01*
X175599250Y-113690419D01*
X175619462Y-113697651D01*
X175638868Y-113706830D01*
X175657281Y-113717866D01*
X175674524Y-113730654D01*
X175690430Y-113745070D01*
X175704846Y-113760976D01*
X175717634Y-113778219D01*
X175728670Y-113796632D01*
X175737849Y-113816038D01*
X175745081Y-113836250D01*
X175750297Y-113857074D01*
X175753447Y-113878309D01*
X175754500Y-113899750D01*
X175754500Y-114337250D01*
X175753447Y-114358691D01*
X175750297Y-114379926D01*
X175745081Y-114400750D01*
X175737849Y-114420962D01*
X175728670Y-114440368D01*
X175717634Y-114458781D01*
X175704846Y-114476024D01*
X175690430Y-114491930D01*
X175674524Y-114506346D01*
X175657281Y-114519134D01*
X175638868Y-114530170D01*
X175619462Y-114539349D01*
X175599250Y-114546581D01*
X175578426Y-114551797D01*
X175557191Y-114554947D01*
X175535750Y-114556000D01*
X175023250Y-114556000D01*
X175001809Y-114554947D01*
X174980574Y-114551797D01*
X174959750Y-114546581D01*
X174939538Y-114539349D01*
X174920132Y-114530170D01*
X174901719Y-114519134D01*
X174884476Y-114506346D01*
X174868570Y-114491930D01*
X174854154Y-114476024D01*
X174841366Y-114458781D01*
X174830330Y-114440368D01*
X174821151Y-114420962D01*
X174813919Y-114400750D01*
X174808703Y-114379926D01*
X174805553Y-114358691D01*
X174804500Y-114337250D01*
X174804500Y-113899750D01*
X174805553Y-113878309D01*
X174808703Y-113857074D01*
X174813919Y-113836250D01*
X174821151Y-113816038D01*
X174830330Y-113796632D01*
X174841366Y-113778219D01*
X174854154Y-113760976D01*
X174868570Y-113745070D01*
X174884476Y-113730654D01*
X174901719Y-113717866D01*
X174920132Y-113706830D01*
X174939538Y-113697651D01*
X174959750Y-113690419D01*
X174980574Y-113685203D01*
X175001809Y-113682053D01*
X175023250Y-113681000D01*
X175535750Y-113681000D01*
X175557191Y-113682053D01*
G37*
G04 #@! TD.AperFunction*
D22*
X156510000Y-84480000D03*
D16*
X161590000Y-84480000D03*
X166670000Y-84480000D03*
X182870000Y-84480000D03*
X177790000Y-84480000D03*
D22*
X172710000Y-84480000D03*
D16*
X161634999Y-107275001D03*
D17*
X155684999Y-105325001D03*
D16*
X155634999Y-93075001D03*
X167684999Y-93125001D03*
D17*
X167684999Y-105325001D03*
X183760000Y-105325001D03*
D16*
X183760000Y-93125001D03*
X171710000Y-93075001D03*
D17*
X171760000Y-105325001D03*
D16*
X177710000Y-107275001D03*
D25*
X203504800Y-102057200D03*
X176682400Y-115722400D03*
X203911200Y-96621600D03*
X203809600Y-92557600D03*
X202641200Y-92506800D03*
X204774800Y-90982800D03*
X204825600Y-92506800D03*
X204774800Y-89560400D03*
X165150800Y-115722400D03*
X225742500Y-102489000D03*
X225679000Y-115633500D03*
X224599500Y-109918500D03*
X216281000Y-86487000D03*
X225869500Y-98171000D03*
X208153000Y-81343500D03*
X202565000Y-96710500D03*
X197675500Y-100647500D03*
X195389500Y-94170500D03*
X189738000Y-105918000D03*
X200609200Y-106527600D03*
X191706500Y-81978500D03*
X190436500Y-83883500D03*
X201422000Y-81978500D03*
X196977000Y-81978500D03*
X179959000Y-96647000D03*
X163639500Y-96583500D03*
X147320000Y-96367600D03*
X207111600Y-95351600D03*
X208026000Y-102158800D03*
X194259200Y-83616800D03*
X211785200Y-106832400D03*
X186842400Y-96520000D03*
X186791600Y-101295200D03*
X207213200Y-117805200D03*
X217170000Y-114858800D03*
X199034400Y-83362800D03*
X224345500Y-102489000D03*
X225298000Y-112585500D03*
X209867500Y-95377000D03*
X224282000Y-98171000D03*
X188531500Y-89408000D03*
X188531500Y-90779600D03*
X191058800Y-89408000D03*
X192786000Y-90805000D03*
X195834000Y-88188800D03*
X186690000Y-86715600D03*
X186486800Y-89408000D03*
X195986400Y-90881200D03*
X220662500Y-115570000D03*
X221996000Y-115570000D03*
X207160000Y-93780000D03*
X209860000Y-93780000D03*
X208343500Y-89281000D03*
X213614000Y-89281000D03*
X165163500Y-114109500D03*
X191668400Y-108051600D03*
X141579600Y-109372400D03*
X212560000Y-93780000D03*
X215260000Y-93780000D03*
X222313500Y-109664500D03*
X220065600Y-102412800D03*
X225425000Y-105727500D03*
X219049600Y-103251000D03*
X198564500Y-94170500D03*
X192214500Y-93980000D03*
X201231500Y-92392500D03*
X213868000Y-102489000D03*
X214593000Y-103196108D03*
X211709000Y-114935000D03*
X205740000Y-115062000D03*
X148336000Y-102463600D03*
X169481500Y-114109500D03*
X169418000Y-115722400D03*
X173837600Y-115722400D03*
X173926500Y-114109500D03*
X212979000Y-113919000D03*
X164655500Y-102362000D03*
X205740000Y-113919000D03*
X180911500Y-102489000D03*
X205752651Y-112906346D03*
X214312500Y-112966500D03*
X200710800Y-108102400D03*
X141630400Y-110388400D03*
D26*
X166579500Y-115706000D02*
X165167200Y-115706000D01*
X165167200Y-115706000D02*
X165150800Y-115722400D01*
X225715000Y-100580000D02*
X225715000Y-102461500D01*
X225715000Y-102461500D02*
X225742500Y-102489000D01*
X225715000Y-117580000D02*
X225715000Y-115669500D01*
X225715000Y-115669500D02*
X225679000Y-115633500D01*
X210444499Y-94651999D02*
X211160000Y-95367500D01*
X209175501Y-94651999D02*
X210444499Y-94651999D01*
X208460000Y-95367500D02*
X209175501Y-94651999D01*
X213847500Y-95367500D02*
X213860000Y-95355000D01*
X211160000Y-95367500D02*
X213847500Y-95367500D01*
X216547500Y-95355000D02*
X216560000Y-95367500D01*
X213860000Y-95355000D02*
X216547500Y-95355000D01*
X225869500Y-100425500D02*
X225715000Y-100580000D01*
X225869500Y-98171000D02*
X225869500Y-100425500D01*
X209860000Y-81380000D02*
X215060000Y-81380000D01*
X209860000Y-81380000D02*
X208189500Y-81380000D01*
X208189500Y-81380000D02*
X208153000Y-81343500D01*
X208460000Y-95367500D02*
X207127500Y-95367500D01*
X207127500Y-95367500D02*
X207111600Y-95351600D01*
X208205000Y-103365000D02*
X208205000Y-102337800D01*
X208205000Y-102337800D02*
X208026000Y-102158800D01*
X224445000Y-100580000D02*
X224445000Y-102389500D01*
X224445000Y-102389500D02*
X224345500Y-102489000D01*
X224282000Y-100417000D02*
X224445000Y-100580000D01*
X224282000Y-98171000D02*
X224282000Y-100417000D01*
X220635000Y-117580000D02*
X220635000Y-115597500D01*
X220635000Y-115597500D02*
X220662500Y-115570000D01*
X221996000Y-117489000D02*
X221905000Y-117580000D01*
X221996000Y-115570000D02*
X221996000Y-117489000D01*
X208460000Y-93792500D02*
X207172500Y-93792500D01*
X207172500Y-93792500D02*
X207160000Y-93780000D01*
X211147500Y-93780000D02*
X211160000Y-93792500D01*
X209860000Y-93780000D02*
X211147500Y-93780000D01*
X209860000Y-89180000D02*
X208444500Y-89180000D01*
X208444500Y-89180000D02*
X208343500Y-89281000D01*
X214959000Y-89281000D02*
X215060000Y-89180000D01*
X213614000Y-89281000D02*
X214959000Y-89281000D01*
X166579500Y-114131000D02*
X165185000Y-114131000D01*
X165185000Y-114131000D02*
X165163500Y-114109500D01*
X213860000Y-93780000D02*
X212560000Y-93780000D01*
X216547500Y-93780000D02*
X216560000Y-93792500D01*
X215260000Y-93780000D02*
X216547500Y-93780000D01*
X224282000Y-90700998D02*
X224282000Y-89900000D01*
X222625490Y-92357508D02*
X224282000Y-90700998D01*
X222625490Y-97099830D02*
X222625490Y-92357508D01*
X221432832Y-98292488D02*
X222625490Y-97099830D01*
X216825000Y-99814998D02*
X218347510Y-98292488D01*
X218347510Y-98292488D02*
X221432832Y-98292488D01*
X216825000Y-100580000D02*
X216825000Y-99814998D01*
X222175480Y-89466520D02*
X224282000Y-87360000D01*
X215555000Y-100580000D02*
X215555000Y-99814998D01*
X215555000Y-99814998D02*
X217527518Y-97842480D01*
X222175480Y-96913430D02*
X222175480Y-89466520D01*
X221246431Y-97842479D02*
X222175480Y-96913430D01*
X217527518Y-97842480D02*
X221246431Y-97842479D01*
X219365000Y-100580000D02*
X219365000Y-100484500D01*
X223556999Y-95705001D02*
X224282000Y-94980000D01*
X224282000Y-96716140D02*
X224282000Y-94980000D01*
X219987488Y-99192510D02*
X221805631Y-99192509D01*
X219365000Y-99814998D02*
X219987488Y-99192510D01*
X221805631Y-99192509D02*
X224282000Y-96716140D01*
X219365000Y-100580000D02*
X219365000Y-99814998D01*
X218095000Y-100580000D02*
X218095000Y-99814998D01*
X218095000Y-99814998D02*
X219167498Y-98742500D01*
X223075500Y-93646500D02*
X224282000Y-92440000D01*
X223075500Y-97286230D02*
X223075500Y-93646500D01*
X221619230Y-98742500D02*
X223075500Y-97286230D01*
X219167498Y-98742500D02*
X221619230Y-98742500D01*
X223175000Y-108803000D02*
X222313500Y-109664500D01*
X223175000Y-100580000D02*
X223175000Y-108803000D01*
X223175000Y-100580000D02*
X223175000Y-101345002D01*
X223175000Y-101345002D02*
X222031002Y-102489000D01*
X220294200Y-102489000D02*
X220218000Y-102412800D01*
X222031002Y-102489000D02*
X220294200Y-102489000D01*
X213329499Y-112241499D02*
X224191999Y-112241499D01*
X209205000Y-117580000D02*
X209205000Y-116365998D01*
X209205000Y-116365998D02*
X213329499Y-112241499D01*
X225425000Y-111008498D02*
X225425000Y-105727500D01*
X224191999Y-112241499D02*
X225425000Y-111008498D01*
X208581102Y-97287510D02*
X207338097Y-97287509D01*
X210475000Y-100580000D02*
X210475000Y-99181408D01*
X210475000Y-99181408D02*
X208581102Y-97287510D01*
X204221088Y-94170500D02*
X198564500Y-94170500D01*
X207338097Y-97287509D02*
X204221088Y-94170500D01*
X192214500Y-93980000D02*
X193130001Y-94895501D01*
X204309679Y-94895501D02*
X207151698Y-97737518D01*
X193130001Y-94895501D02*
X204309679Y-94895501D01*
X207151698Y-97737518D02*
X208394700Y-97737518D01*
X209205000Y-98547818D02*
X209205000Y-100580000D01*
X208394700Y-97737518D02*
X209205000Y-98547818D01*
X211745000Y-99814998D02*
X208767502Y-96837500D01*
X211745000Y-100580000D02*
X211745000Y-99814998D01*
X208767502Y-96837500D02*
X207524498Y-96837500D01*
X204407488Y-93720490D02*
X202229290Y-93720490D01*
X207524498Y-96837500D02*
X204407488Y-93720490D01*
X201231500Y-92722700D02*
X201231500Y-92392500D01*
X202229290Y-93720490D02*
X201231500Y-92722700D01*
X213868000Y-108627002D02*
X213868000Y-102489000D01*
X208970002Y-113525000D02*
X213868000Y-108627002D01*
X208205000Y-113525000D02*
X208970002Y-113525000D01*
X208970002Y-114795000D02*
X214593000Y-109172002D01*
X214593000Y-109172002D02*
X214593000Y-103196108D01*
X208205000Y-114795000D02*
X208970002Y-114795000D01*
X211745000Y-117580000D02*
X211745000Y-114971000D01*
X211745000Y-114971000D02*
X211709000Y-114935000D01*
X148336000Y-104387002D02*
X154375498Y-110426500D01*
X205682998Y-115062000D02*
X205740000Y-115062000D01*
X201047498Y-110426500D02*
X205682998Y-115062000D01*
X154375498Y-110426500D02*
X201047498Y-110426500D01*
X148336000Y-104387002D02*
X148336000Y-102971600D01*
X148336000Y-102463600D02*
X148336000Y-102971600D01*
X148336000Y-102971600D02*
X148336000Y-103472602D01*
X214285000Y-99814998D02*
X216707528Y-97392470D01*
X214285000Y-100580000D02*
X214285000Y-99814998D01*
X221725470Y-87376530D02*
X224282000Y-84820000D01*
X221725470Y-96727030D02*
X221725470Y-87376530D01*
X221060030Y-97392470D02*
X221725470Y-96727030D01*
X216707528Y-97392470D02*
X221060030Y-97392470D01*
X170908000Y-114109500D02*
X170929500Y-114131000D01*
X169481500Y-114109500D02*
X170908000Y-114109500D01*
X170929500Y-115706000D02*
X169434400Y-115706000D01*
X169434400Y-115706000D02*
X169418000Y-115722400D01*
X175279500Y-115693500D02*
X173866500Y-115693500D01*
X173866500Y-115693500D02*
X173837600Y-115722400D01*
X175279500Y-114118500D02*
X173935500Y-114118500D01*
X173935500Y-114118500D02*
X173926500Y-114109500D01*
D27*
X171710000Y-85480000D02*
X172710000Y-84480000D01*
D26*
X213015000Y-117580000D02*
X213015000Y-113955000D01*
X213015000Y-113955000D02*
X212979000Y-113919000D01*
X164655500Y-107505500D02*
X167126490Y-109976490D01*
X164655500Y-102362000D02*
X164655500Y-107505500D01*
X167126490Y-109976490D02*
X201670490Y-109976490D01*
X201670490Y-109976490D02*
X201797490Y-109976490D01*
X201797490Y-109976490D02*
X205740000Y-113919000D01*
X180911500Y-108077000D02*
X182360980Y-109526480D01*
X180911500Y-102489000D02*
X180911500Y-108077000D01*
X182360980Y-109526480D02*
X202372785Y-109526480D01*
X202372785Y-109526480D02*
X205752651Y-112906346D01*
X214285000Y-112994000D02*
X214285000Y-117580000D01*
X214312500Y-112966500D02*
X214285000Y-112994000D01*
D28*
G36*
X226463931Y-99019764D02*
G01*
X226409180Y-98990498D01*
X226289482Y-98954188D01*
X226165000Y-98941928D01*
X226000750Y-98945000D01*
X225842000Y-99103750D01*
X225842000Y-100453000D01*
X225862000Y-100453000D01*
X225862000Y-100707000D01*
X225842000Y-100707000D01*
X225842000Y-102056250D01*
X226000750Y-102215000D01*
X226165000Y-102218072D01*
X226289482Y-102205812D01*
X226409180Y-102169502D01*
X226476239Y-102133658D01*
X226531280Y-116059136D01*
X226519494Y-116049463D01*
X226409180Y-115990498D01*
X226289482Y-115954188D01*
X226165000Y-115941928D01*
X226000750Y-115945000D01*
X225842000Y-116103750D01*
X225842000Y-117453000D01*
X225862000Y-117453000D01*
X225862000Y-117707000D01*
X225842000Y-117707000D01*
X225842000Y-117727000D01*
X225588000Y-117727000D01*
X225588000Y-117707000D01*
X225568000Y-117707000D01*
X225568000Y-117453000D01*
X225588000Y-117453000D01*
X225588000Y-116103750D01*
X225429250Y-115945000D01*
X225265000Y-115941928D01*
X225140518Y-115954188D01*
X225020820Y-115990498D01*
X224910506Y-116049463D01*
X224813815Y-116128815D01*
X224757728Y-116197157D01*
X223995000Y-116197157D01*
X223920311Y-116204513D01*
X223848492Y-116226299D01*
X223810000Y-116246874D01*
X223771508Y-116226299D01*
X223699689Y-116204513D01*
X223625000Y-116197157D01*
X222725000Y-116197157D01*
X222650311Y-116204513D01*
X222578492Y-116226299D01*
X222540000Y-116246874D01*
X222502000Y-116226562D01*
X222502000Y-116168501D01*
X222602642Y-116067859D01*
X222688113Y-115939942D01*
X222746987Y-115797809D01*
X222777000Y-115646922D01*
X222777000Y-115493078D01*
X222746987Y-115342191D01*
X222688113Y-115200058D01*
X222602642Y-115072141D01*
X222493859Y-114963358D01*
X222365942Y-114877887D01*
X222223809Y-114819013D01*
X222072922Y-114789000D01*
X221919078Y-114789000D01*
X221768191Y-114819013D01*
X221626058Y-114877887D01*
X221498141Y-114963358D01*
X221389358Y-115072141D01*
X221329250Y-115162099D01*
X221269142Y-115072141D01*
X221160359Y-114963358D01*
X221032442Y-114877887D01*
X220890309Y-114819013D01*
X220739422Y-114789000D01*
X220585578Y-114789000D01*
X220434691Y-114819013D01*
X220292558Y-114877887D01*
X220164641Y-114963358D01*
X220055858Y-115072141D01*
X219970387Y-115200058D01*
X219911513Y-115342191D01*
X219881500Y-115493078D01*
X219881500Y-115646922D01*
X219911513Y-115797809D01*
X219970387Y-115939942D01*
X220055858Y-116067859D01*
X220129001Y-116141002D01*
X220129001Y-116202672D01*
X220110311Y-116204513D01*
X220038492Y-116226299D01*
X220000000Y-116246874D01*
X219961508Y-116226299D01*
X219889689Y-116204513D01*
X219815000Y-116197157D01*
X218915000Y-116197157D01*
X218840311Y-116204513D01*
X218768492Y-116226299D01*
X218730000Y-116246874D01*
X218691508Y-116226299D01*
X218619689Y-116204513D01*
X218545000Y-116197157D01*
X217645000Y-116197157D01*
X217570311Y-116204513D01*
X217498492Y-116226299D01*
X217460000Y-116246874D01*
X217421508Y-116226299D01*
X217349689Y-116204513D01*
X217275000Y-116197157D01*
X216375000Y-116197157D01*
X216300311Y-116204513D01*
X216228492Y-116226299D01*
X216190000Y-116246874D01*
X216151508Y-116226299D01*
X216079689Y-116204513D01*
X216005000Y-116197157D01*
X215105000Y-116197157D01*
X215030311Y-116204513D01*
X214958492Y-116226299D01*
X214920000Y-116246874D01*
X214881508Y-116226299D01*
X214809689Y-116204513D01*
X214791000Y-116202672D01*
X214791000Y-113586077D01*
X214810359Y-113573142D01*
X214919142Y-113464359D01*
X215004613Y-113336442D01*
X215063487Y-113194309D01*
X215093500Y-113043422D01*
X215093500Y-112889578D01*
X215065239Y-112747499D01*
X224167153Y-112747499D01*
X224191999Y-112749946D01*
X224216845Y-112747499D01*
X224216853Y-112747499D01*
X224291192Y-112740177D01*
X224386574Y-112711244D01*
X224474478Y-112664258D01*
X224517000Y-112629361D01*
X224517000Y-112662422D01*
X224547013Y-112813309D01*
X224605887Y-112955442D01*
X224691358Y-113083359D01*
X224800141Y-113192142D01*
X224928058Y-113277613D01*
X225070191Y-113336487D01*
X225221078Y-113366500D01*
X225374922Y-113366500D01*
X225525809Y-113336487D01*
X225667942Y-113277613D01*
X225795859Y-113192142D01*
X225904642Y-113083359D01*
X225990113Y-112955442D01*
X226048987Y-112813309D01*
X226079000Y-112662422D01*
X226079000Y-112508578D01*
X226048987Y-112357691D01*
X225990113Y-112215558D01*
X225904642Y-112087641D01*
X225795859Y-111978858D01*
X225667942Y-111893387D01*
X225525809Y-111834513D01*
X225374922Y-111804500D01*
X225344590Y-111804500D01*
X225765220Y-111383870D01*
X225784527Y-111368025D01*
X225847759Y-111290977D01*
X225894745Y-111203073D01*
X225923678Y-111107691D01*
X225931000Y-111033352D01*
X225931000Y-111033351D01*
X225933448Y-111008498D01*
X225931000Y-110983644D01*
X225931000Y-106326001D01*
X226031642Y-106225359D01*
X226117113Y-106097442D01*
X226175987Y-105955309D01*
X226206000Y-105804422D01*
X226206000Y-105650578D01*
X226175987Y-105499691D01*
X226117113Y-105357558D01*
X226031642Y-105229641D01*
X225922859Y-105120858D01*
X225794942Y-105035387D01*
X225652809Y-104976513D01*
X225501922Y-104946500D01*
X225348078Y-104946500D01*
X225197191Y-104976513D01*
X225055058Y-105035387D01*
X224927141Y-105120858D01*
X224818358Y-105229641D01*
X224732887Y-105357558D01*
X224674013Y-105499691D01*
X224644000Y-105650578D01*
X224644000Y-105804422D01*
X224674013Y-105955309D01*
X224732887Y-106097442D01*
X224818358Y-106225359D01*
X224919001Y-106326002D01*
X224919000Y-110798906D01*
X223982408Y-111735499D01*
X213354344Y-111735499D01*
X213329498Y-111733052D01*
X213304652Y-111735499D01*
X213304645Y-111735499D01*
X213240193Y-111741847D01*
X213230305Y-111742821D01*
X213208106Y-111749555D01*
X213134924Y-111771754D01*
X213047020Y-111818740D01*
X212969972Y-111881972D01*
X212954128Y-111901278D01*
X209585378Y-115270029D01*
X209587843Y-115245000D01*
X209587843Y-114892750D01*
X214933220Y-109547374D01*
X214952527Y-109531529D01*
X215015759Y-109454481D01*
X215062745Y-109366577D01*
X215078684Y-109314030D01*
X215076928Y-110580000D01*
X215089188Y-110704482D01*
X215125498Y-110824180D01*
X215184463Y-110934494D01*
X215263815Y-111031185D01*
X215360506Y-111110537D01*
X215470820Y-111169502D01*
X215590518Y-111205812D01*
X215715000Y-111218072D01*
X217929250Y-111215000D01*
X218088000Y-111056250D01*
X218088000Y-108207000D01*
X218342000Y-108207000D01*
X218342000Y-111056250D01*
X218500750Y-111215000D01*
X220715000Y-111218072D01*
X220839482Y-111205812D01*
X220959180Y-111169502D01*
X221069494Y-111110537D01*
X221166185Y-111031185D01*
X221245537Y-110934494D01*
X221304502Y-110824180D01*
X221340812Y-110704482D01*
X221353072Y-110580000D01*
X221350000Y-108365750D01*
X221191250Y-108207000D01*
X218342000Y-108207000D01*
X218088000Y-108207000D01*
X218068000Y-108207000D01*
X218068000Y-107953000D01*
X218088000Y-107953000D01*
X218088000Y-105103750D01*
X218342000Y-105103750D01*
X218342000Y-107953000D01*
X221191250Y-107953000D01*
X221350000Y-107794250D01*
X221353072Y-105580000D01*
X221340812Y-105455518D01*
X221304502Y-105335820D01*
X221245537Y-105225506D01*
X221166185Y-105128815D01*
X221069494Y-105049463D01*
X220959180Y-104990498D01*
X220839482Y-104954188D01*
X220715000Y-104941928D01*
X218500750Y-104945000D01*
X218342000Y-105103750D01*
X218088000Y-105103750D01*
X217929250Y-104945000D01*
X215715000Y-104941928D01*
X215590518Y-104954188D01*
X215470820Y-104990498D01*
X215360506Y-105049463D01*
X215263815Y-105128815D01*
X215184463Y-105225506D01*
X215125498Y-105335820D01*
X215099000Y-105423172D01*
X215099000Y-103794609D01*
X215199642Y-103693967D01*
X215285113Y-103566050D01*
X215343987Y-103423917D01*
X215374000Y-103273030D01*
X215374000Y-103119186D01*
X215343987Y-102968299D01*
X215285113Y-102826166D01*
X215199642Y-102698249D01*
X215090859Y-102589466D01*
X214962942Y-102503995D01*
X214820809Y-102445121D01*
X214669922Y-102415108D01*
X214649000Y-102415108D01*
X214649000Y-102412078D01*
X214618987Y-102261191D01*
X214560113Y-102119058D01*
X214474642Y-101991141D01*
X214446344Y-101962843D01*
X214735000Y-101962843D01*
X214809689Y-101955487D01*
X214881508Y-101933701D01*
X214920000Y-101913126D01*
X214958492Y-101933701D01*
X215030311Y-101955487D01*
X215105000Y-101962843D01*
X216005000Y-101962843D01*
X216079689Y-101955487D01*
X216151508Y-101933701D01*
X216190000Y-101913126D01*
X216228492Y-101933701D01*
X216300311Y-101955487D01*
X216375000Y-101962843D01*
X217275000Y-101962843D01*
X217349689Y-101955487D01*
X217421508Y-101933701D01*
X217460000Y-101913126D01*
X217498492Y-101933701D01*
X217570311Y-101955487D01*
X217645000Y-101962843D01*
X218545000Y-101962843D01*
X218619689Y-101955487D01*
X218691508Y-101933701D01*
X218730000Y-101913126D01*
X218768492Y-101933701D01*
X218840311Y-101955487D01*
X218915000Y-101962843D01*
X219426951Y-101962843D01*
X219373487Y-102042858D01*
X219314613Y-102184991D01*
X219284600Y-102335878D01*
X219284600Y-102489722D01*
X219287476Y-102504183D01*
X219277409Y-102500013D01*
X219126522Y-102470000D01*
X218972678Y-102470000D01*
X218821791Y-102500013D01*
X218679658Y-102558887D01*
X218551741Y-102644358D01*
X218442958Y-102753141D01*
X218357487Y-102881058D01*
X218298613Y-103023191D01*
X218268600Y-103174078D01*
X218268600Y-103327922D01*
X218298613Y-103478809D01*
X218357487Y-103620942D01*
X218442958Y-103748859D01*
X218551741Y-103857642D01*
X218679658Y-103943113D01*
X218821791Y-104001987D01*
X218972678Y-104032000D01*
X219126522Y-104032000D01*
X219277409Y-104001987D01*
X219419542Y-103943113D01*
X219547459Y-103857642D01*
X219656242Y-103748859D01*
X219741713Y-103620942D01*
X219800587Y-103478809D01*
X219830600Y-103327922D01*
X219830600Y-103174078D01*
X219827724Y-103159617D01*
X219837791Y-103163787D01*
X219988678Y-103193800D01*
X220142522Y-103193800D01*
X220293409Y-103163787D01*
X220435542Y-103104913D01*
X220563459Y-103019442D01*
X220587901Y-102995000D01*
X222006156Y-102995000D01*
X222031002Y-102997447D01*
X222055848Y-102995000D01*
X222055856Y-102995000D01*
X222130195Y-102987678D01*
X222225577Y-102958745D01*
X222313481Y-102911759D01*
X222390529Y-102848527D01*
X222406378Y-102829215D01*
X222669000Y-102566593D01*
X222669001Y-108593407D01*
X222378909Y-108883500D01*
X222236578Y-108883500D01*
X222085691Y-108913513D01*
X221943558Y-108972387D01*
X221815641Y-109057858D01*
X221706858Y-109166641D01*
X221621387Y-109294558D01*
X221562513Y-109436691D01*
X221532500Y-109587578D01*
X221532500Y-109741422D01*
X221562513Y-109892309D01*
X221621387Y-110034442D01*
X221706858Y-110162359D01*
X221815641Y-110271142D01*
X221943558Y-110356613D01*
X222085691Y-110415487D01*
X222236578Y-110445500D01*
X222390422Y-110445500D01*
X222541309Y-110415487D01*
X222683442Y-110356613D01*
X222811359Y-110271142D01*
X222920142Y-110162359D01*
X223005613Y-110034442D01*
X223064487Y-109892309D01*
X223094500Y-109741422D01*
X223094500Y-109599091D01*
X223515220Y-109178372D01*
X223534527Y-109162527D01*
X223597759Y-109085479D01*
X223644745Y-108997575D01*
X223673678Y-108902193D01*
X223681000Y-108827854D01*
X223681000Y-108827846D01*
X223683447Y-108803000D01*
X223681000Y-108778154D01*
X223681000Y-102900268D01*
X223738858Y-102986859D01*
X223847641Y-103095642D01*
X223975558Y-103181113D01*
X224117691Y-103239987D01*
X224268578Y-103270000D01*
X224422422Y-103270000D01*
X224573309Y-103239987D01*
X224715442Y-103181113D01*
X224843359Y-103095642D01*
X224952142Y-102986859D01*
X225037613Y-102858942D01*
X225096487Y-102716809D01*
X225126500Y-102565922D01*
X225126500Y-102412078D01*
X225096487Y-102261191D01*
X225063924Y-102182577D01*
X225140518Y-102205812D01*
X225265000Y-102218072D01*
X225429250Y-102215000D01*
X225588000Y-102056250D01*
X225588000Y-100707000D01*
X225568000Y-100707000D01*
X225568000Y-100453000D01*
X225588000Y-100453000D01*
X225588000Y-99103750D01*
X225429250Y-98945000D01*
X225265000Y-98941928D01*
X225140518Y-98954188D01*
X225020820Y-98990498D01*
X224910506Y-99049463D01*
X224813815Y-99128815D01*
X224788000Y-99160271D01*
X224788000Y-98769501D01*
X224888642Y-98668859D01*
X224974113Y-98540942D01*
X225032987Y-98398809D01*
X225063000Y-98247922D01*
X225063000Y-98094078D01*
X225032987Y-97943191D01*
X224974113Y-97801058D01*
X224888642Y-97673141D01*
X224779859Y-97564358D01*
X224651942Y-97478887D01*
X224509809Y-97420013D01*
X224358922Y-97390000D01*
X224323732Y-97390000D01*
X224622220Y-97091512D01*
X224641527Y-97075667D01*
X224704759Y-96998619D01*
X224751745Y-96910715D01*
X224780678Y-96815333D01*
X224788000Y-96740994D01*
X224788000Y-96740993D01*
X224790448Y-96716140D01*
X224788000Y-96691286D01*
X224788000Y-96212843D01*
X225132000Y-96212843D01*
X225206689Y-96205487D01*
X225278508Y-96183701D01*
X225344696Y-96148322D01*
X225402711Y-96100711D01*
X225450322Y-96042696D01*
X225485701Y-95976508D01*
X225507487Y-95904689D01*
X225514843Y-95830000D01*
X225514843Y-94130000D01*
X225507487Y-94055311D01*
X225485701Y-93983492D01*
X225450322Y-93917304D01*
X225402711Y-93859289D01*
X225344696Y-93811678D01*
X225278508Y-93776299D01*
X225206689Y-93754513D01*
X225132000Y-93747157D01*
X223690434Y-93747157D01*
X223845833Y-93591758D01*
X223922931Y-93623693D01*
X224160757Y-93671000D01*
X224403243Y-93671000D01*
X224641069Y-93623693D01*
X224865097Y-93530898D01*
X225066717Y-93396180D01*
X225238180Y-93224717D01*
X225372898Y-93023097D01*
X225465693Y-92799069D01*
X225513000Y-92561243D01*
X225513000Y-92318757D01*
X225465693Y-92080931D01*
X225372898Y-91856903D01*
X225238180Y-91655283D01*
X225066717Y-91483820D01*
X224865097Y-91349102D01*
X224641069Y-91256307D01*
X224475264Y-91223326D01*
X224608398Y-91090192D01*
X224641069Y-91083693D01*
X224865097Y-90990898D01*
X225066717Y-90856180D01*
X225238180Y-90684717D01*
X225372898Y-90483097D01*
X225465693Y-90259069D01*
X225513000Y-90021243D01*
X225513000Y-89778757D01*
X225465693Y-89540931D01*
X225372898Y-89316903D01*
X225238180Y-89115283D01*
X225066717Y-88943820D01*
X224865097Y-88809102D01*
X224641069Y-88716307D01*
X224403243Y-88669000D01*
X224160757Y-88669000D01*
X223922931Y-88716307D01*
X223698903Y-88809102D01*
X223497283Y-88943820D01*
X223325820Y-89115283D01*
X223191102Y-89316903D01*
X223098307Y-89540931D01*
X223051000Y-89778757D01*
X223051000Y-90021243D01*
X223098307Y-90259069D01*
X223191102Y-90483097D01*
X223325820Y-90684717D01*
X223454255Y-90813152D01*
X222681480Y-91585927D01*
X222681480Y-89676111D01*
X223845833Y-88511758D01*
X223922931Y-88543693D01*
X224160757Y-88591000D01*
X224403243Y-88591000D01*
X224641069Y-88543693D01*
X224865097Y-88450898D01*
X225066717Y-88316180D01*
X225238180Y-88144717D01*
X225372898Y-87943097D01*
X225465693Y-87719069D01*
X225513000Y-87481243D01*
X225513000Y-87238757D01*
X225465693Y-87000931D01*
X225372898Y-86776903D01*
X225238180Y-86575283D01*
X225066717Y-86403820D01*
X224865097Y-86269102D01*
X224641069Y-86176307D01*
X224403243Y-86129000D01*
X224160757Y-86129000D01*
X223922931Y-86176307D01*
X223698903Y-86269102D01*
X223497283Y-86403820D01*
X223325820Y-86575283D01*
X223191102Y-86776903D01*
X223098307Y-87000931D01*
X223051000Y-87238757D01*
X223051000Y-87481243D01*
X223098307Y-87719069D01*
X223130242Y-87796167D01*
X222231470Y-88694939D01*
X222231470Y-87586121D01*
X223845833Y-85971758D01*
X223922931Y-86003693D01*
X224160757Y-86051000D01*
X224403243Y-86051000D01*
X224641069Y-86003693D01*
X224865097Y-85910898D01*
X225066717Y-85776180D01*
X225238180Y-85604717D01*
X225372898Y-85403097D01*
X225465693Y-85179069D01*
X225513000Y-84941243D01*
X225513000Y-84698757D01*
X225465693Y-84460931D01*
X225372898Y-84236903D01*
X225238180Y-84035283D01*
X225066717Y-83863820D01*
X224865097Y-83729102D01*
X224750832Y-83681772D01*
X224913252Y-83624157D01*
X225163355Y-83475178D01*
X225379588Y-83280269D01*
X225553641Y-83046920D01*
X225678825Y-82784099D01*
X225723476Y-82636890D01*
X225602155Y-82407000D01*
X224409000Y-82407000D01*
X224409000Y-82427000D01*
X224155000Y-82427000D01*
X224155000Y-82407000D01*
X222961845Y-82407000D01*
X222840524Y-82636890D01*
X222885175Y-82784099D01*
X223010359Y-83046920D01*
X223184412Y-83280269D01*
X223400645Y-83475178D01*
X223650748Y-83624157D01*
X223813168Y-83681772D01*
X223698903Y-83729102D01*
X223497283Y-83863820D01*
X223325820Y-84035283D01*
X223191102Y-84236903D01*
X223098307Y-84460931D01*
X223051000Y-84698757D01*
X223051000Y-84941243D01*
X223098307Y-85179069D01*
X223130242Y-85256167D01*
X221459169Y-86927240D01*
X221396898Y-86776903D01*
X221262180Y-86575283D01*
X221090717Y-86403820D01*
X220889097Y-86269102D01*
X220665069Y-86176307D01*
X220427243Y-86129000D01*
X220184757Y-86129000D01*
X219946931Y-86176307D01*
X219722903Y-86269102D01*
X219521283Y-86403820D01*
X219349820Y-86575283D01*
X219215102Y-86776903D01*
X219122307Y-87000931D01*
X219075000Y-87238757D01*
X219075000Y-87481243D01*
X219122307Y-87719069D01*
X219215102Y-87943097D01*
X219349820Y-88144717D01*
X219521283Y-88316180D01*
X219722903Y-88450898D01*
X219946931Y-88543693D01*
X220184757Y-88591000D01*
X220427243Y-88591000D01*
X220665069Y-88543693D01*
X220889097Y-88450898D01*
X221090717Y-88316180D01*
X221219471Y-88187426D01*
X221219471Y-89072574D01*
X221090717Y-88943820D01*
X220889097Y-88809102D01*
X220665069Y-88716307D01*
X220427243Y-88669000D01*
X220184757Y-88669000D01*
X219946931Y-88716307D01*
X219722903Y-88809102D01*
X219521283Y-88943820D01*
X219349820Y-89115283D01*
X219215102Y-89316903D01*
X219122307Y-89540931D01*
X219075000Y-89778757D01*
X219075000Y-90021243D01*
X219122307Y-90259069D01*
X219215102Y-90483097D01*
X219349820Y-90684717D01*
X219521283Y-90856180D01*
X219722903Y-90990898D01*
X219946931Y-91083693D01*
X220184757Y-91131000D01*
X220427243Y-91131000D01*
X220665069Y-91083693D01*
X220889097Y-90990898D01*
X221090717Y-90856180D01*
X221219471Y-90727426D01*
X221219471Y-91612574D01*
X221090717Y-91483820D01*
X220889097Y-91349102D01*
X220665069Y-91256307D01*
X220427243Y-91209000D01*
X220184757Y-91209000D01*
X219946931Y-91256307D01*
X219722903Y-91349102D01*
X219521283Y-91483820D01*
X219349820Y-91655283D01*
X219215102Y-91856903D01*
X219122307Y-92080931D01*
X219075000Y-92318757D01*
X219075000Y-92561243D01*
X219122307Y-92799069D01*
X219215102Y-93023097D01*
X219349820Y-93224717D01*
X219521283Y-93396180D01*
X219722903Y-93530898D01*
X219946931Y-93623693D01*
X220184757Y-93671000D01*
X220427243Y-93671000D01*
X220665069Y-93623693D01*
X220889097Y-93530898D01*
X221090717Y-93396180D01*
X221219470Y-93267427D01*
X221219470Y-93753408D01*
X221156000Y-93747157D01*
X219456000Y-93747157D01*
X219381311Y-93754513D01*
X219309492Y-93776299D01*
X219243304Y-93811678D01*
X219185289Y-93859289D01*
X219137678Y-93917304D01*
X219102299Y-93983492D01*
X219080513Y-94055311D01*
X219073157Y-94130000D01*
X219073157Y-95830000D01*
X219080513Y-95904689D01*
X219102299Y-95976508D01*
X219137678Y-96042696D01*
X219185289Y-96100711D01*
X219243304Y-96148322D01*
X219309492Y-96183701D01*
X219381311Y-96205487D01*
X219456000Y-96212843D01*
X221156000Y-96212843D01*
X221219470Y-96206592D01*
X221219470Y-96517438D01*
X220850439Y-96886470D01*
X216732374Y-96886470D01*
X216707528Y-96884023D01*
X216682682Y-96886470D01*
X216682674Y-96886470D01*
X216608335Y-96893792D01*
X216512953Y-96922725D01*
X216425049Y-96969711D01*
X216348001Y-97032943D01*
X216332157Y-97052249D01*
X214187250Y-99197157D01*
X213835000Y-99197157D01*
X213760311Y-99204513D01*
X213688492Y-99226299D01*
X213650000Y-99246874D01*
X213611508Y-99226299D01*
X213539689Y-99204513D01*
X213465000Y-99197157D01*
X212565000Y-99197157D01*
X212490311Y-99204513D01*
X212418492Y-99226299D01*
X212380000Y-99246874D01*
X212341508Y-99226299D01*
X212269689Y-99204513D01*
X212195000Y-99197157D01*
X211842751Y-99197157D01*
X209142878Y-96497285D01*
X209127029Y-96477973D01*
X209066843Y-96428579D01*
X209179180Y-96394502D01*
X209289494Y-96335537D01*
X209386185Y-96256185D01*
X209465537Y-96159494D01*
X209510895Y-96074637D01*
X209639691Y-96127987D01*
X209790578Y-96158000D01*
X209944422Y-96158000D01*
X210095309Y-96127987D01*
X210129952Y-96113637D01*
X210154463Y-96159494D01*
X210233815Y-96256185D01*
X210330506Y-96335537D01*
X210440820Y-96394502D01*
X210560518Y-96430812D01*
X210685000Y-96443072D01*
X210874250Y-96440000D01*
X211033000Y-96281250D01*
X211033000Y-95494500D01*
X211287000Y-95494500D01*
X211287000Y-96281250D01*
X211445750Y-96440000D01*
X211635000Y-96443072D01*
X211759482Y-96430812D01*
X211879180Y-96394502D01*
X211989494Y-96335537D01*
X212086185Y-96256185D01*
X212165537Y-96159494D01*
X212224502Y-96049180D01*
X212260812Y-95929482D01*
X212273072Y-95805000D01*
X212272819Y-95792500D01*
X212746928Y-95792500D01*
X212759188Y-95916982D01*
X212795498Y-96036680D01*
X212854463Y-96146994D01*
X212933815Y-96243685D01*
X213030506Y-96323037D01*
X213140820Y-96382002D01*
X213260518Y-96418312D01*
X213385000Y-96430572D01*
X213574250Y-96427500D01*
X213733000Y-96268750D01*
X213733000Y-95482000D01*
X213987000Y-95482000D01*
X213987000Y-96268750D01*
X214145750Y-96427500D01*
X214335000Y-96430572D01*
X214459482Y-96418312D01*
X214579180Y-96382002D01*
X214689494Y-96323037D01*
X214786185Y-96243685D01*
X214865537Y-96146994D01*
X214924502Y-96036680D01*
X214960812Y-95916982D01*
X214971840Y-95805000D01*
X215446928Y-95805000D01*
X215459188Y-95929482D01*
X215495498Y-96049180D01*
X215554463Y-96159494D01*
X215633815Y-96256185D01*
X215730506Y-96335537D01*
X215840820Y-96394502D01*
X215960518Y-96430812D01*
X216085000Y-96443072D01*
X216274250Y-96440000D01*
X216433000Y-96281250D01*
X216433000Y-95494500D01*
X216687000Y-95494500D01*
X216687000Y-96281250D01*
X216845750Y-96440000D01*
X217035000Y-96443072D01*
X217159482Y-96430812D01*
X217279180Y-96394502D01*
X217389494Y-96335537D01*
X217486185Y-96256185D01*
X217565537Y-96159494D01*
X217624502Y-96049180D01*
X217660812Y-95929482D01*
X217673072Y-95805000D01*
X217670000Y-95653250D01*
X217511250Y-95494500D01*
X216687000Y-95494500D01*
X216433000Y-95494500D01*
X215608750Y-95494500D01*
X215450000Y-95653250D01*
X215446928Y-95805000D01*
X214971840Y-95805000D01*
X214973072Y-95792500D01*
X214970000Y-95640750D01*
X214811250Y-95482000D01*
X213987000Y-95482000D01*
X213733000Y-95482000D01*
X212908750Y-95482000D01*
X212750000Y-95640750D01*
X212746928Y-95792500D01*
X212272819Y-95792500D01*
X212270000Y-95653250D01*
X212111250Y-95494500D01*
X211287000Y-95494500D01*
X211033000Y-95494500D01*
X211013000Y-95494500D01*
X211013000Y-95240500D01*
X211033000Y-95240500D01*
X211033000Y-95220500D01*
X211287000Y-95220500D01*
X211287000Y-95240500D01*
X212111250Y-95240500D01*
X212270000Y-95081750D01*
X212273072Y-94930000D01*
X212260812Y-94805518D01*
X212224502Y-94685820D01*
X212165537Y-94575506D01*
X212086185Y-94478815D01*
X211989494Y-94399463D01*
X211907930Y-94355866D01*
X211916456Y-94345477D01*
X211952936Y-94277228D01*
X211953358Y-94277859D01*
X212062141Y-94386642D01*
X212190058Y-94472113D01*
X212332191Y-94530987D01*
X212483078Y-94561000D01*
X212636922Y-94561000D01*
X212787809Y-94530987D01*
X212928601Y-94472669D01*
X212854463Y-94563006D01*
X212795498Y-94673320D01*
X212759188Y-94793018D01*
X212746928Y-94917500D01*
X212750000Y-95069250D01*
X212908750Y-95228000D01*
X213733000Y-95228000D01*
X213733000Y-95208000D01*
X213987000Y-95208000D01*
X213987000Y-95228000D01*
X214811250Y-95228000D01*
X214970000Y-95069250D01*
X214973072Y-94917500D01*
X214960812Y-94793018D01*
X214924502Y-94673320D01*
X214865537Y-94563006D01*
X214786185Y-94466315D01*
X214689494Y-94386963D01*
X214607930Y-94343366D01*
X214616456Y-94332977D01*
X214649224Y-94271672D01*
X214653358Y-94277859D01*
X214762141Y-94386642D01*
X214890058Y-94472113D01*
X215032191Y-94530987D01*
X215183078Y-94561000D01*
X215336922Y-94561000D01*
X215487809Y-94530987D01*
X215629942Y-94472113D01*
X215694732Y-94428822D01*
X215633815Y-94478815D01*
X215554463Y-94575506D01*
X215495498Y-94685820D01*
X215459188Y-94805518D01*
X215446928Y-94930000D01*
X215450000Y-95081750D01*
X215608750Y-95240500D01*
X216433000Y-95240500D01*
X216433000Y-95220500D01*
X216687000Y-95220500D01*
X216687000Y-95240500D01*
X217511250Y-95240500D01*
X217670000Y-95081750D01*
X217673072Y-94930000D01*
X217660812Y-94805518D01*
X217624502Y-94685820D01*
X217565537Y-94575506D01*
X217486185Y-94478815D01*
X217389494Y-94399463D01*
X217307930Y-94355866D01*
X217316456Y-94345477D01*
X217372049Y-94241470D01*
X217406284Y-94128615D01*
X217417843Y-94011250D01*
X217417843Y-93573750D01*
X217406284Y-93456385D01*
X217372049Y-93343530D01*
X217316456Y-93239523D01*
X217241640Y-93148360D01*
X217150477Y-93073544D01*
X217046470Y-93017951D01*
X216933615Y-92983716D01*
X216816250Y-92972157D01*
X216303750Y-92972157D01*
X216186385Y-92983716D01*
X216073530Y-93017951D01*
X215969523Y-93073544D01*
X215878360Y-93148360D01*
X215812775Y-93228274D01*
X215757859Y-93173358D01*
X215629942Y-93087887D01*
X215487809Y-93029013D01*
X215336922Y-92999000D01*
X215183078Y-92999000D01*
X215032191Y-93029013D01*
X214890058Y-93087887D01*
X214762141Y-93173358D01*
X214653358Y-93282141D01*
X214649224Y-93288328D01*
X214616456Y-93227023D01*
X214541640Y-93135860D01*
X214450477Y-93061044D01*
X214346470Y-93005451D01*
X214233615Y-92971216D01*
X214116250Y-92959657D01*
X213603750Y-92959657D01*
X213486385Y-92971216D01*
X213373530Y-93005451D01*
X213269523Y-93061044D01*
X213178360Y-93135860D01*
X213107141Y-93222640D01*
X213057859Y-93173358D01*
X212929942Y-93087887D01*
X212787809Y-93029013D01*
X212636922Y-92999000D01*
X212483078Y-92999000D01*
X212332191Y-93029013D01*
X212190058Y-93087887D01*
X212062141Y-93173358D01*
X211953358Y-93282141D01*
X211945512Y-93293883D01*
X211916456Y-93239523D01*
X211841640Y-93148360D01*
X211750477Y-93073544D01*
X211646470Y-93017951D01*
X211533615Y-92983716D01*
X211416250Y-92972157D01*
X210903750Y-92972157D01*
X210786385Y-92983716D01*
X210673530Y-93017951D01*
X210569523Y-93073544D01*
X210478360Y-93148360D01*
X210412775Y-93228274D01*
X210357859Y-93173358D01*
X210229942Y-93087887D01*
X210087809Y-93029013D01*
X209936922Y-92999000D01*
X209783078Y-92999000D01*
X209632191Y-93029013D01*
X209490058Y-93087887D01*
X209362141Y-93173358D01*
X209253358Y-93282141D01*
X209245512Y-93293883D01*
X209216456Y-93239523D01*
X209141640Y-93148360D01*
X209050477Y-93073544D01*
X208946470Y-93017951D01*
X208833615Y-92983716D01*
X208716250Y-92972157D01*
X208203750Y-92972157D01*
X208086385Y-92983716D01*
X207973530Y-93017951D01*
X207869523Y-93073544D01*
X207778360Y-93148360D01*
X207712775Y-93228274D01*
X207657859Y-93173358D01*
X207529942Y-93087887D01*
X207387809Y-93029013D01*
X207236922Y-92999000D01*
X207083078Y-92999000D01*
X206932191Y-93029013D01*
X206790058Y-93087887D01*
X206662141Y-93173358D01*
X206553358Y-93282141D01*
X206467887Y-93410058D01*
X206409013Y-93552191D01*
X206379000Y-93703078D01*
X206379000Y-93856922D01*
X206409013Y-94007809D01*
X206467887Y-94149942D01*
X206553358Y-94277859D01*
X206662141Y-94386642D01*
X206790058Y-94472113D01*
X206932191Y-94530987D01*
X207083078Y-94561000D01*
X207236922Y-94561000D01*
X207387809Y-94530987D01*
X207529942Y-94472113D01*
X207594732Y-94428822D01*
X207533815Y-94478815D01*
X207454463Y-94575506D01*
X207395498Y-94685820D01*
X207359188Y-94805518D01*
X207346928Y-94930000D01*
X207350000Y-95081750D01*
X207508750Y-95240500D01*
X208333000Y-95240500D01*
X208333000Y-95220500D01*
X208587000Y-95220500D01*
X208587000Y-95240500D01*
X208607000Y-95240500D01*
X208607000Y-95494500D01*
X208587000Y-95494500D01*
X208587000Y-95514500D01*
X208333000Y-95514500D01*
X208333000Y-95494500D01*
X207508750Y-95494500D01*
X207350000Y-95653250D01*
X207346928Y-95805000D01*
X207359188Y-95929482D01*
X207370995Y-95968405D01*
X204782864Y-93380275D01*
X204767015Y-93360963D01*
X204689967Y-93297731D01*
X204625578Y-93263314D01*
X204748678Y-93287800D01*
X204902522Y-93287800D01*
X205053409Y-93257787D01*
X205195542Y-93198913D01*
X205323459Y-93113442D01*
X205432242Y-93004659D01*
X205517713Y-92876742D01*
X205576587Y-92734609D01*
X205606600Y-92583722D01*
X205606600Y-92429878D01*
X205576587Y-92278991D01*
X205517713Y-92136858D01*
X205432242Y-92008941D01*
X205323459Y-91900158D01*
X205195542Y-91814687D01*
X205053409Y-91755813D01*
X204972642Y-91739748D01*
X205002609Y-91733787D01*
X205144742Y-91674913D01*
X205272659Y-91589442D01*
X205381442Y-91480659D01*
X205466913Y-91352742D01*
X205525787Y-91210609D01*
X205555800Y-91059722D01*
X205555800Y-90905878D01*
X205525787Y-90754991D01*
X205466913Y-90612858D01*
X205381442Y-90484941D01*
X205272659Y-90376158D01*
X205144742Y-90290687D01*
X205098662Y-90271600D01*
X205144742Y-90252513D01*
X205272659Y-90167042D01*
X205381442Y-90058259D01*
X205466913Y-89930342D01*
X205525787Y-89788209D01*
X205555800Y-89637322D01*
X205555800Y-89483478D01*
X205525787Y-89332591D01*
X205472555Y-89204078D01*
X207562500Y-89204078D01*
X207562500Y-89357922D01*
X207592513Y-89508809D01*
X207651387Y-89650942D01*
X207736858Y-89778859D01*
X207845641Y-89887642D01*
X207973558Y-89973113D01*
X208115691Y-90031987D01*
X208266578Y-90062000D01*
X208420422Y-90062000D01*
X208571309Y-90031987D01*
X208713442Y-89973113D01*
X208730294Y-89961853D01*
X208734513Y-90004689D01*
X208756299Y-90076508D01*
X208791678Y-90142696D01*
X208839289Y-90200711D01*
X208897304Y-90248322D01*
X208963492Y-90283701D01*
X209035311Y-90305487D01*
X209110000Y-90312843D01*
X210610000Y-90312843D01*
X210684689Y-90305487D01*
X210756508Y-90283701D01*
X210822696Y-90248322D01*
X210880711Y-90200711D01*
X210928322Y-90142696D01*
X210963701Y-90076508D01*
X210985487Y-90004689D01*
X210992843Y-89930000D01*
X210992843Y-89204078D01*
X212833000Y-89204078D01*
X212833000Y-89357922D01*
X212863013Y-89508809D01*
X212921887Y-89650942D01*
X213007358Y-89778859D01*
X213116141Y-89887642D01*
X213244058Y-89973113D01*
X213386191Y-90031987D01*
X213537078Y-90062000D01*
X213690922Y-90062000D01*
X213841809Y-90031987D01*
X213933462Y-89994023D01*
X213934513Y-90004689D01*
X213956299Y-90076508D01*
X213991678Y-90142696D01*
X214039289Y-90200711D01*
X214097304Y-90248322D01*
X214163492Y-90283701D01*
X214235311Y-90305487D01*
X214310000Y-90312843D01*
X215810000Y-90312843D01*
X215884689Y-90305487D01*
X215956508Y-90283701D01*
X216022696Y-90248322D01*
X216080711Y-90200711D01*
X216128322Y-90142696D01*
X216163701Y-90076508D01*
X216185487Y-90004689D01*
X216192843Y-89930000D01*
X216192843Y-88430000D01*
X216185487Y-88355311D01*
X216163701Y-88283492D01*
X216128322Y-88217304D01*
X216080711Y-88159289D01*
X216022696Y-88111678D01*
X215956508Y-88076299D01*
X215884689Y-88054513D01*
X215810000Y-88047157D01*
X214310000Y-88047157D01*
X214235311Y-88054513D01*
X214163492Y-88076299D01*
X214097304Y-88111678D01*
X214039289Y-88159289D01*
X213991678Y-88217304D01*
X213956299Y-88283492D01*
X213934513Y-88355311D01*
X213927157Y-88430000D01*
X213927157Y-88565366D01*
X213841809Y-88530013D01*
X213690922Y-88500000D01*
X213537078Y-88500000D01*
X213386191Y-88530013D01*
X213244058Y-88588887D01*
X213116141Y-88674358D01*
X213007358Y-88783141D01*
X212921887Y-88911058D01*
X212863013Y-89053191D01*
X212833000Y-89204078D01*
X210992843Y-89204078D01*
X210992843Y-88430000D01*
X210985487Y-88355311D01*
X210963701Y-88283492D01*
X210928322Y-88217304D01*
X210880711Y-88159289D01*
X210822696Y-88111678D01*
X210756508Y-88076299D01*
X210684689Y-88054513D01*
X210610000Y-88047157D01*
X209110000Y-88047157D01*
X209035311Y-88054513D01*
X208963492Y-88076299D01*
X208897304Y-88111678D01*
X208839289Y-88159289D01*
X208791678Y-88217304D01*
X208756299Y-88283492D01*
X208734513Y-88355311D01*
X208727157Y-88430000D01*
X208727157Y-88598051D01*
X208713442Y-88588887D01*
X208571309Y-88530013D01*
X208420422Y-88500000D01*
X208266578Y-88500000D01*
X208115691Y-88530013D01*
X207973558Y-88588887D01*
X207845641Y-88674358D01*
X207736858Y-88783141D01*
X207651387Y-88911058D01*
X207592513Y-89053191D01*
X207562500Y-89204078D01*
X205472555Y-89204078D01*
X205466913Y-89190458D01*
X205381442Y-89062541D01*
X205272659Y-88953758D01*
X205144742Y-88868287D01*
X205002609Y-88809413D01*
X204851722Y-88779400D01*
X204697878Y-88779400D01*
X204546991Y-88809413D01*
X204404858Y-88868287D01*
X204276941Y-88953758D01*
X204168158Y-89062541D01*
X204082687Y-89190458D01*
X204023813Y-89332591D01*
X203993800Y-89483478D01*
X203993800Y-89637322D01*
X204023813Y-89788209D01*
X204082687Y-89930342D01*
X204168158Y-90058259D01*
X204276941Y-90167042D01*
X204404858Y-90252513D01*
X204450938Y-90271600D01*
X204404858Y-90290687D01*
X204276941Y-90376158D01*
X204168158Y-90484941D01*
X204082687Y-90612858D01*
X204023813Y-90754991D01*
X203993800Y-90905878D01*
X203993800Y-91059722D01*
X204023813Y-91210609D01*
X204082687Y-91352742D01*
X204168158Y-91480659D01*
X204276941Y-91589442D01*
X204404858Y-91674913D01*
X204546991Y-91733787D01*
X204627758Y-91749852D01*
X204597791Y-91755813D01*
X204455658Y-91814687D01*
X204327741Y-91900158D01*
X204289165Y-91938734D01*
X204179542Y-91865487D01*
X204037409Y-91806613D01*
X203886522Y-91776600D01*
X203732678Y-91776600D01*
X203581791Y-91806613D01*
X203439658Y-91865487D01*
X203311741Y-91950958D01*
X203250212Y-92012487D01*
X203247842Y-92008941D01*
X203139059Y-91900158D01*
X203011142Y-91814687D01*
X202869009Y-91755813D01*
X202718122Y-91725800D01*
X202564278Y-91725800D01*
X202413391Y-91755813D01*
X202271258Y-91814687D01*
X202143341Y-91900158D01*
X202034558Y-92008941D01*
X201962588Y-92116652D01*
X201923613Y-92022558D01*
X201838142Y-91894641D01*
X201729359Y-91785858D01*
X201601442Y-91700387D01*
X201459309Y-91641513D01*
X201308422Y-91611500D01*
X201154578Y-91611500D01*
X201003691Y-91641513D01*
X200861558Y-91700387D01*
X200733641Y-91785858D01*
X200624858Y-91894641D01*
X200539387Y-92022558D01*
X200480513Y-92164691D01*
X200450500Y-92315578D01*
X200450500Y-92469422D01*
X200480513Y-92620309D01*
X200539387Y-92762442D01*
X200624858Y-92890359D01*
X200733641Y-92999142D01*
X200861558Y-93084613D01*
X200888457Y-93095755D01*
X200891285Y-93098076D01*
X201457708Y-93664500D01*
X199163001Y-93664500D01*
X199062359Y-93563858D01*
X198934442Y-93478387D01*
X198792309Y-93419513D01*
X198641422Y-93389500D01*
X198487578Y-93389500D01*
X198336691Y-93419513D01*
X198194558Y-93478387D01*
X198066641Y-93563858D01*
X197957858Y-93672641D01*
X197872387Y-93800558D01*
X197813513Y-93942691D01*
X197783500Y-94093578D01*
X197783500Y-94247422D01*
X197811761Y-94389501D01*
X193339593Y-94389501D01*
X192995500Y-94045409D01*
X192995500Y-93903078D01*
X192965487Y-93752191D01*
X192906613Y-93610058D01*
X192821142Y-93482141D01*
X192712359Y-93373358D01*
X192584442Y-93287887D01*
X192442309Y-93229013D01*
X192291422Y-93199000D01*
X192137578Y-93199000D01*
X191986691Y-93229013D01*
X191844558Y-93287887D01*
X191716641Y-93373358D01*
X191607858Y-93482141D01*
X191522387Y-93610058D01*
X191463513Y-93752191D01*
X191433500Y-93903078D01*
X191433500Y-94056922D01*
X191463513Y-94207809D01*
X191522387Y-94349942D01*
X191607858Y-94477859D01*
X191716641Y-94586642D01*
X191844558Y-94672113D01*
X191986691Y-94730987D01*
X192137578Y-94761000D01*
X192279909Y-94761000D01*
X192754629Y-95235721D01*
X192770474Y-95255028D01*
X192847522Y-95318260D01*
X192934554Y-95364780D01*
X192935426Y-95365246D01*
X193030808Y-95394179D01*
X193130001Y-95403949D01*
X193154855Y-95401501D01*
X204100088Y-95401501D01*
X206776326Y-98077738D01*
X206792171Y-98097045D01*
X206869219Y-98160277D01*
X206957123Y-98207263D01*
X207030305Y-98229462D01*
X207052504Y-98236196D01*
X207055591Y-98236500D01*
X207126844Y-98243518D01*
X207126851Y-98243518D01*
X207151697Y-98245965D01*
X207176543Y-98243518D01*
X208185109Y-98243518D01*
X208699000Y-98757410D01*
X208699000Y-99202672D01*
X208680311Y-99204513D01*
X208608492Y-99226299D01*
X208542304Y-99261678D01*
X208484289Y-99309289D01*
X208436678Y-99367304D01*
X208401299Y-99433492D01*
X208379513Y-99505311D01*
X208372157Y-99580000D01*
X208372157Y-101580000D01*
X208379513Y-101654689D01*
X208401299Y-101726508D01*
X208436678Y-101792696D01*
X208484289Y-101850711D01*
X208542304Y-101898322D01*
X208608492Y-101933701D01*
X208680311Y-101955487D01*
X208755000Y-101962843D01*
X209655000Y-101962843D01*
X209729689Y-101955487D01*
X209801508Y-101933701D01*
X209840000Y-101913126D01*
X209878492Y-101933701D01*
X209950311Y-101955487D01*
X210025000Y-101962843D01*
X210925000Y-101962843D01*
X210999689Y-101955487D01*
X211071508Y-101933701D01*
X211110000Y-101913126D01*
X211148492Y-101933701D01*
X211220311Y-101955487D01*
X211295000Y-101962843D01*
X212195000Y-101962843D01*
X212269689Y-101955487D01*
X212341508Y-101933701D01*
X212380000Y-101913126D01*
X212418492Y-101933701D01*
X212490311Y-101955487D01*
X212565000Y-101962843D01*
X213289656Y-101962843D01*
X213261358Y-101991141D01*
X213175887Y-102119058D01*
X213117013Y-102261191D01*
X213087000Y-102412078D01*
X213087000Y-102565922D01*
X213117013Y-102716809D01*
X213175887Y-102858942D01*
X213261358Y-102986859D01*
X213362001Y-103087502D01*
X213362000Y-108417410D01*
X209587843Y-112191568D01*
X209587843Y-111805000D01*
X209580487Y-111730311D01*
X209558701Y-111658492D01*
X209538126Y-111620000D01*
X209558701Y-111581508D01*
X209580487Y-111509689D01*
X209587843Y-111435000D01*
X209587843Y-110535000D01*
X209580487Y-110460311D01*
X209558701Y-110388492D01*
X209538126Y-110350000D01*
X209558701Y-110311508D01*
X209580487Y-110239689D01*
X209587843Y-110165000D01*
X209587843Y-109265000D01*
X209580487Y-109190311D01*
X209558701Y-109118492D01*
X209538126Y-109080000D01*
X209558701Y-109041508D01*
X209580487Y-108969689D01*
X209587843Y-108895000D01*
X209587843Y-107995000D01*
X209580487Y-107920311D01*
X209558701Y-107848492D01*
X209538126Y-107810000D01*
X209558701Y-107771508D01*
X209580487Y-107699689D01*
X209587843Y-107625000D01*
X209587843Y-106725000D01*
X209580487Y-106650311D01*
X209558701Y-106578492D01*
X209538126Y-106540000D01*
X209558701Y-106501508D01*
X209580487Y-106429689D01*
X209587843Y-106355000D01*
X209587843Y-105455000D01*
X209580487Y-105380311D01*
X209558701Y-105308492D01*
X209538126Y-105270000D01*
X209558701Y-105231508D01*
X209580487Y-105159689D01*
X209587843Y-105085000D01*
X209587843Y-104322272D01*
X209656185Y-104266185D01*
X209735537Y-104169494D01*
X209794502Y-104059180D01*
X209830812Y-103939482D01*
X209843072Y-103815000D01*
X209840000Y-103650750D01*
X209681250Y-103492000D01*
X208332000Y-103492000D01*
X208332000Y-103512000D01*
X208078000Y-103512000D01*
X208078000Y-103492000D01*
X206728750Y-103492000D01*
X206570000Y-103650750D01*
X206566928Y-103815000D01*
X206579188Y-103939482D01*
X206615498Y-104059180D01*
X206674463Y-104169494D01*
X206753815Y-104266185D01*
X206822157Y-104322272D01*
X206822157Y-105085000D01*
X206829513Y-105159689D01*
X206851299Y-105231508D01*
X206871874Y-105270000D01*
X206851299Y-105308492D01*
X206829513Y-105380311D01*
X206822157Y-105455000D01*
X206822157Y-106355000D01*
X206829513Y-106429689D01*
X206851299Y-106501508D01*
X206871874Y-106540000D01*
X206851299Y-106578492D01*
X206829513Y-106650311D01*
X206822157Y-106725000D01*
X206822157Y-107625000D01*
X206829513Y-107699689D01*
X206851299Y-107771508D01*
X206871874Y-107810000D01*
X206851299Y-107848492D01*
X206829513Y-107920311D01*
X206822157Y-107995000D01*
X206822157Y-108895000D01*
X206829513Y-108969689D01*
X206851299Y-109041508D01*
X206871874Y-109080000D01*
X206851299Y-109118492D01*
X206829513Y-109190311D01*
X206822157Y-109265000D01*
X206822157Y-110165000D01*
X206829513Y-110239689D01*
X206851299Y-110311508D01*
X206871874Y-110350000D01*
X206851299Y-110388492D01*
X206829513Y-110460311D01*
X206822157Y-110535000D01*
X206822157Y-111435000D01*
X206829513Y-111509689D01*
X206851299Y-111581508D01*
X206871874Y-111620000D01*
X206851299Y-111658492D01*
X206829513Y-111730311D01*
X206822157Y-111805000D01*
X206822157Y-112705000D01*
X206829513Y-112779689D01*
X206851299Y-112851508D01*
X206871874Y-112890000D01*
X206851299Y-112928492D01*
X206829513Y-113000311D01*
X206822157Y-113075000D01*
X206822157Y-113975000D01*
X206829513Y-114049689D01*
X206851299Y-114121508D01*
X206871874Y-114160000D01*
X206851299Y-114198492D01*
X206829513Y-114270311D01*
X206822157Y-114345000D01*
X206822157Y-115245000D01*
X206829513Y-115319689D01*
X206851299Y-115391508D01*
X206886678Y-115457696D01*
X206934289Y-115515711D01*
X206992304Y-115563322D01*
X207058492Y-115598701D01*
X207130311Y-115620487D01*
X207205000Y-115627843D01*
X209205000Y-115627843D01*
X209230029Y-115625378D01*
X208864781Y-115990626D01*
X208845474Y-116006471D01*
X208782242Y-116083519D01*
X208770254Y-116105947D01*
X208735255Y-116171424D01*
X208726601Y-116199954D01*
X208680311Y-116204513D01*
X208608492Y-116226299D01*
X208542304Y-116261678D01*
X208484289Y-116309289D01*
X208436678Y-116367304D01*
X208401299Y-116433492D01*
X208379513Y-116505311D01*
X208372157Y-116580000D01*
X208372157Y-118580000D01*
X208379513Y-118654689D01*
X208401299Y-118726508D01*
X208436678Y-118792696D01*
X208439225Y-118795800D01*
X205663800Y-118795800D01*
X205663800Y-115843000D01*
X205816922Y-115843000D01*
X205967809Y-115812987D01*
X206109942Y-115754113D01*
X206237859Y-115668642D01*
X206346642Y-115559859D01*
X206432113Y-115431942D01*
X206490987Y-115289809D01*
X206521000Y-115138922D01*
X206521000Y-114985078D01*
X206490987Y-114834191D01*
X206432113Y-114692058D01*
X206346642Y-114564141D01*
X206273001Y-114490500D01*
X206346642Y-114416859D01*
X206432113Y-114288942D01*
X206490987Y-114146809D01*
X206521000Y-113995922D01*
X206521000Y-113842078D01*
X206490987Y-113691191D01*
X206432113Y-113549058D01*
X206346642Y-113421141D01*
X206344500Y-113418999D01*
X206359293Y-113404205D01*
X206444764Y-113276288D01*
X206503638Y-113134155D01*
X206533651Y-112983268D01*
X206533651Y-112829424D01*
X206503638Y-112678537D01*
X206444764Y-112536404D01*
X206359293Y-112408487D01*
X206250510Y-112299704D01*
X206122593Y-112214233D01*
X205980460Y-112155359D01*
X205829573Y-112125346D01*
X205687243Y-112125346D01*
X205663800Y-112101903D01*
X205663800Y-107289600D01*
X205661360Y-107264824D01*
X205654133Y-107240999D01*
X205642397Y-107219043D01*
X205626603Y-107199797D01*
X205607357Y-107184003D01*
X205585401Y-107172267D01*
X205561576Y-107165040D01*
X205537458Y-107162602D01*
X186055000Y-107061657D01*
X186055000Y-102915000D01*
X206566928Y-102915000D01*
X206570000Y-103079250D01*
X206728750Y-103238000D01*
X208078000Y-103238000D01*
X208078000Y-102438750D01*
X208332000Y-102438750D01*
X208332000Y-103238000D01*
X209681250Y-103238000D01*
X209840000Y-103079250D01*
X209843072Y-102915000D01*
X209830812Y-102790518D01*
X209794502Y-102670820D01*
X209735537Y-102560506D01*
X209656185Y-102463815D01*
X209559494Y-102384463D01*
X209449180Y-102325498D01*
X209329482Y-102289188D01*
X209205000Y-102276928D01*
X208490750Y-102280000D01*
X208332000Y-102438750D01*
X208078000Y-102438750D01*
X207919250Y-102280000D01*
X207205000Y-102276928D01*
X207080518Y-102289188D01*
X206960820Y-102325498D01*
X206850506Y-102384463D01*
X206753815Y-102463815D01*
X206674463Y-102560506D01*
X206615498Y-102670820D01*
X206579188Y-102790518D01*
X206566928Y-102915000D01*
X186055000Y-102915000D01*
X186055000Y-101980278D01*
X202723800Y-101980278D01*
X202723800Y-102134122D01*
X202753813Y-102285009D01*
X202812687Y-102427142D01*
X202898158Y-102555059D01*
X203006941Y-102663842D01*
X203134858Y-102749313D01*
X203276991Y-102808187D01*
X203427878Y-102838200D01*
X203581722Y-102838200D01*
X203732609Y-102808187D01*
X203874742Y-102749313D01*
X204002659Y-102663842D01*
X204111442Y-102555059D01*
X204196913Y-102427142D01*
X204255787Y-102285009D01*
X204285800Y-102134122D01*
X204285800Y-101980278D01*
X204255787Y-101829391D01*
X204196913Y-101687258D01*
X204111442Y-101559341D01*
X204002659Y-101450558D01*
X203874742Y-101365087D01*
X203732609Y-101306213D01*
X203581722Y-101276200D01*
X203427878Y-101276200D01*
X203276991Y-101306213D01*
X203134858Y-101365087D01*
X203006941Y-101450558D01*
X202898158Y-101559341D01*
X202812687Y-101687258D01*
X202753813Y-101829391D01*
X202723800Y-101980278D01*
X186055000Y-101980278D01*
X186055000Y-96544678D01*
X203130200Y-96544678D01*
X203130200Y-96698522D01*
X203160213Y-96849409D01*
X203219087Y-96991542D01*
X203304558Y-97119459D01*
X203413341Y-97228242D01*
X203541258Y-97313713D01*
X203683391Y-97372587D01*
X203834278Y-97402600D01*
X203988122Y-97402600D01*
X204139009Y-97372587D01*
X204281142Y-97313713D01*
X204409059Y-97228242D01*
X204517842Y-97119459D01*
X204603313Y-96991542D01*
X204662187Y-96849409D01*
X204692200Y-96698522D01*
X204692200Y-96544678D01*
X204662187Y-96393791D01*
X204603313Y-96251658D01*
X204517842Y-96123741D01*
X204409059Y-96014958D01*
X204281142Y-95929487D01*
X204139009Y-95870613D01*
X203988122Y-95840600D01*
X203834278Y-95840600D01*
X203683391Y-95870613D01*
X203541258Y-95929487D01*
X203413341Y-96014958D01*
X203304558Y-96123741D01*
X203219087Y-96251658D01*
X203160213Y-96393791D01*
X203130200Y-96544678D01*
X186055000Y-96544678D01*
X186055000Y-90058781D01*
X186116858Y-90100113D01*
X186258991Y-90158987D01*
X186409878Y-90189000D01*
X186563722Y-90189000D01*
X186714609Y-90158987D01*
X186856742Y-90100113D01*
X186984659Y-90014642D01*
X187093442Y-89905859D01*
X187178913Y-89777942D01*
X187237787Y-89635809D01*
X187267800Y-89484922D01*
X187267800Y-89331078D01*
X187750500Y-89331078D01*
X187750500Y-89484922D01*
X187780513Y-89635809D01*
X187839387Y-89777942D01*
X187924858Y-89905859D01*
X188033641Y-90014642D01*
X188152110Y-90093800D01*
X188033641Y-90172958D01*
X187924858Y-90281741D01*
X187839387Y-90409658D01*
X187780513Y-90551791D01*
X187750500Y-90702678D01*
X187750500Y-90856522D01*
X187780513Y-91007409D01*
X187839387Y-91149542D01*
X187924858Y-91277459D01*
X188033641Y-91386242D01*
X188161558Y-91471713D01*
X188303691Y-91530587D01*
X188454578Y-91560600D01*
X188608422Y-91560600D01*
X188759309Y-91530587D01*
X188901442Y-91471713D01*
X189029359Y-91386242D01*
X189138142Y-91277459D01*
X189223613Y-91149542D01*
X189282487Y-91007409D01*
X189312500Y-90856522D01*
X189312500Y-90728078D01*
X192005000Y-90728078D01*
X192005000Y-90881922D01*
X192035013Y-91032809D01*
X192093887Y-91174942D01*
X192179358Y-91302859D01*
X192288141Y-91411642D01*
X192416058Y-91497113D01*
X192558191Y-91555987D01*
X192709078Y-91586000D01*
X192862922Y-91586000D01*
X193013809Y-91555987D01*
X193155942Y-91497113D01*
X193283859Y-91411642D01*
X193392642Y-91302859D01*
X193478113Y-91174942D01*
X193536987Y-91032809D01*
X193567000Y-90881922D01*
X193567000Y-90804278D01*
X195205400Y-90804278D01*
X195205400Y-90958122D01*
X195235413Y-91109009D01*
X195294287Y-91251142D01*
X195379758Y-91379059D01*
X195488541Y-91487842D01*
X195616458Y-91573313D01*
X195758591Y-91632187D01*
X195909478Y-91662200D01*
X196063322Y-91662200D01*
X196214209Y-91632187D01*
X196356342Y-91573313D01*
X196484259Y-91487842D01*
X196593042Y-91379059D01*
X196678513Y-91251142D01*
X196737387Y-91109009D01*
X196767400Y-90958122D01*
X196767400Y-90804278D01*
X196737387Y-90653391D01*
X196678513Y-90511258D01*
X196593042Y-90383341D01*
X196484259Y-90274558D01*
X196356342Y-90189087D01*
X196214209Y-90130213D01*
X196063322Y-90100200D01*
X195909478Y-90100200D01*
X195758591Y-90130213D01*
X195616458Y-90189087D01*
X195488541Y-90274558D01*
X195379758Y-90383341D01*
X195294287Y-90511258D01*
X195235413Y-90653391D01*
X195205400Y-90804278D01*
X193567000Y-90804278D01*
X193567000Y-90728078D01*
X193536987Y-90577191D01*
X193478113Y-90435058D01*
X193392642Y-90307141D01*
X193283859Y-90198358D01*
X193155942Y-90112887D01*
X193013809Y-90054013D01*
X192862922Y-90024000D01*
X192709078Y-90024000D01*
X192558191Y-90054013D01*
X192416058Y-90112887D01*
X192288141Y-90198358D01*
X192179358Y-90307141D01*
X192093887Y-90435058D01*
X192035013Y-90577191D01*
X192005000Y-90728078D01*
X189312500Y-90728078D01*
X189312500Y-90702678D01*
X189282487Y-90551791D01*
X189223613Y-90409658D01*
X189138142Y-90281741D01*
X189029359Y-90172958D01*
X188910890Y-90093800D01*
X189029359Y-90014642D01*
X189138142Y-89905859D01*
X189223613Y-89777942D01*
X189282487Y-89635809D01*
X189312500Y-89484922D01*
X189312500Y-89331078D01*
X190277800Y-89331078D01*
X190277800Y-89484922D01*
X190307813Y-89635809D01*
X190366687Y-89777942D01*
X190452158Y-89905859D01*
X190560941Y-90014642D01*
X190688858Y-90100113D01*
X190830991Y-90158987D01*
X190981878Y-90189000D01*
X191135722Y-90189000D01*
X191286609Y-90158987D01*
X191428742Y-90100113D01*
X191556659Y-90014642D01*
X191665442Y-89905859D01*
X191750913Y-89777942D01*
X191809787Y-89635809D01*
X191839800Y-89484922D01*
X191839800Y-89331078D01*
X191809787Y-89180191D01*
X191750913Y-89038058D01*
X191665442Y-88910141D01*
X191556659Y-88801358D01*
X191428742Y-88715887D01*
X191286609Y-88657013D01*
X191135722Y-88627000D01*
X190981878Y-88627000D01*
X190830991Y-88657013D01*
X190688858Y-88715887D01*
X190560941Y-88801358D01*
X190452158Y-88910141D01*
X190366687Y-89038058D01*
X190307813Y-89180191D01*
X190277800Y-89331078D01*
X189312500Y-89331078D01*
X189282487Y-89180191D01*
X189223613Y-89038058D01*
X189138142Y-88910141D01*
X189029359Y-88801358D01*
X188901442Y-88715887D01*
X188759309Y-88657013D01*
X188608422Y-88627000D01*
X188454578Y-88627000D01*
X188303691Y-88657013D01*
X188161558Y-88715887D01*
X188033641Y-88801358D01*
X187924858Y-88910141D01*
X187839387Y-89038058D01*
X187780513Y-89180191D01*
X187750500Y-89331078D01*
X187267800Y-89331078D01*
X187237787Y-89180191D01*
X187178913Y-89038058D01*
X187093442Y-88910141D01*
X186984659Y-88801358D01*
X186856742Y-88715887D01*
X186714609Y-88657013D01*
X186563722Y-88627000D01*
X186409878Y-88627000D01*
X186258991Y-88657013D01*
X186116858Y-88715887D01*
X186055000Y-88757219D01*
X186055000Y-88111878D01*
X195053000Y-88111878D01*
X195053000Y-88265722D01*
X195083013Y-88416609D01*
X195141887Y-88558742D01*
X195227358Y-88686659D01*
X195336141Y-88795442D01*
X195464058Y-88880913D01*
X195606191Y-88939787D01*
X195757078Y-88969800D01*
X195910922Y-88969800D01*
X196061809Y-88939787D01*
X196203942Y-88880913D01*
X196331859Y-88795442D01*
X196440642Y-88686659D01*
X196526113Y-88558742D01*
X196584987Y-88416609D01*
X196615000Y-88265722D01*
X196615000Y-88111878D01*
X196584987Y-87960991D01*
X196526113Y-87818858D01*
X196440642Y-87690941D01*
X196331859Y-87582158D01*
X196203942Y-87496687D01*
X196061809Y-87437813D01*
X195910922Y-87407800D01*
X195757078Y-87407800D01*
X195606191Y-87437813D01*
X195464058Y-87496687D01*
X195336141Y-87582158D01*
X195227358Y-87690941D01*
X195141887Y-87818858D01*
X195083013Y-87960991D01*
X195053000Y-88111878D01*
X186055000Y-88111878D01*
X186055000Y-87171018D01*
X186083358Y-87213459D01*
X186192141Y-87322242D01*
X186320058Y-87407713D01*
X186462191Y-87466587D01*
X186613078Y-87496600D01*
X186766922Y-87496600D01*
X186917809Y-87466587D01*
X187059942Y-87407713D01*
X187187859Y-87322242D01*
X187296642Y-87213459D01*
X187382113Y-87085542D01*
X187440987Y-86943409D01*
X187471000Y-86792522D01*
X187471000Y-86638678D01*
X187440987Y-86487791D01*
X187382113Y-86345658D01*
X187296642Y-86217741D01*
X187187859Y-86108958D01*
X187059942Y-86023487D01*
X186917809Y-85964613D01*
X186766922Y-85934600D01*
X186613078Y-85934600D01*
X186462191Y-85964613D01*
X186320058Y-86023487D01*
X186192141Y-86108958D01*
X186083358Y-86217741D01*
X186055000Y-86260182D01*
X186055000Y-84222349D01*
X187397256Y-84222349D01*
X187511118Y-84502090D01*
X187826296Y-84657961D01*
X188165826Y-84749349D01*
X188516661Y-84772741D01*
X188865319Y-84727240D01*
X189198400Y-84614594D01*
X189408882Y-84502090D01*
X189522744Y-84222349D01*
X188460000Y-83159605D01*
X187397256Y-84222349D01*
X186055000Y-84222349D01*
X186055000Y-83036661D01*
X186667259Y-83036661D01*
X186712760Y-83385319D01*
X186825406Y-83718400D01*
X186937910Y-83928882D01*
X187217651Y-84042744D01*
X188280395Y-82980000D01*
X188639605Y-82980000D01*
X189702349Y-84042744D01*
X189982090Y-83928882D01*
X190137961Y-83613704D01*
X190229349Y-83274174D01*
X190252741Y-82923339D01*
X190240457Y-82829210D01*
X202329000Y-82829210D01*
X202329000Y-83130790D01*
X202387835Y-83426576D01*
X202503245Y-83705201D01*
X202670795Y-83955956D01*
X202884044Y-84169205D01*
X203134799Y-84336755D01*
X203413424Y-84452165D01*
X203709210Y-84511000D01*
X204010790Y-84511000D01*
X204306576Y-84452165D01*
X204585201Y-84336755D01*
X204835956Y-84169205D01*
X205049205Y-83955956D01*
X205216755Y-83705201D01*
X205332165Y-83426576D01*
X205391000Y-83130790D01*
X205391000Y-82829210D01*
X205332165Y-82533424D01*
X205216755Y-82254799D01*
X205133367Y-82130000D01*
X208471928Y-82130000D01*
X208484188Y-82254482D01*
X208520498Y-82374180D01*
X208579463Y-82484494D01*
X208658815Y-82581185D01*
X208755506Y-82660537D01*
X208865820Y-82719502D01*
X208985518Y-82755812D01*
X209110000Y-82768072D01*
X209574250Y-82765000D01*
X209733000Y-82606250D01*
X209733000Y-81507000D01*
X209987000Y-81507000D01*
X209987000Y-82606250D01*
X210145750Y-82765000D01*
X210610000Y-82768072D01*
X210734482Y-82755812D01*
X210854180Y-82719502D01*
X210964494Y-82660537D01*
X211061185Y-82581185D01*
X211140537Y-82484494D01*
X211199502Y-82374180D01*
X211235812Y-82254482D01*
X211248072Y-82130000D01*
X213671928Y-82130000D01*
X213684188Y-82254482D01*
X213720498Y-82374180D01*
X213779463Y-82484494D01*
X213858815Y-82581185D01*
X213955506Y-82660537D01*
X214065820Y-82719502D01*
X214185518Y-82755812D01*
X214310000Y-82768072D01*
X214774250Y-82765000D01*
X214933000Y-82606250D01*
X214933000Y-81507000D01*
X215187000Y-81507000D01*
X215187000Y-82606250D01*
X215345750Y-82765000D01*
X215810000Y-82768072D01*
X215934482Y-82755812D01*
X216054180Y-82719502D01*
X216164494Y-82660537D01*
X216193308Y-82636890D01*
X218864524Y-82636890D01*
X218909175Y-82784099D01*
X219034359Y-83046920D01*
X219208412Y-83280269D01*
X219424645Y-83475178D01*
X219674748Y-83624157D01*
X219837168Y-83681772D01*
X219722903Y-83729102D01*
X219521283Y-83863820D01*
X219349820Y-84035283D01*
X219215102Y-84236903D01*
X219122307Y-84460931D01*
X219075000Y-84698757D01*
X219075000Y-84941243D01*
X219122307Y-85179069D01*
X219215102Y-85403097D01*
X219349820Y-85604717D01*
X219521283Y-85776180D01*
X219722903Y-85910898D01*
X219946931Y-86003693D01*
X220184757Y-86051000D01*
X220427243Y-86051000D01*
X220665069Y-86003693D01*
X220889097Y-85910898D01*
X221090717Y-85776180D01*
X221262180Y-85604717D01*
X221396898Y-85403097D01*
X221489693Y-85179069D01*
X221537000Y-84941243D01*
X221537000Y-84698757D01*
X221489693Y-84460931D01*
X221396898Y-84236903D01*
X221262180Y-84035283D01*
X221090717Y-83863820D01*
X220889097Y-83729102D01*
X220774832Y-83681772D01*
X220937252Y-83624157D01*
X221187355Y-83475178D01*
X221403588Y-83280269D01*
X221577641Y-83046920D01*
X221702825Y-82784099D01*
X221747476Y-82636890D01*
X221626155Y-82407000D01*
X220433000Y-82407000D01*
X220433000Y-82427000D01*
X220179000Y-82427000D01*
X220179000Y-82407000D01*
X218985845Y-82407000D01*
X218864524Y-82636890D01*
X216193308Y-82636890D01*
X216261185Y-82581185D01*
X216340537Y-82484494D01*
X216399502Y-82374180D01*
X216435812Y-82254482D01*
X216448072Y-82130000D01*
X216446703Y-81923110D01*
X218864524Y-81923110D01*
X218985845Y-82153000D01*
X220179000Y-82153000D01*
X220179000Y-80959186D01*
X220433000Y-80959186D01*
X220433000Y-82153000D01*
X221626155Y-82153000D01*
X221747476Y-81923110D01*
X222840524Y-81923110D01*
X222961845Y-82153000D01*
X224155000Y-82153000D01*
X224155000Y-80959186D01*
X224409000Y-80959186D01*
X224409000Y-82153000D01*
X225602155Y-82153000D01*
X225723476Y-81923110D01*
X225678825Y-81775901D01*
X225553641Y-81513080D01*
X225379588Y-81279731D01*
X225163355Y-81084822D01*
X224913252Y-80935843D01*
X224638891Y-80838519D01*
X224409000Y-80959186D01*
X224155000Y-80959186D01*
X223925109Y-80838519D01*
X223650748Y-80935843D01*
X223400645Y-81084822D01*
X223184412Y-81279731D01*
X223010359Y-81513080D01*
X222885175Y-81775901D01*
X222840524Y-81923110D01*
X221747476Y-81923110D01*
X221702825Y-81775901D01*
X221577641Y-81513080D01*
X221403588Y-81279731D01*
X221187355Y-81084822D01*
X220937252Y-80935843D01*
X220662891Y-80838519D01*
X220433000Y-80959186D01*
X220179000Y-80959186D01*
X219949109Y-80838519D01*
X219674748Y-80935843D01*
X219424645Y-81084822D01*
X219208412Y-81279731D01*
X219034359Y-81513080D01*
X218909175Y-81775901D01*
X218864524Y-81923110D01*
X216446703Y-81923110D01*
X216445000Y-81665750D01*
X216286250Y-81507000D01*
X215187000Y-81507000D01*
X214933000Y-81507000D01*
X213833750Y-81507000D01*
X213675000Y-81665750D01*
X213671928Y-82130000D01*
X211248072Y-82130000D01*
X211245000Y-81665750D01*
X211086250Y-81507000D01*
X209987000Y-81507000D01*
X209733000Y-81507000D01*
X208633750Y-81507000D01*
X208475000Y-81665750D01*
X208471928Y-82130000D01*
X205133367Y-82130000D01*
X205049205Y-82004044D01*
X204835956Y-81790795D01*
X204585201Y-81623245D01*
X204306576Y-81507835D01*
X204010790Y-81449000D01*
X203709210Y-81449000D01*
X203413424Y-81507835D01*
X203134799Y-81623245D01*
X202884044Y-81790795D01*
X202670795Y-82004044D01*
X202503245Y-82254799D01*
X202387835Y-82533424D01*
X202329000Y-82829210D01*
X190240457Y-82829210D01*
X190207240Y-82574681D01*
X190094594Y-82241600D01*
X189982090Y-82031118D01*
X189702349Y-81917256D01*
X188639605Y-82980000D01*
X188280395Y-82980000D01*
X187217651Y-81917256D01*
X186937910Y-82031118D01*
X186782039Y-82346296D01*
X186690651Y-82685826D01*
X186667259Y-83036661D01*
X186055000Y-83036661D01*
X186055000Y-81737651D01*
X187397256Y-81737651D01*
X188460000Y-82800395D01*
X189522744Y-81737651D01*
X189408882Y-81457910D01*
X189093704Y-81302039D01*
X188754174Y-81210651D01*
X188403339Y-81187259D01*
X188054681Y-81232760D01*
X187721600Y-81345406D01*
X187511118Y-81457910D01*
X187397256Y-81737651D01*
X186055000Y-81737651D01*
X186055000Y-80543241D01*
X208483237Y-80515171D01*
X208471928Y-80630000D01*
X208475000Y-81094250D01*
X208633750Y-81253000D01*
X209733000Y-81253000D01*
X209733000Y-81233000D01*
X209987000Y-81233000D01*
X209987000Y-81253000D01*
X211086250Y-81253000D01*
X211245000Y-81094250D01*
X211248072Y-80630000D01*
X211236423Y-80511725D01*
X213683878Y-80508662D01*
X213671928Y-80630000D01*
X213675000Y-81094250D01*
X213833750Y-81253000D01*
X214933000Y-81253000D01*
X214933000Y-81233000D01*
X215187000Y-81233000D01*
X215187000Y-81253000D01*
X216286250Y-81253000D01*
X216445000Y-81094250D01*
X216448072Y-80630000D01*
X216435812Y-80505518D01*
X216435721Y-80505218D01*
X226390702Y-80492759D01*
X226463931Y-99019764D01*
G37*
X226463931Y-99019764D02*
X226409180Y-98990498D01*
X226289482Y-98954188D01*
X226165000Y-98941928D01*
X226000750Y-98945000D01*
X225842000Y-99103750D01*
X225842000Y-100453000D01*
X225862000Y-100453000D01*
X225862000Y-100707000D01*
X225842000Y-100707000D01*
X225842000Y-102056250D01*
X226000750Y-102215000D01*
X226165000Y-102218072D01*
X226289482Y-102205812D01*
X226409180Y-102169502D01*
X226476239Y-102133658D01*
X226531280Y-116059136D01*
X226519494Y-116049463D01*
X226409180Y-115990498D01*
X226289482Y-115954188D01*
X226165000Y-115941928D01*
X226000750Y-115945000D01*
X225842000Y-116103750D01*
X225842000Y-117453000D01*
X225862000Y-117453000D01*
X225862000Y-117707000D01*
X225842000Y-117707000D01*
X225842000Y-117727000D01*
X225588000Y-117727000D01*
X225588000Y-117707000D01*
X225568000Y-117707000D01*
X225568000Y-117453000D01*
X225588000Y-117453000D01*
X225588000Y-116103750D01*
X225429250Y-115945000D01*
X225265000Y-115941928D01*
X225140518Y-115954188D01*
X225020820Y-115990498D01*
X224910506Y-116049463D01*
X224813815Y-116128815D01*
X224757728Y-116197157D01*
X223995000Y-116197157D01*
X223920311Y-116204513D01*
X223848492Y-116226299D01*
X223810000Y-116246874D01*
X223771508Y-116226299D01*
X223699689Y-116204513D01*
X223625000Y-116197157D01*
X222725000Y-116197157D01*
X222650311Y-116204513D01*
X222578492Y-116226299D01*
X222540000Y-116246874D01*
X222502000Y-116226562D01*
X222502000Y-116168501D01*
X222602642Y-116067859D01*
X222688113Y-115939942D01*
X222746987Y-115797809D01*
X222777000Y-115646922D01*
X222777000Y-115493078D01*
X222746987Y-115342191D01*
X222688113Y-115200058D01*
X222602642Y-115072141D01*
X222493859Y-114963358D01*
X222365942Y-114877887D01*
X222223809Y-114819013D01*
X222072922Y-114789000D01*
X221919078Y-114789000D01*
X221768191Y-114819013D01*
X221626058Y-114877887D01*
X221498141Y-114963358D01*
X221389358Y-115072141D01*
X221329250Y-115162099D01*
X221269142Y-115072141D01*
X221160359Y-114963358D01*
X221032442Y-114877887D01*
X220890309Y-114819013D01*
X220739422Y-114789000D01*
X220585578Y-114789000D01*
X220434691Y-114819013D01*
X220292558Y-114877887D01*
X220164641Y-114963358D01*
X220055858Y-115072141D01*
X219970387Y-115200058D01*
X219911513Y-115342191D01*
X219881500Y-115493078D01*
X219881500Y-115646922D01*
X219911513Y-115797809D01*
X219970387Y-115939942D01*
X220055858Y-116067859D01*
X220129001Y-116141002D01*
X220129001Y-116202672D01*
X220110311Y-116204513D01*
X220038492Y-116226299D01*
X220000000Y-116246874D01*
X219961508Y-116226299D01*
X219889689Y-116204513D01*
X219815000Y-116197157D01*
X218915000Y-116197157D01*
X218840311Y-116204513D01*
X218768492Y-116226299D01*
X218730000Y-116246874D01*
X218691508Y-116226299D01*
X218619689Y-116204513D01*
X218545000Y-116197157D01*
X217645000Y-116197157D01*
X217570311Y-116204513D01*
X217498492Y-116226299D01*
X217460000Y-116246874D01*
X217421508Y-116226299D01*
X217349689Y-116204513D01*
X217275000Y-116197157D01*
X216375000Y-116197157D01*
X216300311Y-116204513D01*
X216228492Y-116226299D01*
X216190000Y-116246874D01*
X216151508Y-116226299D01*
X216079689Y-116204513D01*
X216005000Y-116197157D01*
X215105000Y-116197157D01*
X215030311Y-116204513D01*
X214958492Y-116226299D01*
X214920000Y-116246874D01*
X214881508Y-116226299D01*
X214809689Y-116204513D01*
X214791000Y-116202672D01*
X214791000Y-113586077D01*
X214810359Y-113573142D01*
X214919142Y-113464359D01*
X215004613Y-113336442D01*
X215063487Y-113194309D01*
X215093500Y-113043422D01*
X215093500Y-112889578D01*
X215065239Y-112747499D01*
X224167153Y-112747499D01*
X224191999Y-112749946D01*
X224216845Y-112747499D01*
X224216853Y-112747499D01*
X224291192Y-112740177D01*
X224386574Y-112711244D01*
X224474478Y-112664258D01*
X224517000Y-112629361D01*
X224517000Y-112662422D01*
X224547013Y-112813309D01*
X224605887Y-112955442D01*
X224691358Y-113083359D01*
X224800141Y-113192142D01*
X224928058Y-113277613D01*
X225070191Y-113336487D01*
X225221078Y-113366500D01*
X225374922Y-113366500D01*
X225525809Y-113336487D01*
X225667942Y-113277613D01*
X225795859Y-113192142D01*
X225904642Y-113083359D01*
X225990113Y-112955442D01*
X226048987Y-112813309D01*
X226079000Y-112662422D01*
X226079000Y-112508578D01*
X226048987Y-112357691D01*
X225990113Y-112215558D01*
X225904642Y-112087641D01*
X225795859Y-111978858D01*
X225667942Y-111893387D01*
X225525809Y-111834513D01*
X225374922Y-111804500D01*
X225344590Y-111804500D01*
X225765220Y-111383870D01*
X225784527Y-111368025D01*
X225847759Y-111290977D01*
X225894745Y-111203073D01*
X225923678Y-111107691D01*
X225931000Y-111033352D01*
X225931000Y-111033351D01*
X225933448Y-111008498D01*
X225931000Y-110983644D01*
X225931000Y-106326001D01*
X226031642Y-106225359D01*
X226117113Y-106097442D01*
X226175987Y-105955309D01*
X226206000Y-105804422D01*
X226206000Y-105650578D01*
X226175987Y-105499691D01*
X226117113Y-105357558D01*
X226031642Y-105229641D01*
X225922859Y-105120858D01*
X225794942Y-105035387D01*
X225652809Y-104976513D01*
X225501922Y-104946500D01*
X225348078Y-104946500D01*
X225197191Y-104976513D01*
X225055058Y-105035387D01*
X224927141Y-105120858D01*
X224818358Y-105229641D01*
X224732887Y-105357558D01*
X224674013Y-105499691D01*
X224644000Y-105650578D01*
X224644000Y-105804422D01*
X224674013Y-105955309D01*
X224732887Y-106097442D01*
X224818358Y-106225359D01*
X224919001Y-106326002D01*
X224919000Y-110798906D01*
X223982408Y-111735499D01*
X213354344Y-111735499D01*
X213329498Y-111733052D01*
X213304652Y-111735499D01*
X213304645Y-111735499D01*
X213240193Y-111741847D01*
X213230305Y-111742821D01*
X213208106Y-111749555D01*
X213134924Y-111771754D01*
X213047020Y-111818740D01*
X212969972Y-111881972D01*
X212954128Y-111901278D01*
X209585378Y-115270029D01*
X209587843Y-115245000D01*
X209587843Y-114892750D01*
X214933220Y-109547374D01*
X214952527Y-109531529D01*
X215015759Y-109454481D01*
X215062745Y-109366577D01*
X215078684Y-109314030D01*
X215076928Y-110580000D01*
X215089188Y-110704482D01*
X215125498Y-110824180D01*
X215184463Y-110934494D01*
X215263815Y-111031185D01*
X215360506Y-111110537D01*
X215470820Y-111169502D01*
X215590518Y-111205812D01*
X215715000Y-111218072D01*
X217929250Y-111215000D01*
X218088000Y-111056250D01*
X218088000Y-108207000D01*
X218342000Y-108207000D01*
X218342000Y-111056250D01*
X218500750Y-111215000D01*
X220715000Y-111218072D01*
X220839482Y-111205812D01*
X220959180Y-111169502D01*
X221069494Y-111110537D01*
X221166185Y-111031185D01*
X221245537Y-110934494D01*
X221304502Y-110824180D01*
X221340812Y-110704482D01*
X221353072Y-110580000D01*
X221350000Y-108365750D01*
X221191250Y-108207000D01*
X218342000Y-108207000D01*
X218088000Y-108207000D01*
X218068000Y-108207000D01*
X218068000Y-107953000D01*
X218088000Y-107953000D01*
X218088000Y-105103750D01*
X218342000Y-105103750D01*
X218342000Y-107953000D01*
X221191250Y-107953000D01*
X221350000Y-107794250D01*
X221353072Y-105580000D01*
X221340812Y-105455518D01*
X221304502Y-105335820D01*
X221245537Y-105225506D01*
X221166185Y-105128815D01*
X221069494Y-105049463D01*
X220959180Y-104990498D01*
X220839482Y-104954188D01*
X220715000Y-104941928D01*
X218500750Y-104945000D01*
X218342000Y-105103750D01*
X218088000Y-105103750D01*
X217929250Y-104945000D01*
X215715000Y-104941928D01*
X215590518Y-104954188D01*
X215470820Y-104990498D01*
X215360506Y-105049463D01*
X215263815Y-105128815D01*
X215184463Y-105225506D01*
X215125498Y-105335820D01*
X215099000Y-105423172D01*
X215099000Y-103794609D01*
X215199642Y-103693967D01*
X215285113Y-103566050D01*
X215343987Y-103423917D01*
X215374000Y-103273030D01*
X215374000Y-103119186D01*
X215343987Y-102968299D01*
X215285113Y-102826166D01*
X215199642Y-102698249D01*
X215090859Y-102589466D01*
X214962942Y-102503995D01*
X214820809Y-102445121D01*
X214669922Y-102415108D01*
X214649000Y-102415108D01*
X214649000Y-102412078D01*
X214618987Y-102261191D01*
X214560113Y-102119058D01*
X214474642Y-101991141D01*
X214446344Y-101962843D01*
X214735000Y-101962843D01*
X214809689Y-101955487D01*
X214881508Y-101933701D01*
X214920000Y-101913126D01*
X214958492Y-101933701D01*
X215030311Y-101955487D01*
X215105000Y-101962843D01*
X216005000Y-101962843D01*
X216079689Y-101955487D01*
X216151508Y-101933701D01*
X216190000Y-101913126D01*
X216228492Y-101933701D01*
X216300311Y-101955487D01*
X216375000Y-101962843D01*
X217275000Y-101962843D01*
X217349689Y-101955487D01*
X217421508Y-101933701D01*
X217460000Y-101913126D01*
X217498492Y-101933701D01*
X217570311Y-101955487D01*
X217645000Y-101962843D01*
X218545000Y-101962843D01*
X218619689Y-101955487D01*
X218691508Y-101933701D01*
X218730000Y-101913126D01*
X218768492Y-101933701D01*
X218840311Y-101955487D01*
X218915000Y-101962843D01*
X219426951Y-101962843D01*
X219373487Y-102042858D01*
X219314613Y-102184991D01*
X219284600Y-102335878D01*
X219284600Y-102489722D01*
X219287476Y-102504183D01*
X219277409Y-102500013D01*
X219126522Y-102470000D01*
X218972678Y-102470000D01*
X218821791Y-102500013D01*
X218679658Y-102558887D01*
X218551741Y-102644358D01*
X218442958Y-102753141D01*
X218357487Y-102881058D01*
X218298613Y-103023191D01*
X218268600Y-103174078D01*
X218268600Y-103327922D01*
X218298613Y-103478809D01*
X218357487Y-103620942D01*
X218442958Y-103748859D01*
X218551741Y-103857642D01*
X218679658Y-103943113D01*
X218821791Y-104001987D01*
X218972678Y-104032000D01*
X219126522Y-104032000D01*
X219277409Y-104001987D01*
X219419542Y-103943113D01*
X219547459Y-103857642D01*
X219656242Y-103748859D01*
X219741713Y-103620942D01*
X219800587Y-103478809D01*
X219830600Y-103327922D01*
X219830600Y-103174078D01*
X219827724Y-103159617D01*
X219837791Y-103163787D01*
X219988678Y-103193800D01*
X220142522Y-103193800D01*
X220293409Y-103163787D01*
X220435542Y-103104913D01*
X220563459Y-103019442D01*
X220587901Y-102995000D01*
X222006156Y-102995000D01*
X222031002Y-102997447D01*
X222055848Y-102995000D01*
X222055856Y-102995000D01*
X222130195Y-102987678D01*
X222225577Y-102958745D01*
X222313481Y-102911759D01*
X222390529Y-102848527D01*
X222406378Y-102829215D01*
X222669000Y-102566593D01*
X222669001Y-108593407D01*
X222378909Y-108883500D01*
X222236578Y-108883500D01*
X222085691Y-108913513D01*
X221943558Y-108972387D01*
X221815641Y-109057858D01*
X221706858Y-109166641D01*
X221621387Y-109294558D01*
X221562513Y-109436691D01*
X221532500Y-109587578D01*
X221532500Y-109741422D01*
X221562513Y-109892309D01*
X221621387Y-110034442D01*
X221706858Y-110162359D01*
X221815641Y-110271142D01*
X221943558Y-110356613D01*
X222085691Y-110415487D01*
X222236578Y-110445500D01*
X222390422Y-110445500D01*
X222541309Y-110415487D01*
X222683442Y-110356613D01*
X222811359Y-110271142D01*
X222920142Y-110162359D01*
X223005613Y-110034442D01*
X223064487Y-109892309D01*
X223094500Y-109741422D01*
X223094500Y-109599091D01*
X223515220Y-109178372D01*
X223534527Y-109162527D01*
X223597759Y-109085479D01*
X223644745Y-108997575D01*
X223673678Y-108902193D01*
X223681000Y-108827854D01*
X223681000Y-108827846D01*
X223683447Y-108803000D01*
X223681000Y-108778154D01*
X223681000Y-102900268D01*
X223738858Y-102986859D01*
X223847641Y-103095642D01*
X223975558Y-103181113D01*
X224117691Y-103239987D01*
X224268578Y-103270000D01*
X224422422Y-103270000D01*
X224573309Y-103239987D01*
X224715442Y-103181113D01*
X224843359Y-103095642D01*
X224952142Y-102986859D01*
X225037613Y-102858942D01*
X225096487Y-102716809D01*
X225126500Y-102565922D01*
X225126500Y-102412078D01*
X225096487Y-102261191D01*
X225063924Y-102182577D01*
X225140518Y-102205812D01*
X225265000Y-102218072D01*
X225429250Y-102215000D01*
X225588000Y-102056250D01*
X225588000Y-100707000D01*
X225568000Y-100707000D01*
X225568000Y-100453000D01*
X225588000Y-100453000D01*
X225588000Y-99103750D01*
X225429250Y-98945000D01*
X225265000Y-98941928D01*
X225140518Y-98954188D01*
X225020820Y-98990498D01*
X224910506Y-99049463D01*
X224813815Y-99128815D01*
X224788000Y-99160271D01*
X224788000Y-98769501D01*
X224888642Y-98668859D01*
X224974113Y-98540942D01*
X225032987Y-98398809D01*
X225063000Y-98247922D01*
X225063000Y-98094078D01*
X225032987Y-97943191D01*
X224974113Y-97801058D01*
X224888642Y-97673141D01*
X224779859Y-97564358D01*
X224651942Y-97478887D01*
X224509809Y-97420013D01*
X224358922Y-97390000D01*
X224323732Y-97390000D01*
X224622220Y-97091512D01*
X224641527Y-97075667D01*
X224704759Y-96998619D01*
X224751745Y-96910715D01*
X224780678Y-96815333D01*
X224788000Y-96740994D01*
X224788000Y-96740993D01*
X224790448Y-96716140D01*
X224788000Y-96691286D01*
X224788000Y-96212843D01*
X225132000Y-96212843D01*
X225206689Y-96205487D01*
X225278508Y-96183701D01*
X225344696Y-96148322D01*
X225402711Y-96100711D01*
X225450322Y-96042696D01*
X225485701Y-95976508D01*
X225507487Y-95904689D01*
X225514843Y-95830000D01*
X225514843Y-94130000D01*
X225507487Y-94055311D01*
X225485701Y-93983492D01*
X225450322Y-93917304D01*
X225402711Y-93859289D01*
X225344696Y-93811678D01*
X225278508Y-93776299D01*
X225206689Y-93754513D01*
X225132000Y-93747157D01*
X223690434Y-93747157D01*
X223845833Y-93591758D01*
X223922931Y-93623693D01*
X224160757Y-93671000D01*
X224403243Y-93671000D01*
X224641069Y-93623693D01*
X224865097Y-93530898D01*
X225066717Y-93396180D01*
X225238180Y-93224717D01*
X225372898Y-93023097D01*
X225465693Y-92799069D01*
X225513000Y-92561243D01*
X225513000Y-92318757D01*
X225465693Y-92080931D01*
X225372898Y-91856903D01*
X225238180Y-91655283D01*
X225066717Y-91483820D01*
X224865097Y-91349102D01*
X224641069Y-91256307D01*
X224475264Y-91223326D01*
X224608398Y-91090192D01*
X224641069Y-91083693D01*
X224865097Y-90990898D01*
X225066717Y-90856180D01*
X225238180Y-90684717D01*
X225372898Y-90483097D01*
X225465693Y-90259069D01*
X225513000Y-90021243D01*
X225513000Y-89778757D01*
X225465693Y-89540931D01*
X225372898Y-89316903D01*
X225238180Y-89115283D01*
X225066717Y-88943820D01*
X224865097Y-88809102D01*
X224641069Y-88716307D01*
X224403243Y-88669000D01*
X224160757Y-88669000D01*
X223922931Y-88716307D01*
X223698903Y-88809102D01*
X223497283Y-88943820D01*
X223325820Y-89115283D01*
X223191102Y-89316903D01*
X223098307Y-89540931D01*
X223051000Y-89778757D01*
X223051000Y-90021243D01*
X223098307Y-90259069D01*
X223191102Y-90483097D01*
X223325820Y-90684717D01*
X223454255Y-90813152D01*
X222681480Y-91585927D01*
X222681480Y-89676111D01*
X223845833Y-88511758D01*
X223922931Y-88543693D01*
X224160757Y-88591000D01*
X224403243Y-88591000D01*
X224641069Y-88543693D01*
X224865097Y-88450898D01*
X225066717Y-88316180D01*
X225238180Y-88144717D01*
X225372898Y-87943097D01*
X225465693Y-87719069D01*
X225513000Y-87481243D01*
X225513000Y-87238757D01*
X225465693Y-87000931D01*
X225372898Y-86776903D01*
X225238180Y-86575283D01*
X225066717Y-86403820D01*
X224865097Y-86269102D01*
X224641069Y-86176307D01*
X224403243Y-86129000D01*
X224160757Y-86129000D01*
X223922931Y-86176307D01*
X223698903Y-86269102D01*
X223497283Y-86403820D01*
X223325820Y-86575283D01*
X223191102Y-86776903D01*
X223098307Y-87000931D01*
X223051000Y-87238757D01*
X223051000Y-87481243D01*
X223098307Y-87719069D01*
X223130242Y-87796167D01*
X222231470Y-88694939D01*
X222231470Y-87586121D01*
X223845833Y-85971758D01*
X223922931Y-86003693D01*
X224160757Y-86051000D01*
X224403243Y-86051000D01*
X224641069Y-86003693D01*
X224865097Y-85910898D01*
X225066717Y-85776180D01*
X225238180Y-85604717D01*
X225372898Y-85403097D01*
X225465693Y-85179069D01*
X225513000Y-84941243D01*
X225513000Y-84698757D01*
X225465693Y-84460931D01*
X225372898Y-84236903D01*
X225238180Y-84035283D01*
X225066717Y-83863820D01*
X224865097Y-83729102D01*
X224750832Y-83681772D01*
X224913252Y-83624157D01*
X225163355Y-83475178D01*
X225379588Y-83280269D01*
X225553641Y-83046920D01*
X225678825Y-82784099D01*
X225723476Y-82636890D01*
X225602155Y-82407000D01*
X224409000Y-82407000D01*
X224409000Y-82427000D01*
X224155000Y-82427000D01*
X224155000Y-82407000D01*
X222961845Y-82407000D01*
X222840524Y-82636890D01*
X222885175Y-82784099D01*
X223010359Y-83046920D01*
X223184412Y-83280269D01*
X223400645Y-83475178D01*
X223650748Y-83624157D01*
X223813168Y-83681772D01*
X223698903Y-83729102D01*
X223497283Y-83863820D01*
X223325820Y-84035283D01*
X223191102Y-84236903D01*
X223098307Y-84460931D01*
X223051000Y-84698757D01*
X223051000Y-84941243D01*
X223098307Y-85179069D01*
X223130242Y-85256167D01*
X221459169Y-86927240D01*
X221396898Y-86776903D01*
X221262180Y-86575283D01*
X221090717Y-86403820D01*
X220889097Y-86269102D01*
X220665069Y-86176307D01*
X220427243Y-86129000D01*
X220184757Y-86129000D01*
X219946931Y-86176307D01*
X219722903Y-86269102D01*
X219521283Y-86403820D01*
X219349820Y-86575283D01*
X219215102Y-86776903D01*
X219122307Y-87000931D01*
X219075000Y-87238757D01*
X219075000Y-87481243D01*
X219122307Y-87719069D01*
X219215102Y-87943097D01*
X219349820Y-88144717D01*
X219521283Y-88316180D01*
X219722903Y-88450898D01*
X219946931Y-88543693D01*
X220184757Y-88591000D01*
X220427243Y-88591000D01*
X220665069Y-88543693D01*
X220889097Y-88450898D01*
X221090717Y-88316180D01*
X221219471Y-88187426D01*
X221219471Y-89072574D01*
X221090717Y-88943820D01*
X220889097Y-88809102D01*
X220665069Y-88716307D01*
X220427243Y-88669000D01*
X220184757Y-88669000D01*
X219946931Y-88716307D01*
X219722903Y-88809102D01*
X219521283Y-88943820D01*
X219349820Y-89115283D01*
X219215102Y-89316903D01*
X219122307Y-89540931D01*
X219075000Y-89778757D01*
X219075000Y-90021243D01*
X219122307Y-90259069D01*
X219215102Y-90483097D01*
X219349820Y-90684717D01*
X219521283Y-90856180D01*
X219722903Y-90990898D01*
X219946931Y-91083693D01*
X220184757Y-91131000D01*
X220427243Y-91131000D01*
X220665069Y-91083693D01*
X220889097Y-90990898D01*
X221090717Y-90856180D01*
X221219471Y-90727426D01*
X221219471Y-91612574D01*
X221090717Y-91483820D01*
X220889097Y-91349102D01*
X220665069Y-91256307D01*
X220427243Y-91209000D01*
X220184757Y-91209000D01*
X219946931Y-91256307D01*
X219722903Y-91349102D01*
X219521283Y-91483820D01*
X219349820Y-91655283D01*
X219215102Y-91856903D01*
X219122307Y-92080931D01*
X219075000Y-92318757D01*
X219075000Y-92561243D01*
X219122307Y-92799069D01*
X219215102Y-93023097D01*
X219349820Y-93224717D01*
X219521283Y-93396180D01*
X219722903Y-93530898D01*
X219946931Y-93623693D01*
X220184757Y-93671000D01*
X220427243Y-93671000D01*
X220665069Y-93623693D01*
X220889097Y-93530898D01*
X221090717Y-93396180D01*
X221219470Y-93267427D01*
X221219470Y-93753408D01*
X221156000Y-93747157D01*
X219456000Y-93747157D01*
X219381311Y-93754513D01*
X219309492Y-93776299D01*
X219243304Y-93811678D01*
X219185289Y-93859289D01*
X219137678Y-93917304D01*
X219102299Y-93983492D01*
X219080513Y-94055311D01*
X219073157Y-94130000D01*
X219073157Y-95830000D01*
X219080513Y-95904689D01*
X219102299Y-95976508D01*
X219137678Y-96042696D01*
X219185289Y-96100711D01*
X219243304Y-96148322D01*
X219309492Y-96183701D01*
X219381311Y-96205487D01*
X219456000Y-96212843D01*
X221156000Y-96212843D01*
X221219470Y-96206592D01*
X221219470Y-96517438D01*
X220850439Y-96886470D01*
X216732374Y-96886470D01*
X216707528Y-96884023D01*
X216682682Y-96886470D01*
X216682674Y-96886470D01*
X216608335Y-96893792D01*
X216512953Y-96922725D01*
X216425049Y-96969711D01*
X216348001Y-97032943D01*
X216332157Y-97052249D01*
X214187250Y-99197157D01*
X213835000Y-99197157D01*
X213760311Y-99204513D01*
X213688492Y-99226299D01*
X213650000Y-99246874D01*
X213611508Y-99226299D01*
X213539689Y-99204513D01*
X213465000Y-99197157D01*
X212565000Y-99197157D01*
X212490311Y-99204513D01*
X212418492Y-99226299D01*
X212380000Y-99246874D01*
X212341508Y-99226299D01*
X212269689Y-99204513D01*
X212195000Y-99197157D01*
X211842751Y-99197157D01*
X209142878Y-96497285D01*
X209127029Y-96477973D01*
X209066843Y-96428579D01*
X209179180Y-96394502D01*
X209289494Y-96335537D01*
X209386185Y-96256185D01*
X209465537Y-96159494D01*
X209510895Y-96074637D01*
X209639691Y-96127987D01*
X209790578Y-96158000D01*
X209944422Y-96158000D01*
X210095309Y-96127987D01*
X210129952Y-96113637D01*
X210154463Y-96159494D01*
X210233815Y-96256185D01*
X210330506Y-96335537D01*
X210440820Y-96394502D01*
X210560518Y-96430812D01*
X210685000Y-96443072D01*
X210874250Y-96440000D01*
X211033000Y-96281250D01*
X211033000Y-95494500D01*
X211287000Y-95494500D01*
X211287000Y-96281250D01*
X211445750Y-96440000D01*
X211635000Y-96443072D01*
X211759482Y-96430812D01*
X211879180Y-96394502D01*
X211989494Y-96335537D01*
X212086185Y-96256185D01*
X212165537Y-96159494D01*
X212224502Y-96049180D01*
X212260812Y-95929482D01*
X212273072Y-95805000D01*
X212272819Y-95792500D01*
X212746928Y-95792500D01*
X212759188Y-95916982D01*
X212795498Y-96036680D01*
X212854463Y-96146994D01*
X212933815Y-96243685D01*
X213030506Y-96323037D01*
X213140820Y-96382002D01*
X213260518Y-96418312D01*
X213385000Y-96430572D01*
X213574250Y-96427500D01*
X213733000Y-96268750D01*
X213733000Y-95482000D01*
X213987000Y-95482000D01*
X213987000Y-96268750D01*
X214145750Y-96427500D01*
X214335000Y-96430572D01*
X214459482Y-96418312D01*
X214579180Y-96382002D01*
X214689494Y-96323037D01*
X214786185Y-96243685D01*
X214865537Y-96146994D01*
X214924502Y-96036680D01*
X214960812Y-95916982D01*
X214971840Y-95805000D01*
X215446928Y-95805000D01*
X215459188Y-95929482D01*
X215495498Y-96049180D01*
X215554463Y-96159494D01*
X215633815Y-96256185D01*
X215730506Y-96335537D01*
X215840820Y-96394502D01*
X215960518Y-96430812D01*
X216085000Y-96443072D01*
X216274250Y-96440000D01*
X216433000Y-96281250D01*
X216433000Y-95494500D01*
X216687000Y-95494500D01*
X216687000Y-96281250D01*
X216845750Y-96440000D01*
X217035000Y-96443072D01*
X217159482Y-96430812D01*
X217279180Y-96394502D01*
X217389494Y-96335537D01*
X217486185Y-96256185D01*
X217565537Y-96159494D01*
X217624502Y-96049180D01*
X217660812Y-95929482D01*
X217673072Y-95805000D01*
X217670000Y-95653250D01*
X217511250Y-95494500D01*
X216687000Y-95494500D01*
X216433000Y-95494500D01*
X215608750Y-95494500D01*
X215450000Y-95653250D01*
X215446928Y-95805000D01*
X214971840Y-95805000D01*
X214973072Y-95792500D01*
X214970000Y-95640750D01*
X214811250Y-95482000D01*
X213987000Y-95482000D01*
X213733000Y-95482000D01*
X212908750Y-95482000D01*
X212750000Y-95640750D01*
X212746928Y-95792500D01*
X212272819Y-95792500D01*
X212270000Y-95653250D01*
X212111250Y-95494500D01*
X211287000Y-95494500D01*
X211033000Y-95494500D01*
X211013000Y-95494500D01*
X211013000Y-95240500D01*
X211033000Y-95240500D01*
X211033000Y-95220500D01*
X211287000Y-95220500D01*
X211287000Y-95240500D01*
X212111250Y-95240500D01*
X212270000Y-95081750D01*
X212273072Y-94930000D01*
X212260812Y-94805518D01*
X212224502Y-94685820D01*
X212165537Y-94575506D01*
X212086185Y-94478815D01*
X211989494Y-94399463D01*
X211907930Y-94355866D01*
X211916456Y-94345477D01*
X211952936Y-94277228D01*
X211953358Y-94277859D01*
X212062141Y-94386642D01*
X212190058Y-94472113D01*
X212332191Y-94530987D01*
X212483078Y-94561000D01*
X212636922Y-94561000D01*
X212787809Y-94530987D01*
X212928601Y-94472669D01*
X212854463Y-94563006D01*
X212795498Y-94673320D01*
X212759188Y-94793018D01*
X212746928Y-94917500D01*
X212750000Y-95069250D01*
X212908750Y-95228000D01*
X213733000Y-95228000D01*
X213733000Y-95208000D01*
X213987000Y-95208000D01*
X213987000Y-95228000D01*
X214811250Y-95228000D01*
X214970000Y-95069250D01*
X214973072Y-94917500D01*
X214960812Y-94793018D01*
X214924502Y-94673320D01*
X214865537Y-94563006D01*
X214786185Y-94466315D01*
X214689494Y-94386963D01*
X214607930Y-94343366D01*
X214616456Y-94332977D01*
X214649224Y-94271672D01*
X214653358Y-94277859D01*
X214762141Y-94386642D01*
X214890058Y-94472113D01*
X215032191Y-94530987D01*
X215183078Y-94561000D01*
X215336922Y-94561000D01*
X215487809Y-94530987D01*
X215629942Y-94472113D01*
X215694732Y-94428822D01*
X215633815Y-94478815D01*
X215554463Y-94575506D01*
X215495498Y-94685820D01*
X215459188Y-94805518D01*
X215446928Y-94930000D01*
X215450000Y-95081750D01*
X215608750Y-95240500D01*
X216433000Y-95240500D01*
X216433000Y-95220500D01*
X216687000Y-95220500D01*
X216687000Y-95240500D01*
X217511250Y-95240500D01*
X217670000Y-95081750D01*
X217673072Y-94930000D01*
X217660812Y-94805518D01*
X217624502Y-94685820D01*
X217565537Y-94575506D01*
X217486185Y-94478815D01*
X217389494Y-94399463D01*
X217307930Y-94355866D01*
X217316456Y-94345477D01*
X217372049Y-94241470D01*
X217406284Y-94128615D01*
X217417843Y-94011250D01*
X217417843Y-93573750D01*
X217406284Y-93456385D01*
X217372049Y-93343530D01*
X217316456Y-93239523D01*
X217241640Y-93148360D01*
X217150477Y-93073544D01*
X217046470Y-93017951D01*
X216933615Y-92983716D01*
X216816250Y-92972157D01*
X216303750Y-92972157D01*
X216186385Y-92983716D01*
X216073530Y-93017951D01*
X215969523Y-93073544D01*
X215878360Y-93148360D01*
X215812775Y-93228274D01*
X215757859Y-93173358D01*
X215629942Y-93087887D01*
X215487809Y-93029013D01*
X215336922Y-92999000D01*
X215183078Y-92999000D01*
X215032191Y-93029013D01*
X214890058Y-93087887D01*
X214762141Y-93173358D01*
X214653358Y-93282141D01*
X214649224Y-93288328D01*
X214616456Y-93227023D01*
X214541640Y-93135860D01*
X214450477Y-93061044D01*
X214346470Y-93005451D01*
X214233615Y-92971216D01*
X214116250Y-92959657D01*
X213603750Y-92959657D01*
X213486385Y-92971216D01*
X213373530Y-93005451D01*
X213269523Y-93061044D01*
X213178360Y-93135860D01*
X213107141Y-93222640D01*
X213057859Y-93173358D01*
X212929942Y-93087887D01*
X212787809Y-93029013D01*
X212636922Y-92999000D01*
X212483078Y-92999000D01*
X212332191Y-93029013D01*
X212190058Y-93087887D01*
X212062141Y-93173358D01*
X211953358Y-93282141D01*
X211945512Y-93293883D01*
X211916456Y-93239523D01*
X211841640Y-93148360D01*
X211750477Y-93073544D01*
X211646470Y-93017951D01*
X211533615Y-92983716D01*
X211416250Y-92972157D01*
X210903750Y-92972157D01*
X210786385Y-92983716D01*
X210673530Y-93017951D01*
X210569523Y-93073544D01*
X210478360Y-93148360D01*
X210412775Y-93228274D01*
X210357859Y-93173358D01*
X210229942Y-93087887D01*
X210087809Y-93029013D01*
X209936922Y-92999000D01*
X209783078Y-92999000D01*
X209632191Y-93029013D01*
X209490058Y-93087887D01*
X209362141Y-93173358D01*
X209253358Y-93282141D01*
X209245512Y-93293883D01*
X209216456Y-93239523D01*
X209141640Y-93148360D01*
X209050477Y-93073544D01*
X208946470Y-93017951D01*
X208833615Y-92983716D01*
X208716250Y-92972157D01*
X208203750Y-92972157D01*
X208086385Y-92983716D01*
X207973530Y-93017951D01*
X207869523Y-93073544D01*
X207778360Y-93148360D01*
X207712775Y-93228274D01*
X207657859Y-93173358D01*
X207529942Y-93087887D01*
X207387809Y-93029013D01*
X207236922Y-92999000D01*
X207083078Y-92999000D01*
X206932191Y-93029013D01*
X206790058Y-93087887D01*
X206662141Y-93173358D01*
X206553358Y-93282141D01*
X206467887Y-93410058D01*
X206409013Y-93552191D01*
X206379000Y-93703078D01*
X206379000Y-93856922D01*
X206409013Y-94007809D01*
X206467887Y-94149942D01*
X206553358Y-94277859D01*
X206662141Y-94386642D01*
X206790058Y-94472113D01*
X206932191Y-94530987D01*
X207083078Y-94561000D01*
X207236922Y-94561000D01*
X207387809Y-94530987D01*
X207529942Y-94472113D01*
X207594732Y-94428822D01*
X207533815Y-94478815D01*
X207454463Y-94575506D01*
X207395498Y-94685820D01*
X207359188Y-94805518D01*
X207346928Y-94930000D01*
X207350000Y-95081750D01*
X207508750Y-95240500D01*
X208333000Y-95240500D01*
X208333000Y-95220500D01*
X208587000Y-95220500D01*
X208587000Y-95240500D01*
X208607000Y-95240500D01*
X208607000Y-95494500D01*
X208587000Y-95494500D01*
X208587000Y-95514500D01*
X208333000Y-95514500D01*
X208333000Y-95494500D01*
X207508750Y-95494500D01*
X207350000Y-95653250D01*
X207346928Y-95805000D01*
X207359188Y-95929482D01*
X207370995Y-95968405D01*
X204782864Y-93380275D01*
X204767015Y-93360963D01*
X204689967Y-93297731D01*
X204625578Y-93263314D01*
X204748678Y-93287800D01*
X204902522Y-93287800D01*
X205053409Y-93257787D01*
X205195542Y-93198913D01*
X205323459Y-93113442D01*
X205432242Y-93004659D01*
X205517713Y-92876742D01*
X205576587Y-92734609D01*
X205606600Y-92583722D01*
X205606600Y-92429878D01*
X205576587Y-92278991D01*
X205517713Y-92136858D01*
X205432242Y-92008941D01*
X205323459Y-91900158D01*
X205195542Y-91814687D01*
X205053409Y-91755813D01*
X204972642Y-91739748D01*
X205002609Y-91733787D01*
X205144742Y-91674913D01*
X205272659Y-91589442D01*
X205381442Y-91480659D01*
X205466913Y-91352742D01*
X205525787Y-91210609D01*
X205555800Y-91059722D01*
X205555800Y-90905878D01*
X205525787Y-90754991D01*
X205466913Y-90612858D01*
X205381442Y-90484941D01*
X205272659Y-90376158D01*
X205144742Y-90290687D01*
X205098662Y-90271600D01*
X205144742Y-90252513D01*
X205272659Y-90167042D01*
X205381442Y-90058259D01*
X205466913Y-89930342D01*
X205525787Y-89788209D01*
X205555800Y-89637322D01*
X205555800Y-89483478D01*
X205525787Y-89332591D01*
X205472555Y-89204078D01*
X207562500Y-89204078D01*
X207562500Y-89357922D01*
X207592513Y-89508809D01*
X207651387Y-89650942D01*
X207736858Y-89778859D01*
X207845641Y-89887642D01*
X207973558Y-89973113D01*
X208115691Y-90031987D01*
X208266578Y-90062000D01*
X208420422Y-90062000D01*
X208571309Y-90031987D01*
X208713442Y-89973113D01*
X208730294Y-89961853D01*
X208734513Y-90004689D01*
X208756299Y-90076508D01*
X208791678Y-90142696D01*
X208839289Y-90200711D01*
X208897304Y-90248322D01*
X208963492Y-90283701D01*
X209035311Y-90305487D01*
X209110000Y-90312843D01*
X210610000Y-90312843D01*
X210684689Y-90305487D01*
X210756508Y-90283701D01*
X210822696Y-90248322D01*
X210880711Y-90200711D01*
X210928322Y-90142696D01*
X210963701Y-90076508D01*
X210985487Y-90004689D01*
X210992843Y-89930000D01*
X210992843Y-89204078D01*
X212833000Y-89204078D01*
X212833000Y-89357922D01*
X212863013Y-89508809D01*
X212921887Y-89650942D01*
X213007358Y-89778859D01*
X213116141Y-89887642D01*
X213244058Y-89973113D01*
X213386191Y-90031987D01*
X213537078Y-90062000D01*
X213690922Y-90062000D01*
X213841809Y-90031987D01*
X213933462Y-89994023D01*
X213934513Y-90004689D01*
X213956299Y-90076508D01*
X213991678Y-90142696D01*
X214039289Y-90200711D01*
X214097304Y-90248322D01*
X214163492Y-90283701D01*
X214235311Y-90305487D01*
X214310000Y-90312843D01*
X215810000Y-90312843D01*
X215884689Y-90305487D01*
X215956508Y-90283701D01*
X216022696Y-90248322D01*
X216080711Y-90200711D01*
X216128322Y-90142696D01*
X216163701Y-90076508D01*
X216185487Y-90004689D01*
X216192843Y-89930000D01*
X216192843Y-88430000D01*
X216185487Y-88355311D01*
X216163701Y-88283492D01*
X216128322Y-88217304D01*
X216080711Y-88159289D01*
X216022696Y-88111678D01*
X215956508Y-88076299D01*
X215884689Y-88054513D01*
X215810000Y-88047157D01*
X214310000Y-88047157D01*
X214235311Y-88054513D01*
X214163492Y-88076299D01*
X214097304Y-88111678D01*
X214039289Y-88159289D01*
X213991678Y-88217304D01*
X213956299Y-88283492D01*
X213934513Y-88355311D01*
X213927157Y-88430000D01*
X213927157Y-88565366D01*
X213841809Y-88530013D01*
X213690922Y-88500000D01*
X213537078Y-88500000D01*
X213386191Y-88530013D01*
X213244058Y-88588887D01*
X213116141Y-88674358D01*
X213007358Y-88783141D01*
X212921887Y-88911058D01*
X212863013Y-89053191D01*
X212833000Y-89204078D01*
X210992843Y-89204078D01*
X210992843Y-88430000D01*
X210985487Y-88355311D01*
X210963701Y-88283492D01*
X210928322Y-88217304D01*
X210880711Y-88159289D01*
X210822696Y-88111678D01*
X210756508Y-88076299D01*
X210684689Y-88054513D01*
X210610000Y-88047157D01*
X209110000Y-88047157D01*
X209035311Y-88054513D01*
X208963492Y-88076299D01*
X208897304Y-88111678D01*
X208839289Y-88159289D01*
X208791678Y-88217304D01*
X208756299Y-88283492D01*
X208734513Y-88355311D01*
X208727157Y-88430000D01*
X208727157Y-88598051D01*
X208713442Y-88588887D01*
X208571309Y-88530013D01*
X208420422Y-88500000D01*
X208266578Y-88500000D01*
X208115691Y-88530013D01*
X207973558Y-88588887D01*
X207845641Y-88674358D01*
X207736858Y-88783141D01*
X207651387Y-88911058D01*
X207592513Y-89053191D01*
X207562500Y-89204078D01*
X205472555Y-89204078D01*
X205466913Y-89190458D01*
X205381442Y-89062541D01*
X205272659Y-88953758D01*
X205144742Y-88868287D01*
X205002609Y-88809413D01*
X204851722Y-88779400D01*
X204697878Y-88779400D01*
X204546991Y-88809413D01*
X204404858Y-88868287D01*
X204276941Y-88953758D01*
X204168158Y-89062541D01*
X204082687Y-89190458D01*
X204023813Y-89332591D01*
X203993800Y-89483478D01*
X203993800Y-89637322D01*
X204023813Y-89788209D01*
X204082687Y-89930342D01*
X204168158Y-90058259D01*
X204276941Y-90167042D01*
X204404858Y-90252513D01*
X204450938Y-90271600D01*
X204404858Y-90290687D01*
X204276941Y-90376158D01*
X204168158Y-90484941D01*
X204082687Y-90612858D01*
X204023813Y-90754991D01*
X203993800Y-90905878D01*
X203993800Y-91059722D01*
X204023813Y-91210609D01*
X204082687Y-91352742D01*
X204168158Y-91480659D01*
X204276941Y-91589442D01*
X204404858Y-91674913D01*
X204546991Y-91733787D01*
X204627758Y-91749852D01*
X204597791Y-91755813D01*
X204455658Y-91814687D01*
X204327741Y-91900158D01*
X204289165Y-91938734D01*
X204179542Y-91865487D01*
X204037409Y-91806613D01*
X203886522Y-91776600D01*
X203732678Y-91776600D01*
X203581791Y-91806613D01*
X203439658Y-91865487D01*
X203311741Y-91950958D01*
X203250212Y-92012487D01*
X203247842Y-92008941D01*
X203139059Y-91900158D01*
X203011142Y-91814687D01*
X202869009Y-91755813D01*
X202718122Y-91725800D01*
X202564278Y-91725800D01*
X202413391Y-91755813D01*
X202271258Y-91814687D01*
X202143341Y-91900158D01*
X202034558Y-92008941D01*
X201962588Y-92116652D01*
X201923613Y-92022558D01*
X201838142Y-91894641D01*
X201729359Y-91785858D01*
X201601442Y-91700387D01*
X201459309Y-91641513D01*
X201308422Y-91611500D01*
X201154578Y-91611500D01*
X201003691Y-91641513D01*
X200861558Y-91700387D01*
X200733641Y-91785858D01*
X200624858Y-91894641D01*
X200539387Y-92022558D01*
X200480513Y-92164691D01*
X200450500Y-92315578D01*
X200450500Y-92469422D01*
X200480513Y-92620309D01*
X200539387Y-92762442D01*
X200624858Y-92890359D01*
X200733641Y-92999142D01*
X200861558Y-93084613D01*
X200888457Y-93095755D01*
X200891285Y-93098076D01*
X201457708Y-93664500D01*
X199163001Y-93664500D01*
X199062359Y-93563858D01*
X198934442Y-93478387D01*
X198792309Y-93419513D01*
X198641422Y-93389500D01*
X198487578Y-93389500D01*
X198336691Y-93419513D01*
X198194558Y-93478387D01*
X198066641Y-93563858D01*
X197957858Y-93672641D01*
X197872387Y-93800558D01*
X197813513Y-93942691D01*
X197783500Y-94093578D01*
X197783500Y-94247422D01*
X197811761Y-94389501D01*
X193339593Y-94389501D01*
X192995500Y-94045409D01*
X192995500Y-93903078D01*
X192965487Y-93752191D01*
X192906613Y-93610058D01*
X192821142Y-93482141D01*
X192712359Y-93373358D01*
X192584442Y-93287887D01*
X192442309Y-93229013D01*
X192291422Y-93199000D01*
X192137578Y-93199000D01*
X191986691Y-93229013D01*
X191844558Y-93287887D01*
X191716641Y-93373358D01*
X191607858Y-93482141D01*
X191522387Y-93610058D01*
X191463513Y-93752191D01*
X191433500Y-93903078D01*
X191433500Y-94056922D01*
X191463513Y-94207809D01*
X191522387Y-94349942D01*
X191607858Y-94477859D01*
X191716641Y-94586642D01*
X191844558Y-94672113D01*
X191986691Y-94730987D01*
X192137578Y-94761000D01*
X192279909Y-94761000D01*
X192754629Y-95235721D01*
X192770474Y-95255028D01*
X192847522Y-95318260D01*
X192934554Y-95364780D01*
X192935426Y-95365246D01*
X193030808Y-95394179D01*
X193130001Y-95403949D01*
X193154855Y-95401501D01*
X204100088Y-95401501D01*
X206776326Y-98077738D01*
X206792171Y-98097045D01*
X206869219Y-98160277D01*
X206957123Y-98207263D01*
X207030305Y-98229462D01*
X207052504Y-98236196D01*
X207055591Y-98236500D01*
X207126844Y-98243518D01*
X207126851Y-98243518D01*
X207151697Y-98245965D01*
X207176543Y-98243518D01*
X208185109Y-98243518D01*
X208699000Y-98757410D01*
X208699000Y-99202672D01*
X208680311Y-99204513D01*
X208608492Y-99226299D01*
X208542304Y-99261678D01*
X208484289Y-99309289D01*
X208436678Y-99367304D01*
X208401299Y-99433492D01*
X208379513Y-99505311D01*
X208372157Y-99580000D01*
X208372157Y-101580000D01*
X208379513Y-101654689D01*
X208401299Y-101726508D01*
X208436678Y-101792696D01*
X208484289Y-101850711D01*
X208542304Y-101898322D01*
X208608492Y-101933701D01*
X208680311Y-101955487D01*
X208755000Y-101962843D01*
X209655000Y-101962843D01*
X209729689Y-101955487D01*
X209801508Y-101933701D01*
X209840000Y-101913126D01*
X209878492Y-101933701D01*
X209950311Y-101955487D01*
X210025000Y-101962843D01*
X210925000Y-101962843D01*
X210999689Y-101955487D01*
X211071508Y-101933701D01*
X211110000Y-101913126D01*
X211148492Y-101933701D01*
X211220311Y-101955487D01*
X211295000Y-101962843D01*
X212195000Y-101962843D01*
X212269689Y-101955487D01*
X212341508Y-101933701D01*
X212380000Y-101913126D01*
X212418492Y-101933701D01*
X212490311Y-101955487D01*
X212565000Y-101962843D01*
X213289656Y-101962843D01*
X213261358Y-101991141D01*
X213175887Y-102119058D01*
X213117013Y-102261191D01*
X213087000Y-102412078D01*
X213087000Y-102565922D01*
X213117013Y-102716809D01*
X213175887Y-102858942D01*
X213261358Y-102986859D01*
X213362001Y-103087502D01*
X213362000Y-108417410D01*
X209587843Y-112191568D01*
X209587843Y-111805000D01*
X209580487Y-111730311D01*
X209558701Y-111658492D01*
X209538126Y-111620000D01*
X209558701Y-111581508D01*
X209580487Y-111509689D01*
X209587843Y-111435000D01*
X209587843Y-110535000D01*
X209580487Y-110460311D01*
X209558701Y-110388492D01*
X209538126Y-110350000D01*
X209558701Y-110311508D01*
X209580487Y-110239689D01*
X209587843Y-110165000D01*
X209587843Y-109265000D01*
X209580487Y-109190311D01*
X209558701Y-109118492D01*
X209538126Y-109080000D01*
X209558701Y-109041508D01*
X209580487Y-108969689D01*
X209587843Y-108895000D01*
X209587843Y-107995000D01*
X209580487Y-107920311D01*
X209558701Y-107848492D01*
X209538126Y-107810000D01*
X209558701Y-107771508D01*
X209580487Y-107699689D01*
X209587843Y-107625000D01*
X209587843Y-106725000D01*
X209580487Y-106650311D01*
X209558701Y-106578492D01*
X209538126Y-106540000D01*
X209558701Y-106501508D01*
X209580487Y-106429689D01*
X209587843Y-106355000D01*
X209587843Y-105455000D01*
X209580487Y-105380311D01*
X209558701Y-105308492D01*
X209538126Y-105270000D01*
X209558701Y-105231508D01*
X209580487Y-105159689D01*
X209587843Y-105085000D01*
X209587843Y-104322272D01*
X209656185Y-104266185D01*
X209735537Y-104169494D01*
X209794502Y-104059180D01*
X209830812Y-103939482D01*
X209843072Y-103815000D01*
X209840000Y-103650750D01*
X209681250Y-103492000D01*
X208332000Y-103492000D01*
X208332000Y-103512000D01*
X208078000Y-103512000D01*
X208078000Y-103492000D01*
X206728750Y-103492000D01*
X206570000Y-103650750D01*
X206566928Y-103815000D01*
X206579188Y-103939482D01*
X206615498Y-104059180D01*
X206674463Y-104169494D01*
X206753815Y-104266185D01*
X206822157Y-104322272D01*
X206822157Y-105085000D01*
X206829513Y-105159689D01*
X206851299Y-105231508D01*
X206871874Y-105270000D01*
X206851299Y-105308492D01*
X206829513Y-105380311D01*
X206822157Y-105455000D01*
X206822157Y-106355000D01*
X206829513Y-106429689D01*
X206851299Y-106501508D01*
X206871874Y-106540000D01*
X206851299Y-106578492D01*
X206829513Y-106650311D01*
X206822157Y-106725000D01*
X206822157Y-107625000D01*
X206829513Y-107699689D01*
X206851299Y-107771508D01*
X206871874Y-107810000D01*
X206851299Y-107848492D01*
X206829513Y-107920311D01*
X206822157Y-107995000D01*
X206822157Y-108895000D01*
X206829513Y-108969689D01*
X206851299Y-109041508D01*
X206871874Y-109080000D01*
X206851299Y-109118492D01*
X206829513Y-109190311D01*
X206822157Y-109265000D01*
X206822157Y-110165000D01*
X206829513Y-110239689D01*
X206851299Y-110311508D01*
X206871874Y-110350000D01*
X206851299Y-110388492D01*
X206829513Y-110460311D01*
X206822157Y-110535000D01*
X206822157Y-111435000D01*
X206829513Y-111509689D01*
X206851299Y-111581508D01*
X206871874Y-111620000D01*
X206851299Y-111658492D01*
X206829513Y-111730311D01*
X206822157Y-111805000D01*
X206822157Y-112705000D01*
X206829513Y-112779689D01*
X206851299Y-112851508D01*
X206871874Y-112890000D01*
X206851299Y-112928492D01*
X206829513Y-113000311D01*
X206822157Y-113075000D01*
X206822157Y-113975000D01*
X206829513Y-114049689D01*
X206851299Y-114121508D01*
X206871874Y-114160000D01*
X206851299Y-114198492D01*
X206829513Y-114270311D01*
X206822157Y-114345000D01*
X206822157Y-115245000D01*
X206829513Y-115319689D01*
X206851299Y-115391508D01*
X206886678Y-115457696D01*
X206934289Y-115515711D01*
X206992304Y-115563322D01*
X207058492Y-115598701D01*
X207130311Y-115620487D01*
X207205000Y-115627843D01*
X209205000Y-115627843D01*
X209230029Y-115625378D01*
X208864781Y-115990626D01*
X208845474Y-116006471D01*
X208782242Y-116083519D01*
X208770254Y-116105947D01*
X208735255Y-116171424D01*
X208726601Y-116199954D01*
X208680311Y-116204513D01*
X208608492Y-116226299D01*
X208542304Y-116261678D01*
X208484289Y-116309289D01*
X208436678Y-116367304D01*
X208401299Y-116433492D01*
X208379513Y-116505311D01*
X208372157Y-116580000D01*
X208372157Y-118580000D01*
X208379513Y-118654689D01*
X208401299Y-118726508D01*
X208436678Y-118792696D01*
X208439225Y-118795800D01*
X205663800Y-118795800D01*
X205663800Y-115843000D01*
X205816922Y-115843000D01*
X205967809Y-115812987D01*
X206109942Y-115754113D01*
X206237859Y-115668642D01*
X206346642Y-115559859D01*
X206432113Y-115431942D01*
X206490987Y-115289809D01*
X206521000Y-115138922D01*
X206521000Y-114985078D01*
X206490987Y-114834191D01*
X206432113Y-114692058D01*
X206346642Y-114564141D01*
X206273001Y-114490500D01*
X206346642Y-114416859D01*
X206432113Y-114288942D01*
X206490987Y-114146809D01*
X206521000Y-113995922D01*
X206521000Y-113842078D01*
X206490987Y-113691191D01*
X206432113Y-113549058D01*
X206346642Y-113421141D01*
X206344500Y-113418999D01*
X206359293Y-113404205D01*
X206444764Y-113276288D01*
X206503638Y-113134155D01*
X206533651Y-112983268D01*
X206533651Y-112829424D01*
X206503638Y-112678537D01*
X206444764Y-112536404D01*
X206359293Y-112408487D01*
X206250510Y-112299704D01*
X206122593Y-112214233D01*
X205980460Y-112155359D01*
X205829573Y-112125346D01*
X205687243Y-112125346D01*
X205663800Y-112101903D01*
X205663800Y-107289600D01*
X205661360Y-107264824D01*
X205654133Y-107240999D01*
X205642397Y-107219043D01*
X205626603Y-107199797D01*
X205607357Y-107184003D01*
X205585401Y-107172267D01*
X205561576Y-107165040D01*
X205537458Y-107162602D01*
X186055000Y-107061657D01*
X186055000Y-102915000D01*
X206566928Y-102915000D01*
X206570000Y-103079250D01*
X206728750Y-103238000D01*
X208078000Y-103238000D01*
X208078000Y-102438750D01*
X208332000Y-102438750D01*
X208332000Y-103238000D01*
X209681250Y-103238000D01*
X209840000Y-103079250D01*
X209843072Y-102915000D01*
X209830812Y-102790518D01*
X209794502Y-102670820D01*
X209735537Y-102560506D01*
X209656185Y-102463815D01*
X209559494Y-102384463D01*
X209449180Y-102325498D01*
X209329482Y-102289188D01*
X209205000Y-102276928D01*
X208490750Y-102280000D01*
X208332000Y-102438750D01*
X208078000Y-102438750D01*
X207919250Y-102280000D01*
X207205000Y-102276928D01*
X207080518Y-102289188D01*
X206960820Y-102325498D01*
X206850506Y-102384463D01*
X206753815Y-102463815D01*
X206674463Y-102560506D01*
X206615498Y-102670820D01*
X206579188Y-102790518D01*
X206566928Y-102915000D01*
X186055000Y-102915000D01*
X186055000Y-101980278D01*
X202723800Y-101980278D01*
X202723800Y-102134122D01*
X202753813Y-102285009D01*
X202812687Y-102427142D01*
X202898158Y-102555059D01*
X203006941Y-102663842D01*
X203134858Y-102749313D01*
X203276991Y-102808187D01*
X203427878Y-102838200D01*
X203581722Y-102838200D01*
X203732609Y-102808187D01*
X203874742Y-102749313D01*
X204002659Y-102663842D01*
X204111442Y-102555059D01*
X204196913Y-102427142D01*
X204255787Y-102285009D01*
X204285800Y-102134122D01*
X204285800Y-101980278D01*
X204255787Y-101829391D01*
X204196913Y-101687258D01*
X204111442Y-101559341D01*
X204002659Y-101450558D01*
X203874742Y-101365087D01*
X203732609Y-101306213D01*
X203581722Y-101276200D01*
X203427878Y-101276200D01*
X203276991Y-101306213D01*
X203134858Y-101365087D01*
X203006941Y-101450558D01*
X202898158Y-101559341D01*
X202812687Y-101687258D01*
X202753813Y-101829391D01*
X202723800Y-101980278D01*
X186055000Y-101980278D01*
X186055000Y-96544678D01*
X203130200Y-96544678D01*
X203130200Y-96698522D01*
X203160213Y-96849409D01*
X203219087Y-96991542D01*
X203304558Y-97119459D01*
X203413341Y-97228242D01*
X203541258Y-97313713D01*
X203683391Y-97372587D01*
X203834278Y-97402600D01*
X203988122Y-97402600D01*
X204139009Y-97372587D01*
X204281142Y-97313713D01*
X204409059Y-97228242D01*
X204517842Y-97119459D01*
X204603313Y-96991542D01*
X204662187Y-96849409D01*
X204692200Y-96698522D01*
X204692200Y-96544678D01*
X204662187Y-96393791D01*
X204603313Y-96251658D01*
X204517842Y-96123741D01*
X204409059Y-96014958D01*
X204281142Y-95929487D01*
X204139009Y-95870613D01*
X203988122Y-95840600D01*
X203834278Y-95840600D01*
X203683391Y-95870613D01*
X203541258Y-95929487D01*
X203413341Y-96014958D01*
X203304558Y-96123741D01*
X203219087Y-96251658D01*
X203160213Y-96393791D01*
X203130200Y-96544678D01*
X186055000Y-96544678D01*
X186055000Y-90058781D01*
X186116858Y-90100113D01*
X186258991Y-90158987D01*
X186409878Y-90189000D01*
X186563722Y-90189000D01*
X186714609Y-90158987D01*
X186856742Y-90100113D01*
X186984659Y-90014642D01*
X187093442Y-89905859D01*
X187178913Y-89777942D01*
X187237787Y-89635809D01*
X187267800Y-89484922D01*
X187267800Y-89331078D01*
X187750500Y-89331078D01*
X187750500Y-89484922D01*
X187780513Y-89635809D01*
X187839387Y-89777942D01*
X187924858Y-89905859D01*
X188033641Y-90014642D01*
X188152110Y-90093800D01*
X188033641Y-90172958D01*
X187924858Y-90281741D01*
X187839387Y-90409658D01*
X187780513Y-90551791D01*
X187750500Y-90702678D01*
X187750500Y-90856522D01*
X187780513Y-91007409D01*
X187839387Y-91149542D01*
X187924858Y-91277459D01*
X188033641Y-91386242D01*
X188161558Y-91471713D01*
X188303691Y-91530587D01*
X188454578Y-91560600D01*
X188608422Y-91560600D01*
X188759309Y-91530587D01*
X188901442Y-91471713D01*
X189029359Y-91386242D01*
X189138142Y-91277459D01*
X189223613Y-91149542D01*
X189282487Y-91007409D01*
X189312500Y-90856522D01*
X189312500Y-90728078D01*
X192005000Y-90728078D01*
X192005000Y-90881922D01*
X192035013Y-91032809D01*
X192093887Y-91174942D01*
X192179358Y-91302859D01*
X192288141Y-91411642D01*
X192416058Y-91497113D01*
X192558191Y-91555987D01*
X192709078Y-91586000D01*
X192862922Y-91586000D01*
X193013809Y-91555987D01*
X193155942Y-91497113D01*
X193283859Y-91411642D01*
X193392642Y-91302859D01*
X193478113Y-91174942D01*
X193536987Y-91032809D01*
X193567000Y-90881922D01*
X193567000Y-90804278D01*
X195205400Y-90804278D01*
X195205400Y-90958122D01*
X195235413Y-91109009D01*
X195294287Y-91251142D01*
X195379758Y-91379059D01*
X195488541Y-91487842D01*
X195616458Y-91573313D01*
X195758591Y-91632187D01*
X195909478Y-91662200D01*
X196063322Y-91662200D01*
X196214209Y-91632187D01*
X196356342Y-91573313D01*
X196484259Y-91487842D01*
X196593042Y-91379059D01*
X196678513Y-91251142D01*
X196737387Y-91109009D01*
X196767400Y-90958122D01*
X196767400Y-90804278D01*
X196737387Y-90653391D01*
X196678513Y-90511258D01*
X196593042Y-90383341D01*
X196484259Y-90274558D01*
X196356342Y-90189087D01*
X196214209Y-90130213D01*
X196063322Y-90100200D01*
X195909478Y-90100200D01*
X195758591Y-90130213D01*
X195616458Y-90189087D01*
X195488541Y-90274558D01*
X195379758Y-90383341D01*
X195294287Y-90511258D01*
X195235413Y-90653391D01*
X195205400Y-90804278D01*
X193567000Y-90804278D01*
X193567000Y-90728078D01*
X193536987Y-90577191D01*
X193478113Y-90435058D01*
X193392642Y-90307141D01*
X193283859Y-90198358D01*
X193155942Y-90112887D01*
X193013809Y-90054013D01*
X192862922Y-90024000D01*
X192709078Y-90024000D01*
X192558191Y-90054013D01*
X192416058Y-90112887D01*
X192288141Y-90198358D01*
X192179358Y-90307141D01*
X192093887Y-90435058D01*
X192035013Y-90577191D01*
X192005000Y-90728078D01*
X189312500Y-90728078D01*
X189312500Y-90702678D01*
X189282487Y-90551791D01*
X189223613Y-90409658D01*
X189138142Y-90281741D01*
X189029359Y-90172958D01*
X188910890Y-90093800D01*
X189029359Y-90014642D01*
X189138142Y-89905859D01*
X189223613Y-89777942D01*
X189282487Y-89635809D01*
X189312500Y-89484922D01*
X189312500Y-89331078D01*
X190277800Y-89331078D01*
X190277800Y-89484922D01*
X190307813Y-89635809D01*
X190366687Y-89777942D01*
X190452158Y-89905859D01*
X190560941Y-90014642D01*
X190688858Y-90100113D01*
X190830991Y-90158987D01*
X190981878Y-90189000D01*
X191135722Y-90189000D01*
X191286609Y-90158987D01*
X191428742Y-90100113D01*
X191556659Y-90014642D01*
X191665442Y-89905859D01*
X191750913Y-89777942D01*
X191809787Y-89635809D01*
X191839800Y-89484922D01*
X191839800Y-89331078D01*
X191809787Y-89180191D01*
X191750913Y-89038058D01*
X191665442Y-88910141D01*
X191556659Y-88801358D01*
X191428742Y-88715887D01*
X191286609Y-88657013D01*
X191135722Y-88627000D01*
X190981878Y-88627000D01*
X190830991Y-88657013D01*
X190688858Y-88715887D01*
X190560941Y-88801358D01*
X190452158Y-88910141D01*
X190366687Y-89038058D01*
X190307813Y-89180191D01*
X190277800Y-89331078D01*
X189312500Y-89331078D01*
X189282487Y-89180191D01*
X189223613Y-89038058D01*
X189138142Y-88910141D01*
X189029359Y-88801358D01*
X188901442Y-88715887D01*
X188759309Y-88657013D01*
X188608422Y-88627000D01*
X188454578Y-88627000D01*
X188303691Y-88657013D01*
X188161558Y-88715887D01*
X188033641Y-88801358D01*
X187924858Y-88910141D01*
X187839387Y-89038058D01*
X187780513Y-89180191D01*
X187750500Y-89331078D01*
X187267800Y-89331078D01*
X187237787Y-89180191D01*
X187178913Y-89038058D01*
X187093442Y-88910141D01*
X186984659Y-88801358D01*
X186856742Y-88715887D01*
X186714609Y-88657013D01*
X186563722Y-88627000D01*
X186409878Y-88627000D01*
X186258991Y-88657013D01*
X186116858Y-88715887D01*
X186055000Y-88757219D01*
X186055000Y-88111878D01*
X195053000Y-88111878D01*
X195053000Y-88265722D01*
X195083013Y-88416609D01*
X195141887Y-88558742D01*
X195227358Y-88686659D01*
X195336141Y-88795442D01*
X195464058Y-88880913D01*
X195606191Y-88939787D01*
X195757078Y-88969800D01*
X195910922Y-88969800D01*
X196061809Y-88939787D01*
X196203942Y-88880913D01*
X196331859Y-88795442D01*
X196440642Y-88686659D01*
X196526113Y-88558742D01*
X196584987Y-88416609D01*
X196615000Y-88265722D01*
X196615000Y-88111878D01*
X196584987Y-87960991D01*
X196526113Y-87818858D01*
X196440642Y-87690941D01*
X196331859Y-87582158D01*
X196203942Y-87496687D01*
X196061809Y-87437813D01*
X195910922Y-87407800D01*
X195757078Y-87407800D01*
X195606191Y-87437813D01*
X195464058Y-87496687D01*
X195336141Y-87582158D01*
X195227358Y-87690941D01*
X195141887Y-87818858D01*
X195083013Y-87960991D01*
X195053000Y-88111878D01*
X186055000Y-88111878D01*
X186055000Y-87171018D01*
X186083358Y-87213459D01*
X186192141Y-87322242D01*
X186320058Y-87407713D01*
X186462191Y-87466587D01*
X186613078Y-87496600D01*
X186766922Y-87496600D01*
X186917809Y-87466587D01*
X187059942Y-87407713D01*
X187187859Y-87322242D01*
X187296642Y-87213459D01*
X187382113Y-87085542D01*
X187440987Y-86943409D01*
X187471000Y-86792522D01*
X187471000Y-86638678D01*
X187440987Y-86487791D01*
X187382113Y-86345658D01*
X187296642Y-86217741D01*
X187187859Y-86108958D01*
X187059942Y-86023487D01*
X186917809Y-85964613D01*
X186766922Y-85934600D01*
X186613078Y-85934600D01*
X186462191Y-85964613D01*
X186320058Y-86023487D01*
X186192141Y-86108958D01*
X186083358Y-86217741D01*
X186055000Y-86260182D01*
X186055000Y-84222349D01*
X187397256Y-84222349D01*
X187511118Y-84502090D01*
X187826296Y-84657961D01*
X188165826Y-84749349D01*
X188516661Y-84772741D01*
X188865319Y-84727240D01*
X189198400Y-84614594D01*
X189408882Y-84502090D01*
X189522744Y-84222349D01*
X188460000Y-83159605D01*
X187397256Y-84222349D01*
X186055000Y-84222349D01*
X186055000Y-83036661D01*
X186667259Y-83036661D01*
X186712760Y-83385319D01*
X186825406Y-83718400D01*
X186937910Y-83928882D01*
X187217651Y-84042744D01*
X188280395Y-82980000D01*
X188639605Y-82980000D01*
X189702349Y-84042744D01*
X189982090Y-83928882D01*
X190137961Y-83613704D01*
X190229349Y-83274174D01*
X190252741Y-82923339D01*
X190240457Y-82829210D01*
X202329000Y-82829210D01*
X202329000Y-83130790D01*
X202387835Y-83426576D01*
X202503245Y-83705201D01*
X202670795Y-83955956D01*
X202884044Y-84169205D01*
X203134799Y-84336755D01*
X203413424Y-84452165D01*
X203709210Y-84511000D01*
X204010790Y-84511000D01*
X204306576Y-84452165D01*
X204585201Y-84336755D01*
X204835956Y-84169205D01*
X205049205Y-83955956D01*
X205216755Y-83705201D01*
X205332165Y-83426576D01*
X205391000Y-83130790D01*
X205391000Y-82829210D01*
X205332165Y-82533424D01*
X205216755Y-82254799D01*
X205133367Y-82130000D01*
X208471928Y-82130000D01*
X208484188Y-82254482D01*
X208520498Y-82374180D01*
X208579463Y-82484494D01*
X208658815Y-82581185D01*
X208755506Y-82660537D01*
X208865820Y-82719502D01*
X208985518Y-82755812D01*
X209110000Y-82768072D01*
X209574250Y-82765000D01*
X209733000Y-82606250D01*
X209733000Y-81507000D01*
X209987000Y-81507000D01*
X209987000Y-82606250D01*
X210145750Y-82765000D01*
X210610000Y-82768072D01*
X210734482Y-82755812D01*
X210854180Y-82719502D01*
X210964494Y-82660537D01*
X211061185Y-82581185D01*
X211140537Y-82484494D01*
X211199502Y-82374180D01*
X211235812Y-82254482D01*
X211248072Y-82130000D01*
X213671928Y-82130000D01*
X213684188Y-82254482D01*
X213720498Y-82374180D01*
X213779463Y-82484494D01*
X213858815Y-82581185D01*
X213955506Y-82660537D01*
X214065820Y-82719502D01*
X214185518Y-82755812D01*
X214310000Y-82768072D01*
X214774250Y-82765000D01*
X214933000Y-82606250D01*
X214933000Y-81507000D01*
X215187000Y-81507000D01*
X215187000Y-82606250D01*
X215345750Y-82765000D01*
X215810000Y-82768072D01*
X215934482Y-82755812D01*
X216054180Y-82719502D01*
X216164494Y-82660537D01*
X216193308Y-82636890D01*
X218864524Y-82636890D01*
X218909175Y-82784099D01*
X219034359Y-83046920D01*
X219208412Y-83280269D01*
X219424645Y-83475178D01*
X219674748Y-83624157D01*
X219837168Y-83681772D01*
X219722903Y-83729102D01*
X219521283Y-83863820D01*
X219349820Y-84035283D01*
X219215102Y-84236903D01*
X219122307Y-84460931D01*
X219075000Y-84698757D01*
X219075000Y-84941243D01*
X219122307Y-85179069D01*
X219215102Y-85403097D01*
X219349820Y-85604717D01*
X219521283Y-85776180D01*
X219722903Y-85910898D01*
X219946931Y-86003693D01*
X220184757Y-86051000D01*
X220427243Y-86051000D01*
X220665069Y-86003693D01*
X220889097Y-85910898D01*
X221090717Y-85776180D01*
X221262180Y-85604717D01*
X221396898Y-85403097D01*
X221489693Y-85179069D01*
X221537000Y-84941243D01*
X221537000Y-84698757D01*
X221489693Y-84460931D01*
X221396898Y-84236903D01*
X221262180Y-84035283D01*
X221090717Y-83863820D01*
X220889097Y-83729102D01*
X220774832Y-83681772D01*
X220937252Y-83624157D01*
X221187355Y-83475178D01*
X221403588Y-83280269D01*
X221577641Y-83046920D01*
X221702825Y-82784099D01*
X221747476Y-82636890D01*
X221626155Y-82407000D01*
X220433000Y-82407000D01*
X220433000Y-82427000D01*
X220179000Y-82427000D01*
X220179000Y-82407000D01*
X218985845Y-82407000D01*
X218864524Y-82636890D01*
X216193308Y-82636890D01*
X216261185Y-82581185D01*
X216340537Y-82484494D01*
X216399502Y-82374180D01*
X216435812Y-82254482D01*
X216448072Y-82130000D01*
X216446703Y-81923110D01*
X218864524Y-81923110D01*
X218985845Y-82153000D01*
X220179000Y-82153000D01*
X220179000Y-80959186D01*
X220433000Y-80959186D01*
X220433000Y-82153000D01*
X221626155Y-82153000D01*
X221747476Y-81923110D01*
X222840524Y-81923110D01*
X222961845Y-82153000D01*
X224155000Y-82153000D01*
X224155000Y-80959186D01*
X224409000Y-80959186D01*
X224409000Y-82153000D01*
X225602155Y-82153000D01*
X225723476Y-81923110D01*
X225678825Y-81775901D01*
X225553641Y-81513080D01*
X225379588Y-81279731D01*
X225163355Y-81084822D01*
X224913252Y-80935843D01*
X224638891Y-80838519D01*
X224409000Y-80959186D01*
X224155000Y-80959186D01*
X223925109Y-80838519D01*
X223650748Y-80935843D01*
X223400645Y-81084822D01*
X223184412Y-81279731D01*
X223010359Y-81513080D01*
X222885175Y-81775901D01*
X222840524Y-81923110D01*
X221747476Y-81923110D01*
X221702825Y-81775901D01*
X221577641Y-81513080D01*
X221403588Y-81279731D01*
X221187355Y-81084822D01*
X220937252Y-80935843D01*
X220662891Y-80838519D01*
X220433000Y-80959186D01*
X220179000Y-80959186D01*
X219949109Y-80838519D01*
X219674748Y-80935843D01*
X219424645Y-81084822D01*
X219208412Y-81279731D01*
X219034359Y-81513080D01*
X218909175Y-81775901D01*
X218864524Y-81923110D01*
X216446703Y-81923110D01*
X216445000Y-81665750D01*
X216286250Y-81507000D01*
X215187000Y-81507000D01*
X214933000Y-81507000D01*
X213833750Y-81507000D01*
X213675000Y-81665750D01*
X213671928Y-82130000D01*
X211248072Y-82130000D01*
X211245000Y-81665750D01*
X211086250Y-81507000D01*
X209987000Y-81507000D01*
X209733000Y-81507000D01*
X208633750Y-81507000D01*
X208475000Y-81665750D01*
X208471928Y-82130000D01*
X205133367Y-82130000D01*
X205049205Y-82004044D01*
X204835956Y-81790795D01*
X204585201Y-81623245D01*
X204306576Y-81507835D01*
X204010790Y-81449000D01*
X203709210Y-81449000D01*
X203413424Y-81507835D01*
X203134799Y-81623245D01*
X202884044Y-81790795D01*
X202670795Y-82004044D01*
X202503245Y-82254799D01*
X202387835Y-82533424D01*
X202329000Y-82829210D01*
X190240457Y-82829210D01*
X190207240Y-82574681D01*
X190094594Y-82241600D01*
X189982090Y-82031118D01*
X189702349Y-81917256D01*
X188639605Y-82980000D01*
X188280395Y-82980000D01*
X187217651Y-81917256D01*
X186937910Y-82031118D01*
X186782039Y-82346296D01*
X186690651Y-82685826D01*
X186667259Y-83036661D01*
X186055000Y-83036661D01*
X186055000Y-81737651D01*
X187397256Y-81737651D01*
X188460000Y-82800395D01*
X189522744Y-81737651D01*
X189408882Y-81457910D01*
X189093704Y-81302039D01*
X188754174Y-81210651D01*
X188403339Y-81187259D01*
X188054681Y-81232760D01*
X187721600Y-81345406D01*
X187511118Y-81457910D01*
X187397256Y-81737651D01*
X186055000Y-81737651D01*
X186055000Y-80543241D01*
X208483237Y-80515171D01*
X208471928Y-80630000D01*
X208475000Y-81094250D01*
X208633750Y-81253000D01*
X209733000Y-81253000D01*
X209733000Y-81233000D01*
X209987000Y-81233000D01*
X209987000Y-81253000D01*
X211086250Y-81253000D01*
X211245000Y-81094250D01*
X211248072Y-80630000D01*
X211236423Y-80511725D01*
X213683878Y-80508662D01*
X213671928Y-80630000D01*
X213675000Y-81094250D01*
X213833750Y-81253000D01*
X214933000Y-81253000D01*
X214933000Y-81233000D01*
X215187000Y-81233000D01*
X215187000Y-81253000D01*
X216286250Y-81253000D01*
X216445000Y-81094250D01*
X216448072Y-80630000D01*
X216435812Y-80505518D01*
X216435721Y-80505218D01*
X226390702Y-80492759D01*
X226463931Y-99019764D01*
M02*
